<?xml version="1.0" encoding="UTF-8"?>
<svg version="1.1" xmlns="http://www.w3.org/2000/svg" width="297" height="110">
<path d="M0 0 C0.98152039 -0.02251831 1.96304077 -0.04503662 2.9743042 -0.0682373 C7.47009671 -0.13917918 11.96572226 -0.19676298 16.46191406 -0.23535156 C18.8325622 -0.26196618 21.20309436 -0.30289911 23.57324219 -0.35839844 C26.99103605 -0.43750521 30.40662032 -0.47065648 33.82519531 -0.49414062 C35.40986603 -0.54362854 35.40986603 -0.54362854 37.02655029 -0.59411621 C38.02067932 -0.59141724 39.01480835 -0.58871826 40.0390625 -0.5859375 C40.90795105 -0.59846558 41.7768396 -0.61099365 42.67205811 -0.62390137 C45.75316732 0.37920348 46.0087324 1.12960403 47.77542114 3.72283936 C49.794687 6.24030989 50.8283475 7.11733639 54.00456238 7.87454224 C57.54075258 8.10565742 61.02049488 8.12109431 64.56396484 8.06347656 C65.9179585 8.06645588 67.27194833 8.0725549 68.62591553 8.08152771 C71.53353585 8.09413451 74.43995306 8.08479966 77.34747696 8.05821991 C81.9447788 8.01632796 86.54121701 8.02352826 91.13864136 8.03717041 C98.40830757 8.05292684 105.67746291 8.03573191 112.94706523 8.00449967 C125.97115422 7.9491727 138.99525664 7.94062891 152.01944053 7.95800328 C156.58967165 7.96267261 161.15943002 7.94990262 165.72958016 7.92289782 C168.57048496 7.90863187 171.41131403 7.90634444 174.25225067 7.90693855 C176.19808932 7.90341691 178.14388202 7.88474508 180.08963013 7.86564636 C181.24761108 7.86806839 182.40559204 7.87049042 183.59866333 7.87298584 C184.6048427 7.86850307 185.61102207 7.86402031 186.64769173 7.8594017 C189.73290947 8.28771956 191.10487827 9.00895665 193.27832031 11.22460938 C194.21575894 19.1885375 192.29299602 27.21127665 190.87963867 35.04541016 C190.4658792 37.34928148 190.06962853 39.65570775 189.67480469 41.96289062 C189.41217855 43.44875292 189.14854094 44.93443687 188.88378906 46.41992188 C188.76803024 47.09926788 188.65227142 47.77861389 188.53300476 48.47854614 C187.67868606 53.11808044 186.36225838 57.02202875 184.27832031 61.22460938 C181.18661728 62.77046089 177.92736627 62.36520657 174.53442383 62.35832214 C173.72558274 62.3605877 172.91674166 62.36285326 172.08339024 62.36518747 C169.35798805 62.37154583 166.63263537 62.37069693 163.90722656 62.36987305 C161.95946182 62.37286336 160.01169768 62.37626559 158.06393433 62.38005066 C152.76243149 62.38890699 147.46094479 62.39122943 142.15943527 62.39186645 C137.74060806 62.39281407 133.32178463 62.39649059 128.90295887 62.40003854 C118.48283001 62.40818899 108.0627098 62.4106222 97.64257812 62.40991211 C86.8759776 62.40931086 76.1094271 62.41987064 65.34283924 62.43565577 C56.11311767 62.44870791 46.88341249 62.454097 37.65368176 62.4534567 C32.13491751 62.45320106 26.61619772 62.45608826 21.09744263 62.46663475 C15.91007855 62.47627692 10.72280178 62.47642176 5.53543472 62.46911812 C3.62700397 62.46806748 1.71856789 62.47046329 -0.18985367 62.47647858 C-2.78593471 62.48413411 -5.38170932 62.47959689 -7.9777832 62.47184753 C-8.74100104 62.4769911 -9.50421888 62.48213466 -10.29056454 62.48743409 C-15.49340828 62.45288079 -15.49340828 62.45288079 -17.72167969 60.22460938 C-18.10716699 53.5130813 -17.26111255 47.27175521 -16.07714844 40.67773438 C-15.9066951 39.70350525 -15.73624176 38.72927612 -15.56062317 37.7255249 C-15.20047368 35.68107369 -14.83637589 33.63731441 -14.46850586 31.59423828 C-13.90869726 28.47191867 -13.36823561 25.34665088 -12.82910156 22.22070312 C-12.47544617 20.22700701 -12.12066731 18.23350979 -11.76464844 16.24023438 C-11.60514206 15.30995422 -11.44563568 14.37967407 -11.28129578 13.42120361 C-10.43613604 8.8159438 -9.65450235 5.01772031 -6.72167969 1.22460938 C-4.30715839 0.01734872 -2.69839543 0.05888869 0 0 Z M172.27832031 15.22460938 C171.94832031 15.88460937 171.61832031 16.54460938 171.27832031 17.22460938 C174.24832031 17.22460938 177.21832031 17.22460938 180.27832031 17.22460938 C180.27832031 16.56460938 180.27832031 15.90460937 180.27832031 15.22460938 C177.63832031 15.22460938 174.99832031 15.22460938 172.27832031 15.22460938 Z M50.27832031 20.22460938 C48.17747136 25.80794668 47.19116882 31.49921892 46.15332031 37.34960938 C45.88068359 38.83267578 45.88068359 38.83267578 45.60253906 40.34570312 C44.87178039 44.40608403 44.27832031 48.08288688 44.27832031 52.22460938 C45.59832031 52.22460938 46.91832031 52.22460938 48.27832031 52.22460938 C48.60832031 48.26460937 48.93832031 44.30460937 49.27832031 40.22460938 C51.25832031 39.89460938 53.23832031 39.56460938 55.27832031 39.22460938 C55.13394531 39.82789062 54.98957031 40.43117188 54.84082031 41.05273438 C54.65519531 41.85195312 54.46957031 42.65117188 54.27832031 43.47460938 C54.09269531 44.26351562 53.90707031 45.05242187 53.71582031 45.86523438 C53.15677203 48.48016939 53.15677203 48.48016939 53.27832031 52.22460938 C54.59832031 51.89460938 55.91832031 51.56460938 57.27832031 51.22460938 C58.92832031 40.99460937 60.57832031 30.76460937 62.27832031 20.22460938 C58.31832031 20.22460938 54.35832031 20.22460938 50.27832031 20.22460938 Z M66.27832031 20.22460938 C62.86473049 36.09399187 62.86473049 36.09399187 61.27832031 52.22460938 C62.26832031 52.22460938 63.25832031 52.22460938 64.27832031 52.22460938 C65.26832031 48.92460938 66.25832031 45.62460938 67.27832031 42.22460938 C67.93832031 45.52460937 68.59832031 48.82460937 69.27832031 52.22460938 C70.59832031 51.89460938 71.91832031 51.56460938 73.27832031 51.22460938 C73.05273438 50.38800781 72.82714844 49.55140625 72.59472656 48.68945312 C70.51593493 38.96329331 72.0238564 33.74484963 76.67675781 25.20898438 C78.43594077 22.4953904 78.43594077 22.4953904 78.27832031 20.22460938 C76.95832031 20.22460938 75.63832031 20.22460938 74.27832031 20.22460938 C72.29832031 24.84460938 70.31832031 29.46460938 68.27832031 34.22460938 C68.93832031 29.60460937 69.59832031 24.98460937 70.27832031 20.22460938 C68.95832031 20.22460938 67.63832031 20.22460938 66.27832031 20.22460938 Z M81.27832031 20.22460938 C77.97356552 36.11102297 77.97356552 36.11102297 76.27832031 52.22460938 C77.59832031 52.22460938 78.91832031 52.22460938 80.27832031 52.22460938 C80.93832031 48.26460937 81.59832031 44.30460937 82.27832031 40.22460938 C84.0178869 41.96417596 83.65022417 44.41827158 83.84082031 46.78710938 C83.92460937 47.79902344 84.00839844 48.8109375 84.09472656 49.85351562 C84.18560547 51.02720703 84.18560547 51.02720703 84.27832031 52.22460938 C85.59832031 52.22460938 86.91832031 52.22460938 88.27832031 52.22460938 C88.24351562 51.24878906 88.20871094 50.27296875 88.17285156 49.26757812 C88.14578125 47.99527344 88.11871094 46.72296875 88.09082031 45.41210938 C88.05601562 44.14753906 88.02121094 42.88296875 87.98535156 41.58007812 C88.30810405 37.88348632 88.63778451 37.51527419 91.27832031 35.22460938 C92.06970805 32.90187541 92.06970805 32.90187541 92.46582031 30.34960938 C92.624375 29.5065625 92.78292969 28.66351563 92.94628906 27.79492188 C93.38508265 24.83008818 93.38508265 24.83008818 93.27832031 20.22460938 C89.31832031 20.22460938 85.35832031 20.22460938 81.27832031 20.22460938 Z M98.27832031 20.22460938 C96.25995532 23.25215686 95.81330166 24.83308402 95.20800781 28.33789062 C95.03398437 29.33884766 94.85996094 30.33980469 94.68066406 31.37109375 C94.50664062 32.41587891 94.33261719 33.46066406 94.15332031 34.53710938 C93.9715625 35.57029297 93.78980469 36.60347656 93.60253906 37.66796875 C92.76738099 42.56274858 92.02086102 47.23848113 92.27832031 52.22460938 C93.26832031 52.22460938 94.25832031 52.22460938 95.27832031 52.22460938 C95.60832031 50.98710938 95.93832031 49.74960938 96.27832031 48.47460938 C96.46394531 47.77851562 96.64957031 47.08242187 96.84082031 46.36523438 C97.4118138 43.93559076 97.4118138 43.93559076 97.27832031 40.22460938 C98.92832031 39.89460938 100.57832031 39.56460938 102.27832031 39.22460938 C101.61832031 43.51460937 100.95832031 47.80460937 100.27832031 52.22460938 C101.59832031 52.22460938 102.91832031 52.22460938 104.27832031 52.22460938 C107.5868411 36.33870632 107.5868411 36.33870632 109.27832031 20.22460938 C107.4873884 20.1437479 105.69542403 20.08548235 103.90332031 20.03710938 C102.90558594 20.00230469 101.90785156 19.9675 100.87988281 19.93164062 C99.59210938 20.07666016 99.59210938 20.07666016 98.27832031 20.22460938 Z M114.27832031 20.22460938 C111.60101071 30.8009317 109.88361491 41.44294991 108.27832031 52.22460938 C109.59832031 52.22460938 110.91832031 52.22460938 112.27832031 52.22460938 C112.48134766 50.97744141 112.48134766 50.97744141 112.68847656 49.70507812 C114.43142755 40.90682855 114.43142755 40.90682855 116.96582031 38.86523438 C118.84082031 38.16210938 118.84082031 38.16210938 122.27832031 37.22460938 C124.53534534 33.83907183 124.87670028 31.59499486 125.46582031 27.59960938 C125.645 26.43171875 125.82417969 25.26382813 126.00878906 24.06054688 C126.09773438 23.1246875 126.18667969 22.18882813 126.27832031 21.22460938 C125.21853098 19.93848262 125.21853098 19.93848262 122.77441406 20.12695312 C121.76507813 20.13855469 120.75574219 20.15015625 119.71582031 20.16210938 C118.70390625 20.17113281 117.69199219 20.18015625 116.64941406 20.18945312 C115.86695313 20.20105469 115.08449219 20.21265625 114.27832031 20.22460938 Z M129.27832031 22.22460938 C128.62950433 24.52325578 128.62950433 24.52325578 128.20800781 27.20507812 C128.03398437 28.20474609 127.85996094 29.20441406 127.68066406 30.234375 C127.50664062 31.28302734 127.33261719 32.33167969 127.15332031 33.41210938 C126.9715625 34.44142578 126.78980469 35.47074219 126.60253906 36.53125 C125.69890342 41.83416441 125.05008008 46.84574792 125.27832031 52.22460938 C128.90832031 52.22460938 132.53832031 52.22460938 136.27832031 52.22460938 C137.73742214 48.5768548 138.66578758 45.85350725 139.34863281 42.09960938 C139.52265625 41.14570312 139.69667969 40.19179688 139.87597656 39.20898438 C140.05 38.22414063 140.22402344 37.23929688 140.40332031 36.22460938 C140.58507812 35.23976563 140.76683594 34.25492188 140.95410156 33.24023438 C141.74660426 28.83082085 142.38198288 24.71732505 142.27832031 20.22460938 C140.48698054 20.17068945 138.69518132 20.13185366 136.90332031 20.09960938 C135.90558594 20.07640625 134.90785156 20.05320312 133.87988281 20.02929688 C131.11569858 19.95244089 131.11569858 19.95244089 129.27832031 22.22460938 Z M145.27832031 20.22460938 C144.54572949 30.91258618 144.13795433 41.51000632 144.27832031 52.22460938 C145.92832031 51.89460938 147.57832031 51.56460938 149.27832031 51.22460938 C152.24832031 40.99460937 155.21832031 30.76460937 158.27832031 20.22460938 C156.95832031 20.22460938 155.63832031 20.22460938 154.27832031 20.22460938 C151.30832031 30.61960938 151.30832031 30.61960938 148.27832031 41.22460938 C148.60832031 34.29460938 148.93832031 27.36460938 149.27832031 20.22460938 C147.95832031 20.22460938 146.63832031 20.22460938 145.27832031 20.22460938 Z M161.27832031 20.22460938 C160.43761821 24.61906659 159.60704681 29.01537934 158.77832031 33.41210938 C158.53984375 34.65798828 158.30136719 35.90386719 158.05566406 37.1875 C157.83007812 38.38955078 157.60449219 39.59160156 157.37207031 40.83007812 C157.16259766 41.93504639 156.953125 43.04001465 156.73730469 44.1784668 C156.32378826 46.92285217 156.18822283 49.45636412 156.27832031 52.22460938 C157.26832031 52.22460938 158.25832031 52.22460938 159.27832031 52.22460938 C161.95562991 41.64828705 163.67302571 31.00626884 165.27832031 20.22460938 C163.95832031 20.22460938 162.63832031 20.22460938 161.27832031 20.22460938 Z M168.27832031 22.22460938 C167.62950433 24.52325578 167.62950433 24.52325578 167.20800781 27.20507812 C167.03398437 28.20474609 166.85996094 29.20441406 166.68066406 30.234375 C166.50664062 31.28302734 166.33261719 32.33167969 166.15332031 33.41210938 C165.9715625 34.44142578 165.78980469 35.47074219 165.60253906 36.53125 C164.69890342 41.83416441 164.05008008 46.84574792 164.27832031 52.22460938 C167.90832031 52.22460938 171.53832031 52.22460938 175.27832031 52.22460938 C176.93386733 48.91351534 177.55764751 47.43133737 177.90332031 43.97460938 C178.02707031 42.73710938 178.15082031 41.49960938 178.27832031 40.22460938 C176.95832031 40.22460938 175.63832031 40.22460938 174.27832031 40.22460938 C173.94832031 43.19460937 173.61832031 46.16460937 173.27832031 49.22460938 C171.62832031 49.22460938 169.97832031 49.22460938 168.27832031 49.22460938 C168.39949219 48.54358154 168.52066406 47.86255371 168.64550781 47.16088867 C169.19242619 44.07842515 169.73541771 40.9952826 170.27832031 37.91210938 C170.46910156 36.84025391 170.65988281 35.76839844 170.85644531 34.6640625 C171.03691406 33.63603516 171.21738281 32.60800781 171.40332031 31.54882812 C171.6546875 30.12703247 171.6546875 30.12703247 171.91113281 28.67651367 C172.35237256 26.1433312 172.35237256 26.1433312 172.27832031 23.22460938 C173.92832031 23.22460938 175.57832031 23.22460938 177.27832031 23.22460938 C176.94832031 25.53460938 176.61832031 27.84460938 176.27832031 30.22460938 C177.59832031 30.22460938 178.91832031 30.22460938 180.27832031 30.22460938 C180.60832031 26.92460938 180.93832031 23.62460937 181.27832031 20.22460938 C179.48698054 20.17068945 177.69518132 20.13185366 175.90332031 20.09960938 C174.90558594 20.07640625 173.90785156 20.05320312 172.87988281 20.02929688 C170.11569858 19.95244089 170.11569858 19.95244089 168.27832031 22.22460938 Z " fill="#0F0E0E" transform="translate(60.7216796875,23.775390625)"/>
<path d="M0 0 C0.98152039 -0.02251831 1.96304077 -0.04503662 2.9743042 -0.0682373 C7.47009671 -0.13917918 11.96572226 -0.19676298 16.46191406 -0.23535156 C18.8325622 -0.26196618 21.20309436 -0.30289911 23.57324219 -0.35839844 C26.99103605 -0.43750521 30.40662032 -0.47065648 33.82519531 -0.49414062 C35.40986603 -0.54362854 35.40986603 -0.54362854 37.02655029 -0.59411621 C38.02067932 -0.59141724 39.01480835 -0.58871826 40.0390625 -0.5859375 C40.90795105 -0.59846558 41.7768396 -0.61099365 42.67205811 -0.62390137 C45.75316732 0.37920348 46.0087324 1.12960403 47.77542114 3.72283936 C49.794687 6.24030989 50.8283475 7.11733639 54.00456238 7.87454224 C57.54075258 8.10565742 61.02049488 8.12109431 64.56396484 8.06347656 C65.9179585 8.06645588 67.27194833 8.0725549 68.62591553 8.08152771 C71.53353585 8.09413451 74.43995306 8.08479966 77.34747696 8.05821991 C81.9447788 8.01632796 86.54121701 8.02352826 91.13864136 8.03717041 C98.40830757 8.05292684 105.67746291 8.03573191 112.94706523 8.00449967 C125.97115422 7.9491727 138.99525664 7.94062891 152.01944053 7.95800328 C156.58967165 7.96267261 161.15943002 7.94990262 165.72958016 7.92289782 C168.57048496 7.90863187 171.41131403 7.90634444 174.25225067 7.90693855 C176.19808932 7.90341691 178.14388202 7.88474508 180.08963013 7.86564636 C181.24761108 7.86806839 182.40559204 7.87049042 183.59866333 7.87298584 C184.6048427 7.86850307 185.61102207 7.86402031 186.64769173 7.8594017 C189.70177482 8.28339716 191.07608632 9.09700213 193.27832031 11.22460938 C193.70410156 13.41601562 193.70410156 13.41601562 193.59082031 15.78710938 C193.56632813 16.57214844 193.54183594 17.3571875 193.51660156 18.16601562 C193.27832031 20.22460938 193.27832031 20.22460938 192.27832031 22.22460938 C189.76748917 20.9691938 189.40706585 19.7239745 188.27832031 17.22460938 C187.61832031 19.20460938 186.95832031 21.18460938 186.27832031 23.22460938 C185.61832031 22.89460938 184.95832031 22.56460938 184.27832031 22.22460938 C183.61832031 22.88460937 182.95832031 23.54460938 182.27832031 24.22460938 C181.94832031 22.90460937 181.61832031 21.58460937 181.27832031 20.22460938 C175.83332031 20.71960937 175.83332031 20.71960937 170.27832031 21.22460938 C168.66777687 26.49738856 167.56595823 31.72818872 166.65332031 37.16210938 C166.51925781 37.94134766 166.38519531 38.72058594 166.24707031 39.5234375 C165.92072351 41.42324209 165.59903409 43.32384575 165.27832031 45.22460938 C163.62832031 45.22460938 161.97832031 45.22460938 160.27832031 45.22460938 C161.59832031 37.30460937 162.91832031 29.38460937 164.27832031 21.22460938 C163.28832031 20.89460938 162.29832031 20.56460938 161.27832031 20.22460938 C161.14554688 21.51238281 161.01277344 22.80015625 160.87597656 24.12695312 C160.32932509 29.04681635 159.55480101 33.90978141 158.71582031 38.78710938 C158.57724609 39.60501953 158.43867188 40.42292969 158.29589844 41.265625 C157.95897041 43.25233852 157.61897447 45.23853137 157.27832031 47.22460938 C156.61832031 46.56460938 155.95832031 45.90460938 155.27832031 45.22460938 C154.94832031 45.55460937 154.61832031 45.88460937 154.27832031 46.22460938 C152.95832031 46.22460938 151.63832031 46.22460938 150.27832031 46.22460938 C152.28666949 37.78041397 154.6500586 29.49629598 157.27832031 21.22460938 C156.28832031 20.89460938 155.29832031 20.56460938 154.27832031 20.22460938 C154.01277344 21.3821875 153.74722656 22.53976563 153.47363281 23.73242188 C153.11701268 25.2715193 152.76023341 26.81057986 152.40332031 28.34960938 C152.22929687 29.11015625 152.05527344 29.87070312 151.87597656 30.65429688 C150.88033603 34.93186362 149.74860642 39.07866747 148.27832031 43.22460938 C147.94832031 43.22460938 147.61832031 43.22460938 147.27832031 43.22460938 C147.42008452 40.51600813 147.56660247 37.80780185 147.71582031 35.09960938 C147.75513672 34.3390625 147.79445312 33.57851563 147.83496094 32.79492188 C148.07341033 28.53951735 148.48062268 24.42090112 149.27832031 20.22460938 C147.95832031 20.22460938 146.63832031 20.22460938 145.27832031 20.22460938 C145.34019531 20.98773438 145.40207031 21.75085938 145.46582031 22.53710938 C145.27832031 25.22460938 145.27832031 25.22460938 143.77832031 27.03710938 C143.28332031 27.42898437 142.78832031 27.82085937 142.27832031 28.22460938 C141.27832031 25.22460937 141.27832031 25.22460937 142.27832031 20.22460938 C136.83332031 20.71960937 136.83332031 20.71960937 131.27832031 21.22460938 C130.98957031 22.31773438 130.70082031 23.41085938 130.40332031 24.53710938 C129.27832031 28.22460937 129.27832031 28.22460937 127.27832031 31.22460938 C126.94832031 30.89460938 126.61832031 30.56460938 126.27832031 30.22460938 C125.28832031 31.70960937 125.28832031 31.70960937 124.27832031 33.22460938 C124.60832031 29.26460937 124.93832031 25.30460937 125.27832031 21.22460938 C121.64832031 20.89460938 118.01832031 20.56460938 114.27832031 20.22460938 C112.62832031 29.79460938 110.97832031 39.36460938 109.27832031 49.22460938 C108.28832031 49.22460938 107.29832031 49.22460938 106.27832031 49.22460938 C104.59125172 43.09174366 106.05500149 37.45048241 107.21582031 31.34960938 C107.41111328 30.2796875 107.60640625 29.20976563 107.80761719 28.10742188 C108.28886652 25.47815725 108.78238635 22.85114376 109.27832031 20.22460938 C105.64832031 20.55460937 102.01832031 20.88460937 98.27832031 21.22460938 C97.98957031 22.37960938 97.70082031 23.53460938 97.40332031 24.72460938 C97.12101562 25.81128906 97.12101562 25.81128906 96.83300781 26.91992188 C96.25356116 29.20288258 96.25356116 29.20288258 95.91113281 31.46679688 C95.52832031 33.59960938 95.52832031 33.59960938 94.27832031 37.22460938 C91.15332031 38.72460938 91.15332031 38.72460938 88.27832031 39.22460938 C88.27832031 38.56460938 88.27832031 37.90460937 88.27832031 37.22460938 C88.93832031 37.22460938 89.59832031 37.22460938 90.27832031 37.22460938 C91.26832031 31.61460938 92.25832031 26.00460938 93.27832031 20.22460938 C89.31832031 20.22460938 85.35832031 20.22460938 81.27832031 20.22460938 C80.61832031 25.17460938 79.95832031 30.12460937 79.27832031 35.22460938 C77.95832031 35.55460937 76.63832031 35.88460937 75.27832031 36.22460938 C73.27832031 33.22460937 73.27832031 33.22460937 73.40332031 31.03710938 C74.59668155 27.20130541 76.39140468 23.76147915 78.27832031 20.22460938 C76.95832031 20.22460938 75.63832031 20.22460938 74.27832031 20.22460938 C74.11009766 21.29775391 74.11009766 21.29775391 73.93847656 22.39257812 C73.23376026 25.41576936 72.14544233 27.78783626 70.71582031 30.53710938 C70.26078125 31.42011719 69.80574219 32.303125 69.33691406 33.21289062 C68.98757812 33.87675781 68.63824219 34.540625 68.27832031 35.22460938 C67.11994459 31.74948219 67.50566088 30.08790652 68.21582031 26.53710938 C68.41046875 25.54324219 68.60511719 24.549375 68.80566406 23.52539062 C69.03962891 22.38650391 69.03962891 22.38650391 69.27832031 21.22460938 C67.79332031 20.72960938 67.79332031 20.72960938 66.27832031 20.22460938 C66.14554687 21.165625 66.01277344 22.10664062 65.87597656 23.07617188 C65.699375 24.32140625 65.52277344 25.56664063 65.34082031 26.84960938 C65.07978516 28.69425781 65.07978516 28.69425781 64.81347656 30.57617188 C64.3405773 33.80017122 63.82681029 37.01273113 63.27832031 40.22460938 C61.79332031 39.72960938 61.79332031 39.72960938 60.27832031 39.22460938 C59.18464935 34.45881143 59.51196312 31.06872957 60.71582031 26.34960938 C61.00328125 25.1971875 61.29074219 24.04476562 61.58691406 22.85742188 C61.81507812 21.98859375 62.04324219 21.11976562 62.27832031 20.22460938 C58.31832031 20.55460937 54.35832031 20.88460937 50.27832031 21.22460938 C49.78332031 22.70960937 49.78332031 22.70960937 49.27832031 24.22460938 C47.29832031 24.88460937 45.31832031 25.54460938 43.27832031 26.22460938 C41.62832031 34.47460938 39.97832031 42.72460938 38.27832031 51.22460938 C36.29832031 51.71960938 36.29832031 51.71960938 34.27832031 52.22460938 C34.47022949 51.70761475 34.66213867 51.19062012 34.85986328 50.65795898 C37.05842682 44.44964734 38.32016289 38.27305601 39.40332031 31.78710938 C39.73656451 29.82961771 40.07237187 27.87256012 40.41113281 25.91601562 C40.55437988 25.06209229 40.69762695 24.20816895 40.84521484 23.32836914 C41.27832031 21.22460938 41.27832031 21.22460938 42.27832031 19.22460938 C35.52277735 23.76210352 31.36908714 27.19536847 29.58300781 35.31835938 C29.48246094 35.94742188 29.38191406 36.57648437 29.27832031 37.22460938 C24.8516027 35.62255919 22.43385927 32.24023525 19.52832031 28.72460938 C19.02171875 28.13035156 18.51511719 27.53609375 17.99316406 26.92382812 C14.27832031 22.48804435 14.27832031 22.48804435 14.27832031 20.22460938 C20.71332031 19.72960938 20.71332031 19.72960938 27.27832031 19.22460938 C27.77332031 17.73960938 27.77332031 17.73960938 28.27832031 16.22460938 C30.25907059 14.86284356 32.25911695 13.52867822 34.27832031 12.22460938 C34.60832031 11.56460938 34.93832031 10.90460937 35.27832031 10.22460938 C31.07871427 10.31835739 26.8796572 10.42449743 22.68066406 10.54199219 C21.25301633 10.58020962 19.82527468 10.61507509 18.39746094 10.64648438 C16.34178163 10.69229338 14.28674478 10.75025918 12.23144531 10.81054688 C10.99555664 10.84196777 9.75966797 10.87338867 8.48632812 10.90576172 C5.49149049 11.20342214 3.74887846 11.55657506 1.27832031 13.22460938 C-0.16295409 16.10715818 -0.06137786 18.02063801 0.27832031 21.22460938 C2.20464183 24.30236082 2.20464183 24.30236082 4.77832031 27.09960938 C5.61363281 28.06640625 6.44894531 29.03320312 7.30957031 30.02929688 C7.95925781 30.75375 8.60894531 31.47820313 9.27832031 32.22460938 C8.48554687 33.0109375 7.69277344 33.79726563 6.87597656 34.60742188 C4.38520425 37.04119118 4.38520425 37.04119118 2.71582031 39.09960938 C2.24144531 39.47085938 1.76707031 39.84210937 1.27832031 40.22460938 C-0.90917969 39.91210938 -0.90917969 39.91210938 -2.72167969 39.22460938 C-2.39167969 38.23460937 -2.06167969 37.24460938 -1.72167969 36.22460938 C-0.23667969 35.72960938 -0.23667969 35.72960938 1.27832031 35.22460938 C1.60832031 34.56460938 1.93832031 33.90460937 2.27832031 33.22460938 C1.61832031 32.89460938 0.95832031 32.56460938 0.27832031 32.22460938 C0.60832031 31.23460938 0.93832031 30.24460937 1.27832031 29.22460938 C0.61832031 29.22460938 -0.04167969 29.22460938 -0.72167969 29.22460938 C-0.68042969 28.50273438 -0.63917969 27.78085937 -0.59667969 27.03710938 C-0.73158249 24.00179621 -1.55218782 22.00215257 -2.72167969 19.22460938 C-2.72167969 18.23460938 -2.72167969 17.24460937 -2.72167969 16.22460938 C-4.70167969 17.21460938 -4.70167969 17.21460938 -6.72167969 18.22460938 C-6.72167969 14.22460938 -6.72167969 14.22460938 -5.22167969 12.47460938 C-4.72667969 12.06210937 -4.23167969 11.64960937 -3.72167969 11.22460938 C-4.71167969 11.22460938 -5.70167969 11.22460938 -6.72167969 11.22460938 C-7.05167969 12.21460938 -7.38167969 13.20460938 -7.72167969 14.22460938 C-8.38167969 14.22460938 -9.04167969 14.22460938 -9.72167969 14.22460938 C-10.16074889 5.58958182 -10.16074889 5.58958182 -6.72167969 1.22460938 C-4.30715839 0.01734872 -2.69839543 0.05888869 0 0 Z M172.27832031 15.22460938 C171.94832031 15.88460937 171.61832031 16.54460938 171.27832031 17.22460938 C174.24832031 17.22460938 177.21832031 17.22460938 180.27832031 17.22460938 C180.27832031 16.56460938 180.27832031 15.90460937 180.27832031 15.22460938 C177.63832031 15.22460938 174.99832031 15.22460938 172.27832031 15.22460938 Z M60.27832031 34.22460938 C60.27832031 35.21460938 60.27832031 36.20460937 60.27832031 37.22460938 C60.93832031 36.89460938 61.59832031 36.56460938 62.27832031 36.22460938 C61.61832031 35.56460938 60.95832031 34.90460937 60.27832031 34.22460938 Z " fill="#0F0D0D" transform="translate(60.7216796875,23.775390625)"/>
<path d="M0 0 C0.99457718 0.00212242 0.99457718 0.00212242 2.00924683 0.00428772 C4.12860613 0.00988871 6.24786009 0.02244125 8.3671875 0.03515625 C9.80338389 0.04017113 11.23958194 0.04473406 12.67578125 0.04882812 C16.19795095 0.05985843 19.72005895 0.07712366 23.2421875 0.09765625 C21.90009584 4.12393124 19.75516949 4.84934778 16.2421875 7.09765625 C15.80003906 7.63003906 15.35789063 8.16242187 14.90234375 8.7109375 C12.48682883 10.7286029 10.64410877 10.39419465 7.5546875 10.28515625 C6.56082031 10.25808594 5.56695312 10.23101562 4.54296875 10.203125 C3.78371094 10.16832031 3.02445313 10.13351563 2.2421875 10.09765625 C3.9859303 12.37354125 5.73677173 14.64330256 7.4921875 16.91015625 C7.98332031 17.55275391 8.47445312 18.19535156 8.98046875 18.85742188 C11.48599377 22.0811974 13.75873678 24.866589 17.2421875 27.09765625 C17.28214844 26.46859375 17.32210937 25.83953125 17.36328125 25.19140625 C18.22770905 18.10523265 20.6864069 14.98276174 26.1484375 10.49609375 C28.2421875 9.09765625 28.2421875 9.09765625 30.2421875 9.09765625 C29.62324765 13.13948632 28.98379915 17.17749331 28.32568359 21.21313477 C28.10493631 22.58464444 27.8896829 23.95705066 27.68017578 25.33032227 C27.37699419 27.31106077 27.05198788 29.28841929 26.7265625 31.265625 C26.53803711 32.45438232 26.34951172 33.64313965 26.15527344 34.86791992 C25.13136823 38.48964239 23.87546251 40.43133266 21.2421875 43.09765625 C17.83203125 44.28125 17.83203125 44.28125 14.2421875 44.09765625 C11.97598214 42.10277888 10.52540916 40.54901636 8.8046875 38.16015625 C8.35931641 37.58330078 7.91394531 37.00644531 7.45507812 36.41210938 C6.36236794 34.99041117 5.29924505 33.54605905 4.2421875 32.09765625 C3.76910156 32.46117187 3.29601562 32.8246875 2.80859375 33.19921875 C0.63423099 34.85224307 -1.55882324 36.47753999 -3.7578125 38.09765625 C-4.53640625 38.68160156 -5.315 39.26554687 -6.1171875 39.8671875 C-6.88546875 40.41761719 -7.65375 40.96804687 -8.4453125 41.53515625 C-9.15042969 42.04949219 -9.85554688 42.56382813 -10.58203125 43.09375 C-13.38088864 44.38514381 -14.86440882 44.00954668 -17.7578125 43.09765625 C-18.0878125 42.76765625 -18.4178125 42.43765625 -18.7578125 42.09765625 C-18.71976843 40.13692353 -18.6023531 38.17746018 -18.4453125 36.22265625 C-18.36667969 35.15273437 -18.28804687 34.0828125 -18.20703125 32.98046875 C-17.7578125 30.09765625 -17.7578125 30.09765625 -15.7578125 27.09765625 C-15.0978125 27.75765625 -14.4378125 28.41765625 -13.7578125 29.09765625 C-9.51061478 28.94597062 -6.77219157 25.76949224 -3.7578125 23.09765625 C-4.15613281 22.5665625 -4.55445312 22.03546875 -4.96484375 21.48828125 C-6.5625 19.35807292 -8.16015625 17.22786458 -9.7578125 15.09765625 C-10.30953125 14.411875 -10.86125 13.72609375 -11.4296875 13.01953125 C-13.35354257 10.23559979 -13.23970216 8.40204247 -12.7578125 5.09765625 C-8.81142699 0.23044745 -6.09203675 -0.02559679 0 0 Z " fill="#C61320" transform="translate(72.7578125,33.90234375)"/>
<path d="M0 0 C0.27474132 8.104869 0.60843821 18.08734269 -4 25 C-6.1640625 25.51171875 -6.1640625 25.51171875 -8.625 25.6875 C-9.44226563 25.75324219 -10.25953125 25.81898437 -11.1015625 25.88671875 C-12.04128906 25.94279297 -12.04128906 25.94279297 -13 26 C-13 25.34 -13 24.68 -13 24 C-13.556875 23.95875 -14.11375 23.9175 -14.6875 23.875 C-18.24030274 22.53069626 -19.70958953 19.99025811 -22 17 C-22.54269531 17.40992187 -23.08539063 17.81984375 -23.64453125 18.2421875 C-24.71767578 19.05042969 -24.71767578 19.05042969 -25.8125 19.875 C-26.87404297 20.67550781 -26.87404297 20.67550781 -27.95703125 21.4921875 C-32.38698917 24.76171667 -35.66871499 25.88214992 -41 27 C-42 26 -42 26 -42.09765625 23.49609375 C-42.08605469 22.48675781 -42.07445312 21.47742188 -42.0625 20.4375 C-42.05347656 19.42558594 -42.04445312 18.41367188 -42.03515625 17.37109375 C-42.02355469 16.58863281 -42.01195312 15.80617188 -42 15 C-40.1746875 15.185625 -40.1746875 15.185625 -38.3125 15.375 C-35.76495579 15.38403384 -34.45421128 15.3373511 -32.390625 13.8046875 C-30.09961347 11.12285636 -28.40811267 8.5369765 -28 5 C-28.66 4.67 -29.32 4.34 -30 4 C-29.01 4 -28.02 4 -27 4 C-27 3.01 -27 2.02 -27 1 C-26.34 1 -25.68 1 -25 1 C-24.34 1.66 -23.68 2.32 -23 3 C-22.01 3 -21.02 3 -20 3 C-20 3.66 -20 4.32 -20 5 C-19.34 5 -18.68 5 -18 5 C-14 9.47058824 -14 9.47058824 -14 12 C-13.34 12 -12.68 12 -12 12 C-12 12.66 -12 13.32 -12 14 C-10.68 14 -9.36 14 -8 14 C-7.91363281 13.32453125 -7.82726562 12.6490625 -7.73828125 11.953125 C-6.57896949 4.5930907 -6.57896949 4.5930907 -3.4375 1.375 C-1 0 -1 0 0 0 Z " fill="#D2111F" transform="translate(99,49)"/>
<path d="M0 0 C1.32 0.33 2.64 0.66 4 1 C1.59384348 3.65506927 -0.17959767 4.92164697 -3.78125 5.265625 C-6.53033855 5.25145444 -9.25655321 5.17296687 -12 5 C-10.2562572 7.275885 -8.50541577 9.54564631 -6.75 11.8125 C-6.01330078 12.77639648 -6.01330078 12.77639648 -5.26171875 13.75976562 C-2.75619373 16.98354115 -0.48345072 19.76893275 3 22 C3.03996094 21.3709375 3.07992187 20.741875 3.12109375 20.09375 C3.98552155 13.0075764 6.4442194 9.88510549 11.90625 5.3984375 C14 4 14 4 16 4 C15.38106015 8.04183007 14.74161165 12.07983706 14.08349609 16.11547852 C13.86274881 17.48698819 13.6474954 18.85939441 13.43798828 20.23266602 C13.13480669 22.21340452 12.80980038 24.19076304 12.484375 26.16796875 C12.20158691 27.95110474 12.20158691 27.95110474 11.91308594 29.77026367 C10.88833457 33.39497914 9.64976871 35.34324542 7 38 C3.4375 39 3.4375 39 0 39 C-1.9375 37.6875 -1.9375 37.6875 -3 36 C-3 35.34 -3 34.68 -3 34 C-2.34 34 -1.68 34 -1 34 C-1 34.66 -1 35.32 -1 36 C3.455 35.505 3.455 35.505 8 35 C8.50938345 32.50159546 9.00763114 30.00176612 9.5 27.5 C9.71462891 26.45585938 9.71462891 26.45585938 9.93359375 25.390625 C10.88277373 20.50912797 11.13440046 15.97281701 11 11 C7.75395047 12.83942807 7.04082853 13.87966329 5.8125 17.5 C5.544375 18.655 5.27625 19.81 5 21 C4.67 21.99 4.34 22.98 4 24 C2.68 24 1.36 24 0 24 C0 23.34 0 22.68 0 22 C-0.66 22 -1.32 22 -2 22 C-6 17.52941176 -6 17.52941176 -6 15 C-6.66 15 -7.32 15 -8 15 C-8 14.34 -8 13.68 -8 13 C-8.99 13 -9.98 13 -11 13 C-11.12375 12.360625 -11.2475 11.72125 -11.375 11.0625 C-11.58125 10.381875 -11.7875 9.70125 -12 9 C-12.66 8.67 -13.32 8.34 -14 8 C-13.67 6.35 -13.34 4.7 -13 3 C-8.71 3 -4.42 3 0 3 C0 2.01 0 1.02 0 0 Z " fill="#A81828" transform="translate(87,39)"/>
<path d="M0 0 C1.65 0 3.3 0 5 0 C3.98074847 8.73953968 2.94183957 17.40632701 1 26 C-0.65 26 -2.3 26 -4 26 C-3.52735047 17.10115016 -2.03895283 8.66875541 0 0 Z " fill="#0E0C0D" transform="translate(194,47)"/>
<path d="M0 0 C2 0 2 0 4.1875 1.625 C6 4 6 4 6.0625 6.9375 C4.71363667 10.82540018 3.31055827 12.55306563 0 15 C-3.8125 15.3125 -3.8125 15.3125 -7 15 C-7 18.3 -7 21.6 -7 25 C-3.535 24.505 -3.535 24.505 0 24 C-1.90598443 26.43542455 -3.00596275 27.00158196 -6.0625 27.8125 C-7.031875 27.874375 -8.00125 27.93625 -9 28 C-11 26 -11 26 -11.046875 23.28515625 C-10.94890625 22.22167969 -10.8509375 21.15820312 -10.75 20.0625 C-10.66234375 19.00160156 -10.5746875 17.94070312 -10.484375 16.84765625 C-10 14 -10 14 -8 11 C-7.34 11.66 -6.68 12.32 -6 13 C-1.75280228 12.84831437 0.98562093 9.67183599 4 7 C2.02 3.535 2.02 3.535 0 0 Z " fill="#AB1927" transform="translate(65,50)"/>
<path d="M0 0 C0.66 0.33 1.32 0.66 2 1 C1.67 1.66 1.34 2.32 1 3 C0.50497655 6.97143815 0.73900864 8.60333456 2.96875 11.9921875 C4.22171875 13.41917969 4.22171875 13.41917969 5.5 14.875 C6.3353125 15.84179688 7.170625 16.80859375 8.03125 17.8046875 C8.6809375 18.52914062 9.330625 19.25359375 10 20 C9.20722656 20.78632812 8.41445312 21.57265625 7.59765625 22.3828125 C5.10688394 24.81658181 5.10688394 24.81658181 3.4375 26.875 C2.7259375 27.431875 2.7259375 27.431875 2 28 C-0.1875 27.6875 -0.1875 27.6875 -2 27 C-1.505 25.515 -1.505 25.515 -1 24 C-0.01 23.67 0.98 23.34 2 23 C2.33 22.34 2.66 21.68 3 21 C2.34 20.67 1.68 20.34 1 20 C1.33 19.01 1.66 18.02 2 17 C1.34 17 0.68 17 0 17 C0.020625 16.195625 0.04125 15.39125 0.0625 14.5625 C0.29633621 12.06645115 0.29633621 12.06645115 -1 11 C-1.09823996 9.52351124 -1.12973519 8.04224583 -1.125 6.5625 C-1.12757812 5.75941406 -1.13015625 4.95632812 -1.1328125 4.12890625 C-1 2 -1 2 0 0 Z " fill="#1D0A0A" transform="translate(60,36)"/>
<path d="M0 0 C3.96 0 7.92 0 12 0 C12 1.32 12 2.64 12 4 C11.01 4 10.02 4 9 4 C9.495 4.721875 9.99 5.44375 10.5 6.1875 C12.07919285 9.14848659 12.28178312 10.71253029 12 14 C11.34 13.67 10.68 13.34 10 13 C10 12.01 10 11.02 10 10 C9.0925 9.814375 8.185 9.62875 7.25 9.4375 C2.77415585 7.4577997 2.0612429 5.36032151 0 1 C0 0.67 0 0.34 0 0 Z " fill="#0F0F0F" transform="translate(77,45)"/>
<path d="M0 0 C1.2065625 0.0309375 1.2065625 0.0309375 2.4375 0.0625 C2.12990822 2.04243541 1.8162932 4.02143599 1.5 6 C1.32597656 7.10214844 1.15195313 8.20429687 0.97265625 9.33984375 C0.4375 12.0625 0.4375 12.0625 -0.5625 13.0625 C-2.22867115 13.10313832 -3.89638095 13.105221 -5.5625 13.0625 C-5.25490822 11.08256459 -4.9412932 9.10356401 -4.625 7.125 C-4.45097656 6.02285156 -4.27695313 4.92070313 -4.09765625 3.78515625 C-3.36981364 0.08219058 -3.36981364 0.08219058 0 0 Z " fill="#0E0C0D" transform="translate(116.5625,46.9375)"/>
<path d="M0 0 C1.65 0 3.3 0 5 0 C4.85915204 1.79206547 4.71216299 3.58364917 4.5625 5.375 C4.48128906 6.37273438 4.40007812 7.37046875 4.31640625 8.3984375 C4 11 4 11 3 13 C1.35 13 -0.3 13 -2 13 C-1.34 8.71 -0.68 4.42 0 0 Z " fill="#0F0D0E" transform="translate(161,47)"/>
<path d="M0 0 C1.65 0 3.3 0 5 0 C4.34 3.96 3.68 7.92 3 12 C1.35 12.33 -0.3 12.66 -2 13 C-1.34 8.71 -0.68 4.42 0 0 Z " fill="#0F0D0E" transform="translate(145,47)"/>
<path d="M0 0 C1.65 0 3.3 0 5 0 C4.34 3.96 3.68 7.92 3 12 C1.35 12.33 -0.3 12.66 -2 13 C-1.34 8.71 -0.68 4.42 0 0 Z " fill="#0F0D0D" transform="translate(178,47)"/>
<path d="M0 0 C2.64752004 2.57784846 4.94432065 4.91648098 7 8 C5.76446724 9.20254524 4.51097661 10.38666232 3.25 11.5625 C2.20585938 12.55443359 2.20585938 12.55443359 1.140625 13.56640625 C-1 15 -1 15 -3.265625 14.71484375 C-3.83796875 14.47894531 -4.4103125 14.24304687 -5 14 C-3.74874616 10.24623848 -2.4347596 9.75926711 1 8 C1.66 8 2.32 8 3 8 C2.505 7.05125 2.01 6.1025 1.5 5.125 C0 2 0 2 0 0 Z " fill="#210A09" transform="translate(63,49)"/>
<path d="M0 0 C0.33 0 0.66 0 1 0 C1.25645895 6.73204732 0.28162548 12.9013607 -1 19.5 C-1.19078125 20.51320313 -1.3815625 21.52640625 -1.578125 22.5703125 C-2.04564611 25.04817439 -2.51973328 27.52458268 -3 30 C-4.32 30.33 -5.64 30.66 -7 31 C-6.71322388 30.22668335 -6.71322388 30.22668335 -6.4206543 29.43774414 C-4.20959281 23.19016992 -2.92210093 16.96126264 -1.8125 10.4375 C-1.63525391 9.42880859 -1.45800781 8.42011719 -1.27539062 7.38085938 C-0.84414069 4.92156921 -0.41914181 2.46137743 0 0 Z " fill="#360507" transform="translate(102,45)"/>
<path d="M0 0 C2.31 0.33 4.62 0.66 7 1 C7 2.32 7 3.64 7 5 C8.32 4.67 9.64 4.34 11 4 C10.67 5.65 10.34 7.3 10 9 C9.236875 8.21625 8.47375 7.4325 7.6875 6.625 C5.09108195 3.92742283 5.09108195 3.92742283 2 2 C-0.31 3.65 -2.62 5.3 -5 7 C-4.67 5.35 -4.34 3.7 -4 2 C-2.68 2 -1.36 2 0 2 C0 1.34 0 0.68 0 0 Z " fill="#B61726" transform="translate(74,64)"/>
<path d="M0 0 C0.33 0.99 0.66 1.98 1 3 C-1.22230844 4.97538528 -2.58699552 5.93956032 -5.5625 6.375 C-8 6 -8 6 -9.8125 4.625 C-11 3 -11 3 -11 1 C-10.34 1 -9.68 1 -9 1 C-9 1.66 -9 2.32 -9 3 C-4.545 2.505 -4.545 2.505 0 2 C0 1.34 0 0.68 0 0 Z " fill="#AE1725" transform="translate(95,72)"/>
<path d="M0 0 C0.33 0.99 0.66 1.98 1 3 C-2.08181538 5.69389457 -4.12330349 6.37639942 -8.1875 6.5625 C-10.77550996 6.64542566 -10.77550996 6.64542566 -13 7 C-13.33 7.66 -13.66 8.32 -14 9 C-14.66 7.68 -15.32 6.36 -16 5 C-9.565 4.505 -9.565 4.505 -3 4 C-2.67 3.01 -2.34 2.02 -2 1 C-1.34 0.67 -0.68 0.34 0 0 Z " fill="#340507" transform="translate(91,39)"/>
<path d="M0 0 C8.58 0 17.16 0 26 0 C25.34 1.32 24.68 2.64 24 4 C23.67 3.01 23.34 2.02 23 1 C15.41 1 7.82 1 0 1 C0 0.67 0 0.34 0 0 Z " fill="#BE1827" transform="translate(68,35)"/>
<path d="M0 0 C2.97 0 5.94 0 9 0 C8.01 0.33 7.02 0.66 6 1 C6.33 1.99 6.66 2.98 7 4 C6.01 4 5.02 4 4 4 C4.33 5.32 4.66 6.64 5 8 C1.91763635 5.21592961 1.04793663 4.19174654 0 0 Z " fill="#1B0B0B" transform="translate(77,45)"/>
<path d="M0 0 C2.4375 0.8125 2.4375 0.8125 5 2 C5.33 2.99 5.66 3.98 6 5 C6.66 3.68 7.32 2.36 8 1 C8.33 1 8.66 1 9 1 C8.67 3.31 8.34 5.62 8 8 C3.79373966 6.49776416 2.26099979 3.71449966 0 0 Z " fill="#2F0407" transform="translate(82,53)"/>
<path d="M0 0 C0.66 0.33 1.32 0.66 2 1 C1.375 2.9375 1.375 2.9375 0 5 C-3.125 5.75 -3.125 5.75 -6 6 C-4 4 -2 2 0 0 Z " fill="#330807" transform="translate(72,68)"/>
<path d="M0 0 C2.64752004 2.57784846 4.94432065 4.91648098 7 8 C6.01 8.33 5.02 8.66 4 9 C0 2.25 0 2.25 0 0 Z " fill="#3E0406" transform="translate(63,49)"/>
<path d="M0 0 C1.32 0 2.64 0 4 0 C4 0.66 4 1.32 4 2 C4.66 2.33 5.32 2.66 6 3 C5.34 4.32 4.68 5.64 4 7 C3.67 7 3.34 7 3 7 C3 5.02 3 3.04 3 1 C2.01 1.33 1.02 1.66 0 2 C0 1.34 0 0.68 0 0 Z " fill="#190B09" transform="translate(100,42)"/>
</svg>
