<?xml version="1.0" encoding="UTF-8"?>
<svg version="1.1" xmlns="http://www.w3.org/2000/svg" width="297" height="110">
<path d="M0 0 C9.9 0 19.8 0 30 0 C28.80375 2.413125 27.6075 4.82625 26.375 7.3125 C26.01196777 8.04766846 25.64893555 8.78283691 25.27490234 9.5402832 C22.32846096 15.45691523 19.17312306 21.18260772 16 27 C6.43 27 -3.14 27 -13 27 C-11.61703141 22.85109422 -10.39927941 19.58934028 -8.3984375 15.8203125 C-7.95677246 14.98258301 -7.51510742 14.14485352 -7.06005859 13.28173828 C-6.50398926 12.24001465 -5.94791992 11.19829102 -5.375 10.125 C-3.60125 6.78375 -1.8275 3.4425 0 0 Z " fill="#C11430" transform="translate(34,42)"/>
<path d="M0 0 C2.31 0 4.62 0 7 0 C9.00661684 3.78820084 11.0041624 7.58111052 13 11.375 C13.57234375 12.45523438 14.1446875 13.53546875 14.734375 14.6484375 C15.27578125 15.6796875 15.8171875 16.7109375 16.375 17.7734375 C16.87773438 18.72653809 17.38046875 19.67963867 17.8984375 20.66162109 C19 23 19 23 19 25 C16.69 25 14.38 25 12 25 C11.34 23.35 10.68 21.7 10 20 C7.87420987 20.05988141 5.74921587 20.14862744 3.625 20.25 C2.44164063 20.29640625 1.25828125 20.3428125 0.0390625 20.390625 C-3.11291753 20.65648799 -3.11291753 20.65648799 -4.4140625 23.046875 C-4.60742188 23.69140625 -4.80078125 24.3359375 -5 25 C-7.31 25 -9.62 25 -12 25 C-10.37317535 19.29676416 -7.66802013 14.31986097 -4.875 9.125 C-4.40707031 8.24585938 -3.93914062 7.36671875 -3.45703125 6.4609375 C-2.3087907 4.30505729 -1.15636097 2.15153223 0 0 Z M3 7 C0.7986134 10.80427492 0.7986134 10.80427492 0 15 C2.31 15 4.62 15 7 15 C5.73025028 10.58477891 5.73025028 10.58477891 3 7 Z " fill="#9D242F" transform="translate(82,40)"/>
<path d="M0 0 C1.26972656 -0.00257812 2.53945312 -0.00515625 3.84765625 -0.0078125 C6.9375 0.125 6.9375 0.125 7.9375 1.125 C7.9375 2.775 7.9375 4.425 7.9375 6.125 C3.6475 6.125 -0.6425 6.125 -5.0625 6.125 C-5.3925 6.785 -5.7225 7.445 -6.0625 8.125 C-5.24265625 8.29515625 -4.4228125 8.4653125 -3.578125 8.640625 C-1.96164063 9.00414062 -1.96164063 9.00414062 -0.3125 9.375 C0.75484375 9.60703125 1.8221875 9.8390625 2.921875 10.078125 C6.24430831 11.23150858 7.75411083 12.40096208 9.9375 15.125 C10.4375 17.625 10.4375 17.625 9.9375 20.125 C7.6897146 22.91535429 6.36019984 23.98410005 2.9375 25.125 C0.93929272 25.21935979 -1.06207203 25.25490301 -3.0625 25.25 C-4.114375 25.25257812 -5.16625 25.25515625 -6.25 25.2578125 C-9.0625 25.125 -9.0625 25.125 -12.0625 24.125 C-12.0625 22.475 -12.0625 20.825 -12.0625 19.125 C-7.1125 19.125 -2.1625 19.125 2.9375 19.125 C2.9375 18.135 2.9375 17.145 2.9375 16.125 C2.26203125 16.00382812 1.5865625 15.88265625 0.890625 15.7578125 C-0.00140625 15.59023438 -0.8934375 15.42265625 -1.8125 15.25 C-2.69421875 15.08757813 -3.5759375 14.92515625 -4.484375 14.7578125 C-6.95983667 14.15019918 -8.88891115 13.44677701 -11.0625 12.125 C-12.46185013 9.32629973 -12.31515405 7.22001208 -12.0625 4.125 C-8.71846189 -0.28305024 -5.27504002 -0.01073253 0 0 Z " fill="#9D232F" transform="translate(184.0625,39.875)"/>
<path d="M0 0 C1.98 0 3.96 0 6 0 C6 7.92 6 15.84 6 24 C-0.86952157 25.37390431 -8.00997276 26.78251624 -14.25 23.0625 C-16.60780268 18.9363453 -16.9204868 15.64585318 -16 11 C-13.86229309 7.57966894 -12.48726824 7.11517249 -8.5625 6.1875 C-5.41424057 6.02180214 -3.02013598 6.17632655 0 7 C0 4.69 0 2.38 0 0 Z M-10 13 C-10.41666667 15.5 -10.41666667 15.5 -10 18 C-8.11624325 20.32483785 -8.11624325 20.32483785 -5 20.1875 C-2.07613397 20.20079609 -2.07613397 20.20079609 0 19 C0 17.02 0 15.04 0 13 C-4.11167302 10.73149075 -5.88547974 10.2569865 -10 13 Z " fill="#A51D2A" transform="translate(142,40)"/>
<path d="M0 0 C0.77601563 0.15984375 1.55203125 0.3196875 2.3515625 0.484375 C4.375 1.25 4.375 1.25 6.375 4.25 C7.20489594 8.91488876 6.98681179 12.28294265 4.4375 16.3125 C0.36601607 18.88833677 -2.9209849 18.8969176 -7.625 18.25 C-8.285 17.92 -8.945 17.59 -9.625 17.25 C-9.625 19.56 -9.625 21.87 -9.625 24.25 C-11.605 24.25 -13.585 24.25 -15.625 24.25 C-15.625 16.33 -15.625 8.41 -15.625 0.25 C-13.315 0.25 -11.005 0.25 -8.625 0.25 C-7.56152344 -0.02070312 -7.56152344 -0.02070312 -6.4765625 -0.296875 C-4.08713587 -0.8816292 -2.39135349 -0.52785729 0 0 Z M-8 5.125 C-8.53625 5.49625 -9.0725 5.8675 -9.625 6.25 C-9.625 8.23 -9.625 10.21 -9.625 12.25 C-6.86249964 13.63125018 -4.67768901 13.44079306 -1.625 13.25 C0.66228734 11.41116119 0.66228734 11.41116119 0.5 8.625 C0.45875 7.84125 0.4175 7.0575 0.375 6.25 C-3.74648343 4.42339803 -3.74648343 4.42339803 -8 5.125 Z " fill="#A0242F" transform="translate(212.625,46.75)"/>
<path d="M0 0 C1.27230469 0.23976562 1.27230469 0.23976562 2.5703125 0.484375 C5.16569363 1.34656941 6.28152891 2.03543155 7.875 4.25 C8.49762378 7.29580823 8.38972236 10.1893391 7.875 13.25 C5.99879387 15.75160818 4.63608697 16.86945652 1.875 18.25 C-2.72198532 18.67308538 -6.83153278 18.78894467 -11.125 17 C-13.33543996 15.06586503 -14.33790024 14.08355913 -15.125 11.25 C-14.98636828 7.36831187 -14.69652494 5.02564099 -12.375 1.875 C-8.37794909 -1.01175899 -4.71228713 -0.95110382 0 0 Z M-7.5 6.1875 C-8.03625 6.868125 -8.5725 7.54875 -9.125 8.25 C-8.0604148 10.85943058 -8.0604148 10.85943058 -6.125 13.25 C-3.08246492 13.83345476 -3.08246492 13.83345476 -0.125 13.25 C0.535 12.59 1.195 11.93 1.875 11.25 C1.55301034 8.15073181 1.55301034 8.15073181 0.875 5.25 C-3.63310087 3.91620222 -3.63310087 3.91620222 -7.5 6.1875 Z " fill="#9A2430" transform="translate(236.125,46.75)"/>
<path d="M0 0 C1.98 0 3.96 0 6 0 C6.33 3.96 6.66 7.92 7 12 C8.98 12 10.96 12 13 12 C13.33 8.04 13.66 4.08 14 0 C15.98 0 17.96 0 20 0 C20 5.94 20 11.88 20 18 C16.16375 18.0928125 16.16375 18.0928125 12.25 18.1875 C11.45110352 18.21481201 10.65220703 18.24212402 9.82910156 18.27026367 C6.79124116 18.30584566 4.31818438 18.13125106 1.5 16.96875 C-0.79215155 13.96030109 -0.42526354 10.92225488 -0.25 7.3125 C-0.23195313 6.61060547 -0.21390625 5.90871094 -0.1953125 5.18554688 C-0.14826213 3.45644564 -0.07651873 1.72804795 0 0 Z " fill="#A12634" transform="translate(102,47)"/>
<path d="M0 0 C1.65 0 3.3 0 5 0 C5 1.32 5 2.64 5 4 C7.31 4 9.62 4 12 4 C12 5.65 12 7.3 12 9 C9.69 9 7.38 9 5 9 C5.33 11.31 5.66 13.62 6 16 C7.98 16 9.96 16 12 16 C12.33 17.65 12.66 19.3 13 21 C9.78897726 22.60551137 6.48300792 22.46807221 3 22 C0.5 20.5625 0.5 20.5625 -1 18 C-1.3130292 14.96883395 -1.23343397 12.03464161 -1 9 C-1.99 9 -2.98 9 -4 9 C-4 7.35 -4 5.7 -4 4 C-3.01 3.67 -2.02 3.34 -1 3 C-0.67 2.01 -0.34 1.02 0 0 Z " fill="#9D2A35" transform="translate(267,43)"/>
<path d="M0 0 C0.78375 0.2475 1.5675 0.495 2.375 0.75 C3.55806728 3.11613456 3.50854608 4.61780736 3.5 7.25 C3.50386719 8.44109375 3.50386719 8.44109375 3.5078125 9.65625 C3.375 11.75 3.375 11.75 2.375 13.75 C-1.04732972 14.89077657 -3.71173217 14.84815117 -7.3125 14.8125 C-9.08173828 14.79896484 -9.08173828 14.79896484 -10.88671875 14.78515625 C-12.24216797 14.76775391 -12.24216797 14.76775391 -13.625 14.75 C-13.74875 15.389375 -13.8725 16.02875 -14 16.6875 C-14.20625 17.368125 -14.4125 18.04875 -14.625 18.75 C-15.285 19.08 -15.945 19.41 -16.625 19.75 C-18.28913655 16.4217269 -17.44367406 12.75266027 -17.1875 9.125 C-17.13529297 8.32320312 -17.08308594 7.52140625 -17.02929688 6.6953125 C-16.89951629 4.71320897 -16.76290265 2.73155501 -16.625 0.75 C-14.975 1.08 -13.325 1.41 -11.625 1.75 C-11.625 2.41 -11.625 3.07 -11.625 3.75 C-12.285 3.75 -12.945 3.75 -13.625 3.75 C-13.625 6.06 -13.625 8.37 -13.625 10.75 C-14.285 10.75 -14.945 10.75 -15.625 10.75 C-15.295 11.41 -14.965 12.07 -14.625 12.75 C-12.81206911 12.60962479 -10.9996557 12.46255111 -9.1875 12.3125 C-8.17816406 12.23128906 -7.16882813 12.15007813 -6.12890625 12.06640625 C-3.68859221 12.01788532 -3.68859221 12.01788532 -2.625 10.75 C-2.39424918 9.40252916 -2.21346937 8.04622435 -2.0625 6.6875 C-1.918125 5.388125 -1.77375 4.08875 -1.625 2.75 C-2.945 2.42 -4.265 2.09 -5.625 1.75 C-2.625 -0.25 -2.625 -0.25 0 0 Z " fill="#A91C29" transform="translate(215.625,48.25)"/>
<path d="M0 0 C-0.33 2.97 -0.66 5.94 -1 9 C1.97 9 4.94 9 8 9 C8 7.68 8 6.36 8 5 C8.99 4.67 9.98 4.34 11 4 C11 5.32 11 6.64 11 8 C11.66 8.33 12.32 8.66 13 9 C12.67 9.99 12.34 10.98 12 12 C6.72 12 1.44 12 -4 12 C-4.33 13.98 -4.66 15.96 -5 18 C-7.31 18 -9.62 18 -12 18 C-6.6 0 -6.6 0 0 0 Z " fill="#AA1A26" transform="translate(82,47)"/>
<path d="M0 0 C0 1.65 0 3.3 0 5 C-2.31 5.66 -4.62 6.32 -7 7 C-7.33 10.63 -7.66 14.26 -8 18 C-9.65 18 -11.3 18 -13 18 C-14 17 -14 17 -14.09765625 13.18359375 C-14.09098089 11.60153318 -14.07901875 10.01948841 -14.0625 8.4375 C-14.05798828 7.63119141 -14.05347656 6.82488281 -14.04882812 5.99414062 C-14.03700518 3.99606244 -14.01906914 1.99802217 -14 0 C-11.02148438 0.04882812 -11.02148438 0.04882812 -8.04296875 0.09765625 C-0.75250836 -0.25083612 -0.75250836 -0.25083612 0 0 Z " fill="#A3222F" transform="translate(261,47)"/>
<path d="M0 0 C1.27230469 0.23976562 1.27230469 0.23976562 2.5703125 0.484375 C5.15431492 1.34278936 6.31694011 2.01902388 7.875 4.25 C7.97618893 7.03535848 7.37354208 9.48535757 6.875 12.25 C5.555 12.25 4.235 12.25 2.875 12.25 C2.875 10.27 2.875 8.29 2.875 6.25 C1.4172647 5.914061 -0.04121106 5.58133376 -1.5 5.25 C-2.31210938 5.064375 -3.12421875 4.87875 -3.9609375 4.6875 C-6.08374951 4.18394761 -6.08374951 4.18394761 -8.125 4.25 C-8.785 6.89 -9.445 9.53 -10.125 12.25 C-11.115 11.92 -12.105 11.59 -13.125 11.25 C-13.51644165 6.81366125 -12.57459548 3.96662762 -10.125 0.25 C-6.51647156 -0.88112306 -3.67549033 -0.74184209 0 0 Z " fill="#A3212F" transform="translate(236.125,46.75)"/>
<path d="M0 0 C1.98 0 3.96 0 6 0 C6.02684312 2.81256281 6.04676188 5.62487241 6.0625 8.4375 C6.07087891 9.23994141 6.07925781 10.04238281 6.08789062 10.86914062 C6.0965143 12.91295221 6.0522815 14.95683902 6 17 C5.67 17.33 5.34 17.66 5 18 C3.35 18 1.7 18 0 18 C0 12.06 0 6.12 0 0 Z " fill="#A0212C" transform="translate(152,47)"/>
<path d="M0 0 C1.98 0 3.96 0 6 0 C6 0.33 6 0.66 6 1 C4.35 1 2.7 1 1 1 C1.33 6.94 1.66 12.88 2 19 C2.66 19 3.32 19 4 19 C4.33 18.01 4.66 17.02 5 16 C9.95 15.67 14.9 15.34 20 15 C17 18 17 18 14.80859375 18.328125 C14.02613281 18.30234375 13.24367187 18.2765625 12.4375 18.25 C11.25994141 18.22679687 11.25994141 18.22679687 10.05859375 18.203125 C8 18 8 18 6 17 C6 19.31 6 21.62 6 24 C4.02 24 2.04 24 0 24 C0 16.08 0 8.16 0 0 Z " fill="#942A34" transform="translate(197,47)"/>
<path d="M0 0 C0.6347166 4.04631835 1.11068936 7.90449355 1 12 C1 13.32 1 14.64 1 16 C0.01 16 -0.98 16 -2 16 C-3 15 -3 15 -3.09765625 12.93359375 C-3.08025391 11.69802734 -3.08025391 11.69802734 -3.0625 10.4375 C-3.05347656 9.61121094 -3.04445313 8.78492188 -3.03515625 7.93359375 C-3.02355469 7.29550781 -3.01195312 6.65742187 -3 6 C-3.99 5.67 -4.98 5.34 -6 5 C-6 4.01 -6 3.02 -6 2 C-2.25 0 -2.25 0 0 0 Z " fill="#A91926" transform="translate(270,46)"/>
<path d="M0 0 C1.32 0 2.64 0 4 0 C4 4.95 4 9.9 4 15 C2.68 15 1.36 15 0 15 C0 14.34 0 13.68 0 13 C-0.66 12.67 -1.32 12.34 -2 12 C-1.34 12 -0.68 12 0 12 C0 8.04 0 4.08 0 0 Z " fill="#A91A27" transform="translate(117,48)"/>
<path d="M0 0 C2.97 0.33 5.94 0.66 9 1 C9.33 2.65 9.66 4.3 10 6 C6.87293041 7.5635348 3.42017557 7.39958487 0 7 C-0.99 6.34 -1.98 5.68 -3 5 C-2.67 4.34 -2.34 3.68 -2 3 C-1.34 3 -0.68 3 0 3 C0 2.01 0 1.02 0 0 Z " fill="#96202B" transform="translate(270,58)"/>
<path d="M0 0 C0.66 0.33 1.32 0.66 2 1 C1.67447917 3.01822917 1.34895833 5.03645833 1.0234375 7.0546875 C1.01570312 7.69664063 1.00796875 8.33859375 1 9 C1.66 9.66 2.32 10.32 3 11 C3 11.66 3 12.32 3 13 C9.93 13.495 9.93 13.495 17 14 C14.50994323 16.49005677 13.62529268 16.29703766 10.1875 16.3125 C5.99294109 16.22170868 3.25851394 15.85119969 0 13 C-2.17930601 10.22633781 -1.99722124 8.96776637 -1.6875 5.375 C-1 2 -1 2 0 0 Z " fill="#932630" transform="translate(223,49)"/>
<path d="M0 0 C0.66 0 1.32 0 2 0 C2 2.64 2 5.28 2 8 C0.35 8.33 -1.3 8.66 -3 9 C-2.34 10.32 -1.68 11.64 -1 13 C-2.45792884 13.05399736 -3.91642712 13.09279177 -5.375 13.125 C-6.18710938 13.14820312 -6.99921875 13.17140625 -7.8359375 13.1953125 C-10 13 -10 13 -12 11 C-9.36 11 -6.72 11 -4 11 C-4 10.34 -4 9.68 -4 9 C-4.804375 8.855625 -5.60875 8.71125 -6.4375 8.5625 C-9 8 -9 8 -10 7 C-10.04080783 5.00041636 -10.04254356 2.99954746 -10 1 C-9.67 1 -9.34 1 -9 1 C-8.34 2.98 -7.68 4.96 -7 7 C-4.36 7 -1.72 7 1 7 C0.67 4.69 0.34 2.38 0 0 Z " fill="#952531" transform="translate(141,52)"/>
<path d="M0 0 C1.48576635 4.01156915 0.80747878 4.48130304 -1 9 C7.91 8.67 16.82 8.34 26 8 C25.67 8.66 25.34 9.32 25 10 C15.43 10 5.86 10 -4 10 C-1.75 3.25 -1.75 3.25 0 0 Z " fill="#B82438" transform="translate(25,59)"/>
<path d="M0 0 C3.3 0.66 6.6 1.32 10 2 C10 2.33 10 2.66 10 3 C7.69 3 5.38 3 3 3 C3 3.66 3 4.32 3 5 C3.99 5 4.98 5 6 5 C6 5.66 6 6.32 6 7 C1.94393835 6.53199289 -1.46588679 6.12046792 -5 4 C-5 3.34 -5 2.68 -5 2 C-3.02 2.66 -1.04 3.32 1 4 C0.67 2.68 0.34 1.36 0 0 Z " fill="#952731" transform="translate(178,48)"/>
<path d="M0 0 C6.4 -0.49230769 6.4 -0.49230769 9.4375 2 C10.2109375 2.99 10.2109375 2.99 11 4 C9.515 6.475 9.515 6.475 8 9 C8.66 9.33 9.32 9.66 10 10 C9.01 10 8.02 10 7 10 C7 8.02 7 6.04 7 4 C5.68 4 4.36 4 3 4 C3 3.34 3 2.68 3 2 C2.01 2 1.02 2 0 2 C0 1.34 0 0.68 0 0 Z " fill="#A91926" transform="translate(181,51)"/>
<path d="M0 0 C1.53271273 4.58798777 0.02911182 6.77944742 -2 11 C-1.01 11.33 -0.02 11.66 1 12 C1 12.66 1 13.32 1 14 C-1.31 14 -3.62 14 -6 14 C-4.50829734 9.0276578 -2.39542583 4.58154261 0 0 Z " fill="#952632" transform="translate(76,51)"/>
<path d="M0 0 C0 0.66 0 1.32 0 2 C-2.97 3.32 -5.94 4.64 -9 6 C-9 5.34 -9 4.68 -9 4 C-8.34 4 -7.68 4 -7 4 C-7 3.34 -7 2.68 -7 2 C-8.65 2 -10.3 2 -12 2 C-11.67 1.34 -11.34 0.68 -11 0 C-7.0832314 -1.23098442 -3.97610732 -0.83220851 0 0 Z " fill="#972633" transform="translate(141,47)"/>
<path d="M0 0 C-0.50827151 4.37113496 -1.45173408 7.38995662 -4 11 C-4.33 11 -4.66 11 -5 11 C-6.34351145 3.54961832 -6.34351145 3.54961832 -4.75 1 C-3 0 -3 0 0 0 Z " fill="#BB1532" transform="translate(62,43)"/>
<path d="M0 0 C0.99 0.495 0.99 0.495 2 1 C2.29768788 4.19166627 2.41607077 7.33848682 2.47851562 10.54101562 C2.5510101 12.36752284 2.76744675 14.18690788 3 16 C3.99 16.66 4.98 17.32 6 18 C4.33388095 18.042721 2.66617115 18.04063832 1 18 C0 17 0 17 -0.09765625 13.18359375 C-0.09098089 11.60153318 -0.07901875 10.01948841 -0.0625 8.4375 C-0.05798828 7.63119141 -0.05347656 6.82488281 -0.04882812 5.99414062 C-0.03700518 3.99606244 -0.01906914 1.99802217 0 0 Z " fill="#88272E" transform="translate(247,47)"/>
<path d="M0 0 C1.98 0 3.96 0 6 0 C6.042721 1.66611905 6.04063832 3.33382885 6 5 C5 6 5 6 2.4375 6.0625 C1.2309375 6.0315625 1.2309375 6.0315625 0 6 C0 4.02 0 2.04 0 0 Z " fill="#9E212E" transform="translate(152,40)"/>
<path d="M0 0 C0.99 0.33 1.98 0.66 3 1 C4.89212737 1.22179785 6.78884472 1.40614015 8.6875 1.5625 C9.68136719 1.64628906 10.67523438 1.73007812 11.69921875 1.81640625 C12.83810547 1.90728516 12.83810547 1.90728516 14 2 C14 2.66 14 3.32 14 4 C9.38 4 4.76 4 0 4 C0 2.68 0 1.36 0 0 Z " fill="#AC1928" transform="translate(226,59)"/>
<path d="M0 0 C0.99 0 1.98 0 3 0 C3.66 2.64 4.32 5.28 5 8 C3.02 7.34 1.04 6.68 -1 6 C-1.042721 4.33388095 -1.04063832 2.66617115 -1 1 C-0.67 0.67 -0.34 0.34 0 0 Z " fill="#AC1826" transform="translate(174,44)"/>
<path d="M0 0 C0.99 0.33 1.98 0.66 3 1 C2.34 3.97 1.68 6.94 1 10 C0.01 9.67 -0.98 9.34 -2 9 C-2.20140476 5.37471432 -1.85776765 3.13498292 0 0 Z " fill="#AA1826" transform="translate(225,49)"/>
<path d="M0 0 C2.475 0.99 2.475 0.99 5 2 C5 3.32 5 4.64 5 6 C2.36 5.67 -0.28 5.34 -3 5 C-1.125 1.125 -1.125 1.125 0 0 Z " fill="#AB1926" transform="translate(84,41)"/>
<path d="M0 0 C1.43088528 2.86177057 0.59991697 4.93375773 0 8 C-1.32 8 -2.64 8 -4 8 C-4 6.02 -4 4.04 -4 2 C-2.68 1.34 -1.36 0.68 0 0 Z " fill="#A91827" transform="translate(243,51)"/>
<path d="M0 0 C1.32 0 2.64 0 4 0 C4 1.98 4 3.96 4 6 C3.01 6 2.02 6 1 6 C0.67 6.99 0.34 7.98 0 9 C0 6.03 0 3.06 0 0 Z " fill="#AA1A26" transform="translate(103,48)"/>
<path d="M0 0 C2.31 0 4.62 0 7 0 C10 5.75 10 5.75 10 8 C9.01 7.67 8.02 7.34 7 7 C7 5.68 7 4.36 7 3 C3.41672247 1.99782936 3.41672247 1.99782936 0 3 C0 2.01 0 1.02 0 0 Z " fill="#9C2A39" transform="translate(82,40)"/>
<path d="M0 0 C3 3.75 3 3.75 3 6 C0.69 6 -1.62 6 -4 6 C-4.33 5.34 -4.66 4.68 -5 4 C-3.35 4 -1.7 4 0 4 C0 2.68 0 1.36 0 0 Z " fill="#8B2B36" transform="translate(98,59)"/>
<path d="M0 0 C2.64 0.33 5.28 0.66 8 1 C7.01 1.66 6.02 2.32 5 3 C5 3.66 5 4.32 5 5 C3.68 4.67 2.36 4.34 1 4 C1.33 3.01 1.66 2.02 2 1 C1.34 0.67 0.68 0.34 0 0 Z " fill="#AA303B" transform="translate(231,46)"/>
<path d="M0 0 C1.485 0.99 1.485 0.99 3 2 C3.66 1.67 4.32 1.34 5 1 C4.39816251 3.02045442 3.72693904 5.02111039 3 7 C2.01 7.495 2.01 7.495 1 8 C0.67 5.36 0.34 2.72 0 0 Z " fill="#AB1D30" transform="translate(56,46)"/>
<path d="M0 0 C0.33 0 0.66 0 1 0 C1.25 6.625 1.25 6.625 -1 10 C-1.66 10 -2.32 10 -3 10 C-3 8.68 -3 7.36 -3 6 C-2.01 6 -1.02 6 0 6 C0 4.02 0 2.04 0 0 Z " fill="#8F2632" transform="translate(243,53)"/>
<path d="M0 0 C0.33 0.99 0.66 1.98 1 3 C1.66 3 2.32 3 3 3 C3 4.65 3 6.3 3 8 C2.01 7.67 1.02 7.34 0 7 C0 4.69 0 2.38 0 0 Z " fill="#AB1924" transform="translate(249,56)"/>
<path d="M0 0 C0.66 0 1.32 0 2 0 C5 4.38461538 5 4.38461538 5 7 C4.01 7 3.02 7 2 7 C0 4 0 4 0 0 Z " fill="#91232A" transform="translate(91,48)"/>
</svg>
