<?xml version="1.0" encoding="UTF-8"?>
<svg version="1.1" xmlns="http://www.w3.org/2000/svg" width="297" height="110">
<path d="M0 0 C1.08090396 -0.00512655 1.08090396 -0.00512655 2.18364435 -0.01035666 C4.58073456 -0.01690724 6.97668673 0.00499202 9.37367249 0.0269165 C11.09882074 0.0280456 12.82397091 0.02740991 14.54911804 0.02514648 C19.22021155 0.02400083 23.89089255 0.04748602 28.56189036 0.07544231 C33.44790593 0.10048078 38.3339314 0.1027999 43.22000122 0.10754395 C52.46696817 0.11996653 61.71374551 0.15277846 70.96062905 0.1929419 C81.4901894 0.23768191 92.0197589 0.25965227 102.54939067 0.27972364 C124.20457026 0.32151174 145.85949 0.39485519 167.51454163 0.48101807 C167.51454163 21.60101807 167.51454163 42.72101807 167.51454163 64.48101807 C107.45454163 64.48101807 47.39454163 64.48101807 -14.48545837 64.48101807 C-14.48545837 44.68101807 -14.48545837 24.88101807 -14.48545837 4.48101807 C-6.61045837 -0.01898193 -6.61045837 -0.01898193 0 0 Z M-9.48545837 11.48101807 C-9.48545837 23.36101807 -9.48545837 35.24101807 -9.48545837 47.48101807 C-6.84545837 47.48101807 -4.20545837 47.48101807 -1.48545837 47.48101807 C-1.48545837 42.20101807 -1.48545837 36.92101807 -1.48545837 31.48101807 C2.47454163 30.98601807 2.47454163 30.98601807 6.51454163 30.48101807 C6.84454163 29.49101807 7.17454163 28.50101807 7.51454163 27.48101807 C4.54454163 27.15101807 1.57454163 26.82101807 -1.48545837 26.48101807 C-1.48545837 22.52101807 -1.48545837 18.56101807 -1.48545837 14.48101807 C1.81454163 14.48101807 5.11454163 14.48101807 8.51454163 14.48101807 C8.51454163 13.49101807 8.51454163 12.50101807 8.51454163 11.48101807 C2.57454163 11.48101807 -3.36545837 11.48101807 -9.48545837 11.48101807 Z M13.51454163 11.48101807 C13.51454163 23.36101807 13.51454163 35.24101807 13.51454163 47.48101807 C20.11454163 47.48101807 26.71454163 47.48101807 33.51454163 47.48101807 C33.51454163 46.49101807 33.51454163 45.50101807 33.51454163 44.48101807 C29.55454163 44.48101807 25.59454163 44.48101807 21.51454163 44.48101807 C21.51454163 33.59101807 21.51454163 22.70101807 21.51454163 11.48101807 C18.87454163 11.48101807 16.23454163 11.48101807 13.51454163 11.48101807 Z M37.51454163 11.48101807 C37.51454163 23.36101807 37.51454163 35.24101807 37.51454163 47.48101807 C44.11454163 47.48101807 50.71454163 47.48101807 57.51454163 47.48101807 C57.51454163 46.49101807 57.51454163 45.50101807 57.51454163 44.48101807 C53.55454163 44.48101807 49.59454163 44.48101807 45.51454163 44.48101807 C45.51454163 39.53101807 45.51454163 34.58101807 45.51454163 29.48101807 C48.48454163 29.48101807 51.45454163 29.48101807 54.51454163 29.48101807 C54.51454163 28.49101807 54.51454163 27.50101807 54.51454163 26.48101807 C51.54454163 26.48101807 48.57454163 26.48101807 45.51454163 26.48101807 C45.51454163 22.52101807 45.51454163 18.56101807 45.51454163 14.48101807 C48.81454163 14.48101807 52.11454163 14.48101807 55.51454163 14.48101807 C55.51454163 13.49101807 55.51454163 12.50101807 55.51454163 11.48101807 C49.57454163 11.48101807 43.63454163 11.48101807 37.51454163 11.48101807 Z M89.51454163 11.48101807 C89.51454163 23.36101807 89.51454163 35.24101807 89.51454163 47.48101807 C106.23912257 49.35510321 106.23912257 49.35510321 112.51454163 43.48101807 C113.78237684 38.83228896 113.82510374 35.7373167 111.51454163 31.48101807 C110.85454163 30.82101807 110.19454163 30.16101807 109.51454163 29.48101807 C108.52454163 29.48101807 107.53454163 29.48101807 106.51454163 29.48101807 C106.51454163 28.82101807 106.51454163 28.16101807 106.51454163 27.48101807 C107.15391663 27.17164307 107.79329163 26.86226807 108.45204163 26.54351807 C110.45064984 25.64650176 110.45064984 25.64650176 111.51454163 24.48101807 C111.75275084 22.44831245 111.75275084 22.44831245 111.76454163 20.10601807 C111.79032288 19.31453369 111.81610413 18.52304932 111.84266663 17.70758057 C111.43685778 14.95387771 110.70349042 14.14830149 108.51454163 12.48101807 C102.49789804 10.47547021 95.85664082 11.48101807 89.51454163 11.48101807 Z M121.45204163 13.66851807 C117.93436948 18.77481634 117.12590294 23.15323749 117.13954163 29.29351807 C117.14042786 30.00330811 117.14131409 30.71309814 117.14222717 31.44439697 C117.27285359 37.21980881 118.22506659 40.78176802 121.51454163 45.48101807 C125.9917717 48.46583811 130.27723896 48.4448013 135.51454163 47.48101807 C139.77836865 44.7676736 141.28085445 41.49922649 142.38954163 36.66851807 C142.45981649 35.27383235 142.49947284 33.87739185 142.51454163 32.48101807 C142.563526 31.66117432 142.61251038 30.84133057 142.66297913 29.99664307 C142.93525775 23.08495489 141.64676851 18.94588675 138.01454163 13.04351807 C132.78627009 9.77584836 126.37827975 10.14977655 121.45204163 13.66851807 Z M74.51454163 31.48101807 C74.51454163 33.13101807 74.51454163 34.78101807 74.51454163 36.48101807 C77.81454163 36.48101807 81.11454163 36.48101807 84.51454163 36.48101807 C84.51454163 34.50101807 84.51454163 32.52101807 84.51454163 30.48101807 C83.03547271 30.4541259 81.5562668 30.43467185 80.07704163 30.41851807 C79.25333069 30.4069165 78.42961975 30.39531494 77.58094788 30.38336182 C75.52290225 30.24834459 75.52290225 30.24834459 74.51454163 31.48101807 Z " fill="#172C6E" transform="translate(73.48545837402344,22.51898193359375)"/>
<path d="M0 0 C2.28775943 0.00502769 4.57551994 0.00958834 6.86328125 0.01367188 C12.40887807 0.02457084 17.95443384 0.0412073 23.5 0.0625 C23.5 0.7225 23.5 1.3825 23.5 2.0625 C24.49 2.5575 24.49 2.5575 25.5 3.0625 C25.5 4.3825 25.5 5.7025 25.5 7.0625 C18.67843586 8.7399338 12.63913564 9.41348767 5.5 10.0625 C5.5 21.9425 5.5 33.8225 5.5 46.0625 C10.78 46.3925 16.06 46.7225 21.5 47.0625 C22.16 47.3925 22.82 47.7225 23.5 48.0625 C23.87890625 49.98828125 23.87890625 49.98828125 24.0625 52.375 C24.30590173 55.38026628 24.6945856 58.1536893 25.5 61.0625 C22.81756648 62.40371676 20.6440041 62.2777412 17.640625 62.37890625 C16.39667969 62.42088135 15.15273437 62.46285645 13.87109375 62.50610352 C12.49741034 62.54623531 11.12371185 62.58585371 9.75 62.625 C9.0585791 62.64617889 8.3671582 62.66735779 7.65478516 62.68917847 C-10.39694089 63.23433192 -28.44087596 63.12889384 -46.5 63.0625 C-46.5 43.2625 -46.5 23.4625 -46.5 3.0625 C-32.67795283 -2.46631887 -14.67117727 -0.05653427 0 0 Z M-41.5 10.0625 C-41.5 21.9425 -41.5 33.8225 -41.5 46.0625 C-38.86 46.0625 -36.22 46.0625 -33.5 46.0625 C-33.5 40.7825 -33.5 35.5025 -33.5 30.0625 C-29.54 29.5675 -29.54 29.5675 -25.5 29.0625 C-25.17 28.0725 -24.84 27.0825 -24.5 26.0625 C-27.47 25.7325 -30.44 25.4025 -33.5 25.0625 C-33.5 21.1025 -33.5 17.1425 -33.5 13.0625 C-30.2 13.0625 -26.9 13.0625 -23.5 13.0625 C-23.5 12.0725 -23.5 11.0825 -23.5 10.0625 C-29.44 10.0625 -35.38 10.0625 -41.5 10.0625 Z M-18.5 10.0625 C-18.5 21.9425 -18.5 33.8225 -18.5 46.0625 C-11.9 46.0625 -5.3 46.0625 1.5 46.0625 C1.5 45.0725 1.5 44.0825 1.5 43.0625 C-2.46 43.0625 -6.42 43.0625 -10.5 43.0625 C-10.5 32.1725 -10.5 21.2825 -10.5 10.0625 C-13.14 10.0625 -15.78 10.0625 -18.5 10.0625 Z " fill="#172B6C" transform="translate(105.5,23.9375)"/>
<path d="M0 0 C1.07577741 -0.00128164 1.07577741 -0.00128164 2.17328769 -0.00258917 C4.58241333 -0.00423954 6.99146973 0.00127019 9.40058899 0.00672913 C11.12514748 0.00701112 12.8497061 0.00685303 14.57426453 0.00628662 C19.26196438 0.00599912 23.94963876 0.01188825 28.63733268 0.01886058 C33.53406887 0.02510195 38.43080561 0.02569854 43.32754517 0.02688599 C52.60289274 0.02999698 61.87822856 0.03820727 71.15357095 0.04823548 C81.71208374 0.05940378 92.27059709 0.06490888 102.82911432 0.06993091 C124.5512708 0.08039006 146.27341116 0.09873269 167.99555969 0.12025452 C167.99555969 21.24025452 167.99555969 42.36025452 167.99555969 64.12025452 C162.05555969 64.12025452 156.11555969 64.12025452 149.99555969 64.12025452 C149.99555969 63.79025452 149.99555969 63.46025452 149.99555969 63.12025452 C157.91555969 62.62525452 157.91555969 62.62525452 165.99555969 62.12025452 C165.99555969 41.99025452 165.99555969 21.86025452 165.99555969 1.12025452 C165.00555969 1.45025452 164.01555969 1.78025452 162.99555969 2.12025452 C163.49055969 2.90400452 163.98555969 3.68775452 164.49555969 4.49525452 C165.99555969 7.12025452 165.99555969 7.12025452 165.99555969 9.12025452 C165.33555969 9.12025452 164.67555969 9.12025452 163.99555969 9.12025452 C163.99555969 8.46025452 163.99555969 7.80025452 163.99555969 7.12025452 C162.34555969 6.79025452 160.69555969 6.46025452 158.99555969 6.12025452 C158.99555969 6.78025452 158.99555969 7.44025452 158.99555969 8.12025452 C159.98555969 8.12025452 160.97555969 8.12025452 161.99555969 8.12025452 C160.9950683 12.89182883 159.9014805 17.49121436 158.37055969 22.12025452 C156.11287096 29.56141228 156.34893359 35.20874494 159.39399719 42.32337952 C160.23064314 44.82245182 159.83911439 46.66627721 158.99555969 49.12025452 C157.67555969 49.45025452 156.35555969 49.78025452 154.99555969 50.12025452 C153.103426 47.73452073 151.97164186 46.04850103 150.99555969 43.12025452 C150.65782532 43.86791077 150.32009094 44.61556702 149.97212219 45.38587952 C149.52610657 46.37072327 149.08009094 47.35556702 148.62055969 48.37025452 C147.95927063 49.83205139 147.95927063 49.83205139 147.28462219 51.32337952 C146.64653625 52.70783264 146.64653625 52.70783264 145.99555969 54.12025452 C145.67329407 54.87822327 145.35102844 55.63619202 145.01899719 56.41712952 C143.99555969 58.12025452 143.99555969 58.12025452 140.99555969 59.12025452 C139.99555969 58.12025452 139.99555969 58.12025452 139.89790344 55.83509827 C139.91530579 54.46031311 139.91530579 54.46031311 139.93305969 53.05775452 C139.94208313 52.13865295 139.95110657 51.21955139 139.96040344 50.27259827 C139.97780579 49.20718811 139.97780579 49.20718811 139.99555969 48.12025452 C140.65555969 48.12025452 141.31555969 48.12025452 141.99555969 48.12025452 C143.07723882 40.90906031 142.77565953 34.35303203 141.99555969 27.12025452 C141.92208313 26.26560608 141.84860657 25.41095764 141.77290344 24.53041077 C141.40015927 20.45733358 141.03710534 16.749669 138.99555969 13.12025452 C134.38035554 11.58185313 129.81531843 11.59919952 124.99555969 12.12025452 C121.43421794 14.46552836 120.29103709 17.13543164 118.99555969 21.12025452 C118.8060122 23.79064419 118.71567003 26.33009266 118.74555969 28.99525452 C118.73782532 29.67716858 118.73009094 30.35908264 118.72212219 31.06166077 C118.74002227 35.76043124 119.52723518 39.65701412 120.99555969 44.12025452 C119.28715688 42.48613009 118.06102922 41.25119358 116.99555969 39.12025452 C116.56243469 39.94525452 116.12930969 40.77025452 115.68305969 41.62025452 C115.12618469 42.44525452 114.56930969 43.27025452 113.99555969 44.12025452 C113.00555969 44.12025452 112.01555969 44.12025452 110.99555969 44.12025452 C111.34618469 43.62525452 111.69680969 43.13025452 112.05805969 42.62025452 C113.41572403 38.99981629 113.24442833 35.78100071 111.99555969 32.12025452 C109.55246393 30.20280859 109.55246393 30.20280859 106.99555969 29.12025452 C106.99555969 28.46025452 106.99555969 27.80025452 106.99555969 27.12025452 C107.65555969 26.76962952 108.31555969 26.41900452 108.99555969 26.05775452 C111.83418004 23.30784106 111.5164448 21.08901547 111.62446594 17.27650452 C111.04445019 14.37990316 111.04445019 14.37990316 105.99555969 12.12025452 C100.71555969 11.79025452 95.43555969 11.46025452 89.99555969 11.12025452 C89.99555969 23.00025452 89.99555969 34.88025452 89.99555969 47.12025452 C87.8339077 42.79695053 87.81190558 39.94297834 88.01899719 35.29212952 C88.04402313 34.54312378 88.06904907 33.79411804 88.09483337 33.02241516 C88.17678937 30.63788437 88.27347109 28.25421239 88.37055969 25.87025452 C88.42882433 24.25049756 88.48612707 22.63070569 88.54243469 21.01087952 C88.68233137 17.04684685 88.83543417 13.08351951 88.99555969 9.12025452 C88.04680969 9.63587952 87.09805969 10.15150452 86.12055969 10.68275452 C85.08930969 11.15712952 84.05805969 11.63150452 82.99555969 12.12025452 C82.00555969 11.62525452 82.00555969 11.62525452 80.99555969 11.12025452 C80.66555969 11.78025452 80.33555969 12.44025452 79.99555969 13.12025452 C79.33555969 13.12025452 78.67555969 13.12025452 77.99555969 13.12025452 C78.05743469 13.98650452 78.11930969 14.85275452 78.18305969 15.74525452 C77.99555969 19.12025452 77.99555969 19.12025452 76.49946594 21.76478577 C74.56935571 26.07118756 74.62345881 29.53147407 74.74555969 34.18275452 C74.75329407 35.36708069 74.75329407 35.36708069 74.76118469 36.57533264 C74.80512905 39.85193368 74.93950822 42.84759121 75.60102844 46.06556702 C75.73122375 46.74361389 75.86141907 47.42166077 75.99555969 48.12025452 C74.55805969 49.93275452 74.55805969 49.93275452 72.99555969 51.12025452 C71.05805969 50.49525452 71.05805969 50.49525452 68.99555969 49.12025452 C68.24555969 45.99525452 68.24555969 45.99525452 67.99555969 43.12025452 C67.33555969 43.12025452 66.67555969 43.12025452 65.99555969 43.12025452 C65.88341125 43.8356842 65.77126282 44.55111389 65.65571594 45.28822327 C64.95099964 48.3114145 63.86268171 50.6834814 62.43305969 53.43275452 C61.97802063 54.31576233 61.52298157 55.19877014 61.05415344 56.10853577 C60.7048175 56.77240295 60.35548157 57.43627014 59.99555969 58.12025452 C59.33555969 58.12025452 58.67555969 58.12025452 57.99555969 58.12025452 C57.22467179 51.6227708 58.15530727 48.4512775 61.62055969 42.87025452 C65.1372782 36.7727184 65.43273739 33.18433218 63.88618469 26.39759827 C63.59227844 25.31607483 63.29837219 24.23455139 62.99555969 23.12025452 C62.44811663 20.80911516 61.90634777 18.49662361 61.37055969 16.18275452 C61.11016907 15.16310608 60.84977844 14.14345764 60.58149719 13.09291077 C59.96949395 9.98801432 59.75318383 7.27562917 59.99555969 4.12025452 C60.65555969 3.46025452 61.31555969 2.80025452 61.99555969 2.12025452 C54.49231205 2.09458438 46.98907601 2.07725558 39.48579407 2.06532288 C36.94119341 2.0603404 34.39659554 2.053552 31.852005 2.04481506 C17.53059096 1.99692678 3.28289623 2.06471 -11.00444031 3.12025452 C-8.9244293 -1.0397675 -4.07805071 -0.00291915 0 0 Z " fill="#182A67" transform="translate(73.00444030761719,22.879745483398438)"/>
<path d="M0 0 C3.63 0 7.26 0 11 0 C11.7977891 3.19115638 12.12269095 5.30354994 12.11352539 8.49316406 C12.11344986 9.37377502 12.11337433 10.25438599 12.11329651 11.16168213 C12.10813522 12.10348328 12.10297394 13.04528442 12.09765625 14.015625 C12.0962413 14.98659119 12.09482635 15.95755737 12.09336853 16.95794678 C12.08777663 20.05532935 12.07522559 23.15263932 12.0625 26.25 C12.05748395 28.35156146 12.05292123 30.45312404 12.04882812 32.5546875 C12.03780985 37.70315292 12.02055074 42.85156416 12 48 C11.34 48 10.68 48 10 48 C9.67 46.02 9.34 44.04 9 42 C8.34 42 7.68 42 7 42 C7 43.98 7 45.96 7 48 C0.25 52 0.25 52 -2 52 C-2.33 52.66 -2.66 53.32 -3 54 C-3.66 53.01 -4.32 52.02 -5 51 C-5.66 51 -6.32 51 -7 51 C-7 51.99 -7 52.98 -7 54 C-7.66 54 -8.32 54 -9 54 C-9.33 54.99 -9.66 55.98 -10 57 C-10.33 56.34 -10.66 55.68 -11 55 C-10.07421875 52.7578125 -10.07421875 52.7578125 -8.6875 50.125 C-8.23761719 49.26132813 -7.78773438 48.39765625 -7.32421875 47.5078125 C-6.88722656 46.68023437 -6.45023438 45.85265625 -6 45 C-5.32974912 43.6684648 -4.66169158 42.3358093 -4 41 C-3.71125 41.598125 -3.4225 42.19625 -3.125 42.8125 C-1.95257974 45.19327792 -1.95257974 45.19327792 0 48 C1.98 47.505 1.98 47.505 4 47 C3.55716079 43.90012556 3.04693994 41.12425277 1.9375 38.1875 C-0.37055473 30.34011392 1.40123989 23.48209862 4 15.9375 C4.28617188 15.07189453 4.57234375 14.20628906 4.8671875 13.31445312 C5.56633434 11.20536016 6.27731053 9.10111711 7 7 C6.01 7 5.02 7 4 7 C4 6.34 4 5.68 4 5 C6.475 5.495 6.475 5.495 9 6 C9 6.66 9 7.32 9 8 C9.66 8 10.32 8 11 8 C10.505 7.21625 10.01 6.4325 9.5 5.625 C8 3 8 3 8 1 C5.36 1 2.72 1 0 1 C0 0.67 0 0.34 0 0 Z " fill="#1A2D68" transform="translate(228,24)"/>
<path d="M0 0 C1.65 0.33 3.3 0.66 5 1 C6.32 5.95 7.64 10.9 9 16 C9.86625 12.8134375 9.86625 12.8134375 10.75 9.5625 C11.734375 5.94140625 11.734375 5.94140625 13 3 C15.140625 2.08984375 15.140625 2.08984375 17 2 C15.99950861 6.77157432 14.9059208 11.37095985 13.375 16 C11.11731127 23.44115777 11.3533739 29.08849042 14.3984375 36.203125 C15.23508344 38.7021973 14.8435547 40.54602269 14 43 C12.02 43.495 12.02 43.495 10 44 C8.10786631 41.61426621 6.97608217 39.92824652 6 37 C5.49339844 38.12148437 5.49339844 38.12148437 4.9765625 39.265625 C4.53054687 40.25046875 4.08453125 41.2353125 3.625 42.25 C2.96371094 43.71179688 2.96371094 43.71179688 2.2890625 45.203125 C1.23361862 47.49311839 0.14456065 49.75366601 -1 52 C-1.66 52 -2.32 52 -3 52 C-3.92944039 44.16614526 -1.68181327 39.9649047 2.56640625 33.40625 C4.48656262 28.8439166 3.93301366 25.76099449 3 21 C2.75890503 19.72479492 2.75890503 19.72479492 2.51293945 18.42382812 C1.81057407 14.85964484 1.04906675 11.30923747 0.28515625 7.7578125 C0.10597656 6.89929687 -0.07320312 6.04078125 -0.2578125 5.15625 C-0.4242627 4.38087891 -0.59071289 3.60550781 -0.76220703 2.80664062 C-0.84067871 2.21044922 -0.91915039 1.61425781 -1 1 C-0.67 0.67 -0.34 0.34 0 0 Z " fill="#EDA529" transform="translate(218,29)"/>
<path d="M0 0 C1.32 0 2.64 0 4 0 C5.65 5.28 7.3 10.56 9 16 C9.4125 14.4325 9.825 12.865 10.25 11.25 C11.44907123 7.19954887 12.53733581 4.6268487 16 2 C15.52286525 8.91845387 13.90804018 14.98313297 11.7421875 21.5703125 C10.64756515 26.62862001 11.24347547 31.09138022 13.625 35.6875 C15 39 15 39 14.9375 41.3125 C13.69743734 43.54461278 12.34026698 44.0940902 10 45 C7.37613513 41.93882432 7 41.26826873 7 37 C6.34 37 5.68 37 5 37 C4.83177734 38.07314453 4.83177734 38.07314453 4.66015625 39.16796875 C3.95543995 42.19115998 2.86712202 44.56322688 1.4375 47.3125 C0.98246094 48.19550781 0.52742187 49.07851562 0.05859375 49.98828125 C-0.29074219 50.65214844 -0.64007813 51.31601563 -1 52 C-1.66 52 -2.32 52 -3 52 C-3.7708879 45.50251628 -2.84025242 42.33102298 0.625 36.75 C4.13993237 30.65556081 4.43594358 27.06901908 2.89453125 20.28515625 C2.59933594 19.20105469 2.30414063 18.11695312 2 17 C1.43055663 14.6475032 0.86790183 12.29335138 0.3125 9.9375 C0.04050781 8.89464844 -0.23148438 7.85179687 -0.51171875 6.77734375 C-0.98934521 4.06060443 -0.91631186 2.56444327 0 0 Z " fill="#F1A623" transform="translate(134,29)"/>
<path d="M0 0 C1.65 0 3.3 0 5 0 C7.23833963 5.40043848 7.30067054 10.25733893 7.25 16 C7.25773438 16.8765625 7.26546875 17.753125 7.2734375 18.65625 C7.25883881 23.50301655 6.8850424 27.45196119 5 32 C3.35 32 1.7 32 0 32 C-1.58627265 28.48405109 -2.25556644 25.72599092 -2.265625 21.875 C-2.26820313 20.92109375 -2.27078125 19.9671875 -2.2734375 18.984375 C-2.26570312 17.99953125 -2.25796875 17.0146875 -2.25 16 C-2.25773438 15.01515625 -2.26546875 14.0303125 -2.2734375 13.015625 C-2.27085937 12.06171875 -2.26828125 11.1078125 -2.265625 10.125 C-2.26336914 9.26132812 -2.26111328 8.39765625 -2.25878906 7.5078125 C-1.97054584 4.71457254 -1.15021872 2.54944209 0 0 Z " fill="#162C70" transform="translate(201,36)"/>
<path d="M0 0 C2.71965871 4.07948806 3.24927097 8.11272555 4.1875 12.875 C4.37763672 13.77347656 4.56777344 14.67195313 4.76367188 15.59765625 C4.93833984 16.47035156 5.11300781 17.34304687 5.29296875 18.2421875 C5.4530542 19.0347998 5.61313965 19.82741211 5.77807617 20.64404297 C6.25160882 25.67109473 4.56195155 29.03756044 2 33.25 C-0.89381404 38.35225107 -1.80884066 42.16964023 -2 48 C-0.68 47.01 0.64 46.02 2 45 C2 46.65 2 48.3 2 50 C7.77598058 51.96087488 13.01430013 52.33646797 19.08984375 52.4140625 C20.5066317 52.44311172 20.5066317 52.44311172 21.95204163 52.4727478 C24.94710467 52.53217692 27.94220691 52.57878154 30.9375 52.625 C32.97722962 52.66321356 35.01694369 52.70226723 37.05664062 52.7421875 C42.03763299 52.8378481 47.01870083 52.92201365 52 53 C52 53.33 52 53.66 52 54 C22.96 54 -6.08 54 -36 54 C-36 53.67 -36 53.34 -36 53 C-24.78 52.67 -13.56 52.34 -2 52 C-2.66 50.68 -3.32 49.36 -4 48 C-4.25065631 44.97207178 -4.08957617 42.04558972 -4 39 C-7.63 38.67 -11.26 38.34 -15 38 C-15 37.67 -15 37.34 -15 37 C-10.71 37 -6.42 37 -2 37 C-1.67 35.35 -1.34 33.7 -1 32 C-0.34 31.67 0.32 31.34 1 31 C1.65213292 28.97536745 1.65213292 28.97536745 2 27 C2.66 27 3.32 27 4 27 C3.52450066 24.37428665 3.04477433 21.7494696 2.5625 19.125 C2.42779297 18.37863281 2.29308594 17.63226563 2.15429688 16.86328125 C1.45463389 12.81466622 1.45463389 12.81466622 0 9 C-0.06950541 7.45976004 -0.08452357 5.91665012 -0.0625 4.375 C-0.05347656 3.55773438 -0.04445312 2.74046875 -0.03515625 1.8984375 C-0.02355469 1.27195313 -0.01195312 0.64546875 0 0 Z " fill="#1F2E59" transform="translate(133,33)"/>
<path d="M0 0 C0.66 0 1.32 0 2 0 C3.84139633 5.66784403 5.40262839 11.38200479 6.75 17.1875 C7.01296875 18.31542969 7.2759375 19.44335938 7.546875 20.60546875 C8.37027664 26.77388279 7.28924358 31.10189539 4 36.3125 C0.95963359 41.56404198 0.0261435 45.97392397 0 52 C-0.66 51.67 -1.32 51.34 -2 51 C-2 47.7 -2 44.4 -2 41 C-1.34 41 -0.68 41 0 41 C1.08175644 33.78829039 0.77807039 27.23317285 0 20 C-0.07347656 19.12214844 -0.14695313 18.24429688 -0.22265625 17.33984375 C-0.56466953 13.51551339 -0.83470556 11.24794165 -3 8 C-3 6.68 -3 5.36 -3 4 C-2.01 3.67 -1.02 3.34 0 3 C0 2.01 0 1.02 0 0 Z " fill="#232E61" transform="translate(215,30)"/>
<path d="M0 0 C0.91727371 -0.00014603 1.83454742 -0.00029205 2.77961731 -0.0004425 C5.81509761 0.00025482 8.85051673 0.00803883 11.88598633 0.01586914 C13.98920152 0.01773396 16.09241715 0.01915756 18.19563293 0.02015686 C23.73421424 0.023977 29.27276937 0.03380302 34.81134033 0.04486084 C40.46186977 0.05508575 46.11240343 0.0596568 51.76293945 0.06469727 C62.85214367 0.07542571 73.94132845 0.09249613 85.03051758 0.11352539 C85.03051758 0.44352539 85.03051758 0.77352539 85.03051758 1.11352539 C77.77051758 1.11352539 70.51051758 1.11352539 63.03051758 1.11352539 C64.02051758 4.08352539 65.01051758 7.05352539 66.03051758 10.11352539 C66.03051758 10.77352539 66.03051758 11.43352539 66.03051758 12.11352539 C66.69051758 12.11352539 67.35051758 12.11352539 68.03051758 12.11352539 C68.03051758 13.10352539 68.03051758 14.09352539 68.03051758 15.11352539 C68.69051758 15.11352539 69.35051758 15.11352539 70.03051758 15.11352539 C69.04051758 19.56852539 69.04051758 19.56852539 68.03051758 24.11352539 C67.70051758 24.11352539 67.37051758 24.11352539 67.03051758 24.11352539 C65.71051758 18.17352539 64.39051758 12.23352539 63.03051758 6.11352539 C61.38051758 6.44352539 59.73051758 6.77352539 58.03051758 7.11352539 C58.03051758 4.11352539 58.03051758 4.11352539 60.03051758 2.11352539 C52.52726993 2.08785525 45.02403389 2.07052645 37.52075195 2.05859375 C34.97615129 2.05361127 32.43155343 2.04682287 29.88696289 2.03808594 C15.56554885 1.99019765 1.31785412 2.05798087 -12.96948242 3.11352539 C-10.6936942 -1.43805106 -4.4357673 -0.01836916 0 0 Z " fill="#1C2856" transform="translate(74.969482421875,22.886474609375)"/>
<path d="M0 0 C0.66 1.32 1.32 2.64 2 4 C2.66 4 3.32 4 4 4 C4.33 5.32 4.66 6.64 5 8 C4.34 8 3.68 8 3 8 C3 19.88 3 31.76 3 44 C5.31 44 7.62 44 10 44 C10 44.33 10 44.66 10 45 C7.36 45.33 4.72 45.66 2 46 C1.67 34.78 1.34 23.56 1 12 C0.67 12 0.34 12 0 12 C0 27.51 0 43.02 0 59 C6.27 59.33 12.54 59.66 19 60 C19 60.33 19 60.66 19 61 C12.07 61 5.14 61 -2 61 C-2 41.2 -2 21.4 -2 1 C-1.34 0.67 -0.68 0.34 0 0 Z " fill="#1A2754" transform="translate(61,26)"/>
<path d="M0 0 C2.71965871 4.07948806 3.24927097 8.11272555 4.1875 12.875 C4.47270508 14.22271484 4.47270508 14.22271484 4.76367188 15.59765625 C4.93833984 16.47035156 5.11300781 17.34304687 5.29296875 18.2421875 C5.4530542 19.0347998 5.61313965 19.82741211 5.77807617 20.64404297 C6.25092222 25.66380579 4.57661758 28.99430264 2 33.1875 C-1.0091785 38.48595783 -1.97374332 42.94783496 -2 49 C-2.66 48.67 -3.32 48.34 -4 48 C-4 45.03 -4 42.06 -4 39 C-7.63 38.67 -11.26 38.34 -15 38 C-15 37.67 -15 37.34 -15 37 C-10.71 37 -6.42 37 -2 37 C-1.67 35.35 -1.34 33.7 -1 32 C-0.34 31.67 0.32 31.34 1 31 C1.65213292 28.97536745 1.65213292 28.97536745 2 27 C2.66 27 3.32 27 4 27 C3.52450066 24.37428665 3.04477433 21.7494696 2.5625 19.125 C2.42779297 18.37863281 2.29308594 17.63226563 2.15429688 16.86328125 C1.45463389 12.81466622 1.45463389 12.81466622 0 9 C-0.06950541 7.45976004 -0.08452357 5.91665012 -0.0625 4.375 C-0.05347656 3.55773438 -0.04445312 2.74046875 -0.03515625 1.8984375 C-0.02355469 1.27195313 -0.01195312 0.64546875 0 0 Z " fill="#3C394B" transform="translate(133,33)"/>
<path d="M0 0 C2.97 0.495 2.97 0.495 6 1 C8.1125647 4.03107109 8.11054284 6.62394428 7.8125 10.1875 C7 14 7 14 4 16 C2.68 16 1.36 16 0 16 C0 10.72 0 5.44 0 0 Z " fill="#142867" transform="translate(171,52)"/>
<path d="M0 0 C0.33 1.32 0.66 2.64 1 4 C1.66 4 2.32 4 3 4 C3 9.61 3 15.22 3 21 C3.99 21 4.98 21 6 21 C7.10789535 16.94691667 7.33731267 12.92888626 7.5625 8.75 C7.62727539 7.63238281 7.62727539 7.63238281 7.69335938 6.4921875 C7.79896725 4.661651 7.89994201 2.83084824 8 1 C8.33 1 8.66 1 9 1 C9.05849554 4.20825562 9.09376162 7.41637233 9.125 10.625 C9.14175781 11.52863281 9.15851563 12.43226562 9.17578125 13.36328125 C9.21201643 18.32750152 8.96444146 22.34411907 7 27 C5.35 27 3.7 27 2 27 C0.3628526 23.40564006 -0.24140626 20.64023532 -0.1953125 16.69921875 C-0.18886719 15.72275391 -0.18242187 14.74628906 -0.17578125 13.74023438 C-0.15902344 12.73283203 -0.14226562 11.72542969 -0.125 10.6875 C-0.11597656 9.66076172 -0.10695312 8.63402344 -0.09765625 7.57617188 C-0.07416201 5.05054101 -0.04131131 2.5253919 0 0 Z " fill="#11245A" transform="translate(199,41)"/>
<path d="M0 0 C0.33 0 0.66 0 1 0 C1.5361079 2.18380675 2.05320098 4.37228583 2.5625 6.5625 C2.85253906 7.78066406 3.14257812 8.99882813 3.44140625 10.25390625 C4.38751932 16.59881838 3.39386433 20.93616203 0 26.3125 C-3.04036641 31.56404198 -3.9738565 35.97392397 -4 42 C-4.66 41.67 -5.32 41.34 -6 41 C-6 37.7 -6 34.4 -6 31 C-5.34 31 -4.68 31 -4 31 C-3.896875 29.741875 -3.79375 28.48375 -3.6875 27.1875 C-3.35342189 24.49101243 -3.17022107 23.23682932 -1.5625 21 C0 20 0 20 2 20 C2 17.69 2 15.38 2 13 C0.02 13.99 0.02 13.99 -2 15 C-1.855625 14.01 -1.71125 13.02 -1.5625 12 C-0.99074821 8.00590535 -0.49180166 4.00467063 0 0 Z " fill="#383646" transform="translate(219,40)"/>
<path d="M0 0 C0.33 0 0.66 0 1 0 C1.70636152 8.99433664 0.28592703 15.10350414 -4 23 C-4.67026297 24.33152911 -5.33828532 25.66420215 -6 27 C-6.66 27 -7.32 27 -8 27 C-8.92891015 19.17061448 -6.63299012 14.71336529 -2.62890625 8.015625 C-1.12332726 5.2283181 -0.40937943 3.11359007 0 0 Z " fill="#DCA043" transform="translate(223,54)"/>
<path d="M0 0 C2.475 0.495 2.475 0.495 5 1 C7.215015 4.3225225 7.19410876 4.87731591 6.6875 8.625 C6.58824219 9.42164063 6.48898438 10.21828125 6.38671875 11.0390625 C6 13 6 13 5 14 C3.35 14 1.7 14 0 14 C0 9.38 0 4.76 0 0 Z " fill="#1A2963" transform="translate(171,36)"/>
<path d="M0 0 C0.66 1.32 1.32 2.64 2 4 C2.66 4 3.32 4 4 4 C4.33 5.32 4.66 6.64 5 8 C4.34 8 3.68 8 3 8 C3 19.88 3 31.76 3 44 C5.31 44 7.62 44 10 44 C10 44.33 10 44.66 10 45 C7.36 45.33 4.72 45.66 2 46 C2 33.46 2 20.92 2 8 C0.68 8 -0.64 8 -2 8 C-2 5.69 -2 3.38 -2 1 C-1.34 0.67 -0.68 0.34 0 0 Z " fill="#102056" transform="translate(61,26)"/>
<path d="M0 0 C1.67542976 0.28604898 3.34385343 0.61781233 5 1 C5.53293835 2.74635165 6.05090663 4.49727652 6.5625 6.25 C6.85253906 7.22453125 7.14257812 8.1990625 7.44140625 9.203125 C7.99249836 11.96243932 7.93789609 13.3912824 7 16 C4.5705484 12.3558226 4.83820425 10.28758728 5 6 C4.34 6 3.68 6 3 6 C3.14049518 7.47968324 3.28754826 8.95874516 3.4375 10.4375 C3.51871094 11.26121094 3.59992188 12.08492187 3.68359375 12.93359375 C3.78930815 14.98662025 3.78930815 14.98662025 5 16 C5.07179964 17.51928038 5.08392007 19.04167482 5.0625 20.5625 C5.05347656 21.38878906 5.04445312 22.21507813 5.03515625 23.06640625 C5.02355469 23.70449219 5.01195312 24.34257813 5 25 C3.42333547 22.11337659 2.5438595 19.4892905 1.89453125 16.26953125 C1.71599609 15.38458984 1.53746094 14.49964844 1.35351562 13.58789062 C1.17498047 12.67201172 0.99644531 11.75613281 0.8125 10.8125 C0.62236328 9.88501953 0.43222656 8.95753906 0.23632812 8.00195312 C0.06166016 7.12087891 -0.11300781 6.23980469 -0.29296875 5.33203125 C-0.4530542 4.52483643 -0.61313965 3.7176416 -0.77807617 2.88598633 C-0.85131104 2.26361084 -0.9245459 1.64123535 -1 1 C-0.67 0.67 -0.34 0.34 0 0 Z " fill="#DFA541" transform="translate(218,29)"/>
<path d="M0 0 C3.63 0 7.26 0 11 0 C11.85221996 3.40887983 12.10783755 5.80434631 12.0625 9.25 C12.05347656 10.14203125 12.04445312 11.0340625 12.03515625 11.953125 C12.02355469 12.62859375 12.01195312 13.3040625 12 14 C11.01 14 10.02 14 9 14 C9 13.34 9 12.68 9 12 C8.34 12 7.68 12 7 12 C6.80664062 12.85464844 6.61328125 13.70929687 6.4140625 14.58984375 C6.02347656 16.24693359 6.02347656 16.24693359 5.625 17.9375 C5.36976563 19.03964844 5.11453125 20.14179687 4.8515625 21.27734375 C4.57054687 22.17582031 4.28953125 23.07429688 4 24 C3.34 24.33 2.68 24.66 2 25 C5.07517084 12.33029613 5.07517084 12.33029613 7 7 C6.01 7 5.02 7 4 7 C4 6.34 4 5.68 4 5 C5.65 5.33 7.3 5.66 9 6 C9 6.66 9 7.32 9 8 C9.66 8 10.32 8 11 8 C10.505 7.21625 10.01 6.4325 9.5 5.625 C8 3 8 3 8 1 C5.36 1 2.72 1 0 1 C0 0.67 0 0.34 0 0 Z " fill="#26305A" transform="translate(228,24)"/>
<path d="M0 0 C0.33 0.66 0.66 1.32 1 2 C2.97888961 2.72693904 4.97954558 3.39816251 7 4 C7.66 3.01 8.32 2.02 9 1 C9.13277344 1.89203125 9.26554688 2.7840625 9.40234375 3.703125 C9.57894531 4.87359375 9.75554687 6.0440625 9.9375 7.25 C10.11152344 8.41015625 10.28554687 9.5703125 10.46484375 10.765625 C10.8727736 13.23106961 11.33901303 15.59424562 12 18 C10.29159719 16.36587557 9.06546953 15.13093906 8 13 C7.566875 13.825 7.13375 14.65 6.6875 15.5 C5.8521875 16.7375 5.8521875 16.7375 5 18 C4.01 18 3.02 18 2 18 C2.350625 17.505 2.70125 17.01 3.0625 16.5 C4.42016433 12.87956177 4.24886864 9.66074619 3 6 C0.55690423 4.08255407 0.55690423 4.08255407 -2 3 C-2 2.34 -2 1.68 -2 1 C-1.34 0.67 -0.68 0.34 0 0 Z " fill="#16285B" transform="translate(182,49)"/>
<path d="M0 0 C0.28875 0.598125 0.5775 1.19625 0.875 1.8125 C2.04742026 4.19327792 2.04742026 4.19327792 4 7 C5.94999129 6.80528889 5.94999129 6.80528889 8 6 C9.28436734 4.0162233 9.28436734 4.0162233 10 2 C10.33 3.65 10.66 5.3 11 7 C4.25 11 4.25 11 2 11 C1.67 11.66 1.34 12.32 1 13 C0.34 12.01 -0.32 11.02 -1 10 C-1.66 10 -2.32 10 -3 10 C-3 10.99 -3 11.98 -3 13 C-3.66 13 -4.32 13 -5 13 C-5.33 13.99 -5.66 14.98 -6 16 C-6.33 15.34 -6.66 14.68 -7 14 C-6.07421875 11.7578125 -6.07421875 11.7578125 -4.6875 9.125 C-4.23761719 8.26132813 -3.78773438 7.39765625 -3.32421875 6.5078125 C-2.88722656 5.68023437 -2.45023438 4.85265625 -2 4 C-1.32974912 2.6684648 -0.66169158 1.3358093 0 0 Z " fill="#2E314E" transform="translate(224,65)"/>
<path d="M0 0 C1.06089844 0.04382813 2.12179688 0.08765625 3.21484375 0.1328125 C6.0625 0.875 6.0625 0.875 7.94140625 3.3046875 C9.0625 5.875 9.0625 5.875 9.0625 7.875 C8.4025 7.875 7.7425 7.875 7.0625 7.875 C7.0625 7.215 7.0625 6.555 7.0625 5.875 C5.4125 5.545 3.7625 5.215 2.0625 4.875 C2.0625 5.535 2.0625 6.195 2.0625 6.875 C-4.6875 6 -4.6875 6 -6.9375 4.875 C-7.5625 2.8125 -7.5625 2.8125 -7.9375 0.875 C-5.17100917 -0.50824542 -3.07657057 -0.17154212 0 0 Z " fill="#182B71" transform="translate(229.9375,24.125)"/>
<path d="M0 0 C0.33 0.99 0.66 1.98 1 3 C1.66 3 2.32 3 3 3 C2.39644592 6.85025879 1.23227397 9.86101159 -0.5625 13.3125 C-1.01753906 14.19550781 -1.47257813 15.07851562 -1.94140625 15.98828125 C-2.29074219 16.65214844 -2.64007813 17.31601563 -3 18 C-3.66 18 -4.32 18 -5 18 C-5.59672183 10.48130488 -4.14352972 6.25968955 0 0 Z " fill="#D19F4E" transform="translate(136,63)"/>
<path d="M0 0 C1.32 0 2.64 0 4 0 C4.70045456 1.91197039 5.384919 3.82980435 6.0625 5.75 C6.44535156 6.81734375 6.82820312 7.8846875 7.22265625 8.984375 C7.98010011 11.92280042 8.07151741 13.22348948 7 16 C6.73445312 15.07316406 6.46890625 14.14632812 6.1953125 13.19140625 C5.84210938 11.99386719 5.48890625 10.79632813 5.125 9.5625 C4.77695313 8.36753906 4.42890625 7.17257813 4.0703125 5.94140625 C3.3391709 2.88308969 3.3391709 2.88308969 1 2 C1.309375 2.639375 1.61875 3.27875 1.9375 3.9375 C3.12814507 7.36935933 3.46161407 10.50642646 3.75390625 14.109375 C3.80573168 16.00903861 3.80573168 16.00903861 5 17 C5.23481693 19.18292774 5.41363323 21.37203174 5.5625 23.5625 C5.64628906 24.76003906 5.73007813 25.95757812 5.81640625 27.19140625 C5.87699219 28.11824219 5.93757812 29.04507813 6 30 C3.03702269 25.55553403 2.42392813 20.73966522 1.3125 15.5625 C1.07466797 14.51255859 0.83683594 13.46261719 0.59179688 12.38085938 C0.26211914 10.86395508 0.26211914 10.86395508 -0.07421875 9.31640625 C-0.27619873 8.39287354 -0.47817871 7.46934082 -0.6862793 6.51782227 C-1.00061728 3.99504589 -0.79948966 2.39007173 0 0 Z " fill="#DBA445" transform="translate(134,29)"/>
<path d="M0 0 C0.33 0 0.66 0 1 0 C0.45297168 7.93191069 -1.27684808 15.51903925 -4 23 C-4.66 23.33 -5.32 23.66 -6 24 C-6 22.35 -6 20.7 -6 19 C-5.34 19 -4.68 19 -4 19 C-4 18.34 -4 17.68 -4 17 C-4.66 17 -5.32 17 -6 17 C-5.1100459 10.41902362 -4.33321199 5.17189819 0 0 Z " fill="#E4A735" transform="translate(149,31)"/>
<path d="M0 0 C1.65 0 3.3 0 5 0 C5.08188486 1.87425348 5.13958757 3.74957054 5.1875 5.625 C5.22230469 6.66914062 5.25710937 7.71328125 5.29296875 8.7890625 C5 12 5 12 3.53125 14.875 C1.60715124 18.80173217 1.4489274 22.06389411 1.3125 26.375 C1.27833984 27.11105469 1.24417969 27.84710938 1.20898438 28.60546875 C1.12727211 30.40313853 1.06194219 32.20154046 1 34 C-1.60181499 30.09727751 -2.49746396 26.62478505 -1.60595703 21.92089844 C-0.98709443 19.71347126 -0.29722035 17.54654946 0.4375 15.375 C2.66322559 8.84451196 2.66322559 8.84451196 3 2 C2.01 2.99 1.02 3.98 0 5 C0 3.35 0 1.7 0 0 Z " fill="#3A384A" transform="translate(146,30)"/>
<path d="M0 0 C0.66 0 1.32 0 2 0 C2 0.99 2 1.98 2 3 C2.66 3 3.32 3 4 3 C4 4.98 4 6.96 4 9 C0.86835237 10.85579119 -1.37222163 11.28640356 -5 11 C-5.66 10.67 -6.32 10.34 -7 10 C-8.65 11.32 -10.3 12.64 -12 14 C-10.66666667 10 -9.33333333 6 -8 2 C-7.34 2 -6.68 2 -6 2 C-5.01 4.31 -4.02 6.62 -3 9 C-1.68 8.34 -0.36 7.68 1 7 C0.67 4.69 0.34 2.38 0 0 Z " fill="#383546" transform="translate(147,64)"/>
<path d="M0 0 C0.99 0 1.98 0 3 0 C1.64746536 6.45054982 -0.03060233 12.71105679 -2 19 C-3.57421875 17.90625 -3.57421875 17.90625 -5 16 C-4.70703125 12.96875 -4.70703125 12.96875 -3.8125 9.5 C-3.53019531 8.3553125 -3.24789062 7.210625 -2.95703125 6.03125 C-2 3 -2 3 0 0 Z " fill="#CF9C48" transform="translate(232,31)"/>
<path d="M0 0 C0.33 0.99 0.66 1.98 1 3 C-1.97 3.66 -4.94 4.32 -8 5 C-7.89386164 7.45224694 -7.89386164 7.45224694 -7 10 C-4.52363988 11.37466625 -4.52363988 11.37466625 -2 12 C-2 12.66 -2 13.32 -2 14 C-4.64 14 -7.28 14 -10 14 C-10 10.04 -10 6.08 -10 2 C-6.7 2 -3.4 2 0 2 C0 1.34 0 0.68 0 0 Z " fill="#142259" transform="translate(129,35)"/>
<path d="M0 0 C2.50890433 3.7633565 5.06317316 7.66259322 4.9375 12.3125 C3.69743734 14.54461278 2.34026698 15.0940902 0 16 C-2.62386487 12.93882432 -3 12.26826873 -3 8 C-1.68 8 -0.36 8 1 8 C0.67 5.36 0.34 2.72 0 0 Z " fill="#DFA33C" transform="translate(144,58)"/>
<path d="M0 0 C1.32 0.66 2.64 1.32 4 2 C4 5.3 4 8.6 4 12 C3.01 12.33 2.02 12.66 1 13 C0.67 12.01 0.34 11.02 0 10 C-2.64 10 -5.28 10 -8 10 C-8 9.67 -8 9.34 -8 9 C-5.03 9 -2.06 9 1 9 C1 7.02 1 5.04 1 3 C-1.31 3 -3.62 3 -6 3 C-6 2.34 -6 1.68 -6 1 C-4.7934375 1.0309375 -4.7934375 1.0309375 -3.5625 1.0625 C-1.06645115 1.29633621 -1.06645115 1.29633621 0 0 Z " fill="#12245E" transform="translate(157,50)"/>
<path d="M0 0 C2.97 0.495 2.97 0.495 6 1 C8.02021295 4.30580301 8.21811297 7.18302301 8 11 C7.67 9.68 7.34 8.36 7 7 C5.35 6.67 3.7 6.34 2 6 C1.95875 7.27875 1.9175 8.5575 1.875 9.875 C1.85179687 10.59429687 1.82859375 11.31359375 1.8046875 12.0546875 C1.81668311 14.23863645 1.81668311 14.23863645 4 16 C2.68 16 1.36 16 0 16 C0 10.72 0 5.44 0 0 Z " fill="#172559" transform="translate(171,52)"/>
<path d="M0 0 C0.33 0 0.66 0 1 0 C1.33 2.64 1.66 5.28 2 8 C2.99 7.67 3.98 7.34 5 7 C5 9.31 5 11.62 5 14 C4.01 14.495 4.01 14.495 3 15 C2.01 16.485 2.01 16.485 1 18 C-0.83292414 11.59233959 -1.04559253 6.58723293 0 0 Z " fill="#304184" transform="translate(216,46)"/>
<path d="M0 0 C2.64 0 5.28 0 8 0 C8 0.33 8 0.66 8 1 C6.35 1 4.7 1 3 1 C3 5.29 3 9.58 3 14 C5.97 14 8.94 14 12 14 C12 14.33 12 14.66 12 15 C8.04 15 4.08 15 0 15 C0 10.05 0 5.1 0 0 Z " fill="#1A2958" transform="translate(119,52)"/>
<path d="M0 0 C0.99 0.495 0.99 0.495 2 1 C2.625 3.5625 2.625 3.5625 3 6 C3.99 6 4.98 6 6 6 C5.67 4.35 5.34 2.7 5 1 C6.32 1.33 7.64 1.66 9 2 C8.3844197 4.14855454 7.75726569 6.29379625 7.125 8.4375 C6.77695313 9.63246094 6.42890625 10.82742187 6.0703125 12.05859375 C5 15 5 15 3 16 C2.01 10.72 1.02 5.44 0 0 Z " fill="#3A3443" transform="translate(223,30)"/>
<path d="M0 0 C-0.33 0.66 -0.66 1.32 -1 2 C-1.33 2.99 -1.66 3.98 -2 5 C-0.35 5 1.3 5 3 5 C2.67 5.66 2.34 6.32 2 7 C-2.95 7 -7.9 7 -13 7 C-13 6.67 -13 6.34 -13 6 C-10.69 6 -8.38 6 -6 6 C-6 4.35 -6 2.7 -6 1 C-3 0 -3 0 0 0 Z " fill="#1B2B5F" transform="translate(221,80)"/>
<path d="M0 0 C1.98 0 3.96 0 6 0 C6 0.66 6 1.32 6 2 C7.65 2.33 9.3 2.66 11 3 C11.33 4.98 11.66 6.96 12 9 C11.01 9.33 10.02 9.66 9 10 C8.814375 9.05125 8.62875 8.1025 8.4375 7.125 C7.26599195 3.61628301 7.26599195 3.61628301 3.375 2.625 C2.26125 2.41875 1.1475 2.2125 0 2 C0 1.34 0 0.68 0 0 Z " fill="#26315C" transform="translate(217,27)"/>
<path d="M0 0 C0.66 0 1.32 0 2 0 C2.33 1.65 2.66 3.3 3 5 C3.66 5 4.32 5 5 5 C5 5.99 5 6.98 5 8 C5.66 8 6.32 8 7 8 C6.34 10.97 5.68 13.94 5 17 C4.67 17 4.34 17 4 17 C2.68 11.39 1.36 5.78 0 0 Z " fill="#3C3440" transform="translate(138,30)"/>
<path d="M0 0 C0.33 0 0.66 0 1 0 C1 10.23 1 20.46 1 31 C0.01 30.67 -0.98 30.34 -2 30 C-2 29.34 -2 28.68 -2 28 C-1.34 28 -0.68 28 0 28 C0 18.76 0 9.52 0 0 Z " fill="#192853" transform="translate(110,39)"/>
<path d="M0 0 C1.32 0 2.64 0 4 0 C4.70045456 1.91197039 5.384919 3.82980435 6.0625 5.75 C6.44535156 6.81734375 6.82820312 7.8846875 7.22265625 8.984375 C7.98010011 11.92280042 8.07151741 13.22348948 7 16 C6.73445312 15.07316406 6.46890625 14.14632812 6.1953125 13.19140625 C5.84210938 11.99386719 5.48890625 10.79632813 5.125 9.5625 C4.77695313 8.36753906 4.42890625 7.17257813 4.0703125 5.94140625 C3.3391709 2.88308969 3.3391709 2.88308969 1 2 C1 3.65 1 5.3 1 7 C-1 4 -1 4 -0.625 1.8125 C-0.41875 1.214375 -0.2125 0.61625 0 0 Z " fill="#C99B50" transform="translate(134,29)"/>
<path d="M0 0 C2.33944736 0.28730055 4.6739143 0.61936779 7 1 C7 1.33 7 1.66 7 2 C5.02 2 3.04 2 1 2 C0.67 9.26 0.34 16.52 0 24 C-0.33 24 -0.66 24 -1 24 C-1.02887236 20.18751574 -1.04675492 16.3750593 -1.0625 12.5625 C-1.07087891 11.47388672 -1.07925781 10.38527344 -1.08789062 9.26367188 C-1.09111328 8.22919922 -1.09433594 7.19472656 -1.09765625 6.12890625 C-1.10289307 5.17056885 -1.10812988 4.21223145 -1.11352539 3.22485352 C-1 1 -1 1 0 0 Z " fill="#1E2D64" transform="translate(110,32)"/>
<path d="M0 0 C0.33 1.32 0.66 2.64 1 4 C1.2475 4.9075 1.495 5.815 1.75 6.75 C2.09255621 11.20323073 0.75972445 13.91743929 -1 18 C-1.33 18 -1.66 18 -2 18 C-2 16.35 -2 14.7 -2 13 C-1.34 13 -0.68 13 0 13 C0 12.34 0 11.68 0 11 C-0.66 11 -1.32 11 -2 11 C-1.34 7.37 -0.68 3.74 0 0 Z " fill="#CA934A" transform="translate(145,37)"/>
<path d="M0 0 C0.33 0 0.66 0 1 0 C1.66 4.29 2.32 8.58 3 13 C1.35 12.67 -0.3 12.34 -2 12 C-2 13.65 -2 15.3 -2 17 C-4 13.25 -4 13.25 -4 11 C-3.01 11 -2.02 11 -1 11 C-0.67 7.37 -0.34 3.74 0 0 Z " fill="#CD9640" transform="translate(228,52)"/>
<path d="M0 0 C0.33 0 0.66 0 1 0 C2.10228696 4.40914783 2.07654536 8.48382401 2 13 C0.02 13.99 0.02 13.99 -2 15 C-1.855625 14.01 -1.71125 13.02 -1.5625 12 C-0.99074821 8.00590535 -0.49180166 4.00467063 0 0 Z " fill="#2F3352" transform="translate(219,40)"/>
<path d="M0 0 C2.61577816 5.23155631 1.6207859 6.59738034 0 12 C-1.32 11.34 -2.64 10.68 -4 10 C-2.68 6.7 -1.36 3.4 0 0 Z " fill="#21316B" transform="translate(215,59)"/>
<path d="M0 0 C0.99 0 1.98 0 3 0 C3 0.99 3 1.98 3 3 C2.34 3 1.68 3 1 3 C0.67 5.31 0.34 7.62 0 10 C-0.66 9.67 -1.32 9.34 -2 9 C-2.25 3.375 -2.25 3.375 0 0 Z " fill="#E4A531" transform="translate(134,67)"/>
<path d="M0 0 C0 0.66 0 1.32 0 2 C-4.95 2 -9.9 2 -15 2 C-15 1.67 -15 1.34 -15 1 C-13.0641649 0.63684334 -11.12624752 0.28477269 -9.1875 -0.0625 C-8.10855469 -0.25972656 -7.02960938 -0.45695312 -5.91796875 -0.66015625 C-3 -1 -3 -1 0 0 Z " fill="#0B1D5D" transform="translate(132,32)"/>
<path d="M0 0 C0.99 1.32 1.98 2.64 3 4 C2.34 5.32 1.68 6.64 1 8 C0.01 8 -0.98 8 -2 8 C-2 5.69 -2 3.38 -2 1 C-1.34 0.67 -0.68 0.34 0 0 Z " fill="#091246" transform="translate(61,26)"/>
<path d="M0 0 C-0.33 2.97 -0.66 5.94 -1 9 C-2.32 8.01 -3.64 7.02 -5 6 C-4.6875 4.125 -4.6875 4.125 -4 2 C-1 0 -1 0 0 0 Z " fill="#102262" transform="translate(178,40)"/>
<path d="M0 0 C0.33 0.66 0.66 1.32 1 2 C2.485 2.4640625 2.485 2.4640625 4 2.9375 C4.99 3.288125 5.98 3.63875 7 4 C7.33 4.99 7.66 5.98 8 7 C7.34 7.66 6.68 8.32 6 9 C5.67 7.68 5.34 6.36 5 5 C4.401875 4.855625 3.80375 4.71125 3.1875 4.5625 C1.43849596 4.1127561 -0.28677023 3.57107659 -2 3 C-2 2.34 -2 1.68 -2 1 C-1.34 0.67 -0.68 0.34 0 0 Z " fill="#12215D" transform="translate(182,49)"/>
<path d="M0 0 C2.25170312 2.25170312 2.51474 3.32987578 3.1875 6.375 C3.36667969 7.14585938 3.54585937 7.91671875 3.73046875 8.7109375 C4.01304909 11.11082272 3.73503321 12.71670535 3 15 C0.73045369 11.59568053 0.63450051 9.83475798 0.375 5.8125 C0.30023438 4.72582031 0.22546875 3.63914063 0.1484375 2.51953125 C0.09945312 1.68808594 0.05046875 0.85664063 0 0 Z " fill="#D7A144" transform="translate(222,30)"/>
<path d="M0 0 C1.33333333 2.66666667 2.66666667 5.33333333 4 8 C2.35 8 0.7 8 -1 8 C-1.04241723 5.66705225 -1.04092937 3.33297433 -1 1 C-0.67 0.67 -0.34 0.34 0 0 Z " fill="#3B3844" transform="translate(224,65)"/>
<path d="M0 0 C0.66 0.33 1.32 0.66 2 1 C2 1.66 2 2.32 2 3 C1.01 3 0.02 3 -1 3 C-1 3.66 -1 4.32 -1 5 C-1.99 5.495 -1.99 5.495 -3 6 C-3.65772428 9.02934491 -3.65772428 9.02934491 -4 12 C-4.33 12 -4.66 12 -5 12 C-5 9.36 -5 6.72 -5 4 C-4.01 4 -3.02 4 -2 4 C-2 3.01 -2 2.02 -2 1 C-1.34 0.67 -0.68 0.34 0 0 Z " fill="#2C4289" transform="translate(152,48)"/>
<path d="M0 0 C1.65 0 3.3 0 5 0 C5.33 1.98 5.66 3.96 6 6 C2.125 4.125 2.125 4.125 1 3 C0.01 3.495 0.01 3.495 -1 4 C-0.67 2.68 -0.34 1.36 0 0 Z " fill="#11245C" transform="translate(201,36)"/>
<path d="M0 0 C3 3.75 3 3.75 3 6 C0.69 6 -1.62 6 -4 6 C-4 5.01 -4 4.02 -4 3 C-2 1.3125 -2 1.3125 0 0 Z " fill="#24295D" transform="translate(137,24)"/>
<path d="M0 0 C0.66 0 1.32 0 2 0 C1.49701212 4.40114397 -0.08772731 6.71195019 -3 10 C-3 8.35 -3 6.7 -3 5 C-2.34 4.67 -1.68 4.34 -1 4 C-0.34786708 1.97536745 -0.34786708 1.97536745 0 0 Z " fill="#322F46" transform="translate(135,60)"/>
<path d="M0 0 C0.33 0 0.66 0 1 0 C0.67 2.97 0.34 5.94 0 9 C-0.99 8.01 -1.98 7.02 -3 6 C-1.125 1.125 -1.125 1.125 0 0 Z " fill="#D7A251" transform="translate(149,31)"/>
</svg>
