<?xml version="1.0" encoding="utf-8"?>
<!-- Generator: Adobe Illustrator 16.0.0, SVG Export Plug-In . SVG Version: 6.00 Build 0)  -->
<!DOCTYPE svg PUBLIC "-//W3C//DTD SVG 1.0//EN" "http://www.w3.org/TR/2001/REC-SVG-20010904/DTD/svg10.dtd">
<svg version="1.0" id="Layer_1" xmlns="http://www.w3.org/2000/svg" xmlns:xlink="http://www.w3.org/1999/xlink" x="0px" y="0px"
	   viewBox="0 0 800 800" enable-background="new 0 0 800 800" xml:space="preserve">
<g>
	<rect x="23.185" y="274.388" fill="#F91D1B" width="753.654" height="251.223"/>
	<path fill="#FFFFFF" d="M351.507,359.059c-11.127,0-23.791,5.152-31.526,15.487v-0.019v0.012v-13.862h-26.552v96.688h26.552
		v-55.018c0-9.899,7.674-20.424,21.89-20.424c10.984,0,22.356,7.638,22.356,20.424v55.018h26.546v-59.937
		C390.772,375.196,374.862,359.059,351.507,359.059"/>
	<polygon fill="#FFFFFF" points="579.479,360.685 555.479,426.551 531.479,360.685 501.149,360.685 540.93,457.342 570.021,457.342 
		609.809,360.685 	"/>
	<path fill="#FFFFFF" d="M265.179,427.641c-11.181,8.27-17.56,10.244-27.755,10.244c-9.168,0-16.35-2.844-21.41-7.838l67.879-28.164
		c-1.479-10.495-5.46-19.867-11.594-26.989c-8.918-10.363-22.116-15.849-38.192-15.849c-29.188,0-51.208,21.547-51.208,49.988
		c0,29.184,22.067,49.975,54.133,49.975c17.973,0,36.341-8.514,44.935-18.461L265.179,427.641z M214.167,389.813
		c4.527-6.067,11.728-9.637,20.425-9.637c9.567,0,16.83,5.465,20.571,13.531l-46.381,19.24
		C207.519,403.078,210.041,395.35,214.167,389.813"/>
	<polygon fill="#FFFFFF" points="180.371,432.992 120.021,432.992 120.021,331.766 93.113,331.766 93.113,457.365 180.371,457.365 	
		"/>
	<path fill="#FFFFFF" d="M657.482,458.998c-29.042,0-51.783-21.629-51.783-49.971c0-28.022,22.9-49.982,52.14-49.982
		c29.036,0,51.783,21.64,51.783,49.982C709.622,437.037,686.715,458.998,657.482,458.998 M657.482,381.8
		c-14.83,0-25.594,11.238-25.594,27.227c0,15.266,11.406,27.215,25.95,27.215c14.831,0,25.594-11.543,25.594-27.215
		C683.433,393.761,672.031,381.8,657.482,381.8"/>
	<path fill="#FFFFFF" d="M453.063,458.998c-29.034,0-51.783-21.629-51.783-49.971c0-28.022,22.908-49.982,52.145-49.982
		c29.036,0,51.78,21.64,51.78,49.982C505.204,437.037,482.3,458.998,453.063,458.998 M453.063,381.8
		c-14.825,0-25.588,11.238-25.588,27.227c0,15.266,11.402,27.215,25.949,27.215c14.826,0,25.589-11.543,25.589-27.215
		C479.013,393.761,467.617,381.8,453.063,381.8"/>
	<path fill="#FFFFFF" d="M713.247,445.889h-4.287v-2.441h11.249v2.441h-4.293v11.477h-2.669V445.889z M723.19,443.447h2.845
		l4.21,6.592l4.199-6.592h2.761v13.918h-2.577v-9.9l-4.294,6.699h-0.269l-4.301-6.699v9.9h-2.574V443.447z"/>
	<rect x="23.161" y="274.388" fill="none" width="753.678" height="251.223"/>
</g>
</svg>
