<?xml version="1.0" encoding="UTF-8"?>
<svg version="1.1" xmlns="http://www.w3.org/2000/svg" width="663" height="249">
<path d="M0 0 C0.92407469 -0.00155999 1.84814938 -0.00311998 2.80022633 -0.00472724 C5.88556157 -0.00870459 8.97084729 -0.00556032 12.05618286 -0.00241089 C14.27231373 -0.00376632 16.48844437 -0.00554705 18.70457458 -0.00772095 C24.71437175 -0.01227678 30.72415173 -0.01051373 36.73394918 -0.00734186 C43.01821025 -0.00481063 49.30246984 -0.00715776 55.58673096 -0.00872803 C66.80877628 -0.01066315 78.03081452 -0.00755705 89.25285818 -0.00246869 C99.43583876 0.00200539 109.61880795 0.00121725 119.80178833 -0.00338745 C131.62828236 -0.00873283 143.45477086 -0.01073475 155.28126633 -0.00777519 C161.54158751 -0.00621271 167.80190084 -0.00601802 174.06222153 -0.00931168 C179.94072188 -0.0121886 185.81920059 -0.01021802 191.69769859 -0.00441742 C193.86133602 -0.00308922 196.02497526 -0.00348494 198.18861198 -0.00568008 C201.12845192 -0.00838904 204.06822127 -0.00501371 207.00805664 0 C207.87583233 -0.00223072 208.74360801 -0.00446144 209.63767993 -0.00675976 C215.508927 0.01283325 215.508927 0.01283325 216.62307739 1.12698364 C216.71806385 3.56094383 216.74866156 5.96641317 216.73660278 8.40066528 C216.73674881 9.16158981 216.73689484 9.92251434 216.73704529 10.70649719 C216.73634601 13.23340663 216.72855294 15.76024326 216.72073364 18.28713989 C216.71886952 20.03448954 216.71744559 21.78183971 216.71644592 23.52919006 C216.71262032 28.13730299 216.70278968 32.74538459 216.69174194 37.35348511 C216.68152873 42.05206885 216.6769485 46.75065763 216.67190552 51.44924927 C216.66116745 60.67517452 216.64409052 69.90107648 216.62307739 79.12698364 C187.08467244 79.14977371 157.54626791 79.16748166 128.00785602 79.17804897 C124.52420909 79.17929975 121.04056218 79.18059406 117.55691528 79.18191528 C116.86335497 79.18217759 116.16979465 79.1824399 115.45521735 79.18271016 C104.21060071 79.18706692 92.96598915 79.19495449 81.72137553 79.20413644 C70.19185422 79.21347283 58.6623365 79.21896432 47.13281149 79.22107214 C40.65328976 79.22237968 34.17377959 79.22546829 27.69426155 79.2327137 C21.60327669 79.23946987 15.51230821 79.24160143 9.42131996 79.24009132 C7.17867189 79.24036783 4.9360233 79.24237534 2.69337845 79.24618912 C-0.35411856 79.25112007 -3.40155262 79.24998415 -6.4490509 79.24723816 C-7.34883807 79.250151 -8.24862523 79.25306384 -9.17567867 79.25606495 C-15.2628014 79.24110485 -15.2628014 79.24110485 -16.37692261 78.12698364 C-16.47188969 75.72350079 -16.50251122 73.34887383 -16.490448 70.94509888 C-16.49059402 70.19392792 -16.49074005 69.44275696 -16.4908905 68.66882324 C-16.49019124 66.17437905 -16.48239825 63.68000861 -16.47457886 61.18557739 C-16.47271472 59.460648 -16.4712908 57.73571808 -16.47029114 56.01078796 C-16.46646558 51.46185861 -16.45663498 46.91296098 -16.44558716 42.36404419 C-16.43537384 37.72578358 -16.43079369 33.08751787 -16.42575073 28.44924927 C-16.41501274 19.34181342 -16.39793588 10.23440117 -16.37692261 1.12698364 C-10.87361387 0.19766619 -5.57507353 -0.0145559 0 0 Z M5.62307739 18.12698364 C5.62307739 30.66698364 5.62307739 43.20698364 5.62307739 56.12698364 C14.20307739 56.12698364 22.78307739 56.12698364 31.62307739 56.12698364 C31.62307739 53.81698364 31.62307739 51.50698364 31.62307739 49.12698364 C25.68307739 49.12698364 19.74307739 49.12698364 13.62307739 49.12698364 C13.62307739 38.89698364 13.62307739 28.66698364 13.62307739 18.12698364 C10.98307739 18.12698364 8.34307739 18.12698364 5.62307739 18.12698364 Z M36.30667114 32.70510864 C33.64981759 36.81536292 32.99571039 40.1976715 33.62307739 45.12698364 C35.77820695 50.91180508 38.85431277 53.8055278 44.37307739 56.43948364 C49.24072316 57.46917794 54.01075789 57.44649881 58.53323364 55.16213989 C60.35902989 53.98305199 60.35902989 53.98305199 62.62307739 52.12698364 C61.63307739 50.80698364 60.64307739 49.48698364 59.62307739 48.12698364 C58.96307739 48.45698364 58.30307739 48.78698364 57.62307739 49.12698364 C53.64303558 50.45366425 50.82025898 50.46546603 46.62307739 50.12698364 C44.62307739 48.62698364 44.62307739 48.62698364 43.62307739 47.12698364 C44.29854614 47.01999146 44.97401489 46.91299927 45.66995239 46.80276489 C49.23049318 45.98798506 52.5144556 44.71855479 55.87307739 43.31448364 C56.82827271 42.94226685 56.82827271 42.94226685 57.80276489 42.56253052 C61.38823886 41.10792728 61.38823886 41.10792728 63.64651489 38.11917114 C63.60586228 34.66369937 61.7353488 32.73952985 59.62307739 30.12698364 C55.80094567 26.75451447 52.03357688 26.60785866 47.12307739 26.78323364 C42.54065223 27.4133171 39.34437966 29.06346401 36.30667114 32.70510864 Z M67.62307739 27.12698364 C67.62307739 36.69698364 67.62307739 46.26698364 67.62307739 56.12698364 C69.93307739 56.12698364 72.24307739 56.12698364 74.62307739 56.12698364 C74.66046021 54.95780396 74.69784302 53.78862427 74.73635864 52.58401489 C74.80204019 51.03580689 74.86848678 49.48763122 74.93557739 47.93948364 C74.96941528 46.78609497 74.96941528 46.78609497 75.00393677 45.60940552 C75.21812135 41.07258669 75.57098978 37.73399627 78.62307739 34.12698364 C84.49415582 33.28825815 84.49415582 33.28825815 87.30984497 35.38015747 C88.95263126 37.56534726 89.04367471 38.86078374 89.13479614 41.57620239 C89.18796997 42.84754028 89.18796997 42.84754028 89.24221802 44.14456177 C89.26477661 45.02563599 89.28733521 45.90671021 89.31057739 46.81448364 C89.36181763 48.15349731 89.36181763 48.15349731 89.41409302 49.51956177 C89.49653387 51.72191035 89.5656929 53.92386302 89.62307739 56.12698364 C91.93307739 56.12698364 94.24307739 56.12698364 96.62307739 56.12698364 C96.76909353 52.58575537 96.85738299 49.0453072 96.93557739 45.50198364 C96.97747192 44.50296021 97.01936646 43.50393677 97.06253052 42.47463989 C97.21442363 36.0068312 97.21442363 36.0068312 94.22854614 30.47854614 C90.66109818 27.25875053 88.62817545 26.79971619 83.79885864 26.82620239 C80.13925768 27.33210773 77.6700689 29.09565597 74.62307739 31.12698364 C74.62307739 29.80698364 74.62307739 28.48698364 74.62307739 27.12698364 C72.31307739 27.12698364 70.00307739 27.12698364 67.62307739 27.12698364 Z M103.31057739 33.37698364 C101.14183076 36.91123742 100.31356273 40.02780161 100.62307739 44.12698364 C101.93022597 48.60051697 103.89203725 51.47901625 107.37307739 54.56448364 C112.73735162 57.14346164 116.57494122 57.75183875 122.31057739 56.00198364 C126.29253385 53.74804603 129.54460166 51.28393511 131.62307739 47.12698364 C132.03901265 42.60768711 132.18156573 38.47911331 130.43557739 34.25198364 C127.47335628 30.77903476 124.14241002 27.40338524 119.45120239 26.88870239 C112.12679836 26.67784834 108.62627522 28.20495333 103.31057739 33.37698364 Z M132.62307739 27.12698364 C133.26355094 30.96676048 134.39484961 34.28295078 135.90823364 37.86526489 C136.35618286 38.93196411 136.80413208 39.99866333 137.26565552 41.09768677 C137.96851685 42.75187622 137.96851685 42.75187622 138.68557739 44.43948364 C139.1580188 45.56161255 139.63046021 46.68374146 140.11721802 47.83987427 C141.28169062 50.60402641 142.45044011 53.36628764 143.62307739 56.12698364 C146.59307739 56.12698364 149.56307739 56.12698364 152.62307739 56.12698364 C154.19410228 52.32021105 155.76056169 48.511596 157.32278442 44.70120239 C157.85505525 43.40478682 158.38857844 42.1088847 158.92337036 40.81350708 C159.69113704 38.95320415 160.45405398 37.09090201 161.21682739 35.22854614 C161.67766724 34.10786743 162.13850708 32.98718872 162.61331177 31.83255005 C163.73963046 29.29600077 163.73963046 29.29600077 163.62307739 27.12698364 C160.24907161 26.70972686 160.24907161 26.70972686 156.62307739 27.12698364 C153.95221173 30.70367906 152.53382798 34.71255566 150.99807739 38.87698364 C148.72272152 45.02733951 148.72272152 45.02733951 147.62307739 46.12698364 C145.31307739 39.85698364 143.00307739 33.58698364 140.62307739 27.12698364 C137.98307739 27.12698364 135.34307739 27.12698364 132.62307739 27.12698364 Z M166.31057739 33.37698364 C164.14183076 36.91123742 163.31356273 40.02780161 163.62307739 44.12698364 C164.9400869 48.63426461 166.89202765 51.4934072 170.43557739 54.56448364 C175.2106516 56.90520629 178.86408538 57.34685764 184.12307739 56.68948364 C188.97735294 54.52239634 192.00085108 51.76986671 194.62307739 47.12698364 C195.76591106 42.10778171 195.21904783 38.36476839 192.99807739 33.75198364 C189.75534094 30.16790651 187.15831843 27.53163123 182.22463989 26.74417114 C175.0841797 26.42252879 171.42744053 28.3984141 166.31057739 33.37698364 Z " fill="#211D1E" transform="translate(231.37692260742188,84.87301635742188)"/>
<path d="M0 0 C0.92392583 -0.00085442 1.84785166 -0.00170885 2.79977524 -0.00258917 C5.89055399 -0.00423411 8.98127827 0.00126129 12.072052 0.00672913 C14.28965758 0.00701124 16.50726325 0.0068528 18.72486877 0.00628662 C24.74292476 0.00599958 30.76096084 0.01188134 36.7790122 0.01886058 C43.0690841 0.02510954 49.35915644 0.02569914 55.64923096 0.02688599 C66.20602761 0.02964148 76.76281774 0.03588878 87.3196106 0.04481506 C98.19168054 0.05399836 109.06374849 0.06107471 119.93582153 0.06532288 C120.94156803 0.06571696 120.94156803 0.06571696 121.96763264 0.06611901 C125.33142485 0.06742407 128.69521708 0.06868778 132.05900931 0.06993091 C159.95154556 0.08038499 187.84407366 0.09797564 215.73660278 0.12025452 C216.06660278 0.78025452 216.39660278 1.44025452 216.73660278 2.12025452 C188.04769757 2.27061533 159.35877024 2.41572416 130.66980167 2.55350212 C127.28272607 2.56977309 123.89565069 2.58608883 120.50857544 2.60243225 C119.49711783 2.60731164 119.49711783 2.60731164 118.46522672 2.6122896 C107.54730131 2.6650657 96.62939749 2.72146886 85.71149735 2.77921272 C74.50854279 2.83838346 63.30557342 2.89357894 52.10258162 2.94531006 C45.81012441 2.9744923 39.5176878 3.00548826 33.22526169 3.04078865 C27.30418109 3.07394902 21.38309703 3.1023061 15.4619751 3.12696075 C13.28753401 3.13686488 11.11310015 3.14853204 8.93867874 3.16208458 C5.97177284 3.1803139 3.00490628 3.19222131 0.03796387 3.20254517 C-0.8239134 3.20934896 -1.68579067 3.21615275 -2.57378542 3.22316271 C-6.92272132 3.23128355 -10.98037045 2.99655823 -15.26339722 2.12025452 C-15.26339722 1.79025452 -15.26339722 1.46025452 -15.26339722 1.12025452 C-10.1264567 0.07530527 -5.21450469 -0.01770311 0 0 Z " fill="#070506" transform="translate(231.26339721679688,84.87974548339844)"/>
<path d="M0 0 C2.93052231 1.99524923 4.64521503 3.42836485 5.4453125 6.97265625 C5.63302621 10.32021744 5.22285193 12.62858012 3.5 15.5 C-0.04017056 17.62410234 -2.97481725 17.7835909 -7 17 C-9.5 15.5625 -9.5 15.5625 -11 13 C-11.76474799 8.65846194 -11.75830672 5.24362301 -9.4375 1.4375 C-6.00082919 -0.58925458 -3.92582814 -0.6198676 0 0 Z " fill="#201D1E" transform="translate(351,118)"/>
<path d="M0 0 C2.9375 2.0625 2.9375 2.0625 5 5 C5.66154724 9.11629392 5.39475662 11.22693494 3.5 14.9375 C0.45548435 17.44922541 -1.24263774 17.680312 -5.09765625 17.421875 C-8.08991254 16.75829455 -9.30830932 15.50370221 -11 13 C-12.08419635 9.97973873 -12.13343632 8.46702711 -11.25 5.375 C-8.42988694 0.01678519 -6.18856973 -0.85359582 0 0 Z " fill="#201C1D" transform="translate(414,118)"/>
<path d="M0 0 C2 2 2 2 2 5 C0.06532058 5.83986084 -1.87285129 6.67168027 -3.8125 7.5 C-4.89144531 7.9640625 -5.97039062 8.428125 -7.08203125 8.90625 C-10 10 -10 10 -13 10 C-12.38976378 3.53149606 -12.38976378 3.53149606 -10.625 1.125 C-6.93649982 -1.42857705 -4.18420093 -0.97928107 0 0 Z " fill="#120E0F" transform="translate(285,118)"/>
<path d="M0 0 C3.6875 0.3125 3.6875 0.3125 5.90234375 1.78515625 C8.51383688 5.48239051 8.12749997 8.65596233 7.9375 13.0625 C7.91945313 13.85527344 7.90140625 14.64804688 7.8828125 15.46484375 C7.83583082 17.41458348 7.76409044 19.36369878 7.6875 21.3125 C7.0275 21.6425 6.3675 21.9725 5.6875 22.3125 C5.1925 12.9075 5.1925 12.9075 4.6875 3.3125 C-0.28326473 1.78626519 -0.28326473 1.78626519 -4.3125 4.3125 C-4.6425 10.9125 -4.9725 17.5125 -5.3125 24.3125 C-8.5089086 25.37796953 -10.96997276 25.38677838 -14.3125 25.3125 C-11.66511084 23.8518715 -10.41801666 23.3125 -7.3125 23.3125 C-7.34730469 22.14332031 -7.38210938 20.97414062 -7.41796875 19.76953125 C-7.44611716 18.22136859 -7.47341619 16.67319032 -7.5 15.125 C-7.53770508 13.97161133 -7.53770508 13.97161133 -7.57617188 12.79492188 C-7.63668237 8.0952737 -7.29112113 5.17645436 -4.3125 1.3125 C-3.3125 0.3125 -3.3125 0.3125 0 0 Z " fill="#161213" transform="translate(313.3125,117.6875)"/>
<path d="M0 0 C1.7074998 1.28062485 3.37373596 2.61767557 5 4 C5 4.66 5 5.32 5 6 C5.66 6.33 6.32 6.66 7 7 C7 9.31 7 11.62 7 14 C7.66 14 8.32 14 9 14 C10.32 17.63 11.64 21.26 13 25 C9 23 9 23 7.75 20.375 C7.5025 19.59125 7.255 18.8075 7 18 C6.34 18 5.68 18 5 18 C4.97421875 17.26394531 4.9484375 16.52789062 4.921875 15.76953125 C4.58144483 9.91258492 4.32166709 6.32166709 0 2 C0 1.34 0 0.68 0 0 Z " fill="#171415" transform="translate(323,112)"/>
<path d="M0 0 C0.66 0 1.32 0 2 0 C2.37125 0.9075 2.7425 1.815 3.125 2.75 C5.26368386 6.45705203 7.41805243 7.77123262 11 10 C11 10.66 11 11.32 11 12 C7.54074837 10.7508258 4.85306797 9.32472205 2 7 C1.34 8.98 0.68 10.96 0 13 C-1.32 12.67 -2.64 12.34 -4 12 C-3.34 11.67 -2.68 11.34 -2 11 C-1.57038779 8.94068468 -1.57038779 8.94068468 -1.4375 6.5625 C-1.09333333 2.18666667 -1.09333333 2.18666667 0 0 Z " fill="#191617" transform="translate(264,130)"/>
<path d="M0 0 C0 0.66 0 1.32 0 2 C-1.4317616 2.69937202 -2.87067032 3.38412718 -4.3125 4.0625 C-5.51326172 4.63677734 -5.51326172 4.63677734 -6.73828125 5.22265625 C-9 6 -9 6 -12 5 C-8.71304348 -0.72173913 -8.71304348 -0.72173913 -5.4375 -2 C-3 -2 -3 -2 0 0 Z " fill="#221E1F" transform="translate(285,120)"/>
<path d="M0 0 C0.66 0.33 1.32 0.66 2 1 C1.01 1.66 0.02 2.32 -1 3 C-0.67 2.01 -0.34 1.02 0 0 Z M-25 3 C-24.3709375 3.30035156 -23.741875 3.60070312 -23.09375 3.91015625 C-17.10152932 6.57236273 -13.40218004 7.60054501 -7 6 C-3.6149123 4.56000293 -3.6149123 4.56000293 -1 3 C-2 6 -2 6 -4.3125 7.6875 C-9.56804723 9.55811851 -14.47897005 9.71811998 -20 9 C-23.25 7.125 -23.25 7.125 -25 5 C-25 4.34 -25 3.68 -25 3 Z " fill="#161314" transform="translate(361,134)"/>
<path d="M0 0 C0.66 0.33 1.32 0.66 2 1 C2 1.99 2 2.98 2 4 C1.34 4 0.68 4 0 4 C0.33 5.98 0.66 7.96 1 10 C0.34 10 -0.32 10 -1 10 C-1.33 10.99 -1.66 11.98 -2 13 C-2.66 13 -3.32 13 -4 13 C-4.66 15.31 -5.32 17.62 -6 20 C-6.99 20 -7.98 20 -9 20 C-8.443125 18.9275 -7.88625 17.855 -7.3125 16.75 C-4.57497904 11.29458189 -2.2981176 5.65110885 0 0 Z " fill="#191516" transform="translate(391,122)"/>
<path d="M0 0 C0 0.66 0 1.32 0 2 C-2 3.33333333 -4 4.66666667 -6 6 C-9.52312699 9.40163985 -9.87864513 13.28583011 -10 18 C-9.64933615 20.85622487 -9.64933615 20.85622487 -9 23 C-11.125 21.625 -11.125 21.625 -13 19 C-12.89576311 12.91256586 -10.95364637 7.63141432 -7 3 C-2.8 0 -2.8 0 0 0 Z " fill="#151013" transform="translate(406,111)"/>
<path d="M0 0 C-1.69779622 1.13186415 -3.41585237 2.23762993 -5.1875 3.25 C-7.31041667 4.93333333 -7.31041667 4.93333333 -7.375 8 C-7.2049729 11.17702205 -7.2049729 11.17702205 -5 14 C-3.68 14 -2.36 14 -1 14 C-1 14.66 -1 15.32 -1 16 C-0.34 16.33 0.32 16.66 1 17 C-2.41756151 17.31068741 -4.40106977 17.3625104 -7.375 15.5625 C-9.77259286 11.78168049 -9.79150471 8.35727339 -9 4 C-6.47371562 0.16379039 -4.5024696 -0.5002744 0 0 Z " fill="#121111" transform="translate(349,118)"/>
<path d="M0 0 C0.33 0.99 0.66 1.98 1 3 C0 4.5 0 4.5 -2 6 C-6.43634442 6.63772451 -9.22364747 6.51756835 -13 4 C-13 3.34 -13 2.68 -13 2 C-12.38511719 2.08378906 -11.77023437 2.16757813 -11.13671875 2.25390625 C-9.92435547 2.40666016 -9.92435547 2.40666016 -8.6875 2.5625 C-7.88699219 2.66691406 -7.08648437 2.77132812 -6.26171875 2.87890625 C-3.83182884 3.14755178 -3.83182884 3.14755178 -1 2 C-0.67 1.34 -0.34 0.68 0 0 Z " fill="#171516" transform="translate(417,129)"/>
<path d="M0 0 C0.33 0 0.66 0 1 0 C1 3.3 1 6.6 1 10 C-1.97 10 -4.94 10 -8 10 C-7.67 9.34 -7.34 8.68 -7 8 C-5.02 8 -3.04 8 -1 8 C-1.020625 6.865625 -1.04125 5.73125 -1.0625 4.5625 C-1 1 -1 1 0 0 Z " fill="#191516" transform="translate(329,133)"/>
<path d="M0 0 C5.98993047 -0.3152595 9.63560356 0.31780178 15 3 C14.34 3.66 13.68 4.32 13 5 C12.44828125 4.68289062 11.8965625 4.36578125 11.328125 4.0390625 C8.71522011 2.87290025 6.59420998 2.59954289 3.75 2.375 C2.85796875 2.30023438 1.9659375 2.22546875 1.046875 2.1484375 C0.03367187 2.07496094 0.03367187 2.07496094 -1 2 C-0.67 1.34 -0.34 0.68 0 0 Z " fill="#1B1819" transform="translate(344,110)"/>
<path d="M0 0 C1.98 1.65 3.96 3.3 6 5 C4.68 6.32 3.36 7.64 2 9 C0.68 7.68 -0.64 6.36 -2 5 C-1.01 4.67 -0.02 4.34 1 4 C0.67 2.68 0.34 1.36 0 0 Z " fill="#1A1718" transform="translate(397,134)"/>
<path d="M0 0 C0.33 0 0.66 0 1 0 C1 2.64 1 5.28 1 8 C-0.65 8.33 -2.3 8.66 -4 9 C-3.34 8.34 -2.68 7.68 -2 7 C-1.28072705 4.68234271 -0.6090107 2.34904126 0 0 Z " fill="#10090A" transform="translate(264,134)"/>
<path d="M0 0 C0.33 0.99 0.66 1.98 1 3 C-1.3125 5.0625 -1.3125 5.0625 -4 7 C-4.99 6.67 -5.98 6.34 -7 6 C-4.69 4.02 -2.38 2.04 0 0 Z " fill="#151314" transform="translate(423,135)"/>
</svg>
