<?xml version="1.0" encoding="UTF-8"?>
<svg version="1.1" xmlns="http://www.w3.org/2000/svg" width="297" height="110">
<path d="M0 0 C1.58167969 0.14888672 1.58167969 0.14888672 3.1953125 0.30078125 C7.59754388 0.78827667 11.98536524 1.37177785 16.3762207 1.9519043 C24.12035587 2.93438994 31.89381257 3.3209652 39.6875 3.6875 C39.6875 5.6675 39.6875 7.6475 39.6875 9.6875 C37.7075 10.6775 35.7275 11.6675 33.6875 12.6875 C34.6775 15.1625 34.6775 15.1625 35.6875 17.6875 C36.9878418 17.67178955 36.9878418 17.67178955 38.31445312 17.65576172 C41.56476847 17.62145187 44.81499074 17.59649077 48.06542969 17.57763672 C49.46585142 17.56764752 50.86625268 17.55405146 52.26660156 17.53662109 C59.7016905 17.44646666 66.52280418 17.52103245 73.6875 19.6875 C75.0075 19.6875 76.3275 19.6875 77.6875 19.6875 C78.1825 19.171875 78.6775 18.65625 79.1875 18.125 C79.6825 17.650625 80.1775 17.17625 80.6875 16.6875 C82.875 17 82.875 17 84.6875 17.6875 C84.6875 18.3475 84.6875 19.0075 84.6875 19.6875 C95.38571629 19.33929767 105.33370701 18.59607436 115.6875 15.6875 C115.6875 16.3475 115.6875 17.0075 115.6875 17.6875 C118.7708134 17.71661321 121.85409125 17.73433682 124.9375 17.75 C125.81019531 17.75837891 126.68289062 17.76675781 127.58203125 17.77539062 C128.42636719 17.77861328 129.27070313 17.78183594 130.140625 17.78515625 C131.30319824 17.79301147 131.30319824 17.79301147 132.48925781 17.80102539 C134.68935448 17.7591137 134.68935448 17.7591137 136.76953125 17.16015625 C139.76657292 16.42157775 142.42078413 17.1121583 145.4375 17.625 C146.60796875 17.81964844 147.7784375 18.01429687 148.984375 18.21484375 C149.87640625 18.37082031 150.7684375 18.52679687 151.6875 18.6875 C151.6875 19.0175 151.6875 19.3475 151.6875 19.6875 C150.0375 19.6875 148.3875 19.6875 146.6875 19.6875 C147.75395115 20.98383621 147.75395115 20.98383621 150.25 20.75 C151.4565625 20.7190625 151.4565625 20.7190625 152.6875 20.6875 C152.6875 21.3475 152.6875 22.0075 152.6875 22.6875 C153.3475 22.6875 154.0075 22.6875 154.6875 22.6875 C154.6875 23.3475 154.6875 24.0075 154.6875 24.6875 C153.6975 24.6875 152.7075 24.6875 151.6875 24.6875 C151.6875 25.3475 151.6875 26.0075 151.6875 26.6875 C156.9675 27.6775 162.2475 28.6675 167.6875 29.6875 C167.6875 30.3475 167.6875 31.0075 167.6875 31.6875 C164.0575 32.0175 160.4275 32.3475 156.6875 32.6875 C155.6975 35.6575 155.6975 35.6575 154.6875 38.6875 C158.3175 39.0175 161.9475 39.3475 165.6875 39.6875 C165.6875 40.3475 165.6875 41.0075 165.6875 41.6875 C161.0675 42.0175 156.4475 42.3475 151.6875 42.6875 C151.6875 43.3475 151.6875 44.0075 151.6875 44.6875 C152.3475 45.0175 153.0075 45.3475 153.6875 45.6875 C153.378125 46.595 153.06875 47.5025 152.75 48.4375 C151.95919247 50.85644068 151.28303894 53.21950079 150.6875 55.6875 C150.09582031 55.80867188 149.50414062 55.92984375 148.89453125 56.0546875 C145.37930288 56.80016823 142.08981099 57.52486364 138.75 58.875 C138.069375 59.143125 137.38875 59.41125 136.6875 59.6875 C136.0275 59.3575 135.3675 59.0275 134.6875 58.6875 C132.98248539 58.56407302 131.2719348 58.51190414 129.5625 58.5 C128.65242187 58.48582031 127.74234375 58.47164062 126.8046875 58.45703125 C123.58886105 58.58665599 123.58886105 58.58665599 120.2265625 59.69140625 C114.00672669 61.35244393 107.57310251 60.89686263 101.1875 60.8125 C99.888125 60.80347656 98.58875 60.79445312 97.25 60.78515625 C94.06230701 60.76171733 90.8750018 60.7289044 87.6875 60.6875 C87.6875 61.3475 87.6875 62.0075 87.6875 62.6875 C85.3775 62.6875 83.0675 62.6875 80.6875 62.6875 C80.3575 61.6975 80.0275 60.7075 79.6875 59.6875 C79.0076001 59.83372803 78.3277002 59.97995605 77.62719727 60.13061523 C74.50242058 60.7999637 71.37624014 61.46252179 68.25 62.125 C67.18072266 62.35509766 66.11144531 62.58519531 65.00976562 62.82226562 C48.48145187 66.30989146 48.48145187 66.30989146 43.625 64.625 C39.41589964 63.2816701 36.86412918 64.39130474 32.6875 65.6875 C33.1825 64.2025 33.1825 64.2025 33.6875 62.6875 C30.90635944 60.35358797 30.90635944 60.35358797 28 61.0625 C27.236875 61.26875 26.47375 61.475 25.6875 61.6875 C25.08288634 64.53782156 24.59273595 67.36269385 24.1875 70.25 C23.6875 73.6875 23.6875 73.6875 23.0625 75.9375 C22.48274155 77.91986634 22.48274155 77.91986634 23.6875 80.6875 C23.1925 82.1725 23.1925 82.1725 22.6875 83.6875 C22.0275 83.6875 21.3675 83.6875 20.6875 83.6875 C20.6875 85.0075 20.6875 86.3275 20.6875 87.6875 C20.0275 87.6875 19.3675 87.6875 18.6875 87.6875 C18.3575 89.3375 18.0275 90.9875 17.6875 92.6875 C16.2025 93.1825 16.2025 93.1825 14.6875 93.6875 C14.6875 90.7175 14.6875 87.7475 14.6875 84.6875 C14.0275 84.6875 13.3675 84.6875 12.6875 84.6875 C12.3575 86.6675 12.0275 88.6475 11.6875 90.6875 C11.0275 90.6875 10.3675 90.6875 9.6875 90.6875 C9.39875 90.089375 9.11 89.49125 8.8125 88.875 C7.64007974 86.49422208 7.64007974 86.49422208 5.6875 83.6875 C4.3675 85.0075 3.0475 86.3275 1.6875 87.6875 C1.3575 87.3575 1.0275 87.0275 0.6875 86.6875 C-1.34415952 91.02170699 -1.83310632 94.97346212 -2.3125 99.6875 C-2.9725 99.6875 -3.6325 99.6875 -4.3125 99.6875 C-4.395 98.635625 -4.4775 97.58375 -4.5625 96.5 C-5.01227362 92.65405662 -5.01227362 92.65405662 -7.375 90.125 C-9.76977311 87.11222093 -9.66147876 85.43902165 -9.3125 81.6875 C-9.9725 81.6875 -10.6325 81.6875 -11.3125 81.6875 C-10.8175 86.1425 -10.8175 86.1425 -10.3125 90.6875 C-11.3025 90.3575 -12.2925 90.0275 -13.3125 89.6875 C-13.6425 89.0275 -13.9725 88.3675 -14.3125 87.6875 C-14.9725 90.6575 -15.6325 93.6275 -16.3125 96.6875 C-16.9725 96.6875 -17.6325 96.6875 -18.3125 96.6875 C-18.81728485 94.27174393 -19.31647642 91.85505639 -19.8125 89.4375 C-19.95558594 88.75558594 -20.09867188 88.07367188 -20.24609375 87.37109375 C-20.92501049 84.04116879 -21.3125 81.10417449 -21.3125 77.6875 C-21.9725 77.6875 -22.6325 77.6875 -23.3125 77.6875 C-23.6425 78.3475 -23.9725 79.0075 -24.3125 79.6875 C-24.6425 78.3675 -24.9725 77.0475 -25.3125 75.6875 C-25.9725 76.6775 -26.6325 77.6675 -27.3125 78.6875 C-28.20627186 75.60143218 -28.45980377 72.78969644 -28.5234375 69.58203125 C-28.56597656 68.10573242 -28.56597656 68.10573242 -28.609375 66.59960938 C-28.66096173 64.55290569 -28.70537527 62.5060071 -28.7421875 60.45898438 C-28.91954944 54.77970713 -29.54360088 49.95270871 -31.58056641 44.6315918 C-32.32004198 42.66746773 -32.82055159 40.72589972 -33.3125 38.6875 C-33.96759503 36.68367991 -34.63224363 34.68291868 -35.3125 32.6875 C-34.3225 32.1925 -34.3225 32.1925 -33.3125 31.6875 C-33.42556697 29.72855639 -33.42556697 29.72855639 -34.3125 27.6875 C-36.80284386 26.39089566 -36.80284386 26.39089566 -39.3125 25.6875 C-39.3125 24.6975 -39.3125 23.7075 -39.3125 22.6875 C-38.3225 22.6875 -37.3325 22.6875 -36.3125 22.6875 C-36.3125 22.0275 -36.3125 21.3675 -36.3125 20.6875 C-37.9625 20.3575 -39.6125 20.0275 -41.3125 19.6875 C-41.3125 19.0275 -41.3125 18.3675 -41.3125 17.6875 C-41.910625 17.584375 -42.50875 17.48125 -43.125 17.375 C-45.59493264 16.59873545 -46.63501235 15.61661079 -48.3125 13.6875 C-46.3325 13.0275 -44.3525 12.3675 -42.3125 11.6875 C-42.3125 11.0275 -42.3125 10.3675 -42.3125 9.6875 C-40.3325 9.6875 -38.3525 9.6875 -36.3125 9.6875 C-36.6425 8.0375 -36.9725 6.3875 -37.3125 4.6875 C-35.9925 5.0175 -34.6725 5.3475 -33.3125 5.6875 C-33.9725 4.3675 -34.6325 3.0475 -35.3125 1.6875 C-33.9925 2.0175 -32.6725 2.3475 -31.3125 2.6875 C-31.3125 2.3575 -31.3125 2.0275 -31.3125 1.6875 C-30.70253174 1.66244385 -30.09256348 1.6373877 -29.46411133 1.61157227 C-26.68422102 1.4950942 -23.9046266 1.37260368 -21.125 1.25 C-20.16529297 1.21068359 -19.20558594 1.17136719 -18.21679688 1.13085938 C-16.81977539 1.06801758 -16.81977539 1.06801758 -15.39453125 1.00390625 C-14.11412964 0.94891968 -14.11412964 0.94891968 -12.80786133 0.89282227 C-0.90951937 -0.08619208 -0.90951937 -0.08619208 0 0 Z M57.6875 22.6875 C57.3575 26.9775 57.0275 31.2675 56.6875 35.6875 C55.6975 33.3775 54.7075 31.0675 53.6875 28.6875 C54.6775 28.0275 55.6675 27.3675 56.6875 26.6875 C55.0375 26.6875 53.3875 26.6875 51.6875 26.6875 C50.35312163 28.84463956 50.35312163 28.84463956 51.375 32.125 C52.7619626 35.88961278 53.48186403 36.58380139 56.6875 38.6875 C57.9375 40.875 57.9375 40.875 58.6875 42.6875 C58.749375 42.089375 58.81125 41.49125 58.875 40.875 C59.6875 38.6875 59.6875 38.6875 62.1875 37.4375 C64.81508235 35.98141711 64.81508235 35.98141711 65.2734375 33.7578125 C65.63495623 31.29071219 65.63495623 31.29071219 65.6875 27.6875 C64.62104885 26.39116379 64.62104885 26.39116379 62.125 26.625 C61.320625 26.645625 60.51625 26.66625 59.6875 26.6875 C59.6875 25.3675 59.6875 24.0475 59.6875 22.6875 C59.0275 22.6875 58.3675 22.6875 57.6875 22.6875 Z M31.6875 25.6875 C30.37487429 26.77302366 30.37487429 26.77302366 30.58984375 29.41015625 C30.60144531 30.51230469 30.61304687 31.61445312 30.625 32.75 C30.63402344 33.85472656 30.64304687 34.95945312 30.65234375 36.09765625 C30.66394531 36.95230469 30.67554687 37.80695312 30.6875 38.6875 C31.3475 38.3575 32.0075 38.0275 32.6875 37.6875 C32.3575 35.0475 32.0275 32.4075 31.6875 29.6875 C32.3475 29.6875 33.0075 29.6875 33.6875 29.6875 C33.955625 30.47125 34.22375 31.255 34.5 32.0625 C35.53564432 34.96864923 35.53564432 34.96864923 38.6875 36.6875 C38.6875 33.10334854 37.89858216 32.27546261 35.75 29.5 C35.20472656 28.78457031 34.65945312 28.06914063 34.09765625 27.33203125 C33.39962891 26.51798828 33.39962891 26.51798828 32.6875 25.6875 C32.3575 25.6875 32.0275 25.6875 31.6875 25.6875 Z M43.6875 25.6875 C44.0175 30.9675 44.3475 36.2475 44.6875 41.6875 C45.3475 41.3575 46.0075 41.0275 46.6875 40.6875 C46.6875 36.0675 46.6875 31.4475 46.6875 26.6875 C45.6975 26.3575 44.7075 26.0275 43.6875 25.6875 Z M80.6875 23.6875 C80.3575 26.6575 80.0275 29.6275 79.6875 32.6875 C77.0475 30.3775 74.4075 28.0675 71.6875 25.6875 C70.6975 26.1825 70.6975 26.1825 69.6875 26.6875 C69.6875 30.6475 69.6875 34.6075 69.6875 38.6875 C70.3475 38.3575 71.0075 38.0275 71.6875 37.6875 C71.3575 34.7175 71.0275 31.7475 70.6875 28.6875 C72.15012592 29.7859742 73.60745503 30.8915036 75.0625 32 C75.87460938 32.61488281 76.68671875 33.22976562 77.5234375 33.86328125 C79.6875 35.6875 79.6875 35.6875 81.6875 38.6875 C81.6875 33.7375 81.6875 28.7875 81.6875 23.6875 C81.3575 23.6875 81.0275 23.6875 80.6875 23.6875 Z M119.6875 25.6875 C117.55163322 28.89130017 117.45617825 29.70689967 117.5625 33.375 C117.58054688 34.18324219 117.59859375 34.99148437 117.6171875 35.82421875 C117.64039063 36.43910156 117.66359375 37.05398437 117.6875 37.6875 C120.39629335 39.04189668 122.69683268 38.75251451 125.6875 38.6875 C125.6875 38.3575 125.6875 38.0275 125.6875 37.6875 C124.0375 37.6875 122.3875 37.6875 120.6875 37.6875 C120.6875 34.3875 120.6875 31.0875 120.6875 27.6875 C122.9975 28.0175 125.3075 28.3475 127.6875 28.6875 C127.6875 28.0275 127.6875 27.3675 127.6875 26.6875 C125.0475 26.3575 122.4075 26.0275 119.6875 25.6875 Z M91.6875 25.6875 C90.6975 26.3475 89.7075 27.0075 88.6875 27.6875 C90.9975 27.6875 93.3075 27.6875 95.6875 27.6875 C94.3675 27.0275 93.0475 26.3675 91.6875 25.6875 Z M99.6875 26.6875 C100.0175 27.3475 100.3475 28.0075 100.6875 28.6875 C102.3375 28.3575 103.9875 28.0275 105.6875 27.6875 C105.6875 30.9875 105.6875 34.2875 105.6875 37.6875 C106.3475 38.0175 107.0075 38.3475 107.6875 38.6875 C108.0175 34.7275 108.3475 30.7675 108.6875 26.6875 C105.7175 26.6875 102.7475 26.6875 99.6875 26.6875 Z M111.6875 26.6875 C113.1725 27.6775 113.1725 27.6775 114.6875 28.6875 C114.6875 28.0275 114.6875 27.3675 114.6875 26.6875 C113.6975 26.6875 112.7075 26.6875 111.6875 26.6875 Z M132.6875 26.6875 C132.6875 30.3175 132.6875 33.9475 132.6875 37.6875 C133.6775 38.1825 133.6775 38.1825 134.6875 38.6875 C135.0175 35.0575 135.3475 31.4275 135.6875 27.6875 C134.6975 27.3575 133.7075 27.0275 132.6875 26.6875 Z M140.6875 26.6875 C140.6875 27.3475 140.6875 28.0075 140.6875 28.6875 C140.0275 29.3475 139.3675 30.0075 138.6875 30.6875 C140.0075 30.6875 141.3275 30.6875 142.6875 30.6875 C143.0175 29.3675 143.3475 28.0475 143.6875 26.6875 C142.6975 26.6875 141.7075 26.6875 140.6875 26.6875 Z M41.6875 27.6875 C42.0175 28.3475 42.3475 29.0075 42.6875 29.6875 C43.0175 29.0275 43.3475 28.3675 43.6875 27.6875 C43.0275 27.6875 42.3675 27.6875 41.6875 27.6875 Z M84.6875 27.6875 C85.3475 29.0075 86.0075 30.3275 86.6875 31.6875 C88.3375 31.6875 89.9875 31.6875 91.6875 31.6875 C89.87527466 29.6250006 89.87527466 29.6250006 87.6875 27.6875 C86.6975 27.6875 85.7075 27.6875 84.6875 27.6875 Z M39.6875 30.6875 C40.6875 32.6875 40.6875 32.6875 40.6875 32.6875 Z M94.6875 29.6875 C92.48952597 31.88547403 92.22852483 32.86296145 91.5625 35.8125 C91.27375 37.09125 90.985 38.37 90.6875 39.6875 C89.6975 39.6875 88.7075 39.6875 87.6875 39.6875 C87.6875 40.3475 87.6875 41.0075 87.6875 41.6875 C91.28086471 40.68934314 92.64475379 39.73924542 95.0625 36.8125 C96.93258209 33.91818598 96.93258209 33.91818598 96.4375 31.3125 C96.19 30.77625 95.9425 30.24 95.6875 29.6875 C95.3575 29.6875 95.0275 29.6875 94.6875 29.6875 Z M124.6875 30.6875 C124.3575 31.3475 124.0275 32.0075 123.6875 32.6875 C124.3475 32.6875 125.0075 32.6875 125.6875 32.6875 C125.3575 32.0275 125.0275 31.3675 124.6875 30.6875 Z M139.6875 32.6875 C140.81201727 35.6594385 141.91043791 38.02190687 143.6875 40.6875 C144.6775 40.3575 145.6675 40.0275 146.6875 39.6875 C145.90404285 38.51530457 145.11047164 37.34986332 144.3125 36.1875 C143.87164062 35.5378125 143.43078125 34.888125 142.9765625 34.21875 C142.55117187 33.7134375 142.12578125 33.208125 141.6875 32.6875 C141.0275 32.6875 140.3675 32.6875 139.6875 32.6875 Z M127.6875 36.6875 C128.6875 38.6875 128.6875 38.6875 128.6875 38.6875 Z M84.6875 37.6875 C85.0175 38.3475 85.3475 39.0075 85.6875 39.6875 C86.3475 39.3575 87.0075 39.0275 87.6875 38.6875 C86.6975 38.3575 85.7075 38.0275 84.6875 37.6875 Z " fill="#09110B" transform="translate(96.3125,7.3125)"/>
<path d="M0 0 C5.18580496 0.58628212 10.35355421 0.96037262 15.5625 1.25 C16.71322998 1.31537964 16.71322998 1.31537964 17.88720703 1.38208008 C19.71638366 1.48545031 21.54567965 1.58670509 23.375 1.6875 C23.375 3.6675 23.375 5.6475 23.375 7.6875 C21.395 8.6775 19.415 9.6675 17.375 10.6875 C18.035 12.3375 18.695 13.9875 19.375 15.6875 C20.6753418 15.67178955 20.6753418 15.67178955 22.00195312 15.65576172 C25.25226847 15.62145187 28.50249074 15.59649077 31.75292969 15.57763672 C33.15335142 15.56764752 34.55375268 15.55405146 35.95410156 15.53662109 C43.3891905 15.44646666 50.21030418 15.52103245 57.375 17.6875 C58.695 17.6875 60.015 17.6875 61.375 17.6875 C61.87 17.171875 62.365 16.65625 62.875 16.125 C63.37 15.650625 63.865 15.17625 64.375 14.6875 C66.5625 15 66.5625 15 68.375 15.6875 C68.375 16.3475 68.375 17.0075 68.375 17.6875 C79.07321629 17.33929767 89.02120701 16.59607436 99.375 13.6875 C99.375 14.3475 99.375 15.0075 99.375 15.6875 C102.4583134 15.71661321 105.54159125 15.73433682 108.625 15.75 C109.49769531 15.75837891 110.37039062 15.76675781 111.26953125 15.77539062 C112.11386719 15.77861328 112.95820313 15.78183594 113.828125 15.78515625 C114.99069824 15.79301147 114.99069824 15.79301147 116.17675781 15.80102539 C118.37685448 15.7591137 118.37685448 15.7591137 120.45703125 15.16015625 C123.45407292 14.42157775 126.10828413 15.1121583 129.125 15.625 C130.29546875 15.81964844 131.4659375 16.01429687 132.671875 16.21484375 C133.56390625 16.37082031 134.4559375 16.52679687 135.375 16.6875 C135.375 17.0175 135.375 17.3475 135.375 17.6875 C133.725 17.6875 132.075 17.6875 130.375 17.6875 C131.44145115 18.98383621 131.44145115 18.98383621 133.9375 18.75 C135.1440625 18.7190625 135.1440625 18.7190625 136.375 18.6875 C136.375 19.3475 136.375 20.0075 136.375 20.6875 C137.035 20.6875 137.695 20.6875 138.375 20.6875 C138.375 21.3475 138.375 22.0075 138.375 22.6875 C137.385 22.6875 136.395 22.6875 135.375 22.6875 C135.375 23.3475 135.375 24.0075 135.375 24.6875 C140.655 25.6775 145.935 26.6675 151.375 27.6875 C151.375 28.3475 151.375 29.0075 151.375 29.6875 C145.93 30.1825 145.93 30.1825 140.375 30.6875 C139.385 33.6575 139.385 33.6575 138.375 36.6875 C142.005 37.0175 145.635 37.3475 149.375 37.6875 C149.375 38.3475 149.375 39.0075 149.375 39.6875 C144.755 40.0175 140.135 40.3475 135.375 40.6875 C135.375 41.3475 135.375 42.0075 135.375 42.6875 C136.035 43.0175 136.695 43.3475 137.375 43.6875 C137.065625 44.595 136.75625 45.5025 136.4375 46.4375 C135.64669247 48.85644068 134.97053894 51.21950079 134.375 53.6875 C133.78332031 53.80867188 133.19164062 53.92984375 132.58203125 54.0546875 C129.06680288 54.80016823 125.77731099 55.52486364 122.4375 56.875 C121.756875 57.143125 121.07625 57.41125 120.375 57.6875 C119.715 57.3575 119.055 57.0275 118.375 56.6875 C116.66998539 56.56407302 114.9594348 56.51190414 113.25 56.5 C112.33992188 56.48582031 111.42984375 56.47164062 110.4921875 56.45703125 C107.27636105 56.58665599 107.27636105 56.58665599 103.9140625 57.69140625 C97.69422669 59.35244393 91.26060251 58.89686263 84.875 58.8125 C83.575625 58.80347656 82.27625 58.79445312 80.9375 58.78515625 C77.74980701 58.76171733 74.5625018 58.7289044 71.375 58.6875 C71.375 59.3475 71.375 60.0075 71.375 60.6875 C69.065 60.6875 66.755 60.6875 64.375 60.6875 C64.045 59.6975 63.715 58.7075 63.375 57.6875 C62.6951001 57.83372803 62.0152002 57.97995605 61.31469727 58.13061523 C58.18992058 58.7999637 55.06374014 59.46252179 51.9375 60.125 C50.86822266 60.35509766 49.79894531 60.58519531 48.69726562 60.82226562 C42.60320805 62.10816768 36.60161854 63.33911341 30.375 63.6875 C28.375 61.6875 28.375 61.6875 27.9375 58.75 C28.375 55.6875 28.375 55.6875 30.6875 53.8125 C33.375 52.6875 33.375 52.6875 36.375 52.6875 C36.705 51.6975 37.035 50.7075 37.375 49.6875 C35.725 49.6875 34.075 49.6875 32.375 49.6875 C32.375 48.6975 32.375 47.7075 32.375 46.6875 C34.025 46.6875 35.675 46.6875 37.375 46.6875 C37.375 46.0275 37.375 45.3675 37.375 44.6875 C35.065 44.6875 32.755 44.6875 30.375 44.6875 C30.99375 44.295625 31.6125 43.90375 32.25 43.5 C34.69996368 41.41032509 35.39379998 39.71286673 36.375 36.6875 C35.385 35.6975 34.395 34.7075 33.375 33.6875 C33.4678125 34.8321875 33.4678125 34.8321875 33.5625 36 C33.375 38.6875 33.375 38.6875 31.875 40.5 C31.38 40.891875 30.885 41.28375 30.375 41.6875 C29.385 41.3575 28.395 41.0275 27.375 40.6875 C28.035 40.0275 28.695 39.3675 29.375 38.6875 C29.61877883 35.33005888 29.61877883 35.33005888 29.5 31.5625 C29.48195312 30.28117187 29.46390625 28.99984375 29.4453125 27.6796875 C29.42210937 26.69226563 29.39890625 25.70484375 29.375 24.6875 C28.715 24.3575 28.055 24.0275 27.375 23.6875 C27.375 24.3475 27.375 25.0075 27.375 25.6875 C26.715 25.6875 26.055 25.6875 25.375 25.6875 C24.715 27.3375 24.055 28.9875 23.375 30.6875 C22.385 30.6875 21.395 30.6875 20.375 30.6875 C18.76953125 28.71875 18.76953125 28.71875 17.1875 26.1875 C16.65769531 25.3521875 16.12789062 24.516875 15.58203125 23.65625 C15.18371094 23.0065625 14.78539063 22.356875 14.375 21.6875 C14.99375 21.89375 15.6125 22.1 16.25 22.3125 C16.95125 22.43625 17.6525 22.56 18.375 22.6875 C19.035 22.0275 19.695 21.3675 20.375 20.6875 C21.035 20.3575 21.695 20.0275 22.375 19.6875 C20.725 19.3575 19.075 19.0275 17.375 18.6875 C16.24619943 15.37635166 15.16197325 12.09771743 14.375 8.6875 C17.375 6.6875 17.375 6.6875 20.375 6.6875 C20.375 5.6975 20.375 4.7075 20.375 3.6875 C18.065 4.0175 15.755 4.3475 13.375 4.6875 C13.375 4.0275 13.375 3.3675 13.375 2.6875 C12.45267578 2.79578125 12.45267578 2.79578125 11.51171875 2.90625 C10.70347656 2.9990625 9.89523438 3.091875 9.0625 3.1875 C8.26199219 3.2803125 7.46148437 3.373125 6.63671875 3.46875 C3.54553039 3.76772504 0.48155109 3.6875 -2.625 3.6875 C-2.625 3.0275 -2.625 2.3675 -2.625 1.6875 C-4.275 1.6875 -5.925 1.6875 -7.625 1.6875 C-4.25261551 -0.56075633 -3.80587043 -0.48898954 0 0 Z M41.375 20.6875 C41.045 24.9775 40.715 29.2675 40.375 33.6875 C39.385 31.3775 38.395 29.0675 37.375 26.6875 C38.365 26.0275 39.355 25.3675 40.375 24.6875 C38.725 24.6875 37.075 24.6875 35.375 24.6875 C34.04062163 26.84463956 34.04062163 26.84463956 35.0625 30.125 C36.4494626 33.88961278 37.16936403 34.58380139 40.375 36.6875 C41.625 38.875 41.625 38.875 42.375 40.6875 C42.436875 40.089375 42.49875 39.49125 42.5625 38.875 C43.375 36.6875 43.375 36.6875 45.875 35.4375 C48.50258235 33.98141711 48.50258235 33.98141711 48.9609375 31.7578125 C49.32245623 29.29071219 49.32245623 29.29071219 49.375 25.6875 C48.30854885 24.39116379 48.30854885 24.39116379 45.8125 24.625 C45.008125 24.645625 44.20375 24.66625 43.375 24.6875 C43.375 23.3675 43.375 22.0475 43.375 20.6875 C42.715 20.6875 42.055 20.6875 41.375 20.6875 Z M64.375 21.6875 C64.045 24.6575 63.715 27.6275 63.375 30.6875 C60.735 28.3775 58.095 26.0675 55.375 23.6875 C54.385 24.1825 54.385 24.1825 53.375 24.6875 C53.375 28.6475 53.375 32.6075 53.375 36.6875 C54.035 36.3575 54.695 36.0275 55.375 35.6875 C55.045 32.7175 54.715 29.7475 54.375 26.6875 C55.83762592 27.7859742 57.29495503 28.8915036 58.75 30 C59.56210938 30.61488281 60.37421875 31.22976562 61.2109375 31.86328125 C63.375 33.6875 63.375 33.6875 65.375 36.6875 C65.375 31.7375 65.375 26.7875 65.375 21.6875 C65.045 21.6875 64.715 21.6875 64.375 21.6875 Z M103.375 23.6875 C101.23913322 26.89130017 101.14367825 27.70689967 101.25 31.375 C101.26804687 32.18324219 101.28609375 32.99148437 101.3046875 33.82421875 C101.32789063 34.43910156 101.35109375 35.05398437 101.375 35.6875 C104.08379335 37.04189668 106.38433268 36.75251451 109.375 36.6875 C109.375 36.3575 109.375 36.0275 109.375 35.6875 C107.725 35.6875 106.075 35.6875 104.375 35.6875 C104.375 32.3875 104.375 29.0875 104.375 25.6875 C106.685 26.0175 108.995 26.3475 111.375 26.6875 C111.375 26.0275 111.375 25.3675 111.375 24.6875 C108.735 24.3575 106.095 24.0275 103.375 23.6875 Z M75.375 23.6875 C74.385 24.3475 73.395 25.0075 72.375 25.6875 C74.685 25.6875 76.995 25.6875 79.375 25.6875 C78.055 25.0275 76.735 24.3675 75.375 23.6875 Z M83.375 24.6875 C83.705 25.3475 84.035 26.0075 84.375 26.6875 C86.025 26.3575 87.675 26.0275 89.375 25.6875 C89.375 28.9875 89.375 32.2875 89.375 35.6875 C90.035 36.0175 90.695 36.3475 91.375 36.6875 C91.705 32.7275 92.035 28.7675 92.375 24.6875 C89.405 24.6875 86.435 24.6875 83.375 24.6875 Z M95.375 24.6875 C96.86 25.6775 96.86 25.6775 98.375 26.6875 C98.375 26.0275 98.375 25.3675 98.375 24.6875 C97.385 24.6875 96.395 24.6875 95.375 24.6875 Z M116.375 24.6875 C116.375 28.3175 116.375 31.9475 116.375 35.6875 C117.365 36.1825 117.365 36.1825 118.375 36.6875 C118.705 33.0575 119.035 29.4275 119.375 25.6875 C118.385 25.3575 117.395 25.0275 116.375 24.6875 Z M124.375 24.6875 C124.375 25.3475 124.375 26.0075 124.375 26.6875 C123.715 27.3475 123.055 28.0075 122.375 28.6875 C123.695 28.6875 125.015 28.6875 126.375 28.6875 C126.705 27.3675 127.035 26.0475 127.375 24.6875 C126.385 24.6875 125.395 24.6875 124.375 24.6875 Z M68.375 25.6875 C69.035 27.0075 69.695 28.3275 70.375 29.6875 C72.025 29.6875 73.675 29.6875 75.375 29.6875 C73.56277466 27.6250006 73.56277466 27.6250006 71.375 25.6875 C70.385 25.6875 69.395 25.6875 68.375 25.6875 Z M78.375 27.6875 C76.17702597 29.88547403 75.91602483 30.86296145 75.25 33.8125 C74.96125 35.09125 74.6725 36.37 74.375 37.6875 C73.385 37.6875 72.395 37.6875 71.375 37.6875 C71.375 38.3475 71.375 39.0075 71.375 39.6875 C74.96836471 38.68934314 76.33225379 37.73924542 78.75 34.8125 C80.62008209 31.91818598 80.62008209 31.91818598 80.125 29.3125 C79.8775 28.77625 79.63 28.24 79.375 27.6875 C79.045 27.6875 78.715 27.6875 78.375 27.6875 Z M108.375 28.6875 C108.045 29.3475 107.715 30.0075 107.375 30.6875 C108.035 30.6875 108.695 30.6875 109.375 30.6875 C109.045 30.0275 108.715 29.3675 108.375 28.6875 Z M123.375 30.6875 C124.49951727 33.6594385 125.59793791 36.02190687 127.375 38.6875 C128.365 38.3575 129.355 38.0275 130.375 37.6875 C129.59154285 36.51530457 128.79797164 35.34986332 128 34.1875 C127.55914062 33.5378125 127.11828125 32.888125 126.6640625 32.21875 C126.23867187 31.7134375 125.81328125 31.208125 125.375 30.6875 C124.715 30.6875 124.055 30.6875 123.375 30.6875 Z M111.375 34.6875 C112.375 36.6875 112.375 36.6875 112.375 36.6875 Z M68.375 35.6875 C68.705 36.3475 69.035 37.0075 69.375 37.6875 C70.035 37.3575 70.695 37.0275 71.375 36.6875 C70.385 36.3575 69.395 36.0275 68.375 35.6875 Z " fill="#060706" transform="translate(112.625,9.3125)"/>
<path d="M0 0 C1.05703125 0.07863281 2.1140625 0.15726562 3.203125 0.23828125 C4.46382812 0.46064453 4.46382812 0.46064453 5.75 0.6875 C6.245 1.6775 6.245 1.6775 6.75 2.6875 C3.54984144 3.75421952 1.86455706 3.63595472 -1.4375 3.25 C-2.33855469 3.14816406 -3.23960938 3.04632813 -4.16796875 2.94140625 C-5.19857422 2.81572266 -5.19857422 2.81572266 -6.25 2.6875 C-6.58 3.3475 -6.91 4.0075 -7.25 4.6875 C-7.25 4.0275 -7.25 3.3675 -7.25 2.6875 C-11.79170996 4.59634692 -11.79170996 4.59634692 -16.25 6.6875 C-16.25 7.6775 -16.25 8.6675 -16.25 9.6875 C-17.28125 9.81125 -18.3125 9.935 -19.375 10.0625 C-22.87116846 10.62639814 -25.93397627 11.47432059 -29.25 12.6875 C-28.63125 13.1 -28.0125 13.5125 -27.375 13.9375 C-25.03482837 15.86470016 -24.30297252 16.87008704 -23.25 19.6875 C-23.11451341 23.20168355 -23.25356932 26.66578717 -23.375 30.1796875 C-23.24666118 33.78119555 -22.4364157 36.3104366 -21.25 39.6875 C-20.94955638 41.88726978 -20.72068215 44.09794996 -20.5625 46.3125 C-20.47613281 47.41851562 -20.38976562 48.52453125 -20.30078125 49.6640625 C-20.25 52.6875 -20.25 52.6875 -20.78173828 54.61474609 C-21.3115288 56.95985635 -21.12707733 58.51996322 -20.69140625 60.875 C-20.55283203 61.65617187 -20.41425781 62.43734375 -20.27148438 63.2421875 C-20.12001953 64.04914063 -19.96855469 64.85609375 -19.8125 65.6875 C-19.51918434 67.2911297 -19.22871927 68.89528398 -18.94140625 70.5 C-18.74333374 71.56154297 -18.74333374 71.56154297 -18.54125977 72.64453125 C-18.25 74.6875 -18.25 74.6875 -18.25 78.6875 C-17.59 78.6875 -16.93 78.6875 -16.25 78.6875 C-16.58 77.6975 -16.91 76.7075 -17.25 75.6875 C-17.34310948 74.04631365 -17.38069144 72.40163655 -17.3828125 70.7578125 C-17.38410156 69.79746094 -17.38539062 68.83710937 -17.38671875 67.84765625 C-17.38285156 66.84605469 -17.37898438 65.84445313 -17.375 64.8125 C-17.38080078 63.32169922 -17.38080078 63.32169922 -17.38671875 61.80078125 C-17.38542969 60.83785156 -17.38414063 59.87492187 -17.3828125 58.8828125 C-17.38168457 58.00641113 -17.38055664 57.13000977 -17.37939453 56.22705078 C-17.25 53.6875 -17.25 53.6875 -16.71044922 51.05029297 C-16.08708441 48.58571021 -16.08708441 48.58571021 -16.75 45.6875 C-17.25 42.6875 -17.25 42.6875 -16.6875 40.0625 C-16.00670397 37.70389656 -16.00670397 37.70389656 -17.1875 35.8125 C-18.72789834 32.73170331 -18.43512153 30.08139463 -18.25 26.6875 C-17.92 25.6975 -17.59 24.7075 -17.25 23.6875 C-17.270625 22.924375 -17.29125 22.16125 -17.3125 21.375 C-17.23818929 18.17963956 -16.35899236 15.66791698 -15.25 12.6875 C-12.375 12.5625 -12.375 12.5625 -9.25 12.6875 C-7.25 14.6875 -7.25 14.6875 -7.1875 17.75 C-7.208125 18.719375 -7.22875 19.68875 -7.25 20.6875 C-6.92 21.0175 -6.59 21.3475 -6.25 21.6875 C-4.68234737 32.41410941 -3.55705618 42.6781244 -5.81640625 53.3671875 C-6.3747649 57.64290689 -6.15034914 61.70799521 -5.875 66 C-5.83117187 66.82306641 -5.78734375 67.64613281 -5.7421875 68.49414062 C-5.86763192 72.41116539 -5.86763192 72.41116539 -4.25 75.6875 C-4.10884839 78.35808851 -4.20752893 81.01182238 -4.25 83.6875 C-3.10185003 81.39120006 -2.94230191 79.61051914 -2.6875 77.0625 C-2.60371094 76.24523437 -2.51992187 75.42796875 -2.43359375 74.5859375 C-2.34271484 73.64621094 -2.34271484 73.64621094 -2.25 72.6875 C-0.93 72.6875 0.39 72.6875 1.75 72.6875 C1.42 71.6975 1.09 70.7075 0.75 69.6875 C-0.24 69.1925 -0.24 69.1925 -1.25 68.6875 C-1.18994146 65.76865472 -1.10291384 62.85488361 -1 59.9375 C-0.98582031 59.1125 -0.97164062 58.2875 -0.95703125 57.4375 C-0.70781671 51.25697932 -0.70781671 51.25697932 1.671875 48.296875 C2.35765625 47.76578125 3.0434375 47.2346875 3.75 46.6875 C4.41 45.6975 5.07 44.7075 5.75 43.6875 C7.07 44.3475 8.39 45.0075 9.75 45.6875 C10.41 45.0275 11.07 44.3675 11.75 43.6875 C12.75036671 49.93979195 12.80024648 55.99241647 12.6875 62.3203125 C12.74744781 65.55000083 13.13411507 68.52146655 13.75 71.6875 C14.08 71.6875 14.41 71.6875 14.75 71.6875 C15.08 73.3375 15.41 74.9875 15.75 76.6875 C15.8325 76.11 15.915 75.5325 16 74.9375 C16.75 72.6875 16.75 72.6875 18.75 70.875 C21.08530742 68.753245 21.08530742 68.753245 21.125 65.25 C21.7662454 61.59490122 21.9541835 61.03959453 24.5625 58.75 C27.75 56.6875 27.75 56.6875 31.75 56.6875 C31.75 57.3475 31.75 58.0075 31.75 58.6875 C32.554375 58.81125 33.35875 58.935 34.1875 59.0625 C35.033125 59.26875 35.87875 59.475 36.75 59.6875 C37.08 60.3475 37.41 61.0075 37.75 61.6875 C39.4 61.3575 41.05 61.0275 42.75 60.6875 C39.97920113 64.49734844 36.12131855 64.75590752 31.75 65.6875 C32.245 64.2025 32.245 64.2025 32.75 62.6875 C29.96885944 60.35358797 29.96885944 60.35358797 27.0625 61.0625 C26.299375 61.26875 25.53625 61.475 24.75 61.6875 C24.14538634 64.53782156 23.65523595 67.36269385 23.25 70.25 C22.75 73.6875 22.75 73.6875 22.125 75.9375 C21.54524155 77.91986634 21.54524155 77.91986634 22.75 80.6875 C22.255 82.1725 22.255 82.1725 21.75 83.6875 C21.09 83.6875 20.43 83.6875 19.75 83.6875 C19.75 85.0075 19.75 86.3275 19.75 87.6875 C19.09 87.6875 18.43 87.6875 17.75 87.6875 C17.42 89.3375 17.09 90.9875 16.75 92.6875 C15.265 93.1825 15.265 93.1825 13.75 93.6875 C13.75 90.7175 13.75 87.7475 13.75 84.6875 C13.09 84.6875 12.43 84.6875 11.75 84.6875 C11.42 86.6675 11.09 88.6475 10.75 90.6875 C10.09 90.6875 9.43 90.6875 8.75 90.6875 C8.46125 90.089375 8.1725 89.49125 7.875 88.875 C6.70257974 86.49422208 6.70257974 86.49422208 4.75 83.6875 C3.43 85.0075 2.11 86.3275 0.75 87.6875 C0.42 87.3575 0.09 87.0275 -0.25 86.6875 C-2.28165952 91.02170699 -2.77060632 94.97346212 -3.25 99.6875 C-3.91 99.6875 -4.57 99.6875 -5.25 99.6875 C-5.3325 98.635625 -5.415 97.58375 -5.5 96.5 C-5.94977362 92.65405662 -5.94977362 92.65405662 -8.3125 90.125 C-10.70727311 87.11222093 -10.59897876 85.43902165 -10.25 81.6875 C-10.91 81.6875 -11.57 81.6875 -12.25 81.6875 C-11.755 86.1425 -11.755 86.1425 -11.25 90.6875 C-12.24 90.3575 -13.23 90.0275 -14.25 89.6875 C-14.58 89.0275 -14.91 88.3675 -15.25 87.6875 C-15.91 90.6575 -16.57 93.6275 -17.25 96.6875 C-17.91 96.6875 -18.57 96.6875 -19.25 96.6875 C-19.75478485 94.27174393 -20.25397642 91.85505639 -20.75 89.4375 C-20.89308594 88.75558594 -21.03617188 88.07367188 -21.18359375 87.37109375 C-21.86251049 84.04116879 -22.25 81.10417449 -22.25 77.6875 C-22.91 77.6875 -23.57 77.6875 -24.25 77.6875 C-24.58 78.3475 -24.91 79.0075 -25.25 79.6875 C-25.58 78.3675 -25.91 77.0475 -26.25 75.6875 C-26.91 76.6775 -27.57 77.6675 -28.25 78.6875 C-29.14377186 75.60143218 -29.39730377 72.78969644 -29.4609375 69.58203125 C-29.50347656 68.10573242 -29.50347656 68.10573242 -29.546875 66.59960938 C-29.59846173 64.55290569 -29.64287527 62.5060071 -29.6796875 60.45898438 C-29.85704944 54.77970713 -30.48110088 49.95270871 -32.51806641 44.6315918 C-33.25754198 42.66746773 -33.75805159 40.72589972 -34.25 38.6875 C-34.90509503 36.68367991 -35.56974363 34.68291868 -36.25 32.6875 C-35.26 32.1925 -35.26 32.1925 -34.25 31.6875 C-34.36306697 29.72855639 -34.36306697 29.72855639 -35.25 27.6875 C-37.74034386 26.39089566 -37.74034386 26.39089566 -40.25 25.6875 C-40.25 24.6975 -40.25 23.7075 -40.25 22.6875 C-39.26 22.6875 -38.27 22.6875 -37.25 22.6875 C-37.25 22.0275 -37.25 21.3675 -37.25 20.6875 C-38.9 20.3575 -40.55 20.0275 -42.25 19.6875 C-42.25 19.0275 -42.25 18.3675 -42.25 17.6875 C-42.848125 17.584375 -43.44625 17.48125 -44.0625 17.375 C-46.53243264 16.59873545 -47.57251235 15.61661079 -49.25 13.6875 C-47.27 13.0275 -45.29 12.3675 -43.25 11.6875 C-43.25 11.0275 -43.25 10.3675 -43.25 9.6875 C-41.27 9.6875 -39.29 9.6875 -37.25 9.6875 C-37.58 8.0375 -37.91 6.3875 -38.25 4.6875 C-36.93 5.0175 -35.61 5.3475 -34.25 5.6875 C-34.91 4.3675 -35.57 3.0475 -36.25 1.6875 C-34.93 2.0175 -33.61 2.3475 -32.25 2.6875 C-32.25 2.3575 -32.25 2.0275 -32.25 1.6875 C-31.64003174 1.66244385 -31.03006348 1.6373877 -30.40161133 1.61157227 C-27.62172102 1.4950942 -24.8421266 1.37260368 -22.0625 1.25 C-21.10279297 1.21068359 -20.14308594 1.17136719 -19.15429688 1.13085938 C-17.75727539 1.06801758 -17.75727539 1.06801758 -16.33203125 1.00390625 C-15.05162964 0.94891968 -15.05162964 0.94891968 -13.74536133 0.89282227 C-1.44524618 -0.11925061 -1.44524618 -0.11925061 0 0 Z " fill="#0B0D0B" transform="translate(97.25,7.3125)"/>
<path d="M0 0 C0.495 0.99 0.495 0.99 1 2 C4.0833134 2.02911321 7.16659125 2.04683682 10.25 2.0625 C11.12269531 2.07087891 11.99539062 2.07925781 12.89453125 2.08789062 C13.73886719 2.09111328 14.58320313 2.09433594 15.453125 2.09765625 C16.61569824 2.10551147 16.61569824 2.10551147 17.80175781 2.11352539 C20.00185448 2.0716137 20.00185448 2.0716137 22.08203125 1.47265625 C25.07907292 0.73407775 27.73328413 1.4246583 30.75 1.9375 C31.92046875 2.13214844 33.0909375 2.32679687 34.296875 2.52734375 C35.18890625 2.68332031 36.0809375 2.83929687 37 3 C37 3.33 37 3.66 37 4 C35.35 4 33.7 4 32 4 C33.06645115 5.29633621 33.06645115 5.29633621 35.5625 5.0625 C36.366875 5.041875 37.17125 5.02125 38 5 C38 5.66 38 6.32 38 7 C38.66 7 39.32 7 40 7 C40 7.66 40 8.32 40 9 C39.01 9 38.02 9 37 9 C37 9.66 37 10.32 37 11 C42.28 11.99 47.56 12.98 53 14 C53 14.66 53 15.32 53 16 C49.37 16.33 45.74 16.66 42 17 C41.34 18.98 40.68 20.96 40 23 C43.63 23.33 47.26 23.66 51 24 C51 24.66 51 25.32 51 26 C46.38 26.33 41.76 26.66 37 27 C37 27.66 37 28.32 37 29 C35.68 29 34.36 29 33 29 C32.814375 30.670625 32.814375 30.670625 32.625 32.375 C32 36 32 36 30 38 C24.36609093 41.75593938 18.25997099 41.06938306 11.70703125 40.9375 C8.90122743 40.86945412 8.90122743 40.86945412 6 42 C5.67 40.35 5.34 38.7 5 37 C5.66 37 6.32 37 7 37 C6.34 35.02 5.68 33.04 5 31 C3.68 31 2.36 31 1 31 C0.505 29.02 0.505 29.02 0 27 C-2.31 27.99 -4.62 28.98 -7 30 C-5.35 30.33 -3.7 30.66 -2 31 C-2 31.66 -2 32.32 -2 33 C-3.98 33 -5.96 33 -8 33 C-8 33.99 -8 34.98 -8 36 C-7.34 35.34 -6.68 34.68 -6 34 C-4.68 34 -3.36 34 -2 34 C-2 35.32 -2 36.64 -2 38 C-4.64 38 -7.28 38 -10 38 C-10 38.99 -10 39.98 -10 41 C-12.3125 41.1875 -12.3125 41.1875 -15 41 C-16.5 39.6875 -16.5 39.6875 -18 38 C-19.64605826 36.96642853 -21.30963442 35.95939668 -23 35 C-23 35.66 -23 36.32 -23 37 C-23.639375 37.268125 -24.27875 37.53625 -24.9375 37.8125 C-27.33131686 38.88667752 -27.33131686 38.88667752 -28 42 C-34.435 42.495 -34.435 42.495 -41 43 C-41.99 41.35 -42.98 39.7 -44 38 C-45.97080157 37.25723969 -45.97080157 37.25723969 -48 37 C-48.99 36.34 -49.98 35.68 -51 35 C-51.33 35.66 -51.66 36.32 -52 37 C-52.66 37 -53.32 37 -54 37 C-54 35.35 -54 33.7 -54 32 C-53.236875 31.896875 -52.47375 31.79375 -51.6875 31.6875 C-48.75657342 30.93772808 -47.98482838 30.16526733 -46 28 C-45.01 27.67 -44.02 27.34 -43 27 C-43 27.99 -43 28.98 -43 30 C-41.97723468 32.9952413 -41.2551922 34.7448078 -39 37 C-38.67 34.69 -38.34 32.38 -38 30 C-33.98195309 29.15901344 -30.98196457 28.94595055 -27 30 C-26.67 29.01 -26.34 28.02 -26 27 C-24.576875 26.319375 -24.576875 26.319375 -23.125 25.625 C-19.6128366 23.79867503 -18.86523753 22.37519171 -17 19 C-16.01 18.67 -15.02 18.34 -14 18 C-13.01 17.34 -12.02 16.68 -11 16 C-11.103125 16.928125 -11.20625 17.85625 -11.3125 18.8125 C-11.1578125 20.3903125 -11.1578125 20.3903125 -11 22 C-8.60943058 23.9354148 -8.60943058 23.9354148 -6 25 C-5.34 23.02 -4.68 21.04 -4 19 C-3.01 19 -2.02 19 -1 19 C-0.34 19.825 0.32 20.65 1 21.5 C5.43827037 25.19855864 9.45105802 24.38653621 15 24 C15.99 24 16.98 24 18 24 C20.07361988 23.75243555 20.07361988 23.75243555 22 23 C22.99 21.515 22.99 21.515 24 20 C27.875 21.75 27.875 21.75 29 24 C29.99 23.505 29.99 23.505 31 23 C30.01 22.071875 30.01 22.071875 29 21.125 C27 19 27 19 27 17 C25.515 16.505 25.515 16.505 24 16 C25.32 15.67 26.64 15.34 28 15 C28.33 13.02 28.66 11.04 29 9 C22.61819832 8.80446986 22.61819832 8.80446986 16.3125 9.5625 C13.0715753 10.17564792 10.2279001 9.54813398 7 9 C6.34 9 5.68 9 5 9 C-1 9 -7 9 -13 9 C-13 7 -13 7 -11 5 C-8.67724823 4.59952556 -6.34260643 4.2602896 -4 4 C-4 3.01 -4 2.02 -4 1 C-2.68 0.67 -1.36 0.34 0 0 Z M-42 27 C-40 28 -40 28 -40 28 Z " fill="#080908" transform="translate(211,23)"/>
<path d="M0 0 C2.625 0.3125 2.625 0.3125 4.5 1.8125 C6.11799243 5.40803874 5.54458584 8.59958573 4.625 12.3125 C4.11066406 13.46685547 4.11066406 13.46685547 3.5859375 14.64453125 C2.40980731 17.90996589 2.39441539 20.60006395 2.4375 24.0625 C2.44394531 25.21234375 2.45039062 26.3621875 2.45703125 27.546875 C2.31275631 30.22123614 2.31275631 30.22123614 3.625 31.3125 C3.76693337 34.31581018 3.66736378 37.30467134 3.625 40.3125 C4.945 37.0125 6.265 33.7125 7.625 30.3125 C8.615 30.3125 9.605 30.3125 10.625 30.3125 C11.285 29.3225 11.945 28.3325 12.625 27.3125 C13.0375 27.8075 13.45 28.3025 13.875 28.8125 C15.74702338 30.74636092 15.74702338 30.74636092 19.625 30.3125 C19.955 29.3225 20.285 28.3325 20.625 27.3125 C21.615 27.6425 22.605 27.9725 23.625 28.3125 C25.8727975 26.26016315 26.6272242 25.30582739 27.625 22.3125 C28.285 22.3125 28.945 22.3125 29.625 22.3125 C29.625 25.9425 29.625 29.5725 29.625 33.3125 C30.945 32.6525 32.265 31.9925 33.625 31.3125 C33.625 28.6725 33.625 26.0325 33.625 23.3125 C37.4789306 27.76860725 37.625 29.46257504 37.625 35.3125 C37.83125 36.01375 38.0375 36.715 38.25 37.4375 C38.37375 38.05625 38.4975 38.675 38.625 39.3125 C37.965 39.9725 37.305 40.6325 36.625 41.3125 C37.615 41.8075 37.615 41.8075 38.625 42.3125 C38.295 43.6325 37.965 44.9525 37.625 46.3125 C34.655 46.8075 34.655 46.8075 31.625 47.3125 C30.965 49.6225 30.305 51.9325 29.625 54.3125 C28.965 54.3125 28.305 54.3125 27.625 54.3125 C27.625 53.6525 27.625 52.9925 27.625 52.3125 C26.861875 52.539375 26.09875 52.76625 25.3125 53 C24.425625 53.103125 23.53875 53.20625 22.625 53.3125 C20.9375 51.9375 20.9375 51.9375 19.625 50.3125 C18.965 49.9825 18.305 49.6525 17.625 49.3125 C17.625 48.6525 17.625 47.9925 17.625 47.3125 C12.55984135 49.06186093 12.55984135 49.06186093 8.75 52.625 C7.48396974 55.32607388 7.48396974 55.32607388 7.1875 58.5 C7.001875 59.428125 6.81625 60.35625 6.625 61.3125 C5.30852881 62.01187532 3.97477849 62.67979133 2.625 63.3125 C1.81328772 65.86769921 1.81328772 65.86769921 1.625 68.3125 C-0.91335849 65.35108176 -1.81074242 63.31737248 -2.125 59.4375 C-2.20234375 58.61507812 -2.2796875 57.79265625 -2.359375 56.9453125 C-2.37706611 53.96435994 -1.87800637 51.24856679 -1.375 48.3125 C-0.91637699 39.88663543 -1.51983957 31.70295604 -2.7512207 23.37939453 C-2.99501944 21.69523367 -3.18987971 20.00411642 -3.375 18.3125 C-3.045 17.9825 -2.715 17.6525 -2.375 17.3125 C-2.30320036 15.79321962 -2.29107993 14.27082518 -2.3125 12.75 C-2.32152344 11.92371094 -2.33054687 11.09742188 -2.33984375 10.24609375 C-2.35144531 9.60800781 -2.36304687 8.96992188 -2.375 8.3125 C-5.015 7.6525 -7.655 6.9925 -10.375 6.3125 C-8.87150603 3.30551207 -6.3331052 2.72992541 -3.375 1.3125 C-2.375 0.3125 -2.375 0.3125 0 0 Z " fill="#0B0D0C" transform="translate(111.375,16.6875)"/>
<path d="M0 0 C2.22265625 1.30859375 2.22265625 1.30859375 3.22265625 4.30859375 C3.88265625 4.63859375 4.54265625 4.96859375 5.22265625 5.30859375 C4.73023438 5.82808594 4.2378125 6.34757812 3.73046875 6.8828125 C1.71428389 10.12646742 1.95805888 12.33143561 2.09765625 16.12109375 C2.28277503 23.8880338 2.28277503 23.8880338 1.66015625 27.30859375 C1.04589779 30.31931541 1.04589779 30.31931541 1.84765625 33.30859375 C2.22265625 36.30859375 2.22265625 36.30859375 0.79296875 39.45703125 C-1.07854656 43.5958966 -1.36049263 47.43655868 -1.52734375 51.93359375 C-1.56988281 52.6709375 -1.61242187 53.40828125 -1.65625 54.16796875 C-1.84535571 58.07615339 -1.61719457 61.5030197 -0.77734375 65.30859375 C-0.79296875 67.66015625 -0.79296875 67.66015625 -1.02734375 69.93359375 C-1.094375 70.68898438 -1.16140625 71.444375 -1.23046875 72.22265625 C-1.87805544 74.69273691 -2.85089371 75.6825042 -4.77734375 77.30859375 C-4.76574219 76.71691406 -4.75414063 76.12523438 -4.7421875 75.515625 C-4.73316406 74.72542969 -4.72414063 73.93523437 -4.71484375 73.12109375 C-4.70324219 72.34378906 -4.69164063 71.56648438 -4.6796875 70.765625 C-4.71013357 68.32820696 -4.71013357 68.32820696 -5.23828125 66.0625 C-5.9938651 62.20245209 -6.22337129 58.35510651 -6.46484375 54.43359375 C-6.52478516 53.65628906 -6.58472656 52.87898438 -6.64648438 52.078125 C-6.95772122 47.00453805 -6.24112381 43.22026201 -4.77734375 38.30859375 C-4.71022316 34.90507763 -4.71022316 34.90507763 -5.08984375 31.49609375 C-5.19941406 30.28824219 -5.30898437 29.08039062 -5.421875 27.8359375 C-5.53917969 26.67191406 -5.65648438 25.50789063 -5.77734375 24.30859375 C-5.86371094 23.29925781 -5.95007813 22.28992188 -6.0390625 21.25 C-6.32632287 16.62535223 -6.32632287 16.62535223 -7.77734375 12.30859375 C-7.81701505 10.64239929 -7.82118822 8.97468362 -7.77734375 7.30859375 C-10.08734375 6.64859375 -12.39734375 5.98859375 -14.77734375 5.30859375 C-14.75671875 6.11296875 -14.73609375 6.91734375 -14.71484375 7.74609375 C-14.77734375 10.30859375 -14.77734375 10.30859375 -15.77734375 11.30859375 C-15.77734375 12.46359375 -15.77734375 13.61859375 -15.77734375 14.80859375 C-15.77734375 15.96359375 -15.77734375 17.11859375 -15.77734375 18.30859375 C-16.10734375 18.63859375 -16.43734375 18.96859375 -16.77734375 19.30859375 C-17.13447058 23.97321442 -17.13447058 23.97321442 -15.71484375 28.30859375 C-14.27781455 31.37425605 -15.26707297 34.02018205 -15.77734375 37.30859375 C-15.4690345 39.31260386 -15.14004963 41.31371141 -14.77734375 43.30859375 C-15.10734375 44.29859375 -15.43734375 45.28859375 -15.77734375 46.30859375 C-15.86000861 48.22766292 -15.88475038 50.14948849 -15.875 52.0703125 C-15.87016602 53.74770508 -15.87016602 53.74770508 -15.86523438 55.45898438 C-15.85685547 56.62623047 -15.84847656 57.79347656 -15.83984375 58.99609375 C-15.83533203 60.17494141 -15.83082031 61.35378906 -15.82617188 62.56835938 C-15.81437648 65.48182164 -15.79791645 68.39518238 -15.77734375 71.30859375 C-16.43734375 71.30859375 -17.09734375 71.30859375 -17.77734375 71.30859375 C-18.25963707 68.80916171 -18.73823801 66.30911132 -19.21484375 63.80859375 C-19.34955078 63.1125 -19.48425781 62.41640625 -19.62304688 61.69921875 C-22.19575818 48.14542261 -22.19575818 48.14542261 -20.77734375 45.30859375 C-20.81479236 43.22299406 -20.9307676 41.1384551 -21.08984375 39.05859375 C-21.16847656 37.9396875 -21.24710938 36.82078125 -21.328125 35.66796875 C-21.66022106 32.32066573 -21.66022106 32.32066573 -22.8203125 29.33203125 C-23.94471275 25.77984434 -23.90569143 22.89765485 -23.77734375 19.18359375 C-23.43625706 13.39363473 -23.43625706 13.39363473 -25.77734375 8.30859375 C-29.32322876 7.00938629 -29.32322876 7.00938629 -32.77734375 6.30859375 C-27.8945237 3.69043006 -22.42316057 1.73341618 -16.90234375 2.93359375 C-12.51366842 3.46023479 -9.44327474 1.79148226 -5.4609375 0.0234375 C-2.77734375 -0.69140625 -2.77734375 -0.69140625 0 0 Z " fill="#A0CA4A" transform="translate(96.77734375,14.69140625)"/>
<path d="M0 0 C2.875 -0.125 2.875 -0.125 6 0 C8 2 8 2 8.0625 5.0625 C8.041875 6.031875 8.02125 7.00125 8 8 C8.33 8.33 8.66 8.66 9 9 C10.56765263 19.72660941 11.69294382 29.9906244 9.43359375 40.6796875 C8.8752351 44.95540689 9.09965086 49.02049521 9.375 53.3125 C9.41882813 54.13556641 9.46265625 54.95863281 9.5078125 55.80664062 C9.38236808 59.72366539 9.38236808 59.72366539 11 63 C11.04092937 65.33297433 11.04241723 67.66705225 11 70 C9.515 70.495 9.515 70.495 8 71 C7.67 69.68 7.34 68.36 7 67 C6.505 67.495 6.505 67.495 6 68 C5.34 67.67 4.68 67.34 4 67 C4.66 64.69 5.32 62.38 6 60 C5.01 60 4.02 60 3 60 C3 59.34 3 58.68 3 58 C1.515 58.495 1.515 58.495 0 59 C0.33 57.68 0.66 56.36 1 55 C0.01 55 -0.98 55 -2 55 C-2.02714735 52.77090129 -2.04646254 50.54170633 -2.0625 48.3125 C-2.07990234 46.45044922 -2.07990234 46.45044922 -2.09765625 44.55078125 C-2.01448719 41.52675418 -1.61288973 38.94084061 -1 36 C-1.2475 34.515 -1.2475 34.515 -1.5 33 C-2 30 -2 30 -1.4375 27.375 C-0.75670397 25.01639656 -0.75670397 25.01639656 -1.9375 23.125 C-3.47789834 20.04420331 -3.18512153 17.39389463 -3 14 C-2.67 13.01 -2.34 12.02 -2 11 C-2.020625 10.236875 -2.04125 9.47375 -2.0625 8.6875 C-1.98818929 5.49213956 -1.10899236 2.98041698 0 0 Z " fill="#0D1209" transform="translate(82,20)"/>
<path d="M0 0 C0.66666667 2 1.33333333 4 2 6 C2.495 6.99 2.495 6.99 3 8 C3.99 8.33 4.98 8.66 6 9 C6.66 7.02 7.32 5.04 8 3 C11 3 11 3 13.5 5.4375 C14.325 6.283125 15.15 7.12875 16 8 C16.99 8.33 17.98 8.66 19 9 C18.67 10.65 18.34 12.3 18 14 C16.35 14.33 14.7 14.66 13 15 C12.505 13.02 12.505 13.02 12 11 C9.69 11.99 7.38 12.98 5 14 C7.475 14.495 7.475 14.495 10 15 C10 15.66 10 16.32 10 17 C8.02 17 6.04 17 4 17 C4 17.99 4 18.98 4 20 C4.66 19.34 5.32 18.68 6 18 C7.32 18 8.64 18 10 18 C10 19.32 10 20.64 10 22 C7.36 22 4.72 22 2 22 C2 22.99 2 23.98 2 25 C-0.3125 25.1875 -0.3125 25.1875 -3 25 C-4.5 23.6875 -4.5 23.6875 -6 22 C-7.64605826 20.96642853 -9.30963442 19.95939668 -11 19 C-11 19.66 -11 20.32 -11 21 C-11.639375 21.268125 -12.27875 21.53625 -12.9375 21.8125 C-15.33131686 22.88667752 -15.33131686 22.88667752 -16 26 C-22.435 26.495 -22.435 26.495 -29 27 C-29.99 25.35 -30.98 23.7 -32 22 C-33.97080157 21.25723969 -33.97080157 21.25723969 -36 21 C-36.99 20.34 -37.98 19.68 -39 19 C-39.33 19.66 -39.66 20.32 -40 21 C-40.66 21 -41.32 21 -42 21 C-42 19.35 -42 17.7 -42 16 C-41.236875 15.896875 -40.47375 15.79375 -39.6875 15.6875 C-36.75657342 14.93772808 -35.98482838 14.16526733 -34 12 C-33.01 11.67 -32.02 11.34 -31 11 C-31 11.99 -31 12.98 -31 14 C-29.97723468 16.9952413 -29.2551922 18.7448078 -27 21 C-26.67 18.69 -26.34 16.38 -26 14 C-21.98195309 13.15901344 -18.98196457 12.94595055 -15 14 C-14.67 13.01 -14.34 12.02 -14 11 C-13.05125 10.54625 -12.1025 10.0925 -11.125 9.625 C-7.6128366 7.79867503 -6.86523753 6.37519171 -5 3 C-4.01 2.67 -3.02 2.34 -2 2 C-1.34 1.34 -0.68 0.68 0 0 Z M-30 11 C-28 12 -28 12 -28 12 Z " fill="#0B0D0B" transform="translate(199,39)"/>
<path d="M0 0 C4.875 1.75 4.875 1.75 6 4 C6.66 3.67 7.32 3.34 8 3 C11 3 11 3 13.1875 5 C14.0846875 5.99 14.0846875 5.99 15 7 C14.67 7.66 14.34 8.32 14 9 C12.68 9 11.36 9 10 9 C9.87625 10.11375 9.7525 11.2275 9.625 12.375 C9 16 9 16 7 18 C1.36609093 21.75593938 -4.74002901 21.06938306 -11.29296875 20.9375 C-14.09877257 20.86945412 -14.09877257 20.86945412 -17 22 C-17.33 20.35 -17.66 18.7 -18 17 C-17.34 17 -16.68 17 -16 17 C-16.350625 16.4225 -16.70125 15.845 -17.0625 15.25 C-18.18065988 12.56641628 -17.92603121 11.69390896 -17 9 C-16.814375 8.2575 -16.62875 7.515 -16.4375 6.75 C-16.293125 6.1725 -16.14875 5.595 -16 5 C-8.375 4 -8.375 4 -5 4 C-2.8817921 3.76230794 -2.8817921 3.76230794 -1 3 C-0.67 2.01 -0.34 1.02 0 0 Z " fill="#0B0D0B" transform="translate(234,43)"/>
<path d="M0 0 C2.625 0.3125 2.625 0.3125 4.5 1.8125 C6.11799243 5.40803874 5.54458584 8.59958573 4.625 12.3125 C4.11066406 13.46685547 4.11066406 13.46685547 3.5859375 14.64453125 C2.40980731 17.90996589 2.39441539 20.60006395 2.4375 24.0625 C2.44394531 25.21234375 2.45039062 26.3621875 2.45703125 27.546875 C2.31275631 30.22123614 2.31275631 30.22123614 3.625 31.3125 C3.72409302 33.64410055 3.75470504 35.97879942 3.75 38.3125 C3.75257812 39.59125 3.75515625 40.87 3.7578125 42.1875 C3.625 45.3125 3.625 45.3125 2.625 46.3125 C2.43958869 48.20487259 2.30189299 50.10201011 2.1875 52 C1.86215016 56.40271799 1.33885252 60.19925396 -0.375 64.3125 C-0.705 64.3125 -1.035 64.3125 -1.375 64.3125 C-1.57287356 62.77213043 -1.75775863 61.23009048 -1.9375 59.6875 C-2.04191406 58.82898438 -2.14632812 57.97046875 -2.25390625 57.0859375 C-2.38817186 54.01082189 -1.90786491 51.33979051 -1.375 48.3125 C-0.91637699 39.88663543 -1.51983957 31.70295604 -2.7512207 23.37939453 C-2.99501944 21.69523367 -3.18987971 20.00411642 -3.375 18.3125 C-3.045 17.9825 -2.715 17.6525 -2.375 17.3125 C-2.30320036 15.79321962 -2.29107993 14.27082518 -2.3125 12.75 C-2.32152344 11.92371094 -2.33054687 11.09742188 -2.33984375 10.24609375 C-2.35144531 9.60800781 -2.36304687 8.96992188 -2.375 8.3125 C-5.015 7.6525 -7.655 6.9925 -10.375 6.3125 C-8.87150603 3.30551207 -6.3331052 2.72992541 -3.375 1.3125 C-2.375 0.3125 -2.375 0.3125 0 0 Z " fill="#5FA349" transform="translate(111.375,16.6875)"/>
<path d="M0 0 C1.05703125 0.07863281 2.1140625 0.15726562 3.203125 0.23828125 C4.46382812 0.46064453 4.46382812 0.46064453 5.75 0.6875 C6.245 1.6775 6.245 1.6775 6.75 2.6875 C3.54984144 3.75421952 1.86455706 3.63595472 -1.4375 3.25 C-2.33855469 3.14816406 -3.23960938 3.04632813 -4.16796875 2.94140625 C-5.19857422 2.81572266 -5.19857422 2.81572266 -6.25 2.6875 C-6.58 3.3475 -6.91 4.0075 -7.25 4.6875 C-7.25 4.0275 -7.25 3.3675 -7.25 2.6875 C-11.79170996 4.59634692 -11.79170996 4.59634692 -16.25 6.6875 C-16.25 7.6775 -16.25 8.6675 -16.25 9.6875 C-18.05597656 9.85185547 -18.05597656 9.85185547 -19.8984375 10.01953125 C-21.47403147 10.17896635 -23.04954861 10.33916212 -24.625 10.5 C-25.4190625 10.57025391 -26.213125 10.64050781 -27.03125 10.71289062 C-29.11779466 10.9339229 -31.18739317 11.3025624 -33.25 11.6875 C-34.24 13.1725 -34.24 13.1725 -35.25 14.6875 C-35.91 14.0275 -36.57 13.3675 -37.25 12.6875 C-36.59 11.6975 -35.93 10.7075 -35.25 9.6875 C-35.91 9.6875 -36.57 9.6875 -37.25 9.6875 C-37.58 8.0375 -37.91 6.3875 -38.25 4.6875 C-36.93 5.0175 -35.61 5.3475 -34.25 5.6875 C-34.91 4.3675 -35.57 3.0475 -36.25 1.6875 C-34.93 2.0175 -33.61 2.3475 -32.25 2.6875 C-32.25 2.3575 -32.25 2.0275 -32.25 1.6875 C-31.64003174 1.66244385 -31.03006348 1.6373877 -30.40161133 1.61157227 C-27.62172102 1.4950942 -24.8421266 1.37260368 -22.0625 1.25 C-21.10279297 1.21068359 -20.14308594 1.17136719 -19.15429688 1.13085938 C-17.75727539 1.06801758 -17.75727539 1.06801758 -16.33203125 1.00390625 C-15.47843018 0.96724854 -14.6248291 0.93059082 -13.74536133 0.89282227 C-1.44524618 -0.11925061 -1.44524618 -0.11925061 0 0 Z " fill="#0A0D09" transform="translate(97.25,7.3125)"/>
<path d="M0 0 C0 0.66 0 1.32 0 2 C0.804375 2.12375 1.60875 2.2475 2.4375 2.375 C3.283125 2.58125 4.12875 2.7875 5 3 C5.33 3.66 5.66 4.32 6 5 C7.65 4.67 9.3 4.34 11 4 C8.22920113 7.80984844 4.37131855 8.06840752 0 9 C0.33 8.01 0.66 7.02 1 6 C-1.78114056 3.66608797 -1.78114056 3.66608797 -4.6875 4.375 C-5.450625 4.58125 -6.21375 4.7875 -7 5 C-7.60461366 7.85032156 -8.09476405 10.67519385 -8.5 13.5625 C-9 17 -9 17 -9.625 19.25 C-10.20475845 21.23236634 -10.20475845 21.23236634 -9 24 C-9.33 24.99 -9.66 25.98 -10 27 C-10.66 27 -11.32 27 -12 27 C-12 28.32 -12 29.64 -12 31 C-12.66 31 -13.32 31 -14 31 C-14.495 33.475 -14.495 33.475 -15 36 C-16.485 36.495 -16.485 36.495 -18 37 C-18 34.03 -18 31.06 -18 28 C-18.66 28 -19.32 28 -20 28 C-20.33 29.98 -20.66 31.96 -21 34 C-21.66 34 -22.32 34 -23 34 C-24.41377341 31.36095629 -25.37240135 28.92879371 -26 26 C-25.4225 26.226875 -24.845 26.45375 -24.25 26.6875 C-21.87827523 27.26505193 -21.87827523 27.26505193 -19.75 25.5625 C-19.1725 25.046875 -18.595 24.53125 -18 24 C-16.35 25.98 -14.7 27.96 -13 30 C-13.36867188 29.27425781 -13.73734375 28.54851562 -14.1171875 27.80078125 C-15.20374458 24.3536068 -14.69652325 23.36649638 -13.125 20.1875 C-11.59933628 16.79881457 -10.77032708 14.46273392 -11.0625 10.75 C-10.97818807 5.69128399 -9.55133785 4.46678219 -6 1 C-4 0 -4 0 0 0 Z " fill="#030303" transform="translate(129,64)"/>
<path d="M0 0 C3.96 0 7.92 0 12 0 C12.69915715 3.49578573 13.12234484 5.99406793 13.09765625 9.42578125 C13.09443359 10.22177734 13.09121094 11.01777344 13.08789062 11.83789062 C13.07951172 12.65451172 13.07113281 13.47113281 13.0625 14.3125 C13.05798828 15.14845703 13.05347656 15.98441406 13.04882812 16.84570312 C13.03710548 18.89716649 13.01917203 20.94859273 13 23 C13.66 23 14.32 23 15 23 C15 33.89 15 44.78 15 56 C14.34 55.67 13.68 55.34 13 55 C12.33203125 52.12890625 12.33203125 52.12890625 11.8125 48.5625 C11.63332031 47.38816406 11.45414063 46.21382812 11.26953125 45.00390625 C11 42 11 42 12 40 C11.96255139 37.91440031 11.84657615 35.82986135 11.6875 33.75 C11.60886719 32.63109375 11.53023437 31.5121875 11.44921875 30.359375 C11.11712269 27.01207198 11.11712269 27.01207198 9.95703125 24.0234375 C8.832631 20.47125059 8.87165232 17.5890611 9 13.875 C9.34108669 8.08504098 9.34108669 8.08504098 7 3 C3.45411499 1.70079254 3.45411499 1.70079254 0 1 C0 0.67 0 0.34 0 0 Z " fill="#A0C83C" transform="translate(64,20)"/>
<path d="M0 0 C0 0.66 0 1.32 0 2 C-0.99 2 -1.98 2 -3 2 C-2.979375 2.804375 -2.95875 3.60875 -2.9375 4.4375 C-3 7 -3 7 -4 8 C-4 9.155 -4 10.31 -4 11.5 C-4 12.655 -4 13.81 -4 15 C-4.33 15.33 -4.66 15.66 -5 16 C-5.35712683 20.66462067 -5.35712683 20.66462067 -3.9375 25 C-2.5004708 28.0656623 -3.48972922 30.7115883 -4 34 C-3.69169075 36.00401011 -3.36270588 38.00511766 -3 40 C-3.33 40.99 -3.66 41.98 -4 43 C-4.08266486 44.91906917 -4.10740663 46.84089474 -4.09765625 48.76171875 C-4.09443359 49.87998047 -4.09121094 50.99824219 -4.08789062 52.15039062 C-4.07951172 53.31763672 -4.07113281 54.48488281 -4.0625 55.6875 C-4.05798828 56.86634766 -4.05347656 58.04519531 -4.04882812 59.25976562 C-4.03703273 62.17322789 -4.0205727 65.08658863 -4 68 C-4.66 68 -5.32 68 -6 68 C-7.21894666 58.91659009 -6.90671862 49.9992452 -6.5625 40.875 C-6.50915496 39.33075014 -6.4564159 37.78647922 -6.40429688 36.2421875 C-6.27651284 32.49452323 -6.14054428 28.74721 -6 25 C-6.66 25 -7.32 25 -8 25 C-8.33 17.41 -8.66 9.82 -9 2 C-11.64 2 -14.28 2 -17 2 C-17 1.67 -17 1.34 -17 1 C-11.2364368 -1.64812363 -6.09067424 -0.8019749 0 0 Z " fill="#97CA42" transform="translate(85,18)"/>
<path d="M0 0 C0.60473145 0.10135254 1.20946289 0.20270508 1.83251953 0.30712891 C4.59445827 0.76137079 7.35944595 1.19333945 10.125 1.625 C11.07632813 1.78484375 12.02765625 1.9446875 13.0078125 2.109375 C18.3693918 2.92850517 21.86710915 3.09117775 27 1 C30.375 1.875 30.375 1.875 33 3 C32 5 32 5 31 6 C24.18660646 7.44167457 17.84110672 8.52024594 11 7 C10.34 7 9.68 7 9 7 C3 7 -3 7 -9 7 C-9 5 -9 5 -7 3 C-4.67724823 2.59952556 -2.34260643 2.2602896 0 2 C0 1.34 0 0.68 0 0 Z " fill="#0C0D0D" transform="translate(207,25)"/>
<path d="M0 0 C5.18580496 0.58628212 10.35355421 0.96037262 15.5625 1.25 C16.71322998 1.31537964 16.71322998 1.31537964 17.88720703 1.38208008 C19.71638366 1.48545031 21.54567965 1.58670509 23.375 1.6875 C23.375 3.6675 23.375 5.6475 23.375 7.6875 C21.395 8.6775 19.415 9.6675 17.375 10.6875 C18.035 12.3375 18.695 13.9875 19.375 15.6875 C30.265 16.1825 30.265 16.1825 41.375 16.6875 C41.87 17.6775 41.87 17.6775 42.375 18.6875 C34.125 18.6875 25.875 18.6875 17.375 18.6875 C15.125 11.9375 15.125 11.9375 14.375 8.6875 C17.375 6.6875 17.375 6.6875 20.375 6.6875 C20.375 5.6975 20.375 4.7075 20.375 3.6875 C18.065 4.0175 15.755 4.3475 13.375 4.6875 C13.375 4.0275 13.375 3.3675 13.375 2.6875 C12.45267578 2.79578125 12.45267578 2.79578125 11.51171875 2.90625 C10.70347656 2.9990625 9.89523438 3.091875 9.0625 3.1875 C8.26199219 3.2803125 7.46148437 3.373125 6.63671875 3.46875 C3.54553039 3.76772504 0.48155109 3.6875 -2.625 3.6875 C-2.625 3.0275 -2.625 2.3675 -2.625 1.6875 C-4.275 1.6875 -5.925 1.6875 -7.625 1.6875 C-4.25261551 -0.56075633 -3.80587043 -0.48898954 0 0 Z " fill="#030403" transform="translate(112.625,9.3125)"/>
<path d="M0 0 C0.70125 0.78375 1.4025 1.5675 2.125 2.375 C7.37344551 7.16705894 12.2284639 7.23350124 19 7 C16.44559585 11.31606218 16.44559585 11.31606218 14 13 C10.22655562 13.23849016 6.70250451 12.71326707 3 12 C3 14.31 3 16.62 3 19 C2.01 19 1.02 19 0 19 C-3 12.25 -3 12.25 -3 10 C-3.99 9.34 -4.98 8.68 -6 8 C-5.34 7.34 -4.68 6.68 -4 6 C-3.34 6.33 -2.68 6.66 -2 7 C-1.22227595 4.66682784 -0.57584432 2.38564077 0 0 Z " fill="#0B0C0D" transform="translate(170,41)"/>
<path d="M0 0 C2 1 2 1 2 1 Z M-2 0 C-1.34 0.66 -0.68 1.32 0 2 C-0.33 2.33 -0.66 2.66 -1 3 C0.07401108 5.91517292 0.77810176 7.77810176 3 10 C3.33 8.02 3.66 6.04 4 4 C6.31 4 8.62 4 11 4 C11 6.31 11 8.62 11 11 C9.02 11.33 7.04 11.66 5 12 C5.33 12.99 5.66 13.98 6 15 C4.35 15.33 2.7 15.66 1 16 C0.38125 14.7934375 0.38125 14.7934375 -0.25 13.5625 C-1.70969871 10.87704668 -1.70969871 10.87704668 -4 10.3125 C-4.99 10.1578125 -4.99 10.1578125 -6 10 C-6.99 9.34 -7.98 8.68 -9 8 C-9.33 8.66 -9.66 9.32 -10 10 C-10.66 10 -11.32 10 -12 10 C-12 8.35 -12 6.7 -12 5 C-11.236875 4.896875 -10.47375 4.79375 -9.6875 4.6875 C-6.77908957 3.94348803 -5.92670112 3.20194413 -4 1 C-3.34 0.67 -2.68 0.34 -2 0 Z " fill="#0D0D12" transform="translate(169,50)"/>
<path d="M0 0 C1.258125 -0.020625 2.51625 -0.04125 3.8125 -0.0625 C4.52019531 -0.07410156 5.22789062 -0.08570313 5.95703125 -0.09765625 C8 0 8 0 11 1 C11.33 0.67 11.66 0.34 12 0 C13.68608966 -0.07205511 15.37500659 -0.08386068 17.0625 -0.0625 C17.98160156 -0.05347656 18.90070313 -0.04445312 19.84765625 -0.03515625 C20.55792969 -0.02355469 21.26820313 -0.01195312 22 0 C22 0.66 22 1.32 22 2 C20.02 2 18.04 2 16 2 C16 2.99 16 3.98 16 5 C16.66 4.34 17.32 3.68 18 3 C19.32 3 20.64 3 22 3 C22 4.32 22 5.64 22 7 C19.36 7 16.72 7 14 7 C14 7.99 14 8.98 14 10 C11.6875 10.1875 11.6875 10.1875 9 10 C7.5 8.6875 7.5 8.6875 6 7 C4.35394174 5.96642853 2.69036558 4.95939668 1 4 C0.67 4.66 0.34 5.32 0 6 C0 4.02 0 2.04 0 0 Z " fill="#434F33" transform="translate(187,54)"/>
<path d="M0 0 C0 2.31 0 4.62 0 7 C0.99 7 1.98 7 3 7 C2.67 6.01 2.34 5.02 2 4 C2.99 3.34 3.98 2.68 5 2 C7.83924358 6.02989411 8.47586762 9.10779133 8.75 14 C8.82734375 15.19625 8.9046875 16.3925 8.984375 17.625 C8.99821394 20.61421187 8.72179692 23.11281233 8 26 C7.67 24.68 7.34 23.36 7 22 C6.34 22 5.68 22 5 22 C5.33 21.01 5.66 20.02 6 19 C6.03954234 16.66700175 6.04401732 14.33291811 6 12 C4.515 14.475 4.515 14.475 3 17 C2.01 16.01 1.02 15.02 0 14 C-0.66 14.66 -1.32 15.32 -2 16 C-4.38864199 11.12318926 -5.65423391 7.56098826 -5 2 C-2 0 -2 0 0 0 Z " fill="#0C170F" transform="translate(84,32)"/>
<path d="M0 0 C2.12100779 3.18151169 2.67392072 5.49906631 3.4375 9.16015625 C3.91109107 11.22407114 3.91109107 11.22407114 6 13 C6.70710678 14.64991582 7.37943989 16.31562256 8 18 C8.66 17.01 9.32 16.02 10 15 C10.33 15.66 10.66 16.32 11 17 C11.66 16.67 12.32 16.34 13 16 C13.66 19.3 14.32 22.6 15 26 C14.01 25.67 13.02 25.34 12 25 C11.67 24.34 11.34 23.68 11 23 C10.34 25.97 9.68 28.94 9 32 C8.34 32 7.68 32 7 32 C6.49521515 29.58424393 5.99602358 27.16755639 5.5 24.75 C5.35691406 24.06808594 5.21382812 23.38617188 5.06640625 22.68359375 C4.38748951 19.35366879 4 16.41667449 4 13 C3.34 13 2.68 13 2 13 C1.67 13.66 1.34 14.32 1 15 C0.67 13.68 0.34 12.36 0 11 C-0.66 11.99 -1.32 12.98 -2 14 C-2.33 10.7 -2.66 7.4 -3 4 C-2.34 4 -1.68 4 -1 4 C-0.67 2.68 -0.34 1.36 0 0 Z " fill="#030304" transform="translate(71,72)"/>
<path d="M0 0 C0.33 0 0.66 0 1 0 C1.19561869 2.0825867 1.38119313 4.16611856 1.5625 6.25 C1.66691406 7.41015625 1.77132812 8.5703125 1.87890625 9.765625 C2 13 2 13 1.46875 15 C0.75600788 18.04103306 1.41780112 20.69294774 1.9375 23.75 C2.22947266 25.50570312 2.22947266 25.50570312 2.52734375 27.296875 C2.68332031 28.18890625 2.83929688 29.0809375 3 30 C1.68 29.67 0.36 29.34 -1 29 C-1 30.65 -1 32.3 -1 34 C-1.33 34 -1.66 34 -2 34 C-2.66 31.36 -3.32 28.72 -4 26 C-4.33 26.99 -4.66 27.98 -5 29 C-5.66 29 -6.32 29 -7 29 C-7 24.71 -7 20.42 -7 16 C-6.34 16.33 -5.68 16.66 -5 17 C-1.76383504 14.30842545 -1.76383504 14.30842545 -0.6875 10.375 C-0.87006966 7.98760253 -0.87006966 7.98760253 -2 6 C-1.34 6 -0.68 6 0 6 C0 4.02 0 2.04 0 0 Z " fill="#101009" transform="translate(75,47)"/>
<path d="M0 0 C1.98 0 3.96 0 6 0 C5.690625 0.9075 5.38125 1.815 5.0625 2.75 C4.27169247 5.16894068 3.59553894 7.53200079 3 10 C2.40832031 10.12117188 1.81664062 10.24234375 1.20703125 10.3671875 C-2.30819712 11.11266823 -5.59768901 11.83736364 -8.9375 13.1875 C-9.9584375 13.5896875 -9.9584375 13.5896875 -11 14 C-11.66 13.67 -12.32 13.34 -13 13 C-19.07456899 12.65748699 -25.01553449 12.93609502 -31 14 C-31 13.34 -31 12.68 -31 12 C-25.90234828 10.31395499 -21.80556481 9.82303658 -16.375 10 C-11.71851233 10.15112333 -8.16537553 10.2297921 -4 8 C-3.67 7.34 -3.34 6.68 -3 6 C-2 4 -1 2 0 0 Z " fill="#030403" transform="translate(244,53)"/>
<path d="M0 0 C0.33 1.32 0.66 2.64 1 4 C0.34 4 -0.32 4 -1 4 C-1 7.3 -1 10.6 -1 14 C-1.33 14 -1.66 14 -2 14 C-2.185625 12.576875 -2.185625 12.576875 -2.375 11.125 C-2.71687177 7.91332809 -2.71687177 7.91332809 -5 6 C-3.35 4.02 -1.7 2.04 0 0 Z M-16 -2 C-15.01 -1.67 -14.02 -1.34 -13 -1 C-13 2.96 -13 6.92 -13 11 C-11.79438816 10.01732141 -11.79438816 10.01732141 -11.90234375 8.15234375 C-11.91394531 7.42144531 -11.92554688 6.69054687 -11.9375 5.9375 C-11.958125 4.638125 -11.97875 3.33875 -12 2 C-11.34 2 -10.68 2 -10 2 C-8.66666667 4 -7.33333333 6 -6 8 C-5.34 8 -4.68 8 -4 8 C-4.33 8.99 -4.66 9.98 -5 11 C-5.99 10.67 -6.98 10.34 -8 10 C-8.99 10.99 -9.98 11.98 -11 13 C-12.9375 12.3125 -12.9375 12.3125 -15 11 C-16.08181755 7.66439589 -16.09167583 4.48368169 -16 1 C-16 0.01 -16 -0.98 -16 -2 Z " fill="#030304" transform="translate(140,35)"/>
<path d="M0 0 C2.25 1.3125 2.25 1.3125 3.25 4.3125 C3.91 4.6425 4.57 4.9725 5.25 5.3125 C4.75757812 5.83199219 4.26515625 6.35148437 3.7578125 6.88671875 C1.74162764 10.13037367 1.98540263 12.33534186 2.125 16.125 C2.31011878 23.89194005 2.31011878 23.89194005 1.6875 27.3125 C1.2124815 30.56976975 1.54775729 33.11339431 2.25 36.3125 C0.7578125 35.265625 0.7578125 35.265625 -0.75 33.3125 C-1.0078125 30.046875 -1.0078125 30.046875 -0.875 26.0625 C-0.84200005 24.63030204 -0.8134706 23.19799515 -0.7890625 21.765625 C-0.77649414 21.03279297 -0.76392578 20.29996094 -0.75097656 19.54492188 C-0.74845945 13.79080044 -1.28882912 8.04419524 -1.75 2.3125 C-5.05 2.6425 -8.35 2.9725 -11.75 3.3125 C-10.43 2.6525 -9.11 1.9925 -7.75 1.3125 C-6.5434375 0.69375 -6.5434375 0.69375 -5.3125 0.0625 C-2.75 -0.6875 -2.75 -0.6875 0 0 Z " fill="#53A349" transform="translate(96.75,14.6875)"/>
<path d="M0 0 C2.475 0.495 2.475 0.495 5 1 C5.02712066 2.43739513 5.04645067 3.87493863 5.0625 5.3125 C5.07410156 6.11300781 5.08570312 6.91351563 5.09765625 7.73828125 C5 10 5 10 4 13 C4.2507236 15.11241835 4.57431761 17.2164866 4.9375 19.3125 C6.07448319 26.63039853 6.20235084 33.60295253 6 41 C5.67 41 5.34 41 5 41 C4.90912109 39.95199219 4.90912109 39.95199219 4.81640625 38.8828125 C4.73261719 37.97273438 4.64882812 37.06265625 4.5625 36.125 C4.48128906 35.22007813 4.40007812 34.31515625 4.31640625 33.3828125 C4.13010715 30.98889139 4.13010715 30.98889139 3 29 C2.34 29.66 1.68 30.32 1 31 C-0.17063548 28.07341129 0.03318397 26.8942261 1 23.8125 C2.06884972 19.73751044 1.82220751 17.15369446 1.2265625 13.07421875 C0.94958016 10.53839765 1.36789544 8.45818439 2 6 C2 4.68 2 3.36 2 2 C1.34 1.34 0.68 0.68 0 0 Z " fill="#111203" transform="translate(105,24)"/>
<path d="M0 0 C2.875 -0.1875 2.875 -0.1875 6 0 C8.48613036 3.72919554 8.25789522 5.69971556 8.265625 10.15234375 C8.26753845 10.84888565 8.2694519 11.54542755 8.27142334 12.26307678 C8.272783 13.73487713 8.26910182 15.20668956 8.26074219 16.6784668 C8.25005519 18.92589427 8.260636 21.17251951 8.2734375 23.41992188 C8.27211555 24.85156426 8.26955242 26.28320614 8.265625 27.71484375 C8.26336914 29.01542725 8.26111328 30.31601074 8.25878906 31.65600586 C8.02033199 34.73727615 7.63581318 36.43053873 6 39 C6.04125 37.741875 6.0825 36.48375 6.125 35.1875 C6.13284551 29.75056004 5.6257305 24.40143119 5.0625 19 C4.97564941 18.15074951 4.88879883 17.30149902 4.79931641 16.42651367 C4.71214355 15.62576416 4.6249707 14.82501465 4.53515625 14 C4.41732788 12.9171875 4.41732788 12.9171875 4.29711914 11.8125 C4.07661129 9.90602847 4.07661129 9.90602847 3 8 C3.04125 7.195625 3.0825 6.39125 3.125 5.5625 C3.25351346 2.93776428 3.25351346 2.93776428 1.5 1.1875 C1.005 0.795625 0.51 0.40375 0 0 Z " fill="#D6E25B" transform="translate(86,19)"/>
<path d="M0 0 C6.75 0.75 6.75 0.75 9 3 C9.11930198 6.74309952 9.04253157 10.43152122 8.921875 14.171875 C8.82726148 18.96562659 9.38614652 22.43776036 11 27 C11.265625 30.54296875 11.265625 30.54296875 11.25 34.1875 C11.25515625 35.39792969 11.2603125 36.60835937 11.265625 37.85546875 C11 41 11 41 9 44 C8.91697632 43.11646851 8.91697632 43.11646851 8.83227539 42.21508789 C8.57646027 39.49748485 8.31948622 36.77999254 8.0625 34.0625 C7.97548828 33.13630859 7.88847656 32.21011719 7.79882812 31.25585938 C7.71181641 30.33740234 7.62480469 29.41894531 7.53515625 28.47265625 C7.4489502 27.56016113 7.36274414 26.64766602 7.27392578 25.70751953 C7.0090929 23.0898755 6.69340514 20.48217817 6.37109375 17.87109375 C6.18740234 15.95490234 6.18740234 15.95490234 6 14 C6.33 13.67 6.66 13.34 7 13 C7.07179964 11.48071962 7.08392007 9.95832518 7.0625 8.4375 C7.05347656 7.61121094 7.04445313 6.78492188 7.03515625 5.93359375 C7.02355469 5.29550781 7.01195313 4.65742188 7 4 C4.36 3.34 1.72 2.68 -1 2 C-0.67 1.34 -0.34 0.68 0 0 Z " fill="#D0E268" transform="translate(102,21)"/>
<path d="M0 0 C0.33 0 0.66 0 1 0 C1.13277344 0.60328125 1.26554687 1.2065625 1.40234375 1.828125 C1.66724609 3.02695312 1.66724609 3.02695312 1.9375 4.25 C2.11152344 5.03890625 2.28554687 5.8278125 2.46484375 6.640625 C2.809793 8.16142313 3.18529138 9.67576856 3.59765625 11.1796875 C4 13 4 13 3.5 14.875 C2.8236567 17.74945901 3.50837317 20.11169238 4 23 C3.67 23.99 3.34 24.98 3 26 C2.91733514 27.91906917 2.89259337 29.84089474 2.90234375 31.76171875 C2.90556641 32.87998047 2.90878906 33.99824219 2.91210938 35.15039062 C2.92048828 36.31763672 2.92886719 37.48488281 2.9375 38.6875 C2.94201172 39.86634766 2.94652344 41.04519531 2.95117188 42.25976562 C2.96296727 45.17322789 2.9794273 48.08658863 3 51 C2.34 51 1.68 51 1 51 C0.2180418 44.32550937 -0.13867699 37.77224308 -0.09765625 31.0546875 C-0.0962413 30.15879913 -0.09482635 29.26291077 -0.09336853 28.33987427 C-0.08783441 25.51821347 -0.07529489 22.69663624 -0.0625 19.875 C-0.05747646 17.94531366 -0.05291506 16.01562605 -0.04882812 14.0859375 C-0.03788669 9.3905935 -0.02066878 4.69531085 0 0 Z " fill="#6F9F4B" transform="translate(78,35)"/>
<path d="M0 0 C1.32 0.33 2.64 0.66 4 1 C4 0.67 4 0.34 4 0 C15.52164009 -0.18451025 15.52164009 -0.18451025 21 1 C21 1.33 21 1.66 21 2 C19.95199219 2.09087891 19.95199219 2.09087891 18.8828125 2.18359375 C17.97273438 2.26738281 17.06265625 2.35117188 16.125 2.4375 C15.22007813 2.51871094 14.31515625 2.59992187 13.3828125 2.68359375 C10.98889139 2.86989285 10.98889139 2.86989285 9 4 C9.66 4.66 10.32 5.32 11 6 C9.56342755 6.33730842 8.12569907 6.66969591 6.6875 7 C5.48673828 7.2784375 5.48673828 7.2784375 4.26171875 7.5625 C2 8 2 8 -1 8 C-1.33 6.35 -1.66 4.7 -2 3 C-0.68 3.33 0.64 3.66 2 4 C1.34 2.68 0.68 1.36 0 0 Z " fill="#030202" transform="translate(61,9)"/>
<path d="M0 0 C0.99 0.33 1.98 0.66 3 1 C3.66015625 2.92578125 3.66015625 2.92578125 4.0625 5.3125 C4.62591884 8.55886568 5.40454683 11.10699985 7 14 C4.53199953 12.84826645 2.95216435 11.95216435 1 10 C1.061875 10.763125 1.12375 11.52625 1.1875 12.3125 C1 15 1 15 -0.5 16.8125 C-0.995 17.204375 -1.49 17.59625 -2 18 C-2.99 17.67 -3.98 17.34 -5 17 C-4.34 16.34 -3.68 15.68 -3 15 C-2.53513282 11.87803664 -2.53513282 11.87803664 -2.375 8.375 C-2.30023438 7.18648437 -2.22546875 5.99796875 -2.1484375 4.7734375 C-2.09945312 3.85820313 -2.05046875 2.94296875 -2 2 C-1.34 2 -0.68 2 0 2 C0 1.34 0 0.68 0 0 Z " fill="#020303" transform="translate(145,33)"/>
<path d="M0 0 C0.33 0.66 0.66 1.32 1 2 C4.0833134 2.02911321 7.16659125 2.04683682 10.25 2.0625 C11.12269531 2.07087891 11.99539062 2.07925781 12.89453125 2.08789062 C13.73886719 2.09111328 14.58320313 2.09433594 15.453125 2.09765625 C16.61569824 2.10551147 16.61569824 2.10551147 17.80175781 2.11352539 C20.00484816 2.07753902 20.00484816 2.07753902 22.08105469 1.43530273 C25.03760233 0.76462532 27.24071363 1.93391208 30 3 C29.34 3.66 28.68 4.32 28 5 C27.0925 4.835 26.185 4.67 25.25 4.5 C22.03836923 3.73376085 22.03836923 3.73376085 19.3046875 5.015625 C15.28215916 6.21382493 11.94407595 5.85394448 7.875 5.25 C7.17246094 5.16234375 6.46992188 5.0746875 5.74609375 4.984375 C2.15673912 4.4958428 -0.88920298 3.90193808 -4 2 C-2.68 1.34 -1.36 0.68 0 0 Z " fill="#020302" transform="translate(211,23)"/>
<path d="M0 0 C4.875 1.875 4.875 1.875 6 3 C6.21584932 8.24109127 5.70094464 13.26092914 5 18.4375 C4.90460938 19.16904297 4.80921875 19.90058594 4.7109375 20.65429688 C4.47794062 22.436723 4.23953734 24.21844104 4 26 C2 24 2 24 1.77294922 22.12060547 C1.78342285 21.37697754 1.79389648 20.63334961 1.8046875 19.8671875 C1.81113281 19.06152344 1.81757812 18.25585938 1.82421875 17.42578125 C1.84097656 16.58402344 1.85773438 15.74226563 1.875 14.875 C1.88402344 14.02550781 1.89304687 13.17601562 1.90234375 12.30078125 C1.92594353 10.20040116 1.96181517 8.10016556 2 6 C0.02 5.34 -1.96 4.68 -4 4 C-2.68 2.68 -1.36 1.36 0 0 Z " fill="#97C73D" transform="translate(108,18)"/>
<path d="M0 0 C3.01510598 -0.3259574 4.46077366 -0.43138108 6.875 1.5 C8.49820702 5.1071267 7.8874023 8.26990219 7 12 C6.649375 12.804375 6.29875 13.60875 5.9375 14.4375 C4.75311661 17.6748146 4.91054849 20.42373635 4.99609375 23.83984375 C5.0005943 26.32865009 4.62117122 28.59296152 4 31 C3.67 31 3.34 31 3 31 C2.97296438 28.41659616 2.95314389 25.83347692 2.9375 23.25 C2.92493164 22.15558594 2.92493164 22.15558594 2.91210938 21.0390625 C2.89600953 17.49709664 3.11377135 14.41006288 4 11 C4.53324329 5.84709642 4.53324329 5.84709642 2 1.5625 C1.34 1.046875 0.68 0.53125 0 0 Z " fill="#5EB252" transform="translate(109,17)"/>
<path d="M0 0 C2 1 2 1 2 1 Z M-2 0 C-1.34 0.66 -0.68 1.32 0 2 C-0.99 2.495 -0.99 2.495 -2 3 C-2.46523063 4.89533342 -2.46523063 4.89533342 -2.625 7.0625 C-2.74875 8.361875 -2.8725 9.66125 -3 11 C-7.875 9.125 -7.875 9.125 -9 8 C-9.33 8.66 -9.66 9.32 -10 10 C-10.66 10 -11.32 10 -12 10 C-12 8.35 -12 6.7 -12 5 C-11.236875 4.896875 -10.47375 4.79375 -9.6875 4.6875 C-6.77908957 3.94348803 -5.92670112 3.20194413 -4 1 C-3.34 0.67 -2.68 0.34 -2 0 Z " fill="#131F09" transform="translate(169,50)"/>
<path d="M0 0 C0.33 0.66 0.66 1.32 1 2 C-1.64738916 3.4606285 -2.89448334 4 -6 4 C-6 4.66 -6 5.32 -6 6 C-11.75 4.125 -11.75 4.125 -14 3 C-14 2.34 -14 1.68 -14 1 C-8.89147286 -0.77234615 -5.41336882 -1.29920852 0 0 Z " fill="#0C0C0C" transform="translate(170,27)"/>
<path d="M0 0 C3.96 0 7.92 0 12 0 C11.01 0.33 10.02 0.66 9 1 C9.515625 1.721875 10.03125 2.44375 10.5625 3.1875 C12.84180561 7.60829274 11.79351313 12.20750721 11.2265625 16.9765625 C11.02338869 19.687882 11.14326104 21.45461615 12 24 C10.50390625 22.93359375 10.50390625 22.93359375 9 21 C8.77734375 17.78515625 8.77734375 17.78515625 8.9375 14.0625 C9.35273546 8.17353763 9.35273546 8.17353763 7 3 C3.45411499 1.70079254 3.45411499 1.70079254 0 1 C0 0.67 0 0.34 0 0 Z " fill="#CCDE5C" transform="translate(64,20)"/>
<path d="M0 0 C5.75 1.875 5.75 1.875 8 3 C7.125 7.75 7.125 7.75 6 10 C6.33 10.99 6.66 11.98 7 13 C6.01 13 5.02 13 4 13 C2.75891689 10.02140054 1.71061011 7.14698761 1 4 C0.814375 3.2575 0.62875 2.515 0.4375 1.75 C0.293125 1.1725 0.14875 0.595 0 0 Z " fill="#0B0D0E" transform="translate(81,27)"/>
<path d="M0 0 C0.33 0 0.66 0 1 0 C0.98839844 1.09699219 0.97679688 2.19398437 0.96484375 3.32421875 C0.95546036 4.77864412 0.94636075 6.23307135 0.9375 7.6875 C0.92912109 8.40873047 0.92074219 9.12996094 0.91210938 9.87304688 C0.89446025 13.73820498 1.20201759 17.23066847 2 21 C1.984375 23.3515625 1.984375 23.3515625 1.75 25.625 C1.68296875 26.38039063 1.6159375 27.13578125 1.546875 27.9140625 C0.89928831 30.38414316 -0.07354996 31.37391045 -2 33 C-1.9278125 32.42894531 -1.855625 31.85789062 -1.78125 31.26953125 C-1.21471679 26.32023415 -0.95270826 21.48336746 -1 16.5 C-1.05283984 10.93200176 -0.69796432 5.52139631 0 0 Z " fill="#79A950" transform="translate(94,59)"/>
<path d="M0 0 C7.4659249 -0.36717663 7.4659249 -0.36717663 10 1.375 C11 3 11 3 11 5 C9.68 5 8.36 5 7 5 C6.67 5.66 6.34 6.32 6 7 C4.35 6.01 2.7 5.02 1 4 C0.67 4.66 0.34 5.32 0 6 C0 4.02 0 2.04 0 0 Z " fill="#203111" transform="translate(187,54)"/>
<path d="M0 0 C0.33 0.66 0.66 1.32 1 2 C-2.20015856 3.06671952 -3.88544294 2.94845472 -7.1875 2.5625 C-8.08855469 2.46066406 -8.98960938 2.35882813 -9.91796875 2.25390625 C-10.60503906 2.17011719 -11.29210937 2.08632812 -12 2 C-12.33 2.66 -12.66 3.32 -13 4 C-13 3.34 -13 2.68 -13 2 C-15.31 2.33 -17.62 2.66 -20 3 C-20 2.01 -20 1.02 -20 0 C-13.30217263 -1.15923935 -6.71335837 -1.23525794 0 0 Z " fill="#020505" transform="translate(103,8)"/>
<path d="M0 0 C0.33 0 0.66 0 1 0 C1.95289771 6.66227642 2.30590177 13.2779677 2.5625 20 C2.62727539 21.59134766 2.62727539 21.59134766 2.69335938 23.21484375 C2.79855996 25.80979151 2.90070119 28.40482084 3 31 C2.34 30.67 1.68 30.34 1 30 C0.33203125 27.12890625 0.33203125 27.12890625 -0.1875 23.5625 C-0.36667969 22.38816406 -0.54585938 21.21382812 -0.73046875 20.00390625 C-1 17 -1 17 0 15 C0.0716735 12.44842345 0.09308442 9.92527029 0.0625 7.375 C0.05573242 6.31539062 0.05573242 6.31539062 0.04882812 5.234375 C0.03703875 3.48954725 0.01910324 1.744763 0 0 Z " fill="#D1E562" transform="translate(76,45)"/>
<path d="M0 0 C0.33 0 0.66 0 1 0 C1.20542083 14.76747504 1.20542083 14.76747504 0 22 C-0.66 22.33 -1.32 22.66 -2 23 C-3.125 15.25 -3.125 15.25 -2 13 C-1.68567477 9.88730709 -1.48910126 6.77382422 -1.28125 3.65234375 C-1 1 -1 1 0 0 Z " fill="#122C12" transform="translate(114,62)"/>
<path d="M0 0 C1.46726798 3.81489674 0.43336419 6.29011622 -1 10 C-1.33 9.01 -1.66 8.02 -2 7 C-2.33 7.66 -2.66 8.32 -3 9 C-4.65 9 -6.3 9 -8 9 C-8 8.01 -8 7.02 -8 6 C-6.02 6 -4.04 6 -2 6 C-2 5.34 -2 4.68 -2 4 C-4.31 4 -6.62 4 -9 4 C-6.10130984 1.70103884 -3.84906588 0 0 0 Z " fill="#0B1605" transform="translate(211,50)"/>
<path d="M0 0 C-0.33 0.99 -0.66 1.98 -1 3 C-3.61505139 3.8716838 -5.84622591 4.34293146 -8.5625 4.6875 C-9.34753906 4.79449219 -10.13257812 4.90148437 -10.94140625 5.01171875 C-13 5 -13 5 -15 3 C-9.63687862 -1.25351006 -6.50877322 -0.9603108 0 0 Z " fill="#0D0E0E" transform="translate(101,10)"/>
<path d="M0 0 C0.99 0.33 1.98 0.66 3 1 C3 1.66 3 2.32 3 3 C3.66 3.33 4.32 3.66 5 4 C4.34 6.31 3.68 8.62 3 11 C2.67 10.34 2.34 9.68 2 9 C1.34 8.855625 0.68 8.71125 0 8.5625 C-0.66 8.376875 -1.32 8.19125 -2 8 C-2.33 7.01 -2.66 6.02 -3 5 C-2.34 4.67 -1.68 4.34 -1 4 C-1 3.01 -1 2.02 -1 1 C-0.67 0.67 -0.34 0.34 0 0 Z " fill="#040202" transform="translate(64,35)"/>
<path d="M0 0 C1.98 0 3.96 0 6 0 C5.25 2.4375 5.25 2.4375 4 5 C1.9375 5.6875 1.9375 5.6875 0 6 C-0.33 6.66 -0.66 7.32 -1 8 C-2.32 7.34 -3.64 6.68 -5 6 C-5 5.01 -5 4.02 -5 3 C-3.35 2.67 -1.7 2.34 0 2 C0 1.34 0 0.68 0 0 Z " fill="#040404" transform="translate(54,17)"/>
<path d="M0 0 C2.475 0.99 2.475 0.99 5 2 C4.75 5.375 4.75 5.375 4 9 C2.02 9.99 2.02 9.99 0 11 C0 7.37 0 3.74 0 0 Z " fill="#040304" transform="translate(155,34)"/>
<path d="M0 0 C2.875 -0.1875 2.875 -0.1875 6 0 C8 3 8 3 7.7578125 5.26171875 C7.54898438 6.06222656 7.34015625 6.86273438 7.125 7.6875 C6.92132813 8.49574219 6.71765625 9.30398437 6.5078125 10.13671875 C6.34023437 10.75160156 6.17265625 11.36648437 6 12 C3.16920471 8.8153553 3 7.14920571 3 3 C1.60414215 1.18523997 1.60414215 1.18523997 0 0 Z " fill="#C3D64B" transform="translate(86,19)"/>
<path d="M0 0 C0 0.66 0 1.32 0 2 C-0.99 2 -1.98 2 -3 2 C-3 3.65 -3 5.3 -3 7 C-3.99 7.495 -3.99 7.495 -5 8 C-5 6.02 -5 4.04 -5 2 C-8.96 2 -12.92 2 -17 2 C-17 1.67 -17 1.34 -17 1 C-11.2364368 -1.64812363 -6.09067424 -0.8019749 0 0 Z " fill="#73B355" transform="translate(85,18)"/>
<path d="M0 0 C2.25 1.3125 2.25 1.3125 3.25 4.3125 C3.91 4.6425 4.57 4.9725 5.25 5.3125 C4.26 5.9725 3.27 6.6325 2.25 7.3125 C1.92 5.9925 1.59 4.6725 1.25 3.3125 C-3.04 3.3125 -7.33 3.3125 -11.75 3.3125 C-10.43 2.6525 -9.11 1.9925 -7.75 1.3125 C-6.5434375 0.69375 -6.5434375 0.69375 -5.3125 0.0625 C-2.75 -0.6875 -2.75 -0.6875 0 0 Z " fill="#4A9F51" transform="translate(96.75,14.6875)"/>
<path d="M0 0 C2.31 0 4.62 0 7 0 C7 0.66 7 1.32 7 2 C6.34 2.66 5.68 3.32 5 4 C5.66 4.33 6.32 4.66 7 5 C7 5.66 7 6.32 7 7 C4.69 7 2.38 7 0 7 C0 4.69 0 2.38 0 0 Z " fill="#6F834F" transform="translate(143,54)"/>
<path d="M0 0 C5.28 0.66 10.56 1.32 16 2 C16 2.66 16 3.32 16 4 C10.555 4.495 10.555 4.495 5 5 C5 4.34 5 3.68 5 3 C2.525 2.01 2.525 2.01 0 1 C0 0.67 0 0.34 0 0 Z " fill="#020202" transform="translate(248,35)"/>
<path d="M0 0 C2.475 0.495 2.475 0.495 5 1 C5.02712066 2.43739513 5.04645067 3.87493863 5.0625 5.3125 C5.07410156 6.11300781 5.08570312 6.91351563 5.09765625 7.73828125 C5 10 5 10 4 13 C3.96125079 14.66621616 3.9549714 16.33394172 4 18 C2.00008477 14.50014835 1.93328026 11.96452554 2.0703125 7.9296875 C2.1229057 5.95368583 2.06373141 3.97567379 2 2 C1.34 1.34 0.68 0.68 0 0 Z " fill="#262408" transform="translate(105,24)"/>
<path d="M0 0 C1.32 0.33 2.64 0.66 4 1 C3.01 1.33 2.02 1.66 1 2 C1.66 2.66 2.32 3.32 3 4 C2.34 4 1.68 4 1 4 C0.7834375 4.9590625 0.7834375 4.9590625 0.5625 5.9375 C0 8 0 8 -1 9 C-1.36760731 11.32817964 -1.70241581 13.6618385 -2 16 C-2.33 16 -2.66 16 -3 16 C-3.08133791 14.08404032 -3.13934367 12.16708068 -3.1875 10.25 C-3.22230469 9.18265625 -3.25710937 8.1153125 -3.29296875 7.015625 C-2.97082786 3.69972145 -2.22851086 2.40983327 0 0 Z " fill="#0D220A" transform="translate(101,20)"/>
<path d="M0 0 C3 3 3 3 3.36328125 6.25 C3.34652344 7.4875 3.32976562 8.725 3.3125 10 C3.30863281 11.2375 3.30476563 12.475 3.30078125 13.75 C3 17 3 17 1 20 C0.67 13.4 0.34 6.8 0 0 Z " fill="#B1D062" transform="translate(110,45)"/>
<path d="M0 0 C2.8045719 2.8045719 2.4375664 4.89960511 2.6875 8.8125 C2.77386719 10.03582031 2.86023438 11.25914063 2.94921875 12.51953125 C2.99369103 15.56759283 2.74457731 18.06087905 2 21 C1.67 19.68 1.34 18.36 1 17 C0.34 17 -0.32 17 -1 17 C-0.505 15.515 -0.505 15.515 0 14 C0.06970052 11.60509014 0.08448003 9.20832309 0.0625 6.8125 C0.05347656 5.54019531 0.04445313 4.26789062 0.03515625 2.95703125 C0.02355469 1.98121094 0.01195313 1.00539062 0 0 Z " fill="#373810" transform="translate(90,37)"/>
<path d="M0 0 C1.875 0.25 1.875 0.25 4 1 C5.25 3.0625 5.25 3.0625 6 5 C7.32 5 8.64 5 10 5 C9.34 6.65 8.68 8.3 8 10 C4.71211176 6.88983545 2.16264012 3.98381075 0 0 Z " fill="#020204" transform="translate(127,31)"/>
<path d="M0 0 C4.97093824 0.41153737 9.44508386 0.79600832 14 3 C14 3.33 14 3.66 14 4 C8.72 3.67 3.44 3.34 -2 3 C-1.34 2.01 -0.68 1.02 0 0 Z " fill="#010101" transform="translate(198,64)"/>
<path d="M0 0 C0.598125 0.33 1.19625 0.66 1.8125 1 C4.05386471 2.20787988 4.05386471 2.20787988 7 2 C6.34 3.65 5.68 5.3 5 7 C4.34 7 3.68 7 3 7 C2.34 8.32 1.68 9.64 1 11 C0.67 9.35 0.34 7.7 0 6 C0.66 6 1.32 6 2 6 C1.34 4.02 0.68 2.04 0 0 Z " fill="#54633A" transform="translate(216,54)"/>
<path d="M0 0 C0.33 0 0.66 0 1 0 C1.33 1.98 1.66 3.96 2 6 C-2.12168689 7.62950412 -4.70700357 8.26264601 -9 7 C-8.34 6.67 -7.68 6.34 -7 6 C-6.34786708 3.97536745 -6.34786708 3.97536745 -6 2 C-4.02 3.32 -2.04 4.64 0 6 C0 4.02 0 2.04 0 0 Z " fill="#040D02" transform="translate(166,55)"/>
<path d="M0 0 C1.65 0 3.3 0 5 0 C5 2.97 5 5.94 5 9 C1.7457985 6.16569547 0.4793247 4.31392226 0 0 Z " fill="#040404" transform="translate(149,35)"/>
<path d="M0 0 C0.66 0.33 1.32 0.66 2 1 C2.05429959 2.74965358 2.09292823 4.49979787 2.125 6.25 C2.14820312 7.22453125 2.17140625 8.1990625 2.1953125 9.203125 C1.99862781 12.0196498 1.44568916 13.60949036 0 16 C-0.71033431 10.47032059 -1.30267176 5.50016964 0 0 Z " fill="#B6D062" transform="translate(110,65)"/>
<path d="M0 0 C0.33 0 0.66 0 1 0 C1.24959784 2.0809844 1.47394907 4.16500812 1.6875 6.25 C1.81511719 7.41015625 1.94273438 8.5703125 2.07421875 9.765625 C1.99254989 13.32466794 1.42472438 14.48177725 -1 17 C-1.33 16.01 -1.66 15.02 -2 14 C-1.67 13.67 -1.34 13.34 -1 13 C-0.80850919 9.36805359 -0.80850919 9.36805359 -2 6 C-1.34 6 -0.68 6 0 6 C0 4.02 0 2.04 0 0 Z " fill="#37390B" transform="translate(75,47)"/>
<path d="M0 0 C0.268125 0.639375 0.53625 1.27875 0.8125 1.9375 C1.88667752 4.33131686 1.88667752 4.33131686 5 5 C4.67 3.35 4.34 1.7 4 0 C6 2 6 2 6.125 4.625 C6.08375 5.40875 6.0425 6.1925 6 7 C5.34 7 4.68 7 4 7 C3.67 7.99 3.34 8.98 3 10 C-0.00617269 6.99382731 0.40414684 4.17618402 0 0 Z " fill="#060B08" transform="translate(80,63)"/>
<path d="M0 0 C2.31 0 4.62 0 7 0 C7 0.66 7 1.32 7 2 C6.01 2.66 5.02 3.32 4 4 C4.66 4.66 5.32 5.32 6 6 C4.02 6 2.04 6 0 6 C0 4.02 0 2.04 0 0 Z " fill="#789053" transform="translate(173,54)"/>
<path d="M0 0 C0.33 0 0.66 0 1 0 C1.13277344 0.60328125 1.26554687 1.2065625 1.40234375 1.828125 C1.66724609 3.02695312 1.66724609 3.02695312 1.9375 4.25 C2.11152344 5.03890625 2.28554687 5.8278125 2.46484375 6.640625 C2.9468783 8.98439853 2.9468783 8.98439853 3.75390625 11.109375 C3.83511719 11.73328125 3.91632813 12.3571875 4 13 C3.01 13.99 2.02 14.98 1 16 C0.67 10.72 0.34 5.44 0 0 Z " fill="#6CBA53" transform="translate(78,35)"/>
<path d="M0 0 C2.3125 -0.25 2.3125 -0.25 5 0 C7.40311451 2.23738248 7.96341425 3.46340904 8.1875 6.75 C8.125625 7.4925 8.06375 8.235 8 9 C5.24200902 7.62100451 4.56147404 5.62327638 3 3 C1.41754725 1.24850835 1.41754725 1.24850835 0 0 Z " fill="#3F9E51" transform="translate(109,17)"/>
<path d="M0 0 C2.96175123 0.61277612 4.38058783 1.25372522 7 3 C7.33 2.01 7.66 1.02 8 0 C8 1.65 8 3.3 8 5 C5.525 4.01 5.525 4.01 3 3 C2.67 3.66 2.34 4.32 2 5 C1.34 5 0.68 5 0 5 C0 3.35 0 1.7 0 0 Z " fill="#97B06C" transform="translate(157,55)"/>
<path d="M0 0 C2 1 2 1 2.8515625 3.50390625 C3.10679688 4.51324219 3.36203125 5.52257813 3.625 6.5625 C3.88539062 7.57441406 4.14578125 8.58632813 4.4140625 9.62890625 C4.60742188 10.41136719 4.80078125 11.19382812 5 12 C4.01 11.67 3.02 11.34 2 11 C1.05078125 8.71484375 1.05078125 8.71484375 0.3125 5.9375 C0.06113281 5.01839844 -0.19023438 4.09929688 -0.44921875 3.15234375 C-0.63097656 2.44207031 -0.81273438 1.73179688 -1 1 C-0.67 0.67 -0.34 0.34 0 0 Z " fill="#030104" transform="translate(65,48)"/>
<path d="M0 0 C0.33 0.99 0.66 1.98 1 3 C-4.75 3.125 -4.75 3.125 -7 2 C-7 1.34 -7 0.68 -7 0 C-3.89953913 -1.03348696 -2.94389782 -1.17755913 0 0 Z " fill="#141414" transform="translate(163,28)"/>
<path d="M0 0 C0.66 0.33 1.32 0.66 2 1 C2 1.66 2 2.32 2 3 C3.32 3.66 4.64 4.32 6 5 C4.35 5 2.7 5 1 5 C1 7.31 1 9.62 1 12 C0.67 12 0.34 12 0 12 C-1.28571429 3.42857143 -1.28571429 3.42857143 0 0 Z " fill="#0E1606" transform="translate(172,48)"/>
<path d="M0 0 C0.78375 0.185625 1.5675 0.37125 2.375 0.5625 C4.97089775 1.25962266 4.97089775 1.25962266 7 0 C7 1.98 7 3.96 7 6 C5.02 5.01 3.04 4.02 1 3 C0.67 3.66 0.34 4.32 0 5 C0 3.35 0 1.7 0 0 Z " fill="#93AE69" transform="translate(187,55)"/>
<path d="M0 0 C1.65 0 3.3 0 5 0 C5 1.65 5 3.3 5 5 C2.69 5 0.38 5 -2 5 C-1.34 3.35 -0.68 1.7 0 0 Z " fill="#243419" transform="translate(175,56)"/>
<path d="M0 0 C2.25 0.125 2.25 0.125 5 1 C7.3125 4.0625 7.3125 4.0625 9 7 C7.125 6.75 7.125 6.75 5 6 C4.30062468 4.68352881 3.63270867 3.34977849 3 2 C2.01 1.67 1.02 1.34 0 1 C0 0.67 0 0.34 0 0 Z " fill="#010201" transform="translate(235,38)"/>
<path d="M0 0 C3.96 0 7.92 0 12 0 C11.01 0.33 10.02 0.66 9 1 C9 2.65 9 4.3 9 6 C8.34 5.01 7.68 4.02 7 3 C3.44327821 1.7811879 3.44327821 1.7811879 0 1 C0 0.67 0 0.34 0 0 Z " fill="#BBCF56" transform="translate(64,20)"/>
<path d="M0 0 C0.33 0 0.66 0 1 0 C1.66 3.63 2.32 7.26 3 11 C1.68 10.01 0.36 9.02 -1 8 C-1.3125 4.375 -1.3125 4.375 -1 1 C-0.67 0.67 -0.34 0.34 0 0 Z " fill="#181D04" transform="translate(72,34)"/>
<path d="M0 0 C0.99 0.33 1.98 0.66 3 1 C3.33 2.98 3.66 4.96 4 7 C3.01 7.66 2.02 8.32 1 9 C0.67 6.03 0.34 3.06 0 0 Z " fill="#66B94B" transform="translate(95,17)"/>
<path d="M0 0 C0 1.65 0 3.3 0 5 C-1.65 5.33 -3.3 5.66 -5 6 C-5 5.01 -5 4.02 -5 3 C-1.55555556 0 -1.55555556 0 0 0 Z " fill="#050C05" transform="translate(157,55)"/>
<path d="M0 0 C1.37478516 0.01740234 1.37478516 0.01740234 2.77734375 0.03515625 C3.69644531 0.04417969 4.61554688 0.05320313 5.5625 0.0625 C6.27277344 0.07410156 6.98304688 0.08570313 7.71484375 0.09765625 C7.71484375 0.42765625 7.71484375 0.75765625 7.71484375 1.09765625 C5.07484375 1.09765625 2.43484375 1.09765625 -0.28515625 1.09765625 C-0.61515625 2.41765625 -0.94515625 3.73765625 -1.28515625 5.09765625 C-1.94515625 3.77765625 -2.60515625 2.45765625 -3.28515625 1.09765625 C-2.28515625 0.09765625 -2.28515625 0.09765625 0 0 Z " fill="#1E280F" transform="translate(201.28515625,53.90234375)"/>
<path d="M0 0 C1.32 0.66 2.64 1.32 4 2 C3.67 2.66 3.34 3.32 3 4 C0.69 4 -1.62 4 -4 4 C-2.68 2.68 -1.36 1.36 0 0 Z " fill="#8FC64A" transform="translate(108,18)"/>
<path d="M0 0 C1.32 0.66 2.64 1.32 4 2 C3.34 3.65 2.68 5.3 2 7 C0.4375 5.1875 0.4375 5.1875 -1 3 C-0.67 2.01 -0.34 1.02 0 0 Z " fill="#0B0F0D" transform="translate(91,92)"/>
<path d="M0 0 C0.66 0 1.32 0 2 0 C2.33 2.31 2.66 4.62 3 7 C2.01 7 1.02 7 0 7 C0 4.69 0 2.38 0 0 Z " fill="#64A749" transform="translate(78,26)"/>
<path d="M0 0 C0.99 0 1.98 0 3 0 C3.33 1.65 3.66 3.3 4 5 C2.68 4.67 1.36 4.34 0 4 C0 2.68 0 1.36 0 0 Z " fill="#0D0D0D" transform="translate(171,30)"/>
<path d="M0 0 C0.99 0 1.98 0 3 0 C3.33 2.64 3.66 5.28 4 8 C1.10067643 5.60490662 0.49831724 3.68754757 0 0 Z " fill="#AECE2D" transform="translate(73,21)"/>
<path d="" fill="#000000" transform="translate(0,0)"/>
<path d="" fill="#000000" transform="translate(0,0)"/>
</svg>
