<?xml version="1.0" encoding="UTF-8"?>
<svg version="1.1" xmlns="http://www.w3.org/2000/svg" width="297" height="110">
<path d="M0 0 C11.88 0 23.76 0 36 0 C36 10.56 36 21.12 36 32 C31.05 32 26.1 32 21 32 C21 25.73 21 19.46 21 13 C18.36 13 15.72 13 13 13 C13 19.27 13 25.54 13 32 C8.05 32 3.1 32 -2 32 C-2.05385301 27.41651041 -2.09360513 22.83365106 -2.125 18.25 C-2.14175781 16.94804688 -2.15851562 15.64609375 -2.17578125 14.3046875 C-2.18222656 13.05429687 -2.18867187 11.80390625 -2.1953125 10.515625 C-2.20578613 9.36352539 -2.21625977 8.21142578 -2.22705078 7.02441406 C-2 4 -2 4 0 0 Z " fill="#000000" transform="translate(45,35)"/>
<path d="M0 0 C8 0 8 0 10.00976562 1.46875 C10.70102539 2.47421875 10.70102539 2.47421875 11.40625 3.5 C11.921875 4.221875 12.4375 4.94375 12.96875 5.6875 C13.4740625 6.450625 13.979375 7.21375 14.5 8 C15.03625 8.763125 15.5725 9.52625 16.125 10.3125 C17.44054147 12.19184495 18.72357475 14.09387162 20 16 C20.33 10.72 20.66 5.44 21 0 C23.64 0 26.28 0 29 0 C29.02465504 4.39656173 29.04283842 8.7930872 29.05493164 13.18969727 C29.05997121 14.68644918 29.06680287 16.18319616 29.07543945 17.67993164 C29.08752159 19.82699807 29.09323191 21.97399962 29.09765625 24.12109375 C29.10551147 26.06133423 29.10551147 26.06133423 29.11352539 28.04077148 C29 31 29 31 28 32 C25.3671875 32.59375 25.3671875 32.59375 22 32 C19.29391436 29.47164129 17.2484535 26.52183768 15.125 23.5 C14.53203125 22.68917969 13.9390625 21.87835938 13.328125 21.04296875 C11.86802392 19.04121727 10.43167118 17.02218243 9 15 C8.67 20.61 8.34 26.22 8 32 C5.36 32 2.72 32 0 32 C0 21.44 0 10.88 0 0 Z " fill="#010101" transform="translate(94,35)"/>
<path d="M0 0 C3.61032034 3.52006234 4.30353742 6.61955135 4.5625 11.5 C4.40806396 15.04237678 4.10762804 17.68512844 2.0625 20.625 C-1.81913514 23.63524766 -5.11507624 24.41945678 -10 24 C-12.27734375 23 -12.27734375 23 -14 22 C-14 24.64 -14 27.28 -14 30 C-16.64 30 -19.28 30 -22 30 C-22 19.77 -22 9.54 -22 -1 C-18.66666667 -1 -15.33333333 -1 -12 -1 C-11.071875 -1.26490234 -11.071875 -1.26490234 -10.125 -1.53515625 C-6.47739062 -2.3330708 -3.37870488 -1.48164517 0 0 Z M-12.75 6.6875 C-14.23362682 9.43220962 -14.47320719 10.92415328 -14 14 C-12.91666667 15.91666667 -12.91666667 15.91666667 -11 17 C-8.5 17.58333333 -8.5 17.58333333 -6 17 C-3.97103788 15.46186579 -3.97103788 15.46186579 -3 13 C-2.99325074 9.87319901 -2.99325074 9.87319901 -4 7 C-7.33877907 4.77414729 -9.5891792 3.63956566 -12.75 6.6875 Z " fill="#010101" transform="translate(222,43)"/>
<path d="M0 0 C3.29361654 2.68689771 4.73882919 4.75221843 5.23828125 9.05078125 C5.41884627 14.55326265 4.77654483 17.69893505 1 22 C-2.20702027 24.35181487 -5.09823827 24.32514681 -9 24 C-11.375 23 -11.375 23 -13 22 C-13 24.64 -13 27.28 -13 30 C-15.64 30 -18.28 30 -21 30 C-21 19.77 -21 9.54 -21 -1 C-17.66666667 -1 -14.33333333 -1 -11 -1 C-10.443125 -1.20625 -9.88625 -1.4125 -9.3125 -1.625 C-5.79372009 -2.19561296 -3.30335173 -1.2387569 0 0 Z M-11.75 6.125 C-13.55775998 8.83663997 -13.33220081 10.81087222 -13 14 C-12.01 15.485 -12.01 15.485 -11 17 C-8 17.41666667 -8 17.41666667 -5 17 C-2.63589512 15.06268472 -2.63589512 15.06268472 -2.6875 11.5625 C-2.71045674 8.11802311 -2.71045674 8.11802311 -4.25 6.0625 C-6.9169832 4.4432602 -9.12372625 4.43668116 -11.75 6.125 Z " fill="#010101" transform="translate(249,43)"/>
<path d="M0 0 C2.64 0 5.28 0 8 0 C9.62621181 3.72863937 11.25075598 7.45800306 12.875 11.1875 C13.33519531 12.24259766 13.79539063 13.29769531 14.26953125 14.38476562 C14.71425781 15.40634766 15.15898437 16.42792969 15.6171875 17.48046875 C16.02565918 18.41785889 16.43413086 19.35524902 16.85498047 20.32104492 C17.42176514 21.64712769 17.42176514 21.64712769 18 23 C18.37914551 23.85634033 18.75829102 24.71268066 19.14892578 25.5949707 C20 28 20 28 20 32 C17.69 32 15.38 32 13 32 C12.01 30.02 11.02 28.04 10 26 C6.04 26 2.08 26 -2 26 C-2.99 27.98 -3.98 29.96 -5 32 C-7.31 32 -9.62 32 -12 32 C-11.41364787 27.54839132 -10.2699732 23.84522514 -8.49609375 19.7265625 C-8.00302734 18.57285156 -7.50996094 17.41914062 -7.00195312 16.23046875 C-6.48568359 15.04066406 -5.96941406 13.85085937 -5.4375 12.625 C-4.91736328 11.41199219 -4.39722656 10.19898438 -3.86132812 8.94921875 C-2.58008244 5.96356367 -1.29280626 2.98066312 0 0 Z M4 10 C1.7986134 13.80427492 1.7986134 13.80427492 1 18 C2.98 18 4.96 18 7 18 C6.45276317 14.62537285 5.9451 12.91765 4 10 Z " fill="#010101" transform="translate(179,35)"/>
<path d="M0 0 C3.11905047 2.57660691 4.7181368 4.1544104 6 8 C6 10.31 6 12.62 6 15 C1.05 15.33 -3.9 15.66 -9 16 C-9 16.66 -9 17.32 -9 18 C-5.05272412 18.17942163 -2.4019487 18.09350689 1 16 C2.32 16.99 3.64 17.98 5 19 C4.08486681 21.28783297 3.34515354 22.73449728 1.375 24.25 C-3.30930843 25.72925529 -7.41832304 25.73811591 -11.8125 23.6875 C-15.01258327 21.21886433 -16.70223538 19.89329386 -18 16 C-18.38104982 11.35119216 -18.43672542 8.92585789 -16.4375 4.6875 C-11.71339297 -0.52113083 -6.74342891 -1.99805301 0 0 Z M-8 6 C-8.66 7.32 -9.32 8.64 -10 10 C-7.03 10 -4.06 10 -1 10 C-1.66 8.68 -2.32 7.36 -3 6 C-4.65 6 -6.3 6 -8 6 Z " fill="#010101" transform="translate(143,42)"/>
<path d="M0 0 C2.31 0 4.62 0 7 0 C7 1.98 7 3.96 7 6 C8.98 6 10.96 6 13 6 C13 8.31 13 10.62 13 13 C11.02 13 9.04 13 7 13 C7.33 16.3 7.66 19.6 8 23 C9.65 23 11.3 23 13 23 C13 25.31 13 27.62 13 30 C11.58696762 30.2506019 10.16920526 30.47461921 8.75 30.6875 C7.96109375 30.81511719 7.1721875 30.94273438 6.359375 31.07421875 C4 31 4 31 1.71875 30 C-0.84361075 27.01834386 -0.43099133 24.04022527 -0.25 20.3125 C-0.23195312 19.61060547 -0.21390625 18.90871094 -0.1953125 18.18554688 C-0.14826213 16.45644564 -0.07651873 14.72804795 0 13 C-0.99 13 -1.98 13 -3 13 C-3 10.69 -3 8.38 -3 6 C-2.01 6 -1.02 6 0 6 C0 4.02 0 2.04 0 0 Z " fill="#010101" transform="translate(153,36)"/>
</svg>
