<?xml version="1.0" encoding="UTF-8"?>
<svg version="1.1" xmlns="http://www.w3.org/2000/svg" width="297" height="110">
<path d="M0 0 C9.9859341 6.30868134 15.62337047 13.68915434 18.78125 24.96484375 C19.7901806 29.70533385 20.11262619 34.88215497 18.3125 39.4609375 C16.31640625 40.8125 16.31640625 40.8125 13.875 42.0859375 C11.02493602 43.85650023 9.584015 44.79324302 8.30859375 47.9296875 C7.8388175 50.4450249 7.54781817 52.91445872 7.3125 55.4609375 C6.99283995 56.79761485 6.66156026 58.13163474 6.3125 59.4609375 C5.75788086 59.48599365 5.20326172 59.5110498 4.63183594 59.53686523 C2.10851157 59.65321677 -0.41447536 59.77576504 -2.9375 59.8984375 C-3.81019531 59.93775391 -4.68289062 59.97707031 -5.58203125 60.01757812 C-6.42636719 60.05947266 -7.27070313 60.10136719 -8.140625 60.14453125 C-8.91567383 60.18118896 -9.69072266 60.21784668 -10.48925781 60.25561523 C-12.70332732 60.39979073 -12.70332732 60.39979073 -14.84667969 61.04321289 C-16.6875 61.4609375 -16.6875 61.4609375 -18.6875 60.4609375 C-20.0609635 60.31088777 -21.4403526 60.21255744 -22.8203125 60.14453125 C-23.62597656 60.10263672 -24.43164062 60.06074219 -25.26171875 60.01757812 C-26.52435547 59.95860352 -26.52435547 59.95860352 -27.8125 59.8984375 C-29.08673828 59.83366211 -29.08673828 59.83366211 -30.38671875 59.76757812 C-32.48678223 59.66139514 -34.58711948 59.56065253 -36.6875 59.4609375 C-37.88387806 56.12416433 -38.6875 53.65916236 -38.6875 50.0859375 C-39.89192587 45.71989372 -41.10584276 45.12319155 -44.6875 42.5234375 C-50.37052714 38.29364158 -50.37052714 38.29364158 -50.9375 34.5859375 C-50.9296875 32.5859375 -50.9296875 32.5859375 -50.6875 30.4609375 C-50.60757813 29.6771875 -50.52765625 28.8934375 -50.4453125 28.0859375 C-48.95555044 18.35687912 -44.63746306 9.45774265 -36.6875 3.4609375 C-25.67651112 -2.99146847 -12.01455679 -5.72315036 0 0 Z " fill="#FDBF0B" transform="translate(163.6875,25.5390625)"/>
<path d="M0 0 C9.9859341 6.30868134 15.62337047 13.68915434 18.78125 24.96484375 C19.7901806 29.70533385 20.11262619 34.88215497 18.3125 39.4609375 C16.31640625 40.8125 16.31640625 40.8125 13.875 42.0859375 C11.02493602 43.85650023 9.584015 44.79324302 8.30859375 47.9296875 C7.8388175 50.4450249 7.54781817 52.91445872 7.3125 55.4609375 C6.99283995 56.79761485 6.66156026 58.13163474 6.3125 59.4609375 C5.75788086 59.48599365 5.20326172 59.5110498 4.63183594 59.53686523 C2.10851157 59.65321677 -0.41447536 59.77576504 -2.9375 59.8984375 C-3.81019531 59.93775391 -4.68289062 59.97707031 -5.58203125 60.01757812 C-6.42636719 60.05947266 -7.27070313 60.10136719 -8.140625 60.14453125 C-8.91567383 60.18118896 -9.69072266 60.21784668 -10.48925781 60.25561523 C-12.70332732 60.39979073 -12.70332732 60.39979073 -14.84667969 61.04321289 C-16.6875 61.4609375 -16.6875 61.4609375 -18.6875 60.4609375 C-20.0609635 60.31088777 -21.4403526 60.21255744 -22.8203125 60.14453125 C-23.62597656 60.10263672 -24.43164062 60.06074219 -25.26171875 60.01757812 C-26.52435547 59.95860352 -26.52435547 59.95860352 -27.8125 59.8984375 C-29.08673828 59.83366211 -29.08673828 59.83366211 -30.38671875 59.76757812 C-32.48678223 59.66139514 -34.58711948 59.56065253 -36.6875 59.4609375 C-37.88387806 56.12416433 -38.6875 53.65916236 -38.6875 50.0859375 C-39.89192587 45.71989372 -41.10584276 45.12319155 -44.6875 42.5234375 C-50.37052714 38.29364158 -50.37052714 38.29364158 -50.9375 34.5859375 C-50.9296875 32.5859375 -50.9296875 32.5859375 -50.6875 30.4609375 C-50.60757813 29.6771875 -50.52765625 28.8934375 -50.4453125 28.0859375 C-48.95555044 18.35687912 -44.63746306 9.45774265 -36.6875 3.4609375 C-25.67651112 -2.99146847 -12.01455679 -5.72315036 0 0 Z M-24.6875 5.4609375 C-24.77788099 10.61265373 -24.53431133 15.38006954 -23.6875 20.4609375 C-25.0075 16.1709375 -26.3275 11.8809375 -27.6875 7.4609375 C-32.79597485 9.46135951 -32.79597485 9.46135951 -35.6875 13.4609375 C-35.048125 14.5334375 -34.40875 15.6059375 -33.75 16.7109375 C-32.28148727 19.26915932 -31.15895458 21.51434636 -30.6875 24.4609375 C-30.0275 24.4609375 -29.3675 24.4609375 -28.6875 24.4609375 C-28.543125 25.2240625 -28.39875 25.9871875 -28.25 26.7734375 C-27.7242406 29.54266658 -27.7242406 29.54266658 -26.6875 32.4609375 C-27.81405813 30.54518624 -28.93868687 28.62830031 -30.0625 26.7109375 C-30.68898437 25.64359375 -31.31546875 24.57625 -31.9609375 23.4765625 C-33.28522663 21.16355072 -34.53386846 18.86142333 -35.6875 16.4609375 C-37.0075 16.7909375 -38.3275 17.1209375 -39.6875 17.4609375 C-40.86456463 21.84535295 -40.86456463 21.84535295 -39.28125 25.953125 C-38.24484375 27.13261719 -38.24484375 27.13261719 -37.1875 28.3359375 C-36.08921875 29.61210938 -36.08921875 29.61210938 -34.96875 30.9140625 C-33.83953125 32.17476562 -33.83953125 32.17476562 -32.6875 33.4609375 C-31.9965625 34.26015625 -31.305625 35.059375 -30.59375 35.8828125 C-28.97301496 37.7559571 -27.3381985 39.61421856 -25.6875 41.4609375 C-29.72540387 38.52428014 -32.82976695 35.14618393 -36.0390625 31.36328125 C-37.53376602 29.63835089 -38.97938926 27.97558819 -40.6875 26.4609375 C-41.3475 26.4609375 -42.0075 26.4609375 -42.6875 26.4609375 C-43.18854885 29.59249282 -43.36579531 32.34786574 -42.6875 35.4609375 C-40.37576909 38.07351011 -37.78650892 39.87409558 -34.6875 41.4609375 C-34.0275 41.4609375 -33.3675 41.4609375 -32.6875 41.4609375 C-32.72005208 43.44661458 -32.75260417 45.43229167 -32.78515625 47.41796875 C-32.77013217 49.66399211 -32.77013217 49.66399211 -31.6875 52.4609375 C-30.80707031 52.52152344 -29.92664063 52.58210938 -29.01953125 52.64453125 C-27.85808594 52.72832031 -26.69664062 52.81210938 -25.5 52.8984375 C-24.35144531 52.97964844 -23.20289063 53.06085938 -22.01953125 53.14453125 C-18.6875 53.4609375 -18.6875 53.4609375 -15.82421875 54.05859375 C-15.11910156 54.19136719 -14.41398437 54.32414062 -13.6875 54.4609375 C-13.3575 54.1309375 -13.0275 53.8009375 -12.6875 53.4609375 C-10.50457226 53.22612057 -8.31546826 53.04730427 -6.125 52.8984375 C-4.92746094 52.81464844 -3.72992188 52.73085937 -2.49609375 52.64453125 C-1.56925781 52.58394531 -0.64242187 52.52335937 0.3125 52.4609375 C0.35246094 51.82027344 0.39242187 51.17960937 0.43359375 50.51953125 C0.94384518 46.29263359 1.39670078 43.41418576 4.4140625 40.2734375 C6.65959748 38.56255371 8.9355034 36.98202926 11.3125 35.4609375 C12.51811184 34.47825891 12.51811184 34.47825891 12.41015625 32.61328125 C12.39855469 31.88238281 12.38695312 31.15148437 12.375 30.3984375 C12.354375 29.0990625 12.33375 27.7996875 12.3125 26.4609375 C11.3225 26.4609375 10.3325 26.4609375 9.3125 26.4609375 C9.3125 27.1209375 9.3125 27.7809375 9.3125 28.4609375 C8.3225 28.7909375 7.3325 29.1209375 6.3125 29.4609375 C4.5655631 31.22219139 4.5655631 31.22219139 2.875 33.3359375 C0.55454701 36.14955164 -1.69339673 38.36835544 -4.6875 40.4609375 C-4.06875 39.87699219 -4.06875 39.87699219 -3.4375 39.28125 C0.16524082 35.79109483 3.56278444 32.15778609 6.8125 28.3359375 C7.5034375 27.52898438 8.194375 26.72203125 8.90625 25.890625 C10.55927584 23.5497918 10.55927584 23.5497918 10.15625 20.84375 C9.34561125 18.24501791 9.34561125 18.24501791 7.3125 15.4609375 C6.6525 15.4609375 5.9925 15.4609375 5.3125 15.4609375 C3.32586816 19.04018065 1.34950964 22.62499491 -0.625 26.2109375 C-1.18896484 27.22671875 -1.75292969 28.2425 -2.33398438 29.2890625 C-2.87216797 30.26875 -3.41035156 31.2484375 -3.96484375 32.2578125 C-4.46234131 33.15854492 -4.95983887 34.05927734 -5.47241211 34.98730469 C-6.54766598 37.17626837 -7.21853021 39.07964012 -7.6875 41.4609375 C-8.3475 41.4609375 -9.0075 41.4609375 -9.6875 41.4609375 C-9.26339844 40.65873779 -8.83929688 39.85653809 -8.40234375 39.0300293 C-6.83197985 36.05259345 -5.26717489 33.07237365 -3.70605469 30.09008789 C-3.02922678 28.79986441 -2.35020276 27.5107905 -1.66894531 26.22290039 C-0.6901633 24.37163266 0.28064963 22.51637613 1.25 20.66015625 C1.83652344 19.54471436 2.42304688 18.42927246 3.02734375 17.2800293 C4.51990303 14.52235091 4.51990303 14.52235091 4.3125 11.4609375 C1.42415997 9.35322991 -0.07212395 8.4609375 -3.6875 8.4609375 C-5.3375 13.7409375 -6.9875 19.0209375 -8.6875 24.4609375 C-8.0275 21.8209375 -7.3675 19.1809375 -6.6875 16.4609375 C-6.45020788 13.33749894 -6.45020788 13.33749894 -6.5625 10.4609375 C-6.58054688 9.5121875 -6.59859375 8.5634375 -6.6171875 7.5859375 C-6.64039063 6.8846875 -6.66359375 6.1834375 -6.6875 5.4609375 C-9.3275 5.1309375 -11.9675 4.8009375 -14.6875 4.4609375 C-14.6875 15.6809375 -14.6875 26.9009375 -14.6875 38.4609375 C-15.3475 38.4609375 -16.0075 38.4609375 -16.6875 38.4609375 C-16.6875 27.2409375 -16.6875 16.0209375 -16.6875 4.4609375 C-21.42397686 4.19741436 -21.42397686 4.19741436 -24.6875 5.4609375 Z " fill="#E72C17" transform="translate(163.6875,25.5390625)"/>
<path d="M0 0 C7.12600133 -0.35368021 12.47059106 0.04328652 19 3 C19 3.66 19 4.32 19 5 C19.825 4.835 20.65 4.67 21.5 4.5 C26.29358521 5.18479789 28.20770088 7.52699535 31.55859375 10.859375 C33 13 33 13 32.66015625 15.203125 C32.33337891 16.09257813 32.33337891 16.09257813 32 17 C32.33 17.33 32.66 17.66 33 18 C32.71395102 19.67542976 32.38218767 21.34385343 32 23 C31.34 23 30.68 23 30 23 C27 19.53846154 27 19.53846154 27 17 C26.34 17 25.68 17 25 17 C24.72365723 17.72018311 24.44731445 18.44036621 24.16259766 19.18237305 C23.03750064 21.90911489 21.77441709 24.47406993 20.3984375 27.08203125 C19.90859375 28.01337891 19.41875 28.94472656 18.9140625 29.90429688 C18.40617187 30.86400391 17.89828125 31.82371094 17.375 32.8125 C16.859375 33.79154297 16.34375 34.77058594 15.8125 35.77929688 C14.5438591 38.18736525 13.27296034 40.594213 12 43 C11.34 43 10.68 43 10 43 C11.67660144 37.00640084 14.63589139 31.7647606 17.5625 26.3125 C18.56579963 24.43465964 19.56719016 22.55579768 20.56640625 20.67578125 C21.00927979 19.84989502 21.45215332 19.02400879 21.90844727 18.1730957 C23.10840054 15.91353738 23.10840054 15.91353738 24 13 C21.34771188 11.92474806 18.71631546 10.90543849 16 10 C15.73445312 11.19238281 15.46890625 12.38476562 15.1953125 13.61328125 C14.83886783 15.17976175 14.48207903 16.74616398 14.125 18.3125 C13.95097656 19.09818359 13.77695313 19.88386719 13.59765625 20.69335938 C13.42363281 21.45068359 13.24960938 22.20800781 13.0703125 22.98828125 C12.91320801 23.68477783 12.75610352 24.38127441 12.59423828 25.09887695 C12 27 12 27 10 30 C10.14168137 28.56208484 10.28851043 27.1246763 10.4375 25.6875 C10.51871094 24.88699219 10.59992188 24.08648437 10.68359375 23.26171875 C11 21 11 21 12 18 C12.22179785 16.10787263 12.40614015 14.21115528 12.5625 12.3125 C12.64628906 11.31863281 12.73007813 10.32476562 12.81640625 9.30078125 C12.87699219 8.54152344 12.93757812 7.78226563 13 7 C10.36 6.67 7.72 6.34 5 6 C5 17.22 5 28.44 5 40 C4.34 40 3.68 40 3 40 C2.98018066 38.98574951 2.96036133 37.97149902 2.93994141 36.92651367 C2.86386977 33.16356576 2.77515509 29.40100377 2.68261719 25.63842773 C2.64433382 24.00992451 2.60947976 22.38133691 2.578125 20.75268555 C2.53245998 18.41163986 2.47446923 16.0711747 2.4140625 13.73046875 C2.39673569 12.63813179 2.39673569 12.63813179 2.37905884 11.52372742 C2.27121488 7.83038626 2.10115724 6.15173586 0 3 C0 2.01 0 1.02 0 0 Z " fill="#E23F08" transform="translate(144,24)"/>
<path d="M0 0 C2 1 2 1 3.0703125 3.66015625 C7.77933119 18.85110173 7.77933119 18.85110173 5 26 C3.00390625 27.3515625 3.00390625 27.3515625 0.5625 28.625 C-2.28756398 30.39556273 -3.728485 31.33230552 -5.00390625 34.46875 C-5.4736825 36.9840874 -5.76468183 39.45352122 -6 42 C-6.33 43.32 -6.66 44.64 -7 46 C-13.27 46 -19.54 46 -26 46 C-26 45.67 -26 45.34 -26 45 C-20.06 45 -14.12 45 -8 45 C-8 40.71 -8 36.42 -8 32 C-8.66 31.67 -9.32 31.34 -10 31 C-10.33 33.97 -10.66 36.94 -11 40 C-15.95 40 -20.9 40 -26 40 C-26 39.67 -26 39.34 -26 39 C-21.71 39 -17.42 39 -13 39 C-13.04125 37.515 -13.0825 36.03 -13.125 34.5 C-12.80385406 30.82236104 -12.44280384 29.42441752 -9.7421875 26.8359375 C-7.92142608 25.53391153 -6.09330098 24.24211892 -4.2578125 22.9609375 C-1.73103156 20.76639765 -1.23079087 19.7709806 -0.875 16.5 C-0.91625 15.345 -0.9575 14.19 -1 13 C-1.99 13 -2.98 13 -4 13 C-4 13.66 -4 14.32 -4 15 C-5.62486335 16.72969324 -7.28817193 18.35852103 -9 20 C-10.60685146 21.60147737 -12.21086157 23.20580908 -13.8125 24.8125 C-15.20833333 26.20833333 -16.60416667 27.60416667 -18 29 C-18 24.7685458 -15.54604415 23.05824762 -12.75 20.1875 C-9.82189477 17.15564301 -7.05367451 14.22989896 -4.765625 10.67578125 C-3 8 -3 8 -1 7 C-0.34786708 4.97536745 -0.34786708 4.97536745 0 3 C-0.66 3 -1.32 3 -2 3 C-1 1 -1 1 0 0 Z " fill="#F15B4D" transform="translate(177,39)"/>
<path d="M0 0 C1.72265625 1.0703125 1.72265625 1.0703125 2.72265625 3.0703125 C1.40265625 3.0703125 0.08265625 3.0703125 -1.27734375 3.0703125 C-1.27734375 2.4103125 -1.27734375 1.7503125 -1.27734375 1.0703125 C-7.60195955 -0.7196731 -13.72644525 -1.47208797 -20.27734375 -1.9296875 C-19.61734375 0.0503125 -18.95734375 2.0303125 -18.27734375 4.0703125 C-20.58734375 4.4003125 -22.89734375 4.7303125 -25.27734375 5.0703125 C-24.93509766 6.94976562 -24.93509766 6.94976562 -24.5859375 8.8671875 C-24.29514237 10.51815339 -24.00480151 12.16919934 -23.71484375 13.8203125 C-23.56337891 14.6453125 -23.41191406 15.4703125 -23.25585938 16.3203125 C-23.11728516 17.11953125 -22.97871094 17.91875 -22.8359375 18.7421875 C-22.70501709 19.4753418 -22.57409668 20.20849609 -22.43920898 20.96386719 C-22.26486963 23.23264537 -22.60859568 24.90809829 -23.27734375 27.0703125 C-24.11486536 24.11314843 -24.94664406 21.1543995 -25.77734375 18.1953125 C-26.01582031 17.35355469 -26.25429687 16.51179688 -26.5 15.64453125 C-26.72558594 14.83886719 -26.95117188 14.03320312 -27.18359375 13.203125 C-27.39306641 12.45949707 -27.60253906 11.71586914 -27.81835938 10.94970703 C-28.27734375 9.0703125 -28.27734375 9.0703125 -28.27734375 7.0703125 C-32.73234375 10.0403125 -32.73234375 10.0403125 -37.27734375 13.0703125 C-37.60734375 11.4203125 -37.93734375 9.7703125 -38.27734375 8.0703125 C-40.25734375 9.3903125 -42.23734375 10.7103125 -44.27734375 12.0703125 C-41.07327329 4.85337709 -34.31169158 1.0522643 -27.27734375 -1.9296875 C-18.67889222 -4.79583801 -8.13531858 -3.66700504 0 0 Z " fill="#E85638" transform="translate(164.27734375,25.9296875)"/>
<path d="M0 0 C2.00903813 1.65481299 2.92308006 2.50276756 3.328125 5.12109375 C3.28945312 6.26771484 3.28945312 6.26771484 3.25 7.4375 C3.23453125 8.19933594 3.2190625 8.96117188 3.203125 9.74609375 C3 12 3 12 2 16 C-5.59 16.33 -13.18 16.66 -21 17 C-19.68 16.67 -18.36 16.34 -17 16 C-17 15.34 -17 14.68 -17 14 C-22.27913453 11.91613111 -27.39538469 11.42089996 -33 11 C-33 10.67 -33 10.34 -33 10 C-31.2709226 9.97274659 -29.54171824 9.95349013 -27.8125 9.9375 C-26.84957031 9.92589844 -25.88664063 9.91429688 -24.89453125 9.90234375 C-22 10 -22 10 -19.65625 10.5 C-16.00149587 11.18795372 -12.39014123 11.10551549 -8.6875 11.0625 C-7.94693359 11.05798828 -7.20636719 11.05347656 -6.44335938 11.04882812 C-4.62887101 11.03712175 -2.81442466 11.01918898 -1 11 C-1.01160156 10.37351562 -1.02320313 9.74703125 -1.03515625 9.1015625 C-1.04417969 8.28429687 -1.05320313 7.46703125 -1.0625 6.625 C-1.07410156 5.81289062 -1.08570313 5.00078125 -1.09765625 4.1640625 C-1 2 -1 2 0 0 Z " fill="#E4280F" transform="translate(167,68)"/>
<path d="M0 0 C2.82836101 1.36763139 5.03539332 2.69394993 7.3125 4.875 C7.84488281 5.36742187 8.37726563 5.85984375 8.92578125 6.3671875 C10 8 10 8 9.60546875 10.1328125 C9.40566406 10.74898437 9.20585937 11.36515625 9 12 C9.33 12.33 9.66 12.66 10 13 C9.71395102 14.67542976 9.38218767 16.34385343 9 18 C8.34 18 7.68 18 7 18 C4 14.53846154 4 14.53846154 4 12 C3.34 12 2.68 12 2 12 C1.72365723 12.72018311 1.44731445 13.44036621 1.16259766 14.18237305 C0.03750064 16.90911489 -1.22558291 19.47406993 -2.6015625 22.08203125 C-3.09140625 23.01337891 -3.58125 23.94472656 -4.0859375 24.90429688 C-4.59382812 25.86400391 -5.10171875 26.82371094 -5.625 27.8125 C-6.140625 28.79154297 -6.65625 29.77058594 -7.1875 30.77929688 C-8.4561409 33.18736525 -9.72703966 35.594213 -11 38 C-11.66 38 -12.32 38 -13 38 C-11.92665074 34.08809456 -10.37115246 30.72542801 -8.3984375 27.20703125 C-7.90859375 26.32853516 -7.41875 25.45003906 -6.9140625 24.54492188 C-5.894459 22.7347375 -4.86071945 20.9324374 -3.8125 19.13867188 C-0.19452425 12.56793021 0.69621328 7.46495353 0 0 Z " fill="#E22509" transform="translate(167,29)"/>
<path d="M0 0 C0.99 0 1.98 0 3 0 C3.36285574 3.00651898 3.60807464 5.08543537 3 8 C0.24276544 11.4094836 -3.38301681 13.58867788 -7 16 C-7.79798218 18.41607417 -7.79798218 18.41607417 -8.1875 21.125 C-8.455625 22.73375 -8.72375 24.3425 -9 26 C-13.62 26.33 -18.24 26.66 -23 27 C-23 26.34 -23 25.68 -23 25 C-18.71 25 -14.42 25 -10 25 C-10 21.7 -10 18.4 -10 15 C-10.66 15 -11.32 15 -12 15 C-10.49017269 11.57143381 -8.48286031 9.04321784 -6 6.25 C-5.29875 5.45078125 -4.5975 4.6515625 -3.875 3.828125 C-2 2 -2 2 0 2 C0 1.34 0 0.68 0 0 Z " fill="#FDB210" transform="translate(173,52)"/>
<path d="M0 0 C0.99 0.33 1.98 0.66 3 1 C3.98248524 5.0527516 4.08159574 8.83861737 4 13 C4.66 12.67 5.32 12.34 6 12 C6 10.68 6 9.36 6 8 C8.35500948 8.11517421 10.70849073 8.24187978 13.0625 8.375 C14.37347656 8.44460937 15.68445313 8.51421875 17.03515625 8.5859375 C20.98136957 8.99805436 24.24117073 9.79756567 28 11 C28 12.32 28 13.64 28 15 C26.125 16.0625 26.125 16.0625 24 17 C23.34 16.67 22.68 16.34 22 16 C20.6265365 15.84995027 19.2471474 15.75161994 17.8671875 15.68359375 C17.06152344 15.64169922 16.25585938 15.59980469 15.42578125 15.55664062 C14.58402344 15.51732422 13.74226562 15.47800781 12.875 15.4375 C12.02550781 15.39431641 11.17601562 15.35113281 10.30078125 15.30664062 C8.20071777 15.20045764 6.10038052 15.09971503 4 15 C2.47938557 10.64131574 1.61593226 6.57549676 1 2 C0.67 1.34 0.34 0.68 0 0 Z " fill="#F2594A" transform="translate(123,70)"/>
<path d="M0 0 C0.33 0 0.66 0 1 0 C1.0272415 1.41655793 1.04650467 2.83327045 1.0625 4.25 C1.07410156 5.03890625 1.08570313 5.8278125 1.09765625 6.640625 C1 9 1 9 0.43359375 11.171875 C-0.22604615 13.08253704 -0.22604615 13.08253704 1 15 C0.21625 15.7425 -0.5675 16.485 -1.375 17.25 C-5.24620613 21.7901681 -5.29763295 27.25336051 -6 33 C-12.27 33 -18.54 33 -25 33 C-25 32.67 -25 32.34 -25 32 C-19.06 32 -13.12 32 -7 32 C-7 27.71 -7 23.42 -7 19 C-7.66 18.67 -8.32 18.34 -9 18 C-9.33 20.97 -9.66 23.94 -10 27 C-14.95 27 -19.9 27 -25 27 C-25 26.67 -25 26.34 -25 26 C-20.71 26 -16.42 26 -12 26 C-12.04125 24.515 -12.0825 23.03 -12.125 21.5 C-11.80385406 17.82236104 -11.44280384 16.42441752 -8.7421875 13.8359375 C-6.92142608 12.53391153 -5.09330098 11.24211892 -3.2578125 9.9609375 C-0.73103156 7.76639765 -0.23079087 6.7709806 0.125 3.5 C0.08375 2.345 0.0425 1.19 0 0 Z " fill="#EC5F3F" transform="translate(176,52)"/>
<path d="M0 0 C0 4.29 0 8.58 0 13 C-0.33 13 -0.66 13 -1 13 C-1 9.04 -1 5.08 -1 1 C-2.65 1.33 -4.3 1.66 -6 2 C-6 4.64 -6 7.28 -6 10 C-5.34 10 -4.68 10 -4 10 C-3.91697632 10.85380249 -3.91697632 10.85380249 -3.83227539 11.72485352 C-3.57729285 14.33756224 -3.31991322 16.95002968 -3.0625 19.5625 C-2.97548828 20.45775391 -2.88847656 21.35300781 -2.79882812 22.27539062 C-2.31123251 27.20552409 -1.7457681 32.10211759 -1 37 C-1.66 37 -2.32 37 -3 37 C-3.70194375 34.94237091 -4.38601697 32.87863969 -5.0625 30.8125 C-5.44535156 29.66394531 -5.82820312 28.51539062 -6.22265625 27.33203125 C-7.01581198 23.93222301 -6.78497486 22.31433829 -6 19 C-6.30145386 16.58577639 -6.30145386 16.58577639 -6.9375 14.1875 C-7.94961805 9.65674334 -8.17154134 5.63161626 -8 1 C-5 0 -5 0 0 0 Z " fill="#FEAA17" transform="translate(147,30)"/>
<path d="M0 0 C6.79001294 3.03099046 11.42635359 9.31759083 16 15 C15.67 15.66 15.34 16.32 15 17 C13.35 15.68 11.7 14.36 10 13 C10 13.66 10 14.32 10 15 C5.97685873 13.62063728 2.86501442 12.19244464 0 9 C-0.42065016 5.95554445 -0.29351416 3.05254729 0 0 Z " fill="#FEBD0F" transform="translate(121,52)"/>
<path d="M0 0 C0.93610988 2.52749667 1.17072805 3.61301641 0.0625 6.125 C-1.50828489 10.37535911 -1.15674126 14.51545848 -1 19 C0.32 19 1.64 19 3 19 C5.5 21.25 5.5 21.25 8 24 C8.763125 24.763125 9.52625 25.52625 10.3125 26.3125 C10.869375 26.869375 11.42625 27.42625 12 28 C2.12710084 28 2.12710084 28 -1.6953125 24.60546875 C-4.05486005 21.70195365 -4.17999073 18.57498822 -4 15 C-3.32375151 9.78095285 -2.23569247 4.79076957 0 0 Z " fill="#F25E53" transform="translate(117,41)"/>
<path d="M0 0 C1.65 0.33 3.3 0.66 5 1 C5.33 4.63 5.66 8.26 6 12 C5.01 12 4.02 12 3 12 C3 13.32 3 14.64 3 16 C7.95 16 12.9 16 18 16 C18 16.33 18 16.66 18 17 C12.39 17 6.78 17 1 17 C0.609375 14.00520833 0.21875 11.01041667 -0.171875 8.015625 C-1.1097748 4.60025402 -2.31916918 3.24492337 -5 1 C-2.69 1.33 -0.38 1.66 2 2 C1.34 1.34 0.68 0.68 0 0 Z " fill="#E22308" transform="translate(126,66)"/>
<path d="M0 0 C0.66 0.99 1.32 1.98 2 3 C6.78251468 9.18978337 11.78782076 15.16887448 17 21 C16.67 21.66 16.34 22.32 16 23 C15.5560791 22.52054932 15.1121582 22.04109863 14.65478516 21.54711914 C12.64780344 19.38282493 10.63646761 17.22262534 8.625 15.0625 C7.57699219 13.93038086 7.57699219 13.93038086 6.5078125 12.77539062 C5.8375 12.05673828 5.1671875 11.33808594 4.4765625 10.59765625 C3.85861816 9.93258057 3.24067383 9.26750488 2.60400391 8.58227539 C1.0705571 6.90621559 1.0705571 6.90621559 -1 6 C-0.9867458 9.10148341 -0.82092015 12.0002855 0 15 C2.88274079 17.61974426 2.88274079 17.61974426 6 19 C5.01 19.33 4.02 19.66 3 20 C-1.58181818 16.83636364 -1.58181818 16.83636364 -3 14 C-3.0955931 12.33555539 -3.12984645 10.66718037 -3.125 9 C-3.12757812 8.113125 -3.13015625 7.22625 -3.1328125 6.3125 C-3 4 -3 4 -2 2 C-1.34 2 -0.68 2 0 2 C0 1.34 0 0.68 0 0 Z " fill="#DE4003" transform="translate(122,46)"/>
<path d="M0 0 C0.99 0.33 1.98 0.66 3 1 C2.690625 1.7425 2.38125 2.485 2.0625 3.25 C0.59001036 8.44702225 0.33050945 13.62487263 0 19 C-0.33 18.34 -0.66 17.68 -1 17 C-1.66 17 -2.32 17 -3 17 C-3.33 17.66 -3.66 18.32 -4 19 C-4.05441656 17.10448978 -4.09298035 15.2085208 -4.125 13.3125 C-4.14820312 12.25675781 -4.17140625 11.20101562 -4.1953125 10.11328125 C-3.99858729 6.97748141 -3.33057654 4.82354627 -2 2 C-1.34 2 -0.68 2 0 2 C0 1.34 0 0.68 0 0 Z " fill="#F72219" transform="translate(119,43)"/>
<path d="M0 0 C0.66 0 1.32 0 2 0 C4.14542486 2.14542486 5 3.30246308 5 6.375 C3.63226228 9.96531152 1.57811024 12.1574682 -1 15 C-1.33 14.01 -1.66 13.02 -2 12 C-1.34 12 -0.68 12 0 12 C-0.33 10.35 -0.66 8.7 -1 7 C-1.66 7 -2.32 7 -3 7 C-1.125 2.25 -1.125 2.25 0 0 Z " fill="#FDAF13" transform="translate(169,41)"/>
<path d="M0 0 C0 3.51716303 -0.82445585 4.37121748 -3 7 C-2.01 7.33 -1.02 7.66 0 8 C-0.33 8.33 -0.66 8.66 -1 9 C-1.3931648 10.67884238 -1.74085452 12.36850045 -2.0625 14.0625 C-2.371875 15.691875 -2.68125 17.32125 -3 19 C-7.62 19.33 -12.24 19.66 -17 20 C-17 19.34 -17 18.68 -17 18 C-12.71 18 -8.42 18 -4 18 C-4 14.7 -4 11.4 -4 8 C-4.66 8 -5.32 8 -6 8 C-4.55746343 4.63408134 -2.66735273 2.48952921 0 0 Z " fill="#FEAE14" transform="translate(167,59)"/>
<path d="M0 0 C0.66 0.33 1.32 0.66 2 1 C2.484375 2.77734375 2.484375 2.77734375 2.75 4.9375 C2.84796875 5.64777344 2.9459375 6.35804687 3.046875 7.08984375 C3 9 3 9 1 11 C0.01 11 -0.98 11 -2 11 C-4.1519437 7.77208445 -4.20086443 6.71599191 -4 3 C-3.01 2.67 -2.02 2.34 -1 2 C-0.67 1.34 -0.34 0.68 0 0 Z " fill="#FCC707" transform="translate(134,35)"/>
<path d="M0 0 C3.37462715 0.54723683 5.08235 1.0549 8 3 C7.46930939 6.82097239 6.50298434 9.06171403 4 12 C2.875 6.375 2.875 6.375 4 3 C3.01 2.67 2.02 2.34 1 2 C1 3.98 1 5.96 1 8 C0.34 8 -0.32 8 -1 8 C-1.33 8.66 -1.66 9.32 -2 10 C-1.125 2.25 -1.125 2.25 0 0 Z " fill="#FDA813" transform="translate(160,34)"/>
<path d="M0 0 C0.99 0.33 1.98 0.66 3 1 C3 1.66 3 2.32 3 3 C2.01 3 1.02 3 0 3 C0 3.66 0 4.32 0 5 C-1.62486335 6.72969324 -3.28817193 8.35852103 -5 10 C-6.60685146 11.60147737 -8.21086157 13.20580908 -9.8125 14.8125 C-11.20833333 16.20833333 -12.60416667 17.60416667 -14 19 C-14 14.73980871 -11.49185329 12.96587207 -8.6875 10.0625 C-4.09641083 5.24162523 -4.09641083 5.24162523 0 0 Z " fill="#D75A00" transform="translate(173,49)"/>
<path d="M0 0 C4.29238623 1.65091778 6.8793915 4.73754566 10 8 C9.67 8.66 9.34 9.32 9 10 C8.401875 9.67 7.80375 9.34 7.1875 9 C4.94613529 7.79212012 4.94613529 7.79212012 2 8 C1.34 7.67 0.68 7.34 0 7 C0 4.69 0 2.38 0 0 Z " fill="#EC5144" transform="translate(167,29)"/>
<path d="M0 0 C0.66 0 1.32 0 2 0 C0.51991304 5.00113594 -1.6318336 9.32915597 -4.125 13.875 C-4.49753906 14.56335937 -4.87007812 15.25171875 -5.25390625 15.9609375 C-6.16499526 17.64294798 -7.08190315 19.32180436 -8 21 C-8.66 21 -9.32 21 -10 21 C-8.51991304 15.99886406 -6.3681664 11.67084403 -3.875 7.125 C-3.50246094 6.43664063 -3.12992188 5.74828125 -2.74609375 5.0390625 C-1.83500474 3.35705202 -0.91809685 1.67819564 0 0 Z " fill="#DC6100" transform="translate(164,46)"/>
<path d="M0 0 C0.66 0.66 1.32 1.32 2 2 C1.9765625 4.8203125 1.9765625 4.8203125 1.625 8.125 C1.51414063 9.22070312 1.40328125 10.31640625 1.2890625 11.4453125 C1.14597656 12.70988281 1.14597656 12.70988281 1 14 C-0.98 14 -2.96 14 -5 14 C-5 13.34 -5 12.68 -5 12 C-3.68 11.67 -2.36 11.34 -1 11 C-1.01160156 10.37351562 -1.02320313 9.74703125 -1.03515625 9.1015625 C-1.04417969 8.28429687 -1.05320313 7.46703125 -1.0625 6.625 C-1.07410156 5.81289062 -1.08570313 5.00078125 -1.09765625 4.1640625 C-1 2 -1 2 0 0 Z " fill="#F42215" transform="translate(167,68)"/>
<path d="M0 0 C1.32 0.33 2.64 0.66 4 1 C3 8.42857143 3 8.42857143 2 12 C2 11.34 2 10.68 2 10 C1.01 10 0.02 10 -1 10 C-1.33 10.66 -1.66 11.32 -2 12 C-2 10.02 -2 8.04 -2 6 C-1.34 6 -0.68 6 0 6 C0 4.02 0 2.04 0 0 Z " fill="#FCC802" transform="translate(161,36)"/>
<path d="M0 0 C4.455 0.99 4.455 0.99 9 2 C9 4.31 9 6.62 9 9 C7.68 9 6.36 9 5 9 C4.9175 8.2575 4.835 7.515 4.75 6.75 C3.8603054 3.48778646 2.51496251 2.19045122 0 0 Z " fill="#E52215" transform="translate(121,67)"/>
<path d="M0 0 C1.5 1.25 1.5 1.25 3 3 C3 4.32 3 5.64 3 7 C3.66 7 4.32 7 5 7 C5.86366822 8.78710586 6.71568594 10.5798465 7.5625 12.375 C8.27599609 13.87160156 8.27599609 13.87160156 9.00390625 15.3984375 C9.33261719 16.25695312 9.66132813 17.11546875 10 18 C9.67 18.66 9.34 19.32 9 20 C7.29586336 17.23907588 5.61469315 14.46486002 3.9375 11.6875 C3.45216797 10.90181641 2.96683594 10.11613281 2.46679688 9.30664062 C2.01240234 8.54931641 1.55800781 7.79199219 1.08984375 7.01171875 C0.66566162 6.31522217 0.24147949 5.61872559 -0.19555664 4.90112305 C-1 3 -1 3 0 0 Z " fill="#D74C00" transform="translate(130,43)"/>
<path d="M0 0 C0.66 0.33 1.32 0.66 2 1 C1.67 2.98 1.34 4.96 1 7 C0.278125 6.7525 -0.44375 6.505 -1.1875 6.25 C-4.1794348 5.68262931 -4.1794348 5.68262931 -6.8125 7.9375 C-7.534375 8.618125 -8.25625 9.29875 -9 10 C-7.61811547 6.78956118 -6.07578097 4.95063635 -3.375 2.75 C-2.74335937 2.22921875 -2.11171875 1.7084375 -1.4609375 1.171875 C-0.73777344 0.59179688 -0.73777344 0.59179688 0 0 Z " fill="#F06C65" transform="translate(129,28)"/>
<path d="M0 0 C0 0.66 0 1.32 0 2 C0.66 2.33 1.32 2.66 2 3 C0.93458984 3.18175781 0.93458984 3.18175781 -0.15234375 3.3671875 C-1.07144531 3.53476562 -1.99054688 3.70234375 -2.9375 3.875 C-3.85402344 4.03742187 -4.77054688 4.19984375 -5.71484375 4.3671875 C-6.46894531 4.57601563 -7.22304687 4.78484375 -8 5 C-8.33 5.66 -8.66 6.32 -9 7 C-9.66 7 -10.32 7 -11 7 C-10.67 5.35 -10.34 3.7 -10 2 C-8.7090864 1.66376204 -7.41723903 1.33110751 -6.125 1 C-5.40570313 0.814375 -4.68640625 0.62875 -3.9453125 0.4375 C-2 0 -2 0 0 0 Z " fill="#ED2214" transform="translate(141,26)"/>
<path d="M0 0 C0.99 0.33 1.98 0.66 3 1 C3.94921875 3.8359375 3.94921875 3.8359375 4.6875 7.375 C4.93886719 8.53773437 5.19023437 9.70046875 5.44921875 10.8984375 C6 14 6 14 6 17 C5.34 17 4.68 17 4 17 C3.32635339 14.91891315 2.66133202 12.8350329 2 10.75 C1.62875 9.58984375 1.2575 8.4296875 0.875 7.234375 C0 4 0 4 0 0 Z " fill="#ED8C03" transform="translate(140,50)"/>
<path d="M0 0 C2.10754294 3.4712472 2.10754294 3.4712472 1.625 5.84375 C1.41875 6.5553125 1.2125 7.266875 1 8 C0.64110788 9.58226891 0.28699368 11.16562863 -0.0625 12.75 C-0.23910156 13.54921875 -0.41570312 14.3484375 -0.59765625 15.171875 C-0.73042969 15.77515625 -0.86320312 16.3784375 -1 17 C-1.33 17 -1.66 17 -2 17 C-2.05441656 15.10448978 -2.09298035 13.2085208 -2.125 11.3125 C-2.14820312 10.25675781 -2.17140625 9.20101562 -2.1953125 8.11328125 C-1.99858729 4.97748141 -1.33057654 2.82354627 0 0 Z " fill="#DA1D12" transform="translate(117,45)"/>
<path d="M0 0 C0.33 0 0.66 0 1 0 C1.33 2.97 1.66 5.94 2 9 C0.02 9.99 0.02 9.99 -2 11 C-2.93750716 7.33519927 -3.28668844 5.59943946 -1.625 2.125 C-1.08875 1.42375 -0.5525 0.7225 0 0 Z " fill="#EF392E" transform="translate(178,57)"/>
<path d="M0 0 C2.13093906 1.06546953 3.36587557 2.29159719 5 4 C3.02 4.99 1.04 5.98 -1 7 C-1.66 6.34 -2.32 5.68 -3 5 C-3 4.01 -3 3.02 -3 2 C-2.01 1.34 -1.02 0.68 0 0 Z " fill="#EB3A2B" transform="translate(171,65)"/>
<path d="M0 0 C0.33 0 0.66 0 1 0 C1 4.62 1 9.24 1 14 C-1.45526122 11.54473878 -1.41457598 10.39370182 -1.75 7 C-1.84796875 6.113125 -1.9459375 5.22625 -2.046875 4.3125 C-2 2 -2 2 0 0 Z " fill="#E01E0C" transform="translate(180,50)"/>
<path d="M0 0 C2.09230769 4.43076923 2.09230769 4.43076923 1.625 7.3125 C1.41875 7.869375 1.2125 8.42625 1 9 C0.34 7.02 -0.32 5.04 -1 3 C-1.66 3.66 -2.32 4.32 -3 5 C-3.99 5 -4.98 5 -6 5 C-6.33 5.99 -6.66 6.98 -7 8 C-7.33 7.01 -7.66 6.02 -8 5 C-2.25 0 -2.25 0 0 0 Z " fill="#FC9A16" transform="translate(136,33)"/>
<path d="M0 0 C0 1.65 0 3.3 0 5 C-2.64 4.34 -5.28 3.68 -8 3 C-8 2.34 -8 1.68 -8 1 C-5.29120665 -0.35439668 -2.99066732 -0.06501451 0 0 Z " fill="#F12215" transform="translate(167,29)"/>
<path d="M0 0 C1.8125 0.125 1.8125 0.125 4 1 C5.8125 3.9375 5.8125 3.9375 7 7 C6.67 7.66 6.34 8.32 6 9 C5.01 8.67 4.02 8.34 3 8 C3 6.02 3 4.04 3 2 C1.68 2.33 0.36 2.66 -1 3 C-0.67 2.01 -0.34 1.02 0 0 Z " fill="#FEA719" transform="translate(125,42)"/>
<path d="M0 0 C0.66 0.99 1.32 1.98 2 3 C1.67 3.99 1.34 4.98 1 6 C-0.65 6 -2.3 6 -4 6 C-2.84826645 3.53199953 -1.95216435 1.95216435 0 0 Z " fill="#FDC506" transform="translate(168,60)"/>
<path d="M0 0 C4 2 4 2 5 4 C3.68 3.67 2.36 3.34 1 3 C1.33 5.31 1.66 7.62 2 10 C1.34 9.67 0.68 9.34 0 9 C0 6.03 0 3.06 0 0 Z " fill="#FEAB1D" transform="translate(121,52)"/>
<path d="M0 0 C0.99 0.33 1.98 0.66 3 1 C3 1.66 3 2.32 3 3 C2.01 3 1.02 3 0 3 C0 3.66 0 4.32 0 5 C-1.65 5.66 -3.3 6.32 -5 7 C-3.35 4.69 -1.7 2.38 0 0 Z " fill="#DA2A02" transform="translate(173,49)"/>
<path d="M0 0 C6.75 0.75 6.75 0.75 9 3 C2.25 3.125 2.25 3.125 0 2 C0 1.34 0 0.68 0 0 Z " fill="#DA220F" transform="translate(154,25)"/>
<path d="M0 0 C0.99 0.33 1.98 0.66 3 1 C3 1.66 3 2.32 3 3 C3.66 3 4.32 3 5 3 C4.67 4.65 4.34 6.3 4 8 C1.84622436 5.37801226 0.59927826 3.35595828 0 0 Z " fill="#F62215" transform="translate(172,39)"/>
<path d="M0 0 C1.0625 1.875 1.0625 1.875 2 4 C1.67 4.66 1.34 5.32 1 6 C0.01 6 -0.98 6 -2 6 C-2 4.35 -2 2.7 -2 1 C-1.34 0.67 -0.68 0.34 0 0 Z " fill="#FDCB04" transform="translate(168,47)"/>
</svg>
