<?xml version="1.0" encoding="UTF-8"?>
<svg version="1.1" xmlns="http://www.w3.org/2000/svg" width="297" height="110">
<path d="M0 0 C4.95 0 9.9 0 15 0 C16.6254373 3.8956514 18.25036682 7.79151327 19.875 11.6875 C20.33519531 12.79029297 20.79539063 13.89308594 21.26953125 15.02929688 C21.71425781 16.09599609 22.15898437 17.16269531 22.6171875 18.26171875 C23.02565918 19.24100342 23.43413086 20.22028809 23.85498047 21.22924805 C24.92221413 23.81177146 25.96220294 26.40550735 27 29 C30.96 19.43 34.92 9.86 39 0 C43.62 0 48.24 0 53 0 C53 17.49 53 34.98 53 53 C49.04 53 45.08 53 41 53 C40.505 40.13 40.505 40.13 40 27 C37.73857149 32.54855996 37.73857149 32.54855996 35.48266602 38.09936523 C35.20092529 38.78716064 34.91918457 39.47495605 34.62890625 40.18359375 C34.34088135 40.89056396 34.05285645 41.59753418 33.75610352 42.32592773 C33 44 33 44 32 45 C29.8203125 45.2734375 29.8203125 45.2734375 27.125 45.375 C26.24070313 45.42398438 25.35640625 45.47296875 24.4453125 45.5234375 C22 45 22 45 20.34765625 42.83984375 C19.90292969 41.90269531 19.45820313 40.96554688 19 40 C18.54238281 39.04480469 18.08476562 38.08960938 17.61328125 37.10546875 C16.40885417 34.40364583 15.20442708 31.70182292 14 29 C13.97494385 29.69150146 13.9498877 30.38300293 13.92407227 31.09545898 C13.80847839 34.20967866 13.68558758 37.32356789 13.5625 40.4375 C13.52318359 41.52611328 13.48386719 42.61472656 13.44335938 43.73632812 C13.40146484 44.77080078 13.35957031 45.80527344 13.31640625 46.87109375 C13.26141968 48.30859985 13.26141968 48.30859985 13.20532227 49.77514648 C13 52 13 52 12 53 C8.04 53 4.08 53 0 53 C0 35.51 0 18.02 0 0 Z " fill="#034E9E" transform="translate(194,29)"/>
<path d="M0 0 C12.87 0 25.74 0 39 0 C39 3.63 39 7.26 39 11 C38.67 11.33 38.34 11.66 38 12 C34.04 12 30.08 12 26 12 C26 25.53 26 39.06 26 53 C21.71 53 17.42 53 13 53 C13 39.47 13 25.94 13 12 C9.04 12 5.08 12 1 12 C0.67 11.67 0.34 11.34 0 11 C0 7.37 0 3.74 0 0 Z " fill="#014D9F" transform="translate(126,29)"/>
<path d="M0 0 C1.79679955 -0.00472824 1.79679955 -0.00472824 3.62989807 -0.009552 C5.57834877 -0.00651566 5.57834877 -0.00651566 7.56616211 -0.00341797 C8.90612302 -0.00409129 10.24608382 -0.00506155 11.58604431 -0.00631714 C14.39461429 -0.00779228 17.20315247 -0.0056451 20.01171875 -0.00097656 C23.61897588 0.00472613 27.22615871 0.00143717 30.83341312 -0.00454903 C33.59997624 -0.0081549 36.36652161 -0.00701603 39.13308525 -0.00442123 C41.11241072 -0.00342614 43.09173686 -0.00647234 45.07106018 -0.009552 C46.26577438 -0.00639984 47.46048859 -0.00324768 48.69140625 0 C50.27786705 0.00119339 50.27786705 0.00119339 51.89637756 0.00241089 C54.28100586 0.12939453 54.28100586 0.12939453 55.28100586 1.12939453 C55.44897461 3.12548828 55.44897461 3.12548828 55.46850586 5.56689453 C55.48268555 6.36998047 55.49686523 7.17306641 55.51147461 8.00048828 C55.28100586 10.12939453 55.28100586 10.12939453 53.28100586 12.12939453 C50.81408691 12.37663269 50.81408691 12.37663269 47.66967773 12.37231445 C45.90775085 12.3769294 45.90775085 12.3769294 44.11022949 12.38163757 C42.83627319 12.37445206 41.56231689 12.36726654 40.24975586 12.35986328 C38.94776245 12.35940506 37.64576904 12.35894684 36.30432129 12.35847473 C33.54698361 12.35690968 30.78977573 12.34861862 28.0324707 12.33520508 C24.49480442 12.31821516 20.95728085 12.31439074 17.41957855 12.31515026 C14.0504518 12.31481323 10.68137205 12.30597605 7.31225586 12.29736328 C5.40132141 12.29569405 5.40132141 12.29569405 3.45178223 12.29399109 C2.27716431 12.28761124 1.10254639 12.28123138 -0.10766602 12.2746582 C-1.66414856 12.26894051 -1.66414856 12.26894051 -3.2520752 12.2631073 C-5.71899414 12.12939453 -5.71899414 12.12939453 -7.71899414 11.12939453 C-7.71899414 7.82939453 -7.71899414 4.52939453 -7.71899414 1.12939453 C-5.0442135 -0.20799579 -2.99498559 0.00225124 0 0 Z " fill="#FA0022" transform="translate(57.718994140625,28.87060546875)"/>
<path d="M0 0 C4.29 0 8.58 0 13 0 C13 17.49 13 34.98 13 53 C8.71 53 4.42 53 0 53 C0 35.51 0 18.02 0 0 Z " fill="#064E9A" transform="translate(172,29)"/>
<path d="M0 0 C3.77102285 -0.05382903 7.54128134 -0.09359187 11.3125 -0.125 C12.38435547 -0.14175781 13.45621094 -0.15851562 14.56054688 -0.17578125 C15.58857422 -0.18222656 16.61660156 -0.18867187 17.67578125 -0.1953125 C18.62364502 -0.20578613 19.57150879 -0.21625977 20.5480957 -0.22705078 C23 0 23 0 26 2 C26.3984375 4.09375 26.3984375 4.09375 26.375 6.5 C26.38273437 7.2940625 26.39046875 8.088125 26.3984375 8.90625 C26.26695313 9.5971875 26.13546875 10.288125 26 11 C22.64880481 13.23413013 21.5822245 13.23847762 17.67578125 13.1953125 C16.13374023 13.18564453 16.13374023 13.18564453 14.56054688 13.17578125 C13.48869141 13.15902344 12.41683594 13.14226563 11.3125 13.125 C10.22904297 13.11597656 9.14558594 13.10695313 8.02929688 13.09765625 C5.35277052 13.07407452 2.67635759 13.03820336 0 13 C0 8.71 0 4.42 0 0 Z " fill="#F70222" transform="translate(87,49)"/>
<path d="M0 0 C1.03125 0.00322266 2.0625 0.00644531 3.125 0.00976562 C4.74535156 0.02233398 4.74535156 0.02233398 6.3984375 0.03515625 C8.03039062 0.04192383 8.03039062 0.04192383 9.6953125 0.04882812 C12.38804412 0.06063835 15.08074759 0.0785742 17.7734375 0.09765625 C17.7734375 4.38765625 17.7734375 8.67765625 17.7734375 13.09765625 C13.98172403 13.12452666 10.19019927 13.14443212 6.3984375 13.16015625 C5.31820312 13.16853516 4.23796875 13.17691406 3.125 13.18554688 C1.578125 13.19038086 1.578125 13.19038086 0 13.1953125 C-0.95310059 13.20054932 -1.90620117 13.20578613 -2.88818359 13.21118164 C-5.2265625 13.09765625 -5.2265625 13.09765625 -7.2265625 12.09765625 C-7.2265625 8.46765625 -7.2265625 4.83765625 -7.2265625 1.09765625 C-4.66933021 -0.1809599 -2.85919148 -0.01570984 0 0 Z " fill="#EE0725" transform="translate(57.2265625,48.90234375)"/>
<path d="M0 0 C3.95851252 -0.05373546 7.91630255 -0.0935461 11.875 -0.125 C13.00292969 -0.14175781 14.13085938 -0.15851563 15.29296875 -0.17578125 C16.36933594 -0.18222656 17.44570312 -0.18867187 18.5546875 -0.1953125 C19.54968262 -0.20578613 20.54467773 -0.21625977 21.56982422 -0.22705078 C24 0 24 0 26 2 C26.23046875 4.12890625 26.23046875 4.12890625 26.1875 6.5625 C26.18105469 7.36816406 26.17460938 8.17382812 26.16796875 9.00390625 C26 11 26 11 25 12 C23.14630389 12.08737645 21.28932459 12.10698153 19.43359375 12.09765625 C18.30888672 12.09443359 17.18417969 12.09121094 16.02539062 12.08789062 C14.84138672 12.07951172 13.65738281 12.07113281 12.4375 12.0625 C11.24962891 12.05798828 10.06175781 12.05347656 8.83789062 12.04882812 C5.89190588 12.03699686 2.94594684 12.01906076 0 12 C0 8.04 0 4.08 0 0 Z " fill="#EF0A29" transform="translate(87,70)"/>
<path d="M0 0 C1.00023193 0.00523682 2.00046387 0.01047363 3.03100586 0.01586914 C4.1105957 0.0190918 5.19018555 0.02231445 6.30249023 0.02563477 C8.00695312 0.03820312 8.00695312 0.03820312 9.74584961 0.05102539 C11.45611328 0.05779297 11.45611328 0.05779297 13.20092773 0.06469727 C16.02842379 0.07652779 18.85589306 0.09446389 21.68334961 0.11352539 C21.68334961 4.07352539 21.68334961 8.03352539 21.68334961 12.11352539 C13.43334961 12.11352539 5.18334961 12.11352539 -3.31665039 12.11352539 C-3.31665039 0.1625295 -3.31665039 0.1625295 0 0 Z " fill="#F90121" transform="translate(53.316650390625,69.886474609375)"/>
<path d="M0 0 C12.87 0 25.74 0 39 0 C39 3.63 39 7.26 39 11 C38 12 38 12 35.27734375 12.09765625 C33.62412109 12.08025391 33.62412109 12.08025391 31.9375 12.0625 C30.83277344 12.05347656 29.72804687 12.04445313 28.58984375 12.03515625 C27.73519531 12.02355469 26.88054687 12.01195312 26 12 C26 11.67 26 11.34 26 11 C29.63 10.67 33.26 10.34 37 10 C37 7.36 37 4.72 37 2 C25.45 2 13.9 2 2 2 C1.67 4.64 1.34 7.28 1 10 C5.29 10.33 9.58 10.66 14 11 C14 24.53 14 38.06 14 52 C17.63 52 21.26 52 25 52 C25 39.13 25 26.26 25 13 C25.33 13 25.66 13 26 13 C26 26.2 26 39.4 26 53 C21.71 53 17.42 53 13 53 C13 39.47 13 25.94 13 12 C9.04 12 5.08 12 1 12 C0.67 11.67 0.34 11.34 0 11 C0 7.37 0 3.74 0 0 Z " fill="#18518B" transform="translate(126,29)"/>
<path d="M0 0 C0.91007812 0.00902344 1.82015625 0.01804687 2.7578125 0.02734375 C3.45648438 0.03894531 4.15515625 0.05054687 4.875 0.0625 C4.545 0.7225 4.215 1.3825 3.875 2.0625 C1.895 2.0625 -0.085 2.0625 -2.125 2.0625 C-2.455 2.7225 -2.785 3.3825 -3.125 4.0625 C-3.125 3.4025 -3.125 2.7425 -3.125 2.0625 C-4.115 2.0625 -5.105 2.0625 -6.125 2.0625 C-6.125 4.7025 -6.125 7.3425 -6.125 10.0625 C13.675 10.0625 33.475 10.0625 53.875 10.0625 C53.545 6.7625 53.215 3.4625 52.875 0.0625 C53.865 0.3925 54.855 0.7225 55.875 1.0625 C55.92899736 2.52042884 55.96779177 3.97892712 56 5.4375 C56.02320313 6.24960937 56.04640625 7.06171875 56.0703125 7.8984375 C55.875 10.0625 55.875 10.0625 53.875 12.0625 C51.40808105 12.30973816 51.40808105 12.30973816 48.26367188 12.30541992 C46.501745 12.31003487 46.501745 12.31003487 44.70422363 12.31474304 C43.43026733 12.30755753 42.15631104 12.30037201 40.84375 12.29296875 C39.54175659 12.29251053 38.23976318 12.29205231 36.89831543 12.2915802 C34.14097775 12.29001515 31.38376987 12.28172409 28.62646484 12.26831055 C25.08879856 12.25132063 21.55127499 12.24749621 18.01357269 12.24825573 C14.64444594 12.2479187 11.27536619 12.23908152 7.90625 12.23046875 C5.99531555 12.22879951 5.99531555 12.22879951 4.04577637 12.22709656 C2.87115845 12.22071671 1.69654053 12.21433685 0.48632812 12.20776367 C-1.07015442 12.20204597 -1.07015442 12.20204597 -2.65808105 12.19621277 C-5.125 12.0625 -5.125 12.0625 -7.125 11.0625 C-7.125 7.7625 -7.125 4.4625 -7.125 1.0625 C-4.60024538 -0.19987731 -2.81299534 -0.03606404 0 0 Z " fill="#D01B30" transform="translate(57.125,28.9375)"/>
<path d="M0 0 C1.66666667 1.66666667 3.33333333 3.33333333 5 5 C5.53987549 5.41354736 6.07975098 5.82709473 6.63598633 6.25317383 C8.72373044 8.92684648 8.43862023 11.28880638 8.51171875 14.63671875 C8.54716797 15.93544922 8.58261719 17.23417969 8.61914062 18.57226562 C8.6422405 19.94400517 8.6650229 21.3157501 8.6875 22.6875 C8.72067542 24.07099607 8.75516531 25.45446129 8.79101562 26.83789062 C8.87363241 30.22517883 8.94274058 33.61220357 9 37 C8.01 37 7.02 37 6 37 C5.67 28.42 5.34 19.84 5 11 C3.02 15.95 1.04 20.9 -1 26 C-1.33 26 -1.66 26 -2 26 C-2 24.02 -2 22.04 -2 20 C-1.34 20 -0.68 20 0 20 C-0.66 17.03 -1.32 14.06 -2 11 C-1.01 11 -0.02 11 1 11 C1 10.01 1 9.02 1 8 C0.34 8 -0.32 8 -1 8 C-1.33 8.66 -1.66 9.32 -2 10 C-2.66 9.67 -3.32 9.34 -4 9 C-4 9.99 -4 10.98 -4 12 C-4.99 12.33 -5.98 12.66 -7 13 C-6.54965877 11.37276701 -6.08944646 9.74826336 -5.625 8.125 C-5.36976563 7.22007813 -5.11453125 6.31515625 -4.8515625 5.3828125 C-4 3 -4 3 -2 1 C-1.67 1.66 -1.34 2.32 -1 3 C-0.67 2.01 -0.34 1.02 0 0 Z " fill="#105096" transform="translate(229,45)"/>
<path d="M0 0 C1.00023193 0.00523682 2.00046387 0.01047363 3.03100586 0.01586914 C4.1105957 0.0190918 5.19018555 0.02231445 6.30249023 0.02563477 C8.00695312 0.03820312 8.00695312 0.03820312 9.74584961 0.05102539 C11.45611328 0.05779297 11.45611328 0.05779297 13.20092773 0.06469727 C16.02842379 0.07652779 18.85589306 0.09446389 21.68334961 0.11352539 C21.68334961 4.07352539 21.68334961 8.03352539 21.68334961 12.11352539 C13.43334961 12.11352539 5.18334961 12.11352539 -3.31665039 12.11352539 C-3.31665039 0.1625295 -3.31665039 0.1625295 0 0 Z M-2.31665039 1.11352539 C-2.31665039 4.41352539 -2.31665039 7.71352539 -2.31665039 11.11352539 C2.63334961 11.11352539 7.58334961 11.11352539 12.68334961 11.11352539 C12.68334961 7.81352539 12.68334961 4.51352539 12.68334961 1.11352539 C7.73334961 1.11352539 2.78334961 1.11352539 -2.31665039 1.11352539 Z " fill="#EA0B29" transform="translate(53.316650390625,69.886474609375)"/>
<path d="M0 0 C4.62 0 9.24 0 14 0 C14 17.49 14 34.98 14 53 C11.36 53 8.72 53 6 53 C6 52.67 6 52.34 6 52 C8.31 52 10.62 52 13 52 C13 35.17 13 18.34 13 1 C7.555 1.495 7.555 1.495 2 2 C0.82923301 5.98060777 -0.25749403 9.91621717 -1 14 C-1.99 14 -2.98 14 -4 14 C-4.33 14.99 -4.66 15.98 -5 17 C-5.33 16.34 -5.66 15.68 -6 15 C-5.09239638 12.40267775 -4.12932108 9.90549025 -3.0625 7.375 C-2.77181641 6.66859375 -2.48113281 5.9621875 -2.18164062 5.234375 C-1.46132512 3.48672427 -0.73154306 1.74298085 0 0 Z " fill="#18497D" transform="translate(233,29)"/>
<path d="M0 0 C3.77102285 -0.05382903 7.54128134 -0.09359187 11.3125 -0.125 C12.38435547 -0.14175781 13.45621094 -0.15851562 14.56054688 -0.17578125 C15.58857422 -0.18222656 16.61660156 -0.18867187 17.67578125 -0.1953125 C18.62364502 -0.20578613 19.57150879 -0.21625977 20.5480957 -0.22705078 C23 0 23 0 26 2 C26.3984375 4.09375 26.3984375 4.09375 26.375 6.5 C26.38273437 7.2940625 26.39046875 8.088125 26.3984375 8.90625 C26.26695313 9.5971875 26.13546875 10.288125 26 11 C22.64880481 13.23413013 21.5822245 13.23847762 17.67578125 13.1953125 C16.13374023 13.18564453 16.13374023 13.18564453 14.56054688 13.17578125 C13.48869141 13.15902344 12.41683594 13.14226563 11.3125 13.125 C10.22904297 13.11597656 9.14558594 13.10695313 8.02929688 13.09765625 C5.35277052 13.07407452 2.67635759 13.03820336 0 13 C0 8.71 0 4.42 0 0 Z M1 1 C1 4.63 1 8.26 1 12 C8.26 12 15.52 12 23 12 C24.14352916 9.71294169 24.10334439 8.40735238 24.0625 5.875 C24.041875 4.59625 24.02125 3.3175 24 2 C21.54724859 0.7736243 19.9494219 0.88584686 17.2109375 0.90234375 C15.79941406 0.90717773 15.79941406 0.90717773 14.359375 0.91210938 C13.37453125 0.92048828 12.3896875 0.92886719 11.375 0.9375 C9.88613281 0.94426758 9.88613281 0.94426758 8.3671875 0.95117188 C5.91143278 0.96297839 3.45570894 0.98091418 1 1 Z " fill="#C72436" transform="translate(87,49)"/>
<path d="M0 0 C2.95409701 1.37154504 5.44008376 2.98863724 8 5 C7.79375 5.86625 7.5875 6.7325 7.375 7.625 C6.95952378 11.36428602 7.60333724 13.54942141 9 17 C10.918125 17.0309375 10.918125 17.0309375 12.875 17.0625 C13.59429687 17.07410156 14.31359375 17.08570312 15.0546875 17.09765625 C17.08185404 17.12649242 17.08185404 17.12649242 19 16 C18.67 16.99 18.34 17.98 18 19 C16.39815374 19.1352403 14.79303374 19.23210847 13.1875 19.3125 C12.29417969 19.37050781 11.40085938 19.42851563 10.48046875 19.48828125 C8 19 8 19 6.34375 16.83203125 C5.9003125 15.89746094 5.456875 14.96289062 5 14 C4.54238281 13.07960938 4.08476562 12.15921875 3.61328125 11.2109375 C3.18402344 10.27507812 2.75476563 9.33921875 2.3125 8.375 C1.87550781 7.43398438 1.43851563 6.49296875 0.98828125 5.5234375 C0 3 0 3 0 0 Z " fill="#105093" transform="translate(208,55)"/>
<path d="M0 0 C12.87 0 25.74 0 39 0 C39 3.63 39 7.26 39 11 C38 12 38 12 35.27734375 12.09765625 C33.62412109 12.08025391 33.62412109 12.08025391 31.9375 12.0625 C30.83277344 12.05347656 29.72804687 12.04445313 28.58984375 12.03515625 C27.73519531 12.02355469 26.88054687 12.01195312 26 12 C26 11.67 26 11.34 26 11 C26.62648437 10.93941406 27.25296875 10.87882812 27.8984375 10.81640625 C28.71570313 10.73261719 29.53296875 10.64882813 30.375 10.5625 C31.18710938 10.48128906 31.99921875 10.40007813 32.8359375 10.31640625 C35.04272805 10.10909886 35.04272805 10.10909886 37 9 C37.33 6.36 37.66 3.72 38 1 C25.46 1 12.92 1 0 1 C0 0.67 0 0.34 0 0 Z " fill="#19497B" transform="translate(126,29)"/>
<path d="M0 0 C0.66 0 1.32 0 2 0 C2.125 2.875 2.125 2.875 2 6 C1.34 6.66 0.68 7.32 0 8 C0 9.32 0 10.64 0 12 C-0.99 12 -1.98 12 -3 12 C-3.33 12.99 -3.66 13.98 -4 15 C-5 13 -5 13 -4.00390625 9.9609375 C-3.52824219 8.77757812 -3.05257812 7.59421875 -2.5625 6.375 C-2.08941406 5.18648437 -1.61632812 3.99796875 -1.12890625 2.7734375 C-0.75636719 1.85820313 -0.38382813 0.94296875 0 0 Z " fill="#124F8F" transform="translate(232,31)"/>
<path d="M0 0 C0.91007812 0.00902344 1.82015625 0.01804687 2.7578125 0.02734375 C3.45648438 0.03894531 4.15515625 0.05054687 4.875 0.0625 C4.545 0.7225 4.215 1.3825 3.875 2.0625 C1.895 2.0625 -0.085 2.0625 -2.125 2.0625 C-2.455 2.7225 -2.785 3.3825 -3.125 4.0625 C-3.125 3.4025 -3.125 2.7425 -3.125 2.0625 C-4.115 2.0625 -5.105 2.0625 -6.125 2.0625 C-5.795 5.0325 -5.465 8.0025 -5.125 11.0625 C-5.785 11.0625 -6.445 11.0625 -7.125 11.0625 C-7.125 7.7625 -7.125 4.4625 -7.125 1.0625 C-4.60024538 -0.19987731 -2.81299534 -0.03606404 0 0 Z " fill="#D21833" transform="translate(57.125,28.9375)"/>
<path d="M0 0 C6.27 0 12.54 0 19 0 C19 0.33 19 0.66 19 1 C18.00097656 1.06058594 17.00195312 1.12117188 15.97265625 1.18359375 C14.68230469 1.26738281 13.39195313 1.35117188 12.0625 1.4375 C10.77472656 1.51871094 9.48695312 1.59992188 8.16015625 1.68359375 C5.13976043 1.64919188 5.13976043 1.64919188 4 3 C2.33382885 3.04063832 0.66611905 3.042721 -1 3 C-0.67 2.01 -0.34 1.02 0 0 Z " fill="#F1051F" transform="translate(92,71)"/>
<path d="M0 0 C1 2 2 4 3 6 C1.68 6.33 0.36 6.66 -1 7 C-1 8.32 -1 9.64 -1 11 C-1.99 11.33 -2.98 11.66 -4 12 C-3.52309796 10.37433394 -3.04340334 8.74948689 -2.5625 7.125 C-2.29566406 6.22007813 -2.02882812 5.31515625 -1.75390625 4.3828125 C-1 2 -1 2 0 0 Z " fill="#155292" transform="translate(226,46)"/>
<path d="M0 0 C1.77706209 2.66559313 2.87548273 5.0280615 4 8 C3.01 8.99 2.02 9.98 1 11 C1 10.01 1 9.02 1 8 C0.34 8 -0.32 8 -1 8 C-1.33 7.01 -1.66 6.02 -2 5 C-1.34 5 -0.68 5 0 5 C0 3.35 0 1.7 0 0 Z " fill="#0F5298" transform="translate(218,53)"/>
<path d="M0 0 C1.32 0.33 2.64 0.66 4 1 C4 3.97 4 6.94 4 10 C3.01 10.33 2.02 10.66 1 11 C1.33 7.7 1.66 4.4 2 1 C1.34 0.67 0.68 0.34 0 0 Z " fill="#CD1E35" transform="translate(109,50)"/>
<path d="M0 0 C0.33 0 0.66 0 1 0 C1.09765625 6.15234375 1.09765625 6.15234375 1 8 C0 9 0 9 -2.72265625 9.09765625 C-4.37587891 9.08025391 -4.37587891 9.08025391 -6.0625 9.0625 C-7.16722656 9.05347656 -8.27195313 9.04445313 -9.41015625 9.03515625 C-10.69212891 9.01775391 -10.69212891 9.01775391 -12 9 C-12 8.67 -12 8.34 -12 8 C-11.06027344 7.90912109 -11.06027344 7.90912109 -10.1015625 7.81640625 C-8.87566406 7.69072266 -8.87566406 7.69072266 -7.625 7.5625 C-6.81289062 7.48128906 -6.00078125 7.40007813 -5.1640625 7.31640625 C-2.95727195 7.10909886 -2.95727195 7.10909886 -1 6 C-0.34227572 2.97065509 -0.34227572 2.97065509 0 0 Z " fill="#1F5082" transform="translate(164,32)"/>
</svg>
