<?xml version="1.0" encoding="UTF-8"?>
<svg version="1.1" xmlns="http://www.w3.org/2000/svg" width="297" height="110">
<path d="M0 0 C6.875 0.875 6.875 0.875 8 2 C8.11053149 4.39954161 8.16158382 6.77517888 8.17578125 9.17578125 C8.19898521 10.65821724 8.22310278 12.14063915 8.24804688 13.62304688 C8.2831383 15.96681033 8.312486 18.31005881 8.32592773 20.65405273 C8.34142044 22.9119357 8.38164183 25.16830019 8.42578125 27.42578125 C8.42387283 28.12383377 8.42196442 28.82188629 8.41999817 29.54109192 C8.50542607 32.94534825 8.79076816 34.72770681 10.890625 37.46044922 C12.88060767 39.19065699 12.88060767 39.19065699 15.32421875 39.20703125 C16.10410156 39.07683594 16.88398437 38.94664063 17.6875 38.8125 C18.47511719 38.69519531 19.26273438 38.57789063 20.07421875 38.45703125 C21.99607325 38.17883348 21.99607325 38.17883348 23 37 C23.1353109 34.43175724 23.21051939 31.88656373 23.24609375 29.31640625 C23.27902828 27.73371835 23.31224 26.15103619 23.34570312 24.56835938 C23.39317606 22.06213294 23.43760276 19.5559305 23.47680664 17.04956055 C23.51642951 14.63825963 23.56799484 12.22744268 23.62109375 9.81640625 C23.6295079 9.0642836 23.63792206 8.31216095 23.64659119 7.5372467 C23.77332648 2.22667352 23.77332648 2.22667352 26 0 C29.125 -0.125 29.125 -0.125 32 0 C32.07429915 5.32020022 32.12867247 10.64009669 32.16479492 15.96069336 C32.17985755 17.76966617 32.20031177 19.5786026 32.22631836 21.38745117 C32.2628132 23.99146515 32.27975157 26.5949952 32.29296875 29.19921875 C32.30845261 30.00461594 32.32393646 30.81001312 32.33988953 31.63981628 C32.34166052 37.5829918 30.99820868 40.75201524 27 45.25 C21.9722368 48.18286187 16.34856705 48.67861326 10.6484375 47.5234375 C6.60324008 46.14473726 3.62998596 44.36638202 1 41 C-0.29487016 37.11538953 -0.1232604 33.44116044 -0.09765625 29.39453125 C-0.0962413 28.55532639 -0.09482635 27.71612152 -0.09336853 26.85148621 C-0.08777215 24.17178784 -0.07522035 21.4921731 -0.0625 18.8125 C-0.05748453 16.99544392 -0.05292171 15.17838652 -0.04882812 13.36132812 C-0.03780391 8.90751987 -0.02054178 4.45377411 0 0 Z " fill="#B90A1E" transform="translate(44,24)"/>
<path d="M0 0 C1.92005859 0.01933594 1.92005859 0.01933594 3.87890625 0.0390625 C7.16850322 0.34960623 9.4811337 0.95639813 12.4375 2.375 C12.4375 5.015 12.4375 7.655 12.4375 10.375 C11.468125 10.21 10.49875 10.045 9.5 9.875 C3.77190494 9.06002713 -1.96152466 8.78194607 -7.5625 10.375 C-7.5625 13.015 -7.5625 15.655 -7.5625 18.375 C-6.25925781 18.53935547 -6.25925781 18.53935547 -4.9296875 18.70703125 C8.84593214 20.60233462 8.84593214 20.60233462 13.05859375 25.109375 C15.69837975 29.44670043 15.02090571 34.47832514 14.4375 39.375 C12.10530134 44.48789707 9.55975083 46.28793622 4.4375 48.375 C1.654044 48.6336028 -0.85674251 48.75211852 -3.625 48.6875 C-4.31916016 48.69072266 -5.01332031 48.69394531 -5.72851562 48.69726562 C-9.76800861 48.65506769 -12.92810791 48.15323083 -16.5625 46.375 C-16.5625 43.405 -16.5625 40.435 -16.5625 37.375 C-15.634375 37.705 -14.70625 38.035 -13.75 38.375 C-8.21109349 39.94624083 -1.55607962 40.76398083 3.76953125 38.29296875 C5.81307061 36.33285012 5.81307061 36.33285012 5.6875 32.6875 C5.605 31.594375 5.5225 30.50125 5.4375 29.375 C3.91769531 29.13716797 3.91769531 29.13716797 2.3671875 28.89453125 C-10.97905153 26.63248501 -10.97905153 26.63248501 -15.5625 21.375 C-16.82487731 18.85024538 -16.66106404 17.06299534 -16.625 14.25 C-16.61597656 13.33992188 -16.60695312 12.42984375 -16.59765625 11.4921875 C-16.58605469 10.79351562 -16.57445312 10.09484375 -16.5625 9.375 C-15.9025 9.045 -15.2425 8.715 -14.5625 8.375 C-14.2325 9.035 -13.9025 9.695 -13.5625 10.375 C-13.748125 9.01375 -13.748125 9.01375 -13.9375 7.625 C-13.5625 4.375 -13.5625 4.375 -11.01171875 2.1953125 C-6.9989041 0.07756434 -4.50810588 -0.10007904 0 0 Z " fill="#07365D" transform="translate(200.5625,22.625)"/>
<path d="M0 0 C2.31 0 4.62 0 7 0 C7 0.66 7 1.32 7 2 C7.66 1.67 8.32 1.34 9 1 C14.31394261 0.40100486 18.57384143 0.01042058 23.0625 3.125 C26.89696585 8.81485255 27.77322636 14.26355821 27 21 C25.87988347 24.9817841 24.25759955 28.36651999 21 31 C18.87890625 31.546875 18.87890625 31.546875 16.5625 31.75 C15.80066406 31.82734375 15.03882813 31.9046875 14.25390625 31.984375 C12 32 12 32 8 31 C8 36.28 8 41.56 8 47 C5.36 47 2.72 47 0 47 C0 31.49 0 15.98 0 0 Z M8 9 C7.97314588 11.31243792 7.95367159 13.6249627 7.9375 15.9375 C7.92589844 17.22527344 7.91429688 18.51304688 7.90234375 19.83984375 C7.63467451 22.86298403 7.63467451 22.86298403 9 24 C12.45821402 24.25003964 12.45821402 24.25003964 16 24 C18.28027649 22.14362178 18.28027649 22.14362178 18.265625 19.25 C18.26046875 18.1775 18.2553125 17.105 18.25 16 C18.25515625 14.9275 18.2603125 13.855 18.265625 12.75 C18.28027649 9.85637822 18.28027649 9.85637822 16 8 C11.85490567 7.71397838 11.85490567 7.71397838 8 9 Z " fill="#02365F" transform="translate(116,40)"/>
<path d="M0 0 C2.32891212 3.49336818 2.23551143 4.86007865 2.1953125 8.98046875 C2.18886719 10.14384766 2.18242187 11.30722656 2.17578125 12.50585938 C2.15902344 13.72080078 2.14226562 14.93574219 2.125 16.1875 C2.11597656 17.41404297 2.10695312 18.64058594 2.09765625 19.90429688 C2.07406017 22.93639295 2.04113841 25.96809938 2 29 C-1.34252724 29.07427838 -3.8035914 29.06546953 -7 28 C-7.66 28.33 -8.32 28.66 -9 29 C-14.24768331 29.34411038 -17.81689172 29.5679453 -22 26 C-23.89441323 22.90005108 -24.00323683 21.09224952 -23.875 17.4375 C-22.88246992 13.53827467 -22.11822045 12.45444085 -19 10 C-15.765625 9.171875 -15.765625 9.171875 -12.25 8.75 C-11.07953125 8.60046875 -9.9090625 8.4509375 -8.703125 8.296875 C-7.81109375 8.19890625 -6.9190625 8.1009375 -6 8 C-6.33 7.34 -6.66 6.68 -7 6 C-11.62 6 -16.24 6 -21 6 C-21 3.69 -21 1.38 -21 -1 C-13.23722984 -3.53478209 -7.34073501 -3.88627148 0 0 Z M-11.0625 15 C-12.16271484 15.2784375 -12.16271484 15.2784375 -13.28515625 15.5625 C-14.13400391 15.7790625 -14.13400391 15.7790625 -15 16 C-14.67 17.65 -14.34 19.3 -14 21 C-12.20800528 21.78282648 -12.20800528 21.78282648 -10 22 C-7.65373496 20.99033641 -7.65373496 20.99033641 -6 19 C-5.66574265 16.37374861 -5.66574265 16.37374861 -6 14 C-7.73827229 14 -9.38503224 14.57397644 -11.0625 15 Z " fill="#06365D" transform="translate(240,42)"/>
<path d="M0 0 C7 0 7 0 10 1 C11.62591892 0.96968626 13.2513634 0.90379871 14.875 0.8125 C18.52191099 0.7752323 19.80277794 0.88730168 23.0625 2.75 C26.14928579 6.33465446 26.12449653 9.58659688 26.09765625 14.203125 C26.09443359 15.1828125 26.09121094 16.1625 26.08789062 17.171875 C26.07951172 18.18765625 26.07113281 19.2034375 26.0625 20.25 C26.05798828 21.28125 26.05347656 22.3125 26.04882812 23.375 C26.03706088 25.91672573 26.02062011 28.45833319 26 31 C23.03 31 20.06 31 17 31 C16.67 23.74 16.34 16.48 16 9 C13.69 9 11.38 9 9 9 C9 16.26 9 23.52 9 31 C6.03 31 3.06 31 0 31 C0 20.77 0 10.54 0 0 Z " fill="#08365B" transform="translate(78,40)"/>
<path d="M0 0 C3.53638723 3.31536303 4.83288105 6.0756097 5.28515625 10.9453125 C5.58725794 22.47771608 5.58725794 22.47771608 2 26.875 C-2.72860692 29.60304246 -6.57979122 30.4662955 -12 29.875 C-15.39989276 28.63273149 -17.42389869 27.53056355 -19.8125 24.8125 C-22.61432572 17.88166796 -22.70275679 10.80815872 -20 3.875 C-14.78178664 -2.54741644 -7.56523672 -2.83696377 0 0 Z M-11 5.875 C-13.28585786 7.73046904 -13.28585786 7.73046904 -13.23046875 10.625 C-13.21628906 11.6975 -13.20210937 12.77 -13.1875 13.875 C-13.18105469 14.9475 -13.17460937 16.02 -13.16796875 17.125 C-13.18263423 19.83627498 -13.18263423 19.83627498 -12 21.875 C-9.49259191 22.91254817 -8.38022998 23.01622828 -5.8125 22.0625 C-3.84977807 20.99378013 -3.84977807 20.99378013 -3 18.875 C-2.9047301 17.39831663 -2.87014041 15.91724543 -2.875 14.4375 C-2.87242187 13.65503906 -2.86984375 12.87257813 -2.8671875 12.06640625 C-2.91617452 9.69604653 -2.91617452 9.69604653 -4 6.875 C-7.40320934 6.19826553 -7.40320934 6.19826553 -11 5.875 Z " fill="#07365B" transform="translate(166,42.125)"/>
<path d="M0 0 C0.94875 0.04125 1.8975 0.0825 2.875 0.125 C2.94929915 5.44520022 3.00367247 10.76509669 3.03979492 16.08569336 C3.05485755 17.89466617 3.07531177 19.7036026 3.10131836 21.51245117 C3.1378132 24.11646515 3.15475157 26.7199952 3.16796875 29.32421875 C3.18345261 30.12961594 3.19893646 30.93501312 3.21488953 31.76481628 C3.21666052 37.7079918 1.87320868 40.87701524 -2.125 45.375 C-6.49526895 47.92432355 -11.09325212 48.36807961 -16.125 48.125 C-16.785 47.465 -17.445 46.805 -18.125 46.125 C-17.465 46.125 -16.805 46.125 -16.125 46.125 C-16.125 45.465 -16.125 44.805 -16.125 44.125 C-13.155 43.63 -13.155 43.63 -10.125 43.125 C-10.125 41.805 -10.125 40.485 -10.125 39.125 C-8.805 38.465 -7.485 37.805 -6.125 37.125 C-6.095271 35.55032959 -6.095271 35.55032959 -6.06494141 33.94384766 C-5.98897802 30.05606739 -5.90024702 26.16866597 -5.80761719 22.28125 C-5.76928896 20.59740671 -5.73444288 18.91348045 -5.703125 17.22949219 C-5.65755713 14.81154694 -5.59955077 12.39417472 -5.5390625 9.9765625 C-5.52173569 8.84367294 -5.52173569 8.84367294 -5.50405884 7.68789673 C-5.29201867 0.21168075 -5.29201867 0.21168075 0 0 Z " fill="#023661" transform="translate(73.125,23.875)"/>
<path d="M0 0 C2.875 -0.125 2.875 -0.125 6 0 C8 2 8 2 8.24050903 3.94888306 C8.23606781 4.743862 8.23162659 5.53884094 8.22705078 6.35791016 C8.22682419 7.70908432 8.22682419 7.70908432 8.22659302 9.08755493 C8.21627045 10.06155243 8.20594788 11.03554993 8.1953125 12.0390625 C8.1924826 13.03505463 8.18965271 14.03104675 8.18673706 15.05722046 C8.1755184 18.24660118 8.15041081 21.43570378 8.125 24.625 C8.11497238 26.78385012 8.10584615 28.94270463 8.09765625 31.1015625 C8.07557361 36.40113699 8.04207958 41.70054863 8 47 C5.125 47.125 5.125 47.125 2 47 C0 45 0 45 -0.24050903 43.05111694 C-0.23606781 42.256138 -0.23162659 41.46115906 -0.22705078 40.64208984 C-0.22689972 39.74130707 -0.22674866 38.84052429 -0.22659302 37.91244507 C-0.21627045 36.93844757 -0.20594788 35.96445007 -0.1953125 34.9609375 C-0.1924826 33.96494537 -0.18965271 32.96895325 -0.18673706 31.94277954 C-0.1755184 28.75339882 -0.15041081 25.56429622 -0.125 22.375 C-0.11497238 20.21614988 -0.10584615 18.05729537 -0.09765625 15.8984375 C-0.07557361 10.59886301 -0.04207958 5.29945137 0 0 Z " fill="#09375B" transform="translate(173,24)"/>
<path d="M0 0 C2.34214987 2.98729295 4.22277221 6.09434628 6.125 9.375 C10.79503037 16.73890052 16.09410395 20.51312437 24.56898499 22.56742859 C29.32354705 23.41344871 34.12015204 23.36226355 38.9375 23.4140625 C40.05817871 23.43342865 41.17885742 23.4527948 42.33349609 23.4727478 C45.88892163 23.53220132 49.44438013 23.57879186 53 23.625 C55.4205865 23.66321127 57.84115987 23.7022648 60.26171875 23.7421875 C66.17436194 23.83787455 72.08708523 23.92302091 78 24 C78 24.99 78 25.98 78 27 C70.63559928 27.22020283 63.27083168 27.41477184 55.90527344 27.59204102 C53.40284107 27.65523212 50.90054641 27.72415981 48.3984375 27.79907227 C44.78927738 27.90611145 41.18011538 27.99209602 37.5703125 28.07421875 C36.46261505 28.11157639 35.3549176 28.14893402 34.21365356 28.18742371 C23.85391488 28.38524356 15.34080076 26.25989995 7 20 C6.32324219 19.53078125 5.64648438 19.0615625 4.94921875 18.578125 C1.54023323 15.81814474 0.14323225 14.10327546 -0.43359375 9.66015625 C-0.43712288 6.40982924 -0.3064559 3.23481226 0 0 Z " fill="#138640" transform="translate(29,54)"/>
<path d="M0 0 C4.875 1.75 4.875 1.75 6 4 C6.50761444 9.55879415 6.71455045 14.43348556 4.375 19.5625 C0.65700189 23.37834017 -2.58681119 24.86870474 -7.91015625 25.36328125 C-9.29437371 25.3619692 -10.67865888 25.34480255 -12.0625 25.3125 C-12.75666016 25.31572266 -13.45082031 25.31894531 -14.16601562 25.32226562 C-18.20550861 25.28006769 -21.36560791 24.77823083 -25 23 C-25 20.03 -25 17.06 -25 14 C-24.071875 14.33 -23.14375 14.66 -22.1875 15 C-17.26146219 16.39738624 -12.0672283 16.72167264 -7 16 C-4.81814289 14.54505269 -4.81814289 14.54505269 -3 13 C-2.34 13 -1.68 13 -1 13 C-1.01160156 12.14535156 -1.02320313 11.29070313 -1.03515625 10.41015625 C-1.04417969 9.30542969 -1.05320313 8.20070313 -1.0625 7.0625 C-1.07410156 5.96035156 -1.08570313 4.85820313 -1.09765625 3.72265625 C-1 1 -1 1 0 0 Z " fill="#06365C" transform="translate(209,46)"/>
<path d="M0 0 C2.97 0 5.94 0 9 0 C9 10.23 9 20.46 9 31 C6.69 31 4.38 31 2 31 C-0.39112209 27.41331687 -0.23381027 25.83603431 -0.1953125 21.58203125 C-0.18886719 20.32841797 -0.18242187 19.07480469 -0.17578125 17.78320312 C-0.15902344 16.47287109 -0.14226562 15.16253906 -0.125 13.8125 C-0.11496639 12.47722013 -0.1058412 11.14193311 -0.09765625 9.80664062 C-0.07405292 6.53757985 -0.04112594 3.26887972 0 0 Z " fill="#04345A" transform="translate(244,40)"/>
<path d="M0 0 C1.8253125 0.680625 1.8253125 0.680625 3.6875 1.375 C13.8722301 4.74665821 24.43100743 5.30362933 35.08203125 5.4140625 C36.26222336 5.43342865 37.44241547 5.4527948 38.65837097 5.4727478 C42.37634368 5.53186138 46.09434852 5.57865285 49.8125 5.625 C52.35483017 5.66324271 54.89714826 5.70229795 57.43945312 5.7421875 C63.62619369 5.83750558 69.81300888 5.92274619 76 6 C76 6.99 76 7.98 76 9 C67.41973523 9.04650607 58.83952384 9.08196151 50.25916386 9.10362434 C46.27421147 9.11402564 42.28934584 9.12811741 38.30444336 9.15087891 C34.45298354 9.17273849 30.60160675 9.18459606 26.75008965 9.18975449 C25.28661227 9.19342684 23.82313901 9.20059754 22.35969734 9.21146011 C14.65188038 9.26635498 7.47099648 9.09115543 0 7 C0 4.69 0 2.38 0 0 Z " fill="#CB1E2B" transform="translate(31,78)"/>
<path d="M0 0 C2.64 0 5.28 0 8 0 C8 10.23 8 20.46 8 31 C6.02 31 4.04 31 2 31 C0 29 0 29 -0.22705078 26.11083984 C-0.21657715 24.90637207 -0.20610352 23.7019043 -0.1953125 22.4609375 C-0.18564453 20.50800781 -0.18564453 20.50800781 -0.17578125 18.515625 C-0.15906929 17.13541405 -0.14213939 15.75520571 -0.125 14.375 C-0.11497006 12.98698548 -0.10584423 11.59896411 -0.09765625 10.2109375 C-0.07401863 6.80711974 -0.04106867 3.40364494 0 0 Z " fill="#013660" transform="translate(106,40)"/>
<path d="M0 0 C1.92005859 0.01933594 1.92005859 0.01933594 3.87890625 0.0390625 C7.16850322 0.34960623 9.4811337 0.95639813 12.4375 2.375 C12.4375 5.015 12.4375 7.655 12.4375 10.375 C11.468125 10.21 10.49875 10.045 9.5 9.875 C3.99133131 9.09124632 -2.24120317 8.45565535 -7.5625 10.375 C-8.85910434 12.86534386 -8.85910434 12.86534386 -9.5625 15.375 C-9.8925 14.715 -10.2225 14.055 -10.5625 13.375 C-11.2225 13.375 -11.8825 13.375 -12.5625 13.375 C-12.8925 10.405 -13.2225 7.435 -13.5625 4.375 C-8.9002091 0.72875704 -6.0882782 -0.13515855 0 0 Z " fill="#B50C1E" transform="translate(200.5625,22.625)"/>
<path d="M0 0 C2.31 0 4.62 0 7 0 C7 0.66 7 1.32 7 2 C7.66 1.67 8.32 1.34 9 1 C18.2808091 -0.04614595 18.2808091 -0.04614595 21.8359375 2.1171875 C23.1875 3.5 23.1875 3.5 25 6 C24.67 6.66 24.34 7.32 24 8 C23.649375 7.34 23.29875 6.68 22.9375 6 C21.04613637 3.61977267 21.04613637 3.61977267 17.4375 3.625 C13.93889246 3.64360592 13.93889246 3.64360592 12 6 C14.97 6.495 14.97 6.495 18 7 C18.33 7.99 18.66 8.98 19 10 C18.37351563 9.9278125 17.74703125 9.855625 17.1015625 9.78125 C15.87566406 9.64203125 15.87566406 9.64203125 14.625 9.5 C13.81289062 9.4071875 13.00078125 9.314375 12.1640625 9.21875 C10.03087175 8.96647649 10.03087175 8.96647649 8 9 C8 12.3 8 15.6 8 19 C7.67 19 7.34 19 7 19 C7 16.69 7 14.38 7 12 C6.34 11.67 5.68 11.34 5 11 C5 8 5 5 5 2 C3.68 2 2.36 2 1 2 C1 16.52 1 31.04 1 46 C2.98 46 4.96 46 7 46 C7 41.05 7 36.1 7 31 C7.33 31 7.66 31 8 31 C8 36.28 8 41.56 8 47 C5.36 47 2.72 47 0 47 C0 31.49 0 15.98 0 0 Z " fill="#103A5A" transform="translate(116,40)"/>
<path d="M0 0 C1.98 0 3.96 0 6 0 C6 12.54 6 25.08 6 38 C5.67 38 5.34 38 5 38 C5 25.79 5 13.58 5 1 C3.68 1 2.36 1 1 1 C1 1.66 1 2.32 1 3 C0.34 3 -0.32 3 -1 3 C-1 15.54 -1 28.08 -1 41 C1.97 40.505 1.97 40.505 5 40 C1.44200779 44.95962551 -0.75545346 46.90446552 -7 48 C-10.3125 48.25 -10.3125 48.25 -13 48 C-13.66 47.34 -14.32 46.68 -15 46 C-14.34 46 -13.68 46 -13 46 C-13 45.34 -13 44.68 -13 44 C-10.03 43.505 -10.03 43.505 -7 43 C-7 41.68 -7 40.36 -7 39 C-5.68 38.34 -4.36 37.68 -3 37 C-2.970271 35.42532959 -2.970271 35.42532959 -2.93994141 33.81884766 C-2.86397802 29.93106739 -2.77524702 26.04366597 -2.68261719 22.15625 C-2.64428896 20.47240671 -2.60944288 18.78848045 -2.578125 17.10449219 C-2.53255713 14.68654694 -2.47455077 12.26917472 -2.4140625 9.8515625 C-2.39673569 8.71867294 -2.39673569 8.71867294 -2.37905884 7.56289673 C-2.22774341 2.22774341 -2.22774341 2.22774341 0 0 Z " fill="#103959" transform="translate(70,24)"/>
<path d="M0 0 C16.83 0 33.66 0 51 0 C51 0.99 51 1.98 51 3 C33.84 3.33 16.68 3.66 -1 4 C-0.67 2.68 -0.34 1.36 0 0 Z " fill="#1B783E" transform="translate(56,78)"/>
<path d="M0 0 C1.20946289 0.02361099 2.41892578 0.04722198 3.66503906 0.07154846 C7.50599139 0.14776596 11.34672044 0.23196972 15.1875 0.31640625 C17.80077054 0.36966892 20.41405178 0.42240899 23.02734375 0.47460938 C29.4141989 0.60332406 35.80088985 0.73858594 42.1875 0.87890625 C42.1875 1.86890625 42.1875 2.85890625 42.1875 3.87890625 C34.26845432 3.79461753 26.34963604 3.69977969 18.43088722 3.59137917 C14.75409359 3.54138073 11.07732918 3.49505132 7.40039062 3.45703125 C3.85356297 3.42022279 0.30697779 3.37387558 -3.2396431 3.32084274 C-4.5944151 3.30227503 -5.94923913 3.28717587 -7.30408859 3.27556229 C-9.19810856 3.25874116 -11.09199588 3.22857009 -12.98583984 3.19775391 C-14.06505707 3.18443024 -15.14427429 3.17110657 -16.25619507 3.15737915 C-18.8125 2.87890625 -18.8125 2.87890625 -20.8125 0.87890625 C-13.83211855 -0.22855811 -7.05441061 -0.16416059 0 0 Z " fill="#CE0B1E" transform="translate(64.8125,83.12109375)"/>
<path d="M0 0 C0.66 0.33 1.32 0.66 2 1 C1.67 2.98 1.34 4.96 1 7 C1.66 6.67 2.32 6.34 3 6 C3 12.27 3 18.54 3 25 C1.35 25 -0.3 25 -2 25 C-3 24 -3 24 -3.09765625 20.69140625 C-3.09098149 19.31507046 -3.07902012 17.93875283 -3.0625 16.5625 C-3.05798828 15.86833984 -3.05347656 15.17417969 -3.04882812 14.45898438 C-3.0364972 12.63929191 -3.01858882 10.8196393 -3 9 C-3 8.34 -3 7.68 -3 7 C-2.29411765 2.29411765 -2.29411765 2.29411765 0 0 Z " fill="#013661" transform="translate(100,45)"/>
<path d="M0 0 C0.680625 0.639375 1.36125 1.27875 2.0625 1.9375 C5.46408839 4.3258493 7.90433701 4.67877153 12 5 C12 5.99 12 6.98 12 8 C9.03 8.66 6.06 9.32 3 10 C3 10.66 3 11.32 3 12 C-1.43090471 10.79157144 -3.98112756 9.48331435 -7 6 C-6.67 5.01 -6.34 4.02 -6 3 C-4.68 3 -3.36 3 -2 3 C-1.34 2.01 -0.68 1.02 0 0 Z " fill="#BC0217" transform="translate(52,59)"/>
<path d="M0 0 C2.64 0 5.28 0 8 0 C8 10.23 8 20.46 8 31 C6.02 31 4.04 31 2 31 C0 29 0 29 -0.22705078 26.11083984 C-0.21657715 24.90637207 -0.20610352 23.7019043 -0.1953125 22.4609375 C-0.18564453 20.50800781 -0.18564453 20.50800781 -0.17578125 18.515625 C-0.15906929 17.13541405 -0.14213939 15.75520571 -0.125 14.375 C-0.11497006 12.98698548 -0.10584423 11.59896411 -0.09765625 10.2109375 C-0.07401863 6.80711974 -0.04106867 3.40364494 0 0 Z M1 1 C1 9.58 1 18.16 1 27 C1.33 26.34 1.66 25.68 2 25 C3.32 25.99 4.64 26.98 6 28 C7.3308911 25.33821779 7.11268993 23.31260604 7.09765625 20.3359375 C7.09443359 19.21445312 7.09121094 18.09296875 7.08789062 16.9375 C7.07951172 15.761875 7.07113281 14.58625 7.0625 13.375 C7.05798828 12.19164062 7.05347656 11.00828125 7.04882812 9.7890625 C7.03701467 6.85932493 7.02054258 3.92968728 7 1 C5.02 1 3.04 1 1 1 Z " fill="#123B5C" transform="translate(106,40)"/>
<path d="M0 0 C2.4375 0.75 2.4375 0.75 4.4375 2.75 C4.0625 5.875 4.0625 5.875 3.4375 8.75 C0.0625 9.375 0.0625 9.375 -3.5625 9.75 C-5.5625 7.75 -5.5625 7.75 -5.875 4.75 C-5.771875 3.76 -5.66875 2.77 -5.5625 1.75 C-2.5625 -0.25 -2.5625 -0.25 0 0 Z " fill="#043760" transform="translate(110.5625,28.25)"/>
<path d="M0 0 C2.5625 0.1875 2.5625 0.1875 4.5625 2.1875 C4.8125 5.1875 4.8125 5.1875 4.5625 8.1875 C2.5625 10.1875 2.5625 10.1875 0.125 10.5625 C-2.4375 10.1875 -2.4375 10.1875 -4.375 8.5 C-5.4375 6.1875 -5.4375 6.1875 -4.6875 3.5 C-2.91689262 0.22437636 -2.91689262 0.22437636 0 0 Z " fill="#113550" transform="translate(248.4375,27.8125)"/>
<path d="M0 0 C1.32 0 2.64 0 4 0 C4.05422947 1.4370809 4.09289723 2.87475462 4.125 4.3125 C4.14820313 5.11300781 4.17140625 5.91351563 4.1953125 6.73828125 C4 9 4 9 2 12 C-0.1640625 12.51171875 -0.1640625 12.51171875 -2.625 12.6875 C-3.44226563 12.75324219 -4.25953125 12.81898437 -5.1015625 12.88671875 C-5.72804687 12.92410156 -6.35453125 12.96148437 -7 13 C-7.33 12.34 -7.66 11.68 -8 11 C-7.34 11 -6.68 11 -6 11 C-5.67 10.34 -5.34 9.68 -5 9 C-4.34 8.401875 -3.68 7.80375 -3 7.1875 C-0.75749261 4.73475754 -0.36117691 3.25059217 0 0 Z " fill="#023663" transform="translate(164,57)"/>
<path d="M0 0 C-2.50515784 2.50515784 -4.61068165 3.05099086 -8 4 C-9.32 4 -10.64 4 -12 4 C-12.33 6.31 -12.66 8.62 -13 11 C-12.01 10.67 -11.02 10.34 -10 10 C-10 13 -10 13 -11 15 C-10.01 15.99 -9.02 16.98 -8 18 C-8.66 18.33 -9.32 18.66 -10 19 C-12.93642886 16.63191221 -13.93024856 15.27402351 -14.875 11.5625 C-15.00403402 7.88503046 -14.97186957 6.08640454 -13 3 C-8.62483347 0.04930629 -5.20695956 -0.31241757 0 0 Z " fill="#0D3554" transform="translate(231,51)"/>
<path d="M0 0 C9.97289448 -0.3910939 9.97289448 -0.3910939 14 2 C14.33 2.99 14.66 3.98 15 5 C10.38 5 5.76 5 1 5 C0.67 3.35 0.34 1.7 0 0 Z " fill="#023661" transform="translate(220,40)"/>
<path d="M0 0 C1.66666667 1.66666667 3.33333333 3.33333333 5 5 C5.8971875 5.8353125 5.8971875 5.8353125 6.8125 6.6875 C8 8 8 8 8 10 C6.35 9.67 4.7 9.34 3 9 C2.67 8.01 2.34 7.02 2 6 C1.34 6 0.68 6 0 6 C1.81453912 10.49365277 3.01932133 13.39650543 7.25 16 C8.1575 16.33 9.065 16.66 10 17 C8.375 17.8125 8.375 17.8125 6 18 C0.50769231 14.01538462 0.50769231 14.01538462 -1 11 C-1.09534254 9.3146804 -1.12985758 7.62550734 -1.125 5.9375 C-1.12757813 5.03902344 -1.13015625 4.14054687 -1.1328125 3.21484375 C-1 1 -1 1 0 0 Z " fill="#11314E" transform="translate(185,31)"/>
<path d="M0 0 C1.32 0.33 2.64 0.66 4 1 C4.99 0.67 5.98 0.34 7 0 C7 2.97 7 5.94 7 9 C4.69 9 2.38 9 0 9 C0 6.03 0 3.06 0 0 Z " fill="#AC2232" transform="translate(239,78)"/>
<path d="M0 0 C1.98 0 3.96 0 6 0 C7.125 6.75 7.125 6.75 6 9 C4.00045254 9.04254356 1.99958364 9.04080783 0 9 C-1 8 -1 8 -1.125 5.0625 C-1 2 -1 2 0 0 Z M2 3 C2 4.32 2 5.64 2 7 C2.66 7 3.32 7 4 7 C4 5.68 4 4.36 4 3 C3.34 3 2.68 3 2 3 Z " fill="#A62436" transform="translate(229,78)"/>
<path d="M0 0 C1.98 0 3.96 0 6 0 C6.70074844 3.153368 7 5.72724974 7 9 C4.69 9 2.38 9 0 9 C0 6.03 0 3.06 0 0 Z M3 2 C4 4 4 4 4 4 Z " fill="#AB2434" transform="translate(189,78)"/>
<path d="M0 0 C0.99 0 1.98 0 3 0 C3 2.31 3 4.62 3 7 C3.66 7 4.32 7 5 7 C5 4.69 5 2.38 5 0 C5.99 0 6.98 0 8 0 C8.125 6.75 8.125 6.75 7 9 C5.02 9 3.04 9 1 9 C-0.4783226 6.04335481 -0.06032783 3.25770263 0 0 Z " fill="#A42D38" transform="translate(178,78)"/>
<path d="M0 0 C1.2065625 0.0309375 1.2065625 0.0309375 2.4375 0.0625 C3.31640625 6.21484375 3.31640625 6.21484375 3.4375 8.0625 C2.4375 9.0625 2.4375 9.0625 -0.625 9.125 C-1.594375 9.104375 -2.56375 9.08375 -3.5625 9.0625 C-3.66015625 2.91015625 -3.66015625 2.91015625 -3.5625 1.0625 C-2.5625 0.0625 -2.5625 0.0625 0 0 Z " fill="#A32634" transform="translate(155.5625,77.9375)"/>
<path d="M0 0 C1.98 0 3.96 0 6 0 C7.125 6.75 7.125 6.75 6 9 C4.02 9 2.04 9 0 9 C0 6.03 0 3.06 0 0 Z " fill="#9F2834" transform="translate(142,78)"/>
<path d="M0 0 C1.98 0 3.96 0 6 0 C5.125 4.875 5.125 4.875 4 6 C4.99 6.33 5.98 6.66 7 7 C7 7.66 7 8.32 7 9 C4.36 9 1.72 9 -1 9 C-0.649375 8.2575 -0.29875 7.515 0.0625 6.75 C1.04509293 3.8677274 1.0326802 2.78823655 0 0 Z " fill="#AA2733" transform="translate(212,78)"/>
<path d="M0 0 C1.32 0.33 2.64 0.66 4 1 C4.66 3.64 5.32 6.28 6 9 C4.68 8.67 3.36 8.34 2 8 C0.68 8.33 -0.64 8.66 -2 9 C-1.34 6.03 -0.68 3.06 0 0 Z " fill="#A61F2F" transform="translate(202,78)"/>
<path d="M0 0 C0.99 0 1.98 0 3 0 C3.66 2.97 4.32 5.94 5 9 C3.68 8.67 2.36 8.34 1 8 C-0.32 8.33 -1.64 8.66 -3 9 C-2.01 6.03 -1.02 3.06 0 0 Z " fill="#AD2235" transform="translate(133,78)"/>
<path d="M0 0 C3.24303336 4.86455004 2.48145097 10.30631901 2 16 C1.25339036 18.41677109 0.43894811 19.90153401 -1 22 C-1.66 22 -2.32 22 -3 22 C-2.18181818 13.81818182 -2.18181818 13.81818182 0 10 C0.36784131 8.6757713 0.71202981 7.34386088 1 6 C0.34 5.67 -0.32 5.34 -1 5 C-0.67 3.35 -0.34 1.7 0 0 Z " fill="#0E3554" transform="translate(169,47)"/>
<path d="M0 0 C2.4375 0.75 2.4375 0.75 4.4375 2.75 C4.0625 4.875 4.0625 4.875 3.4375 6.75 C2.7775 5.43 2.1175 4.11 1.4375 2.75 C0.1175 3.08 -1.2025 3.41 -2.5625 3.75 C-2.8925 5.07 -3.2225 6.39 -3.5625 7.75 C-1.9125 8.08 -0.2625 8.41 1.4375 8.75 C1.4375 9.08 1.4375 9.41 1.4375 9.75 C-0.9375 9.875 -0.9375 9.875 -3.5625 9.75 C-5.5625 7.75 -5.5625 7.75 -5.875 4.75 C-5.771875 3.76 -5.66875 2.77 -5.5625 1.75 C-2.5625 -0.25 -2.5625 -0.25 0 0 Z " fill="#133652" transform="translate(110.5625,28.25)"/>
<path d="M0 0 C2.625 -0.1875 2.625 -0.1875 5 0 C5 0.99 5 1.98 5 3 C4.01 3 3.02 3 2 3 C2 3.99 2 4.98 2 6 C2.99 6.33 3.98 6.66 5 7 C5 7.66 5 8.32 5 9 C3.02 9 1.04 9 -1 9 C-1.625 6.1875 -1.625 6.1875 -2 3 C-1.34 2.01 -0.68 1.02 0 0 Z " fill="#A52A3A" transform="translate(170,78)"/>
<path d="M0 0 C1.69242399 2.95502601 2.27328801 5.09995022 2.25 8.5 C2.25515625 9.2528125 2.2603125 10.005625 2.265625 10.78125 C1.97250404 13.2296721 1.21816769 14.87304054 0 17 C-0.309375 16.05125 -0.61875 15.1025 -0.9375 14.125 C-1.87394742 11.13919592 -1.87394742 11.13919592 -3 9 C-2.34 8.01 -1.68 7.02 -1 6 C-0.60986284 4.0103005 -0.26797351 2.00980131 0 0 Z " fill="#0C3555" transform="translate(141,48)"/>
<path d="M0 0 C-2.49031084 2.07525903 -4.29089974 3.00649557 -7.55859375 2.9765625 C-10.05338223 2.71469818 -12.52365349 2.39910051 -15 2 C-15 1.67 -15 1.34 -15 1 C-13.06697628 0.4425699 -11.12835147 -0.09546757 -9.1875 -0.625 C-8.10855469 -0.92664063 -7.02960938 -1.22828125 -5.91796875 -1.5390625 C-3 -2 -3 -2 0 0 Z " fill="#0C3356" transform="translate(139,69)"/>
<path d="M0 0 C1.98 0 3.96 0 6 0 C6 1.98 6 3.96 6 6 C4.35 6.33 2.7 6.66 1 7 C0.67 4.69 0.34 2.38 0 0 Z " fill="#BF0316" transform="translate(205,25)"/>
<path d="M0 0 C1.32 0.33 2.64 0.66 4 1 C4 2.32 4 3.64 4 5 C6.64 5.33 9.28 5.66 12 6 C11.01 6.495 11.01 6.495 10 7 C10 7.66 10 8.32 10 9 C5.61633881 7.80445604 2.84621677 6.6125059 0 3 C0 2.01 0 1.02 0 0 Z " fill="#9A2230" transform="translate(45,62)"/>
<path d="M0 0 C0.33 0 0.66 0 1 0 C1.63019694 10.97592998 1.63019694 10.97592998 -1 15.25 C-1.66 15.8275 -2.32 16.405 -3 17 C-3.66 16.67 -4.32 16.34 -5 16 C-5 14.68 -5 13.36 -5 12 C-4.35546875 11.77570312 -3.7109375 11.55140625 -3.046875 11.3203125 C-0.75611148 10.17110544 -0.75611148 10.17110544 -0.390625 7.6171875 C-0.34421875 6.71226563 -0.2978125 5.80734375 -0.25 4.875 C-0.19328125 3.96492188 -0.1365625 3.05484375 -0.078125 2.1171875 C-0.05234375 1.41851562 -0.0265625 0.71984375 0 0 Z " fill="#263751" transform="translate(68,51)"/>
<path d="M0 0 C6.875 0.875 6.875 0.875 8 2 C8.14115161 4.67058851 8.04247107 7.32432238 8 10 C5.03 9.505 5.03 9.505 2 9 C3.32 8.67 4.64 8.34 6 8 C6 6.02 6 4.04 6 2 C4.35 2 2.7 2 1 2 C0.67 1.34 0.34 0.68 0 0 Z " fill="#9F1D2C" transform="translate(205,23)"/>
<path d="M0 0 C0.99 0 1.98 0 3 0 C3 2.97 3 5.94 3 9 C2.01 9 1.02 9 0 9 C0 6.03 0 3.06 0 0 Z " fill="#A3323F" transform="translate(222,78)"/>
<path d="M0 0 C0.99 0 1.98 0 3 0 C3 2.97 3 5.94 3 9 C2.01 9 1.02 9 0 9 C0 6.03 0 3.06 0 0 Z " fill="#A2343D" transform="translate(162,78)"/>
<path d="M0 0 C2.97 0.33 5.94 0.66 9 1 C9 1.99 9 2.98 9 4 C6.3333581 5.33332095 4.83319697 4.67102033 2 4 C2 3.34 2 2.68 2 2 C1.34 2 0.68 2 0 2 C0 1.34 0 0.68 0 0 Z " fill="#11813B" transform="translate(47,77)"/>
<path d="M0 0 C0.680625 0.639375 1.36125 1.27875 2.0625 1.9375 C5.46408839 4.3258493 7.90433701 4.67877153 12 5 C12 5.99 12 6.98 12 8 C10.68 8.33 9.36 8.66 8 9 C8 8.01 8 7.02 8 6 C7.05125 5.87625 6.1025 5.7525 5.125 5.625 C2 5 2 5 0 3 C0 2.01 0 1.02 0 0 Z " fill="#992032" transform="translate(52,59)"/>
<path d="M0 0 C2.09807945 2.67744188 3.39676766 4.62189888 4 8 C3.01 7.67 2.02 7.34 1 7 C1.66 9.64 2.32 12.28 3 15 C2.01 14.34 1.02 13.68 0 13 C-0.29296875 9.9609375 -0.29296875 9.9609375 -0.1875 6.375 C-0.16042969 5.18648437 -0.13335938 3.99796875 -0.10546875 2.7734375 C-0.07066406 1.85820313 -0.03585938 0.94296875 0 0 Z " fill="#358454" transform="translate(29,54)"/>
<path d="M0 0 C0.99 0.33 1.98 0.66 3 1 C2.67 2.98 2.34 4.96 2 7 C0.68 7 -0.64 7 -2 7 C-1.34 4.69 -0.68 2.38 0 0 Z " fill="#013764" transform="translate(248,30)"/>
<path d="M0 0 C-1 2 -1 2 -2.5625 2.625 C-6.06398181 3.16368951 -9.45806833 3.05903219 -13 3 C-8.48332093 -0.01111938 -5.3360009 -0.10067926 0 0 Z " fill="#0C2D4C" transform="translate(236,68)"/>
<path d="M0 0 C1.98 0 3.96 0 6 0 C6 1.33333333 6 2.66666667 6 4 C3.125 4.125 3.125 4.125 0 4 C-0.66 3.34 -1.32 2.68 -2 2 C-1.34 2 -0.68 2 0 2 C0 1.34 0 0.68 0 0 Z " fill="#2D324A" transform="translate(57,68)"/>
<path d="M0 0 C2.4375 0.75 2.4375 0.75 5 2 C5.8125 4.125 5.8125 4.125 6 6 C4.35 5.67 2.7 5.34 1 5 C0.67 3.35 0.34 1.7 0 0 Z " fill="#463C58" transform="translate(187,35)"/>
<path d="M0 0 C0.99 0 1.98 0 3 0 C3 1.65 3 3.3 3 5 C3.66 5.33 4.32 5.66 5 6 C3.35 6 1.7 6 0 6 C0 4.02 0 2.04 0 0 Z " fill="#B62131" transform="translate(228,80)"/>
<path d="M0 0 C0.99 0 1.98 0 3 0 C3.66 2.97 4.32 5.94 5 9 C4.01 9 3.02 9 2 9 C2 6.36 2 3.72 2 1 C1.34 0.67 0.68 0.34 0 0 Z " fill="#A02A36" transform="translate(133,78)"/>
<path d="M0 0 C0.66 0.33 1.32 0.66 2 1 C1.42655063 3.86724686 1.1385485 4.8614515 -1 7 C-1.66 5.35 -2.32 3.7 -3 2 C-2.01 1.34 -1.02 0.68 0 0 Z " fill="#0A365A" transform="translate(246,30)"/>
<path d="M0 0 C1.9451 2.91765 2.45276317 4.62537285 3 8 C2.01 8 1.02 8 0 8 C0 7.34 0 6.68 0 6 C-0.66 5.67 -1.32 5.34 -2 5 C-1 2 -1 2 0 0 Z " fill="#AC2C3B" transform="translate(205,79)"/>
<path d="M0 0 C2.475 0.495 2.475 0.495 5 1 C4.6875 2.9375 4.6875 2.9375 4 5 C3.01 5.33 2.02 5.66 1 6 C0 5 0 5 -0.0625 2.4375 C-0.041875 1.633125 -0.02125 0.82875 0 0 Z " fill="#A61B22" transform="translate(142,78)"/>
<path d="M0 0 C0.66 0 1.32 0 2 0 C2 2.97 2 5.94 2 9 C1.34 9 0.68 9 0 9 C0 6.03 0 3.06 0 0 Z " fill="#9E2533" transform="translate(250,78)"/>
<path d="M0 0 C0 0.99 0 1.98 0 3 C-2.31 3 -4.62 3 -7 3 C-4.49955934 -0.00052879 -4.2621484 0 0 0 Z " fill="#B20917" transform="translate(60,65)"/>
<path d="M0 0 C0.66 0 1.32 0 2 0 C2.33 2.31 2.66 4.62 3 7 C2.01 7 1.02 7 0 7 C0 4.69 0 2.38 0 0 Z " fill="#10394E" transform="translate(219,41)"/>
</svg>
